<?xml version="1.0" encoding="utf-8"?>
<svg id="master-artboard" viewBox="0 0 1400 980" version="1.1" xmlns="http://www.w3.org/2000/svg" x="0px" y="0px" width="1400px" height="980px" enable-background="new 0 0 1400 980">








<path id="XMLID_490_" fill="#FFFEFE" d="M574.4,779.5c-5.3,9.1-7.4,18.1-2.6,27.6c-8.4,0-16.6,0.1-24.8,0c-16-0.3-32.1-0.7-48.1-1&#10;&#9;&#9;c-26.3-0.5-52.7-0.5-79-1.6c-13.9-0.6-23.6-13-21.7-26.8c0.3-1.8,0.5-3.7,0.7-5.5c1.7,0.3,3.5,0.6,5.2,0.8&#10;&#9;&#9;c12.8,1.7,25.6,2.2,38.4,2.8c37.6,1.8,75.2,2.3,112.8,3.1C561.7,778.9,567.9,779.1,574.4,779.5z" transform="matrix(1, 0, 0, 1, 85.84406557278623, -217.78955000567305)"/><path id="XMLID_489_" fill="#FFFEFE" d="M653,624.4c0.4,5.4,0.4,10.9,3.3,15.8c0.3,0.6,0,1.1-0.2,1.7c-9.1,21-17,42.5-26.1,63.5&#10;&#9;&#9;c-11.7,26.8-24.9,52.8-37.9,79c-3.5,7.2-8.4,13.6-11.4,21c-0.9,2.2-1.7,1.5-2.8,0.1c-3.7-4.8-3.7-13-0.3-18&#10;&#9;&#9;c9-13.1,16-27.3,23.1-41.4c19.5-38.9,36-79,51.6-119.5C652.5,625.8,652.7,625.1,653,624.4z" transform="matrix(1, 0, 0, 1, 85.84406557278623, -217.78955000567305)"/><path id="XMLID_494_" fill="#111314" d="M566.4,588.6c28.4,0.9,56.8,1.7,85.2,2.7c3.5,0.1,7.1,0,10.6,0.9c1.2,0.3,1.3,0.6,1.1,2&#10;&#9;&#9;c-1.6,10.9-4.5,21.7-4.3,32.8c0.1,3.9,0.3,7.9,2.3,11.5c0.5,0.8,0.7,1.6,0,2.5c-4.5,6-5.8,13.3-8.2,20.2&#10;&#9;&#9;c-12.4,35.1-27.7,69-44.5,102.2c-7.1,14-14.3,28-21.2,42c-2.3,4.6-6.7,6.7-11.4,6.2c-2-0.2-3.9-0.1-5.7,0.6c-3.1,1-6.3,0.3-9.4,0.3&#10;&#9;&#9;c-18.4-0.1-36.8-0.5-55.2-0.8c-20.2-0.4-40.4-0.7-60.6-1.3c-10.4-0.3-20.7-1.1-31.1-2.3c-10.4-1.2-19.4-10.9-20.4-21.3&#10;&#9;&#9;c-0.4-4.7-1.6-9.3-1.1-14.1c0.4-3.8,1.3-7.2,3.7-10.4c1.5-1.9,2.2-4.4,3.3-6.6c10.6-22.6,23.2-44,35.1-65.8&#10;&#9;&#9;c15.7-28.9,31.7-57.6,47-86.8c0.6-1.2,0.9-2.4,1-3.8c0.2-3.7,1.7-7.2,4.2-9.9c1.8-1.9,4.6-1.6,7-1.6c12.2-0.1,24.3-0.1,36.5,0.3&#10;&#9;&#9;C542.5,588.3,554.5,588.1,566.4,588.6z M577.1,774.2c2,0.6,2.4-0.6,3-1.6c3.3-6.2,6.7-12.3,9.9-18.6c17.2-33.6,33-67.9,47.6-102.8&#10;&#9;&#9;c7.1-17,14.9-33.8,21.3-51.2c0.7-1.8,0.7-2.3-1.5-2.4c-11.4-0.3-22.7-0.8-34.1-1.1c-18-0.5-36-0.9-54-1.5c-26-0.8-52-1.5-78-3&#10;&#9;&#9;c-1.2-0.1-1.9,0.1-2.4,1.5c-4.2,10.8-8.6,21.5-13.7,31.8c-12.3,24.8-25.1,49.3-38.3,73.7c-12.1,22.4-24,45-36.1,67.4&#10;&#9;&#9;c-0.8,1.5-0.5,1.9,1,2c4.1,0.2,8.3,0.5,12.4,0.7c27,1.3,54,2.2,81,2.9C522.7,772.7,550.1,773,577.1,774.2z M574.4,779.5&#10;&#9;&#9;c-6.5-0.5-12.8-0.6-19-0.7c-37.6-0.7-75.2-1.3-112.8-3.1c-12.8-0.6-25.7-1.1-38.4-2.8c-1.7-0.2-3.5-0.5-5.2-0.8&#10;&#9;&#9;c-0.2,1.8-0.5,3.7-0.7,5.5c-1.9,13.8,7.8,26.2,21.7,26.8c26.3,1.2,52.6,1.1,79,1.6c16,0.3,32.1,0.7,48.1,1c8.2,0.1,16.4,0,24.8,0&#10;&#9;&#9;C567,797.6,569.1,788.6,574.4,779.5z M653,624.4c-0.3,0.7-0.6,1.4-0.8,2.2c-15.5,40.6-32.1,80.6-51.6,119.5&#10;&#9;&#9;c-7.1,14.1-14.1,28.3-23.1,41.4c-3.4,5-3.3,13.2,0.3,18c1,1.4,1.9,2.1,2.8-0.1c3-7.4,7.8-13.9,11.4-21c13-26.2,26.2-52.2,37.9-79&#10;&#9;&#9;c9.2-21,17-42.5,26.1-63.5c0.2-0.6,0.6-1.1,0.2-1.7C653.4,635.3,653.5,629.8,653,624.4z" transform="matrix(1, 0, 0, 1, 85.84406557278623, -217.78955000567305)"/><path id="XMLID_491_" fill="#7A8DAB" d="M577.1,774.2c-27-1.1-54.4-1.4-81.8-2.1c-27-0.7-54-1.5-81-2.9c-4.1-0.2-8.3-0.5-12.4-0.7&#10;&#9;&#9;c-1.5-0.1-1.8-0.5-1-2c12-22.5,23.9-45,36.1-67.4c13.2-24.3,26-48.8,38.3-73.7c5.1-10.4,9.5-21.1,13.7-31.8&#10;&#9;&#9;c0.5-1.4,1.2-1.5,2.4-1.5c26,1.5,52,2.1,78,3c18,0.6,36,0.9,54,1.5c11.4,0.3,22.7,0.8,34.1,1.1c2.2,0.1,2.1,0.6,1.5,2.4&#10;&#9;&#9;c-6.4,17.4-14.2,34.1-21.3,51.2C623,686,607.3,720.3,590,753.9c-3.2,6.2-6.6,12.4-9.9,18.6C579.6,773.6,579.1,774.7,577.1,774.2z&#10;&#9;&#9; M532.3,611.3c-8.3,0-14.7,0-21.2,0c-3.1,0-5.5-0.2-6.8,4.3c-1.9,6.7-5.4,12.9-8.9,19c-2.8,4.9-5.8,9.6-8.8,14.4&#10;&#9;&#9;c-2.1,3.4-0.9,5.7,3.1,6.1c0.6,0.1,1.2,0.1,1.8,0.1c26.2,0.1,52.4,2.4,78.5,4c6.3,0.4,12.7,0.4,19,0.6c1.4,0,3.2,0.1,3.4-2&#10;&#9;&#9;c0.2-1.8,1.2-3.1,2.1-4.5c2.8-4.4,6.3-8.4,8.2-13.4c2.4-6.1,5.5-11.8,9-17.3c0.6-0.9,1.1-1.9,1.5-2.9c1.1-2.9,0.2-4.5-3-4.9&#10;&#9;&#9;c-4.6-0.6-9.2-1-13.9-1c-6.6-0.1-13.3-0.1-19.9-0.3C561,612.8,545.7,612,532.3,611.3z" transform="matrix(1, 0, 0, 1, 85.84406557278623, -217.78955000567305)"/><path id="XMLID_486_" fill="#111314" d="M532.3,611.3c13.5,0.7,28.8,1.5,44.1,2.1c6.6,0.3,13.3,0.3,19.9,0.3&#10;&#9;&#9;c4.7,0.1,9.3,0.4,13.9,1c3.1,0.4,4.1,2,3,4.9c-0.4,1-0.9,2-1.5,2.9c-3.4,5.6-6.6,11.3-9,17.3c-1.9,5-5.4,8.9-8.2,13.4&#10;&#9;&#9;c-0.9,1.4-1.9,2.8-2.1,4.5c-0.2,2.1-2,2-3.4,2c-6.3-0.1-12.7-0.2-19-0.6c-26.2-1.7-52.3-3.9-78.5-4c-0.6,0-1.2,0-1.8-0.1&#10;&#9;&#9;c-4-0.5-5.2-2.7-3.1-6.1c3-4.8,6-9.5,8.8-14.4c3.4-6.1,7-12.3,8.9-19c1.3-4.4,3.7-4.2,6.8-4.3C517.5,611.3,524,611.3,532.3,611.3z&#10;&#9;&#9; M491.2,650.5c0.9,0.1,1.4,0.2,2,0.2c29.8,0.4,59.5,3,89.2,4.9c4.3,0.3,6.6-0.4,8.6-4.4c2.5-4.9,6.3-9.1,8.4-14.3&#10;&#9;&#9;c2-5,4.5-9.7,7.3-14.2c2.5-4,2.5-4.1-2.2-4.2c-22-0.8-44.1-1.6-66.1-2.5c-10.1-0.4-20.2-0.3-30.2-1.5c-1.4-0.2-1.4,0.5-1.6,1.4&#10;&#9;&#9;c-1.7,8.7-5.7,16.6-9.7,24.4C495.1,643.6,493.2,646.9,491.2,650.5z" transform="matrix(1, 0, 0, 1, 85.84406557278623, -217.78955000567305)"/><path id="XMLID_485_" fill="#FFFEFE" d="M491.2,650.5c2-3.6,3.9-6.9,5.6-10.2c4-7.8,7.9-15.7,9.7-24.4c0.2-0.9,0.2-1.5,1.6-1.4&#10;&#9;&#9;c10,1.2,20.1,1.1,30.2,1.5c22,0.9,44.1,1.6,66.1,2.5c4.7,0.2,4.7,0.3,2.2,4.2c-2.9,4.5-5.4,9.2-7.3,14.2c-2.1,5.2-5.9,9.4-8.4,14.3&#10;&#9;&#9;c-2,4-4.4,4.6-8.6,4.4c-29.7-1.9-59.4-4.5-89.2-4.9C492.7,650.6,492.1,650.5,491.2,650.5z" transform="matrix(1, 0, 0, 1, 85.84406557278623, -217.78955000567305)"/></svg>