<svg xmlns="http://www.w3.org/2000/svg" xmlns:xlink="http://www.w3.org/1999/xlink" width="1871.96" height="900.31" viewBox="0 0 1871.96 900.31">
  <defs>
    <style>
      .cls-1 {
        isolation: isolate;
      }

      .cls-11, .cls-14, .cls-2, .cls-36, .cls-56, .cls-64, .cls-72, .cls-86, .cls-89, .cls-91 {
        opacity: 0.2;
      }

      .cls-21, .cls-22, .cls-25, .cls-26, .cls-27, .cls-28, .cls-29, .cls-3, .cls-31, .cls-33, .cls-38, .cls-39, .cls-4, .cls-5, .cls-6, .cls-67, .cls-7, .cls-85, .cls-94 {
        fill: none;
      }

      .cls-21, .cls-22, .cls-25, .cls-26, .cls-27, .cls-28, .cls-29, .cls-3, .cls-31, .cls-33, .cls-35, .cls-4, .cls-5, .cls-6, .cls-67, .cls-7, .cls-94 {
        stroke-miterlimit: 10;
      }

      .cls-3, .cls-4, .cls-5, .cls-6, .cls-7 {
        stroke-width: 5.79px;
      }

      .cls-3, .cls-4 {
        stroke: url(#linear-gradient);
      }

      .cls-4 {
        stroke-dasharray: 17.44 17.44;
      }

      .cls-5, .cls-6 {
        stroke: url(#linear-gradient-4);
      }

      .cls-6 {
        stroke-dasharray: 17.11 17.11;
      }

      .cls-7 {
        stroke: url(#linear-gradient-6);
      }

      .cls-8 {
        opacity: 0.7;
      }

      .cls-9 {
        fill: #0052cc;
      }

      .cls-10 {
        opacity: 0.5;
      }

      .cls-11 {
        fill: url(#linear-gradient-7);
      }

      .cls-12 {
        fill: #4c9aff;
      }

      .cls-13 {
        opacity: 0.6;
      }

      .cls-14 {
        fill: url(#linear-gradient-8);
      }

      .cls-15 {
        fill: #344563;
      }

      .cls-16 {
        fill: #00b8d9;
      }

      .cls-17 {
        fill: #00a3bf;
      }

      .cls-18 {
        fill: #8c715d;
      }

      .cls-19 {
        fill: url(#linear-gradient-9);
      }

      .cls-20 {
        fill: #0065ff;
      }

      .cls-21, .cls-31, .cls-35 {
        stroke: #b2d4ff;
      }

      .cls-21, .cls-22, .cls-29, .cls-35, .cls-67 {
        stroke-width: 5.21px;
      }

      .cls-22, .cls-94 {
        stroke: #4c9aff;
      }

      .cls-23 {
        fill: #79e2f2;
      }

      .cls-24 {
        fill: url(#linear-gradient-10);
      }

      .cls-25, .cls-26, .cls-27, .cls-28 {
        stroke-width: 6.95px;
      }

      .cls-25, .cls-26 {
        stroke: url(#linear-gradient-11);
      }

      .cls-26 {
        stroke-dasharray: 18.29 18.29;
      }

      .cls-27, .cls-28 {
        stroke: url(#linear-gradient-14);
      }

      .cls-28 {
        stroke-dasharray: 17.14 17.14;
      }

      .cls-29 {
        stroke: #2684ff;
      }

      .cls-30, .cls-39, .cls-40, .cls-59, .cls-81 {
        mix-blend-mode: multiply;
      }

      .cls-31, .cls-33 {
        stroke-width: 4.59px;
      }

      .cls-32 {
        fill: #b2d4ff;
      }

      .cls-33 {
        stroke: #b3bac5;
      }

      .cls-34 {
        fill: #deebff;
      }

      .cls-35 {
        fill: #f4f5f7;
      }

      .cls-36 {
        fill: url(#linear-gradient-17);
      }

      .cls-37 {
        fill: url(#linear-gradient-18);
      }

      .cls-39 {
        stroke: #ebecf0;
      }

      .cls-39, .cls-85 {
        stroke-linecap: round;
        stroke-linejoin: round;
        stroke-width: 0;
      }

      .cls-40, .cls-58 {
        fill: #ebecf0;
      }

      .cls-41 {
        fill: #2684ff;
      }

      .cls-42 {
        fill: url(#linear-gradient-19);
      }

      .cls-43 {
        fill: #ffab00;
      }

      .cls-44 {
        fill: url(#linear-gradient-22);
      }

      .cls-45 {
        fill: url(#linear-gradient-23);
      }

      .cls-46 {
        fill: #ff8b00;
      }

      .cls-47 {
        fill: #253858;
      }

      .cls-48 {
        fill: url(#linear-gradient-25);
      }

      .cls-49 {
        fill: url(#linear-gradient-28);
      }

      .cls-50 {
        fill: #feefd3;
      }

      .cls-51 {
        fill: url(#New_Gradient_Swatch_6);
      }

      .cls-52 {
        fill: url(#New_Gradient_Swatch_6-2);
      }

      .cls-53 {
        fill: #fcb123;
      }

      .cls-54 {
        fill: #00c7e5;
      }

      .cls-55 {
        fill: #cea28b;
      }

      .cls-56 {
        fill: url(#linear-gradient-29);
      }

      .cls-57 {
        fill: url(#linear-gradient-30);
      }

      .cls-59, .cls-69 {
        fill: #dfe1e5;
      }

      .cls-60 {
        fill: url(#linear-gradient-31);
      }

      .cls-61 {
        fill: url(#linear-gradient-32);
      }

      .cls-62 {
        fill: url(#linear-gradient-33);
      }

      .cls-63 {
        fill: url(#linear-gradient-34);
      }

      .cls-64 {
        fill: url(#linear-gradient-35);
      }

      .cls-65 {
        fill: url(#linear-gradient-36);
      }

      .cls-66 {
        fill: url(#linear-gradient-37);
      }

      .cls-67 {
        stroke: #deebff;
      }

      .cls-68 {
        opacity: 0.1;
        fill: url(#linear-gradient-38);
      }

      .cls-70 {
        fill: url(#linear-gradient-39);
      }

      .cls-71 {
        fill: url(#linear-gradient-40);
      }

      .cls-72 {
        fill: url(#linear-gradient-41);
      }

      .cls-73 {
        fill: url(#linear-gradient-42);
      }

      .cls-74 {
        fill: #ff991f;
      }

      .cls-75 {
        fill: #172b4d;
      }

      .cls-76 {
        fill: #8e572a;
      }

      .cls-77 {
        fill: url(#linear-gradient-43);
      }

      .cls-78 {
        fill: #7d4921;
      }

      .cls-79 {
        fill: url(#linear-gradient-44);
      }

      .cls-80 {
        fill: url(#linear-gradient-45);
      }

      .cls-81 {
        fill: #ffebe5;
        opacity: 0.49;
      }

      .cls-82 {
        fill: url(#linear-gradient-46);
      }

      .cls-83 {
        fill: #ecc19c;
      }

      .cls-84 {
        fill: #fafbfc;
      }

      .cls-85 {
        stroke: #ffc400;
      }

      .cls-86 {
        fill: url(#linear-gradient-47);
      }

      .cls-87 {
        fill: url(#linear-gradient-48);
      }

      .cls-88 {
        fill: url(#radial-gradient);
      }

      .cls-89 {
        fill: url(#linear-gradient-49);
      }

      .cls-90 {
        fill: url(#linear-gradient-50);
      }

      .cls-91 {
        fill: url(#linear-gradient-51);
      }

      .cls-92 {
        fill: url(#linear-gradient-52);
      }

      .cls-93 {
        fill: url(#radial-gradient-2);
      }

      .cls-94 {
        stroke-width: 5.97px;
      }
    </style>
    <linearGradient id="linear-gradient" x1="286.52" y1="89.57" x2="286.52" y2="856.66" gradientUnits="userSpaceOnUse">
      <stop offset="0" stop-color="#deebff" stop-opacity="0"/>
      <stop offset="0.21" stop-color="#deebff"/>
      <stop offset="0.75" stop-color="#deebff"/>
      <stop offset="1" stop-color="#deebff" stop-opacity="0"/>
    </linearGradient>
    <linearGradient id="linear-gradient-4" x1="577.41" y1="699.57" x2="63.8" y2="699.57" xlink:href="#linear-gradient"/>
    <linearGradient id="linear-gradient-6" x1="577.41" y1="699.57" x2="63.8" y2="699.57" xlink:href="#linear-gradient"/>
    <linearGradient id="linear-gradient-7" y1="102.28" x2="165.68" y2="102.28" gradientUnits="userSpaceOnUse">
      <stop offset="0" stop-color="#fff" stop-opacity="0"/>
      <stop offset="0.05" stop-color="#fff" stop-opacity="0.07"/>
      <stop offset="0.25" stop-color="#fff" stop-opacity="0.35"/>
      <stop offset="0.45" stop-color="#fff" stop-opacity="0.58"/>
      <stop offset="0.63" stop-color="#fff" stop-opacity="0.76"/>
      <stop offset="0.78" stop-color="#fff" stop-opacity="0.89"/>
      <stop offset="0.91" stop-color="#fff" stop-opacity="0.97"/>
      <stop offset="1" stop-color="#fff"/>
    </linearGradient>
    <linearGradient id="linear-gradient-8" x1="282.15" y1="804.13" x2="454.51" y2="804.13" gradientUnits="userSpaceOnUse">
      <stop offset="0" stop-color="#091e42" stop-opacity="0"/>
      <stop offset="0.06" stop-color="#091e42" stop-opacity="0.08"/>
      <stop offset="0.45" stop-color="#091e42" stop-opacity="0.58"/>
      <stop offset="0.78" stop-color="#091e42" stop-opacity="0.89"/>
      <stop offset="1" stop-color="#091e42"/>
    </linearGradient>
    <linearGradient id="linear-gradient-9" x1="373.18" y1="668.1" x2="533.67" y2="507.61" gradientTransform="translate(-52.36 -11.75)" gradientUnits="userSpaceOnUse">
      <stop offset="0" stop-color="#b2d4ff"/>
      <stop offset="0.24" stop-color="#bfdbff"/>
      <stop offset="0.69" stop-color="#e2efff"/>
      <stop offset="1" stop-color="#fff"/>
    </linearGradient>
    <linearGradient id="linear-gradient-10" x1="277.91" y1="1001.19" x2="353.33" y2="1001.19" gradientTransform="matrix(1, 0.05, -0.05, 1, 146.6, -273.75)" gradientUnits="userSpaceOnUse">
      <stop offset="0.21" stop-color="#00a3bf"/>
      <stop offset="0.61" stop-color="#00acca"/>
      <stop offset="1" stop-color="#00b8d9"/>
    </linearGradient>
    <linearGradient id="linear-gradient-11" x1="1599.45" y1="347.37" x2="1599.45" y2="19.13" xlink:href="#linear-gradient"/>
    <linearGradient id="linear-gradient-14" x1="1341.76" y1="145.68" x2="1821.82" y2="145.68" xlink:href="#linear-gradient"/>
    <linearGradient id="linear-gradient-17" x1="1383.28" y1="848.5" x2="1854.26" y2="848.5" xlink:href="#linear-gradient-8"/>
    <linearGradient id="linear-gradient-18" x1="1616.7" y1="837.42" x2="1838.31" y2="615.81" gradientUnits="userSpaceOnUse">
      <stop offset="0.29" stop-color="#b2d4ff"/>
      <stop offset="0.43" stop-color="#b9d8ff"/>
      <stop offset="0.64" stop-color="#cee3ff"/>
      <stop offset="0.89" stop-color="#eff6ff"/>
      <stop offset="1" stop-color="#fff"/>
    </linearGradient>
    <linearGradient id="linear-gradient-19" x1="1654.81" y1="769.4" x2="1654.81" y2="568.37" gradientTransform="translate(284.45 -262.35) rotate(7.84)" gradientUnits="userSpaceOnUse">
      <stop offset="0" stop-color="#c1c7d0"/>
      <stop offset="1" stop-color="#fafbfc"/>
    </linearGradient>
    <linearGradient id="linear-gradient-22" x1="1662.92" y1="769.4" x2="1662.92" y2="568.37" xlink:href="#linear-gradient-19"/>
    <linearGradient id="linear-gradient-23" x1="1638.59" y1="769.4" x2="1638.59" y2="568.37" xlink:href="#linear-gradient-19"/>
    <linearGradient id="linear-gradient-25" x1="1673.11" y1="753.9" x2="1673.11" y2="552.88" gradientTransform="translate(157.42 -164.81) rotate(4.55)" gradientUnits="userSpaceOnUse">
      <stop offset="0" stop-color="#b2d4ff"/>
      <stop offset="1" stop-color="#deebff"/>
    </linearGradient>
    <linearGradient id="linear-gradient-28" x1="1665.33" y1="753.9" x2="1665.33" y2="552.88" xlink:href="#linear-gradient-25"/>
    <linearGradient id="New_Gradient_Swatch_6" data-name="New Gradient Swatch 6" x1="1629.49" y1="766.61" x2="1629.49" y2="503.22" gradientTransform="translate(188.45 -186.73) rotate(5.2)" gradientUnits="userSpaceOnUse">
      <stop offset="0" stop-color="#ffab00"/>
      <stop offset="1" stop-color="#ffe380"/>
    </linearGradient>
    <linearGradient id="New_Gradient_Swatch_6-2" x1="1629.49" y1="503.79" x2="1629.49" y2="502.66" xlink:href="#New_Gradient_Swatch_6"/>
    <linearGradient id="linear-gradient-29" x1="1053.11" y1="762.52" x2="1317.66" y2="762.52" xlink:href="#linear-gradient-8"/>
    <linearGradient id="linear-gradient-30" x1="-152.52" y1="432.38" x2="-27.66" y2="307.52" gradientTransform="translate(220.29 53.75)" gradientUnits="userSpaceOnUse">
      <stop offset="0" stop-color="#f4f5f7"/>
      <stop offset="0.84" stop-color="#fafbfc"/>
      <stop offset="1" stop-color="#fff"/>
    </linearGradient>
    <linearGradient id="linear-gradient-31" x1="23.79" y1="588.35" x2="164.92" y2="447.22" gradientUnits="userSpaceOnUse">
      <stop offset="0.35" stop-color="#4c9aff"/>
      <stop offset="0.39" stop-color="#5fa5ff"/>
      <stop offset="0.49" stop-color="#7db6ff"/>
      <stop offset="0.59" stop-color="#94c3ff"/>
      <stop offset="0.69" stop-color="#a5cdff"/>
      <stop offset="0.81" stop-color="#afd2ff"/>
      <stop offset="0.96" stop-color="#b2d4ff"/>
    </linearGradient>
    <linearGradient id="linear-gradient-32" x1="53.48" y1="588.93" x2="128.01" y2="588.93" gradientUnits="userSpaceOnUse">
      <stop offset="0.34" stop-color="#ffab00"/>
      <stop offset="0.76" stop-color="#ffe380"/>
    </linearGradient>
    <linearGradient id="linear-gradient-33" x1="-171.59" y1="351.74" x2="-8.58" y2="351.74" gradientTransform="translate(301.71 83.76) rotate(13.09)" gradientUnits="userSpaceOnUse">
      <stop offset="0" stop-color="#00b8d9"/>
      <stop offset="0.93" stop-color="#79e2f2"/>
    </linearGradient>
    <linearGradient id="linear-gradient-34" x1="-126.27" y1="395.59" x2="-52.62" y2="277.33" gradientTransform="translate(301.71 83.76) rotate(13.09)" gradientUnits="userSpaceOnUse">
      <stop offset="0" stop-color="#00b8d9"/>
      <stop offset="0.05" stop-color="#1ec2df"/>
      <stop offset="0.12" stop-color="#3fcee6"/>
      <stop offset="0.19" stop-color="#58d7eb"/>
      <stop offset="0.26" stop-color="#6bddef"/>
      <stop offset="0.34" stop-color="#75e1f1"/>
      <stop offset="0.43" stop-color="#79e2f2"/>
      <stop offset="1" stop-color="#b3f5ff"/>
    </linearGradient>
    <linearGradient id="linear-gradient-35" x1="24.22" y1="843.62" x2="195.69" y2="843.62" xlink:href="#linear-gradient-8"/>
    <linearGradient id="linear-gradient-36" x1="61.78" y1="770.01" x2="148.95" y2="770.01" gradientUnits="userSpaceOnUse">
      <stop offset="0.16" stop-color="#00b8d9"/>
      <stop offset="0.96" stop-color="#00c6e4"/>
      <stop offset="1" stop-color="#00c7e5"/>
    </linearGradient>
    <linearGradient id="linear-gradient-37" x1="657.28" y1="763.98" x2="835.36" y2="585.9" gradientTransform="matrix(1, 0.05, -0.05, 1, 88.85, -49.15)" gradientUnits="userSpaceOnUse">
      <stop offset="0" stop-color="#b2d4ff"/>
      <stop offset="0" stop-color="#b3d5ff"/>
      <stop offset="0.15" stop-color="#cfe4ff"/>
      <stop offset="0.31" stop-color="#e4f0ff"/>
      <stop offset="0.49" stop-color="#f3f8ff"/>
      <stop offset="0.7" stop-color="#fcfdff"/>
      <stop offset="1" stop-color="#fff"/>
    </linearGradient>
    <linearGradient id="linear-gradient-38" x1="623.98" y1="826.48" x2="810.02" y2="826.48" gradientTransform="translate(1590.83 102.73) rotate(90)" xlink:href="#linear-gradient-8"/>
    <linearGradient id="linear-gradient-39" x1="705.72" y1="740.31" x2="744" y2="740.31" gradientTransform="translate(81.84 -35.44) rotate(2.35)" gradientUnits="userSpaceOnUse">
      <stop offset="0" stop-color="#00a3bf"/>
      <stop offset="0.5" stop-color="#00b0cf"/>
      <stop offset="1" stop-color="#00b8d9"/>
    </linearGradient>
    <linearGradient id="linear-gradient-40" x1="714.68" y1="744.95" x2="777.02" y2="744.95" gradientTransform="translate(81.84 -35.44) rotate(2.35)" gradientUnits="userSpaceOnUse">
      <stop offset="0.4" stop-color="#00a3bf"/>
      <stop offset="0.7" stop-color="#00b0cf"/>
      <stop offset="1" stop-color="#00b8d9"/>
    </linearGradient>
    <linearGradient id="linear-gradient-41" x1="183.47" y1="444.66" x2="385.32" y2="444.66" xlink:href="#linear-gradient-7"/>
    <linearGradient id="linear-gradient-42" x1="104.87" y1="1001.31" x2="104.87" y2="926.55" gradientTransform="translate(1346.03 339.45) rotate(90)" gradientUnits="userSpaceOnUse">
      <stop offset="0" stop-color="#ffe380"/>
      <stop offset="0.11" stop-color="#ffda6c"/>
      <stop offset="0.4" stop-color="#ffc63e"/>
      <stop offset="0.65" stop-color="#ffb71c"/>
      <stop offset="0.86" stop-color="#ffae07"/>
      <stop offset="1" stop-color="#ffab00"/>
    </linearGradient>
    <linearGradient id="linear-gradient-43" x1="1528.13" y1="375.1" x2="1567.27" y2="375.1" gradientTransform="translate(181.06 81.42) rotate(4.26)" gradientUnits="userSpaceOnUse">
      <stop offset="0" stop-color="#00b8d9"/>
      <stop offset="1" stop-color="#00a3bf"/>
    </linearGradient>
    <linearGradient id="linear-gradient-44" x1="1575.88" y1="463.1" x2="1622.18" y2="416.8" gradientTransform="matrix(-1, -0.07, -0.07, 1, 3308.85, 314.53)" gradientUnits="userSpaceOnUse">
      <stop offset="0" stop-color="#00a3bf"/>
      <stop offset="1" stop-color="#00b8d9"/>
    </linearGradient>
    <linearGradient id="linear-gradient-45" x1="1516.63" y1="455.02" x2="1563.33" y2="455.02" gradientTransform="translate(181.06 81.42) rotate(4.26)" gradientUnits="userSpaceOnUse">
      <stop offset="0.24" stop-color="#00b8d9"/>
      <stop offset="1" stop-color="#00a3bf"/>
    </linearGradient>
    <linearGradient id="linear-gradient-46" x1="1576.41" y1="411.14" x2="1600.11" y2="411.14" gradientTransform="translate(181.06 81.42) rotate(4.26)" gradientUnits="userSpaceOnUse">
      <stop offset="0.18" stop-color="#00c7e5"/>
      <stop offset="1" stop-color="#00a3bf"/>
    </linearGradient>
    <linearGradient id="linear-gradient-47" x1="139.22" y1="889.34" x2="260.39" y2="889.34" xlink:href="#linear-gradient-8"/>
    <linearGradient id="linear-gradient-48" x1="2255.19" y1="4128.71" x2="2315.95" y2="4128.71" gradientTransform="matrix(0.98, 0.18, -0.18, 0.98, -1305.41, -3599.12)" gradientUnits="userSpaceOnUse">
      <stop offset="0" stop-color="#ffab00"/>
      <stop offset="0.28" stop-color="#ffbe2c"/>
      <stop offset="0.6" stop-color="#ffd259"/>
      <stop offset="0.85" stop-color="#ffde76"/>
      <stop offset="1" stop-color="#ffe380"/>
    </linearGradient>
    <radialGradient id="radial-gradient" cx="2250.01" cy="4125.74" r="27.46" gradientTransform="translate(4295.86 -1382.1) rotate(90)" gradientUnits="userSpaceOnUse">
      <stop offset="0.69" stop-color="#fffae5"/>
      <stop offset="0.72" stop-color="#fff8db"/>
      <stop offset="0.77" stop-color="#fff1be"/>
      <stop offset="0.83" stop-color="#ffe691"/>
      <stop offset="0.91" stop-color="#ffd751"/>
      <stop offset="1" stop-color="#ffc401"/>
      <stop offset="1" stop-color="#ffc400"/>
    </radialGradient>
    <linearGradient id="linear-gradient-49" x1="1568.58" y1="34.72" x2="1740.32" y2="34.72" xlink:href="#linear-gradient-7"/>
    <linearGradient id="linear-gradient-50" x1="2350.58" y1="26.92" x2="2350.58" y2="-41.33" gradientTransform="translate(-610.25 41.34)" xlink:href="#linear-gradient-42"/>
    <linearGradient id="linear-gradient-51" x1="1158.7" y1="684.23" x2="1275.38" y2="684.23" gradientTransform="matrix(-1, 0, 0, 1, 2265.76, 0)" gradientUnits="userSpaceOnUse">
      <stop offset="0" stop-color="#091e42"/>
      <stop offset="0.22" stop-color="#091e42" stop-opacity="0.89"/>
      <stop offset="0.55" stop-color="#091e42" stop-opacity="0.58"/>
      <stop offset="0.94" stop-color="#091e42" stop-opacity="0.08"/>
      <stop offset="1" stop-color="#091e42" stop-opacity="0"/>
    </linearGradient>
    <linearGradient id="linear-gradient-52" x1="3212.33" y1="3747.44" x2="3270.83" y2="3747.44" gradientTransform="matrix(-0.98, 0.18, 0.18, 0.98, 3571.17, -3599.12)" gradientUnits="userSpaceOnUse">
      <stop offset="0" stop-color="#4c9aff"/>
      <stop offset="0.14" stop-color="#5ea4ff"/>
      <stop offset="0.53" stop-color="#8bbeff"/>
      <stop offset="0.83" stop-color="#a8ceff"/>
      <stop offset="1" stop-color="#b2d4ff"/>
    </linearGradient>
    <radialGradient id="radial-gradient-2" cx="3207.34" cy="3744.58" r="26.44" gradientTransform="matrix(-1, 0, 0, 1, 4293.15, -3086.37)" gradientUnits="userSpaceOnUse">
      <stop offset="0.69" stop-color="#b2d4ff"/>
      <stop offset="0.74" stop-color="#a8ceff"/>
      <stop offset="0.83" stop-color="#8bbeff"/>
      <stop offset="0.96" stop-color="#5ea4ff"/>
      <stop offset="1" stop-color="#4c9aff"/>
    </radialGradient>
  </defs>
  <title>Hero</title>
  <g class="cls-1">
    <g id="Layer_2" data-name="Layer 2">
      <g id="Layer_1-2" data-name="Layer 1">
        <g class="cls-2">
          <g>
            <line class="cls-3" x1="286.52" y1="856.66" x2="286.52" y2="847.97"/>
            <line class="cls-4" x1="286.52" y1="830.53" x2="286.52" y2="106.98"/>
            <line class="cls-3" x1="286.52" y1="98.26" x2="286.52" y2="89.57"/>
          </g>
          <g>
            <line class="cls-5" x1="63.8" y1="699.57" x2="72.49" y2="699.57"/>
            <line class="cls-6" x1="89.6" y1="699.57" x2="560.16" y2="699.57"/>
            <line class="cls-7" x1="568.72" y1="699.57" x2="577.41" y2="699.57"/>
          </g>
        </g>
        <g class="cls-8">
          <path id="_Path_" data-name="&lt;Path&gt;" class="cls-9" d="M284,212.15l-34.2,7.73a28.41,28.41,0,0,0-21.45,34h0a28.41,28.41,0,0,0,34,21.45l1.6-.36a17.11,17.11,0,0,1,18.92,8.53l.09.17a.08.08,0,0,0,.16,0v-.19a17.11,17.11,0,0,1,13.41-15.84h0a28.41,28.41,0,0,0,21.45-34h0A28.41,28.41,0,0,0,284,212.15Z"/>
        </g>
        <g class="cls-10">
          <rect class="cls-11" y="67.79" width="165.68" height="68.99"/>
          <path id="_Path_2" data-name="&lt;Path&gt;" class="cls-12" d="M182.46,67.79h-34.9a28.28,28.28,0,0,0-28.28,28.28h0a28.28,28.28,0,0,0,28.28,28.28h1.63a17,17,0,0,1,16.49,12.43l0,.18a.08.08,0,0,0,.16,0l0-.18a17,17,0,0,1,16.49-12.43h0a28.28,28.28,0,0,0,28.28-28.28h0A28.28,28.28,0,0,0,182.46,67.79Z"/>
        </g>
        <g class="cls-8">
          <path id="_Path_3" data-name="&lt;Path&gt;" class="cls-9" d="M229.93,561.64,200.38,555A24.55,24.55,0,0,0,171,573.52h0a24.55,24.55,0,0,0,18.55,29.35l1.38.31a14.78,14.78,0,0,1,11.59,13.68V617a.07.07,0,0,0,.14,0l.07-.14a14.78,14.78,0,0,1,16.34-7.38h0A24.55,24.55,0,0,0,248.48,591h0A24.55,24.55,0,0,0,229.93,561.64Z"/>
        </g>
        <g class="cls-13">
          <path id="_Path_4" data-name="&lt;Path&gt;" class="cls-9" d="M1533.3,52.64l-35-7.51a29,29,0,0,0-34.41,22.24h0a29,29,0,0,0,22.24,34.41l1.63.35a17.45,17.45,0,0,1,13.84,16v.19a.08.08,0,0,0,.16,0l.09-.17a17.45,17.45,0,0,1,19.2-8.91h0a29,29,0,0,0,34.41-22.24h0A29,29,0,0,0,1533.3,52.64Z"/>
        </g>
        <g>
          <ellipse class="cls-14" cx="368.33" cy="804.13" rx="86.18" ry="11.12"/>
          <path class="cls-15" d="M432.85,789.08c.06,1.35.19,2.79.39,4.31a52.07,52.07,0,0,0,1.06,5.61,1.52,1.52,0,0,0,2,1.08l18.37-6.2a3.5,3.5,0,0,0-1.42-2.24c-1-.62-2.11-.2-3.49,0a14.9,14.9,0,0,1-8-1.32,11.7,11.7,0,0,1-3.88-3.1Z"/>
          <path class="cls-16" d="M367.74,660.75a4.91,4.91,0,0,1,.16-2.93c1.9-6,10.76-24.16,11.39-25.46l11.69-32a12.3,12.3,0,0,1,7.2,1.87q-4.57,14.87-8.79,31.14c-3.4,13.19-6.26,25.91-8.69,38.1a25.76,25.76,0,0,0-6.81-5.88C371.1,663.91,368.43,663.12,367.74,660.75Z"/>
          <path class="cls-17" d="M386.59,680.07a18.15,18.15,0,0,0-4.87,1.55c-6.51,3.16-9.57,9.64-12.46,16-.28.61-.44,1-.5,1.11a30.11,30.11,0,0,0-2.32,9.91c-.22,3.06-1.73,10.07-6.94,26.77-1.44,2-3.54,5.12-5.8,9.07a113.43,113.43,0,0,0-5.86,11.71,246.46,246.46,0,0,1-13.92,26.35l9.45,6c7.31-11.4,13.43-20.44,17.62-26.54,6.5-9.44,8.52-12,12.43-18.46,4.31-7.13,7.07-12.68,12.4-23.5,3.08-6.24,7.07-14.55,11.56-24.52A14.52,14.52,0,0,1,391,692C386.23,687.49,386.52,681.14,386.59,680.07Z"/>
          <path id="_Path_5" data-name="&lt;Path&gt;" class="cls-18" d="M385.31,632.34a1.71,1.71,0,0,1-.45.59,3.18,3.18,0,0,1-.62.49,14.78,14.78,0,0,1,1.81,6.82,13.1,13.1,0,0,1-1.79,2.7,11.7,11.7,0,0,1-6,3.94,11.23,11.23,0,0,1-7.44-1.12c-1.4-.64-8.8-4-8.78-10.75,0-6,5.89-11,10.86-10.86A9.22,9.22,0,0,1,379,626.4c1.57,1.54,1.65,2.54,3.82,3.91C383.79,630.95,385.45,631.75,385.31,632.34Z"/>
          <path class="cls-18" d="M367.64,642.33a12.06,12.06,0,0,1,4.71,10.23,10,10,0,0,0,7.46-.69,9.09,9.09,0,0,0,2.81-2.44l-1.36-6.61Z"/>
          <g>
            <rect class="cls-19" x="269.93" y="545.04" width="262.26" height="62.12" rx="2.9" ry="2.9" transform="matrix(1, -0.04, 0.04, 1, -20.68, 14.96)"/>
            <rect class="cls-20" x="286.65" y="565.66" width="28.19" height="28.19" rx="2.08" ry="2.08" transform="matrix(1, -0.04, 0.04, 1, -20.88, 11.32)"/>
            <polyline class="cls-21" points="293.14 579.19 298.2 584.07 309.03 573.55"/>
            <line class="cls-22" x1="334.94" y1="572.54" x2="473.75" y2="567.49"/>
            <line class="cls-22" x1="335.39" y1="584.96" x2="435.2" y2="581.33"/>
          </g>
          <path class="cls-18" d="M428.29,605.45a31.57,31.57,0,0,0,2.38-3.55,32,32,0,0,0,3.49-9,2.29,2.29,0,0,0-1.39-3,2,2,0,0,0-1.88.94,3.65,3.65,0,0,0-1.14.24c-2.09.82-2.68,3.35-2.76,3.74l-1.2,1.72-.77-1.71a2.22,2.22,0,0,0-1.35-1.21,2.17,2.17,0,0,0-1.5.11l1,2.63.64,7.06Z"/>
          <path class="cls-23" d="M383.54,650.25l22.91-18.94,16.69-30.47a12.3,12.3,0,0,1,6.6,3.42L416,635.58l-18.58,32.33q-2.52-3.56-5.34-7.24C389.19,657,386.34,653.49,383.54,650.25Z"/>
          <path class="cls-24" d="M373.7,694.27a18.53,18.53,0,0,0-1.86,5.55c-1.66,10.22,6.14,18.82,7.88,20.74,4,4.45,5.94,4.2,14.83,10.86a137.59,137.59,0,0,1,11.92,10,63.23,63.23,0,0,0,5.22,15.19c3.53,7.13,6.72,10.11,11.78,18a126.23,126.23,0,0,1,9.11,17l9.92-4.35c-3.17-9.46-6.77-19.3-10.86-29.45-3.87-9.59-7.88-18.51-8.36-19.58l0-.11a159.21,159.21,0,0,0-12.75-22.57c-2.92-4.51-7-11.11-11.68-19.81a26.55,26.55,0,0,1-9.47,2.4A27.39,27.39,0,0,1,373.7,694.27Z"/>
          <path class="cls-15" d="M374.62,638.48l1,3.29a1.62,1.62,0,0,1-.4,1.61,8.44,8.44,0,0,1-3.68,2.16l-.47.15a1.6,1.6,0,0,1-1.48-.25c-.36-.28-.76-.57-1.19-.86l0,0a15.8,15.8,0,0,1-4.58-4.53l-.5-.77a9,9,0,0,1-1.39-3.85h0a9,9,0,0,1,1.15-5.56h0a12,12,0,0,1,5.38-4.91l1.44-.66a3.42,3.42,0,0,0,1.39-1.05,1.59,1.59,0,0,1,1.7-.61l2,.52a1.63,1.63,0,0,1,.72.41l2.23,2.19a1.63,1.63,0,0,1,.47,1.41l-.24,1.53a10.64,10.64,0,0,1-.78,2.67l-.77,1.75a1.63,1.63,0,0,0,.14,1.57l.66,1-.19.91-.64-.13a1.63,1.63,0,0,0-1.84,1h0A1.63,1.63,0,0,0,374.62,638.48Z"/>
          <path class="cls-23" d="M372.56,652.12c2.05-1.6,4.28-2.29,8.15-2.87A67.39,67.39,0,0,1,398,649q1,7.22,1.76,15A305.82,305.82,0,0,1,401,696.92a27.46,27.46,0,0,1-34,6,54.2,54.2,0,0,1,.93-8.84c1.39-7.34,3.34-9.29,3.34-15,0-1.87-.44-4.16-1.3-8.75-.82-4.43-1.72-8.06-2.39-10.58A14.57,14.57,0,0,1,372.56,652.12Z"/>
          <path class="cls-15" d="M336.65,784.24a57.49,57.49,0,0,0-4.69,3.49c-1.41,1.17-2.67,2.32-3.79,3.43.27.74.57,1.49.92,2.26A30.71,30.71,0,0,0,336,803l9.12.06a2.26,2.26,0,0,0,0-.74c-.39-2.34-4.52-3.22-4.77-3.27a11,11,0,0,1-1.1-5,11.28,11.28,0,0,1,2.38-6.64Z"/>
        </g>
        <g class="cls-2">
          <g>
            <line class="cls-25" x1="1599.45" y1="19.13" x2="1599.45" y2="27.82"/>
            <line class="cls-26" x1="1599.45" y1="46.11" x2="1599.45" y2="329.54"/>
            <line class="cls-25" x1="1599.45" y1="338.68" x2="1599.45" y2="347.37"/>
          </g>
          <g>
            <line class="cls-27" x1="1821.82" y1="145.68" x2="1813.13" y2="145.68"/>
            <line class="cls-28" x1="1796" y1="145.68" x2="1359.02" y2="145.68"/>
            <line class="cls-27" x1="1350.45" y1="145.68" x2="1341.76" y2="145.68"/>
          </g>
        </g>
        <g>
          <g>
            <path id="_Path_6" data-name="&lt;Path&gt;" class="cls-12" d="M1595.53,795c-98.2-59.26-191.12-117.07-282.06-173.42,57.59-137.09,129.23-275.62,168.72-415.6q170.64.12,341.24.5C1766.88,405.36,1649.56,601.54,1595.53,795Z"/>
            <g class="cls-13">
              <path class="cls-29" d="M1338.88,562.69c93.11,48.45,186.86,98.18,283.34,149.2"/>
              <path class="cls-29" d="M1365.19,503.68c96.15,40.5,192.17,82.1,289.26,124.82"/>
              <path class="cls-29" d="M1391.61,444.48q149.66,48.76,298.48,100.27"/>
              <path class="cls-29" d="M1417.33,385.11q155.49,36.7,309.66,75.57"/>
              <path class="cls-29" d="M1441.54,325.56q161.25,24.57,321.43,50.71"/>
              <path class="cls-29" d="M1463.44,265.84q166.46,12.38,332.42,25.68"/>
              <path class="cls-29" d="M1749.61,206.28c-52.76,185.91-159.36,369.38-217.11,550.41"/>
              <path class="cls-29" d="M1684.1,206.17c-49.44,174.48-146.91,346.78-206.45,516.92"/>
              <path class="cls-29" d="M1625.56,206.08C1579,370.44,1489.42,532.86,1429.38,693.33"/>
              <path class="cls-29" d="M1572.94,206C1529,361.36,1446.21,515,1386.49,666.8"/>
              <path class="cls-29" d="M1525.38,206c-41.59,147.26-118.46,292.94-177.29,437"/>
            </g>
            <g class="cls-30">
              <path class="cls-31" d="M1500.82,498"/>
              <path class="cls-31" d="M1441.59,477.31"/>
              <path class="cls-31" d="M1635,426.7"/>
              <path class="cls-31" d="M1591.07,435.27"/>
              <path class="cls-31" d="M1645.71,548.57"/>
              <path class="cls-31" d="M1671.71,455.85"/>
              <path class="cls-31" d="M1567,521.09"/>
              <g>
                <path class="cls-31" d="M1468.51,582.81c11.34-26.21,23-52.48,34.72-78.79"/>
                <path class="cls-32" d="M1507.87,505.66c1.22-2.74.08-5.58-2.55-6.35a6.12,6.12,0,0,0-7,3.56c-1.22,2.73-.08,5.58,2.55,6.35A6.11,6.11,0,0,0,1507.87,505.66Z"/>
              </g>
              <g>
                <path class="cls-31" d="M1492.85,297.41c-10,27.26-20.9,54.46-32.26,81.6"/>
                <path class="cls-32" d="M1455.9,377.44c-1.14,2.73.08,5.54,2.73,6.27a6,6,0,0,0,6.88-3.61,4.45,4.45,0,0,0-2.74-6.28A6,6,0,0,0,1455.9,377.44Z"/>
              </g>
              <path class="cls-33" d="M1495,314.08l27.78,3.63"/>
              <path class="cls-33" d="M1499.59,301.87l44.29,5.11"/>
              <path class="cls-33" d="M1502,244.44q43.17,2,86.33,4"/>
              <path class="cls-33" d="M1497.75,257.43l62.42,3.89"/>
              <path class="cls-33" d="M1478,582.89l29.84,14"/>
              <path class="cls-33" d="M1483.87,569.48q23.79,10.67,47.63,21.43"/>
            </g>
          </g>
          <g>
            <path class="cls-34" d="M1540.94,786.35c-103.8-48.69-204.62-96-304-141.94,37.9-140.56,92.11-282.11,119.57-424.66q170.47-18.52,340.59-38C1664.31,385.19,1573.39,586.72,1540.94,786.35Z"/>
            <g class="cls-13">
              <path class="cls-21" d="M1254.06,584.12c100.54,37.7,201.6,76.56,304,116.56"/>
              <path class="cls-21" d="M1272.42,523.69q153.72,44.16,307.94,91.08"/>
              <path class="cls-21" d="M1291.27,463.15q157.37,31.71,314.43,65.49"/>
              <path class="cls-21" d="M1309.85,402.48q161.3,19.22,322.23,39.78"/>
              <path class="cls-21" d="M1327.43,341.7q165.1,6.69,330.05,14"/>
              <path class="cls-21" d="M1343.24,280.79q168.3-5.89,336.6-12"/>
              <path class="cls-21" d="M1623.48,190.15c-31.95,189.94-113.9,378.21-149.51,564.8"/>
              <path class="cls-21" d="M1558.11,197.51c-31,178.12-105.54,354.75-142.94,529.89"/>
              <path class="cls-21" d="M1499.69,204c-30.13,167.67-98.34,334-136.62,499"/>
              <path class="cls-21" d="M1447.15,209.84c-29.22,158.38-92.07,315.55-130.59,471.51"/>
              <path class="cls-21" d="M1399.66,215.05c-28.33,150-86.55,299-124.91,446.87"/>
            </g>
            <g class="cls-30">
              <path class="cls-21" d="M1340.57,516.14c-22.33-5.77-32.28-33.8-23.26-62.87s34.17-50.73,57.43-48.08c24.53,2.78,37.53,31.51,27.51,63.79S1364.08,522.21,1340.57,516.14Z"/>
              <path class="cls-21" d="M1344,505c-18-4.38-26.17-26.86-18.89-50.34s27.65-40.76,46.26-38.38c19.42,2.48,29.52,25.4,21.6,50.93S1362.78,509.61,1344,505Z"/>
              <path class="cls-21" d="M1402.25,469l38.49,7.21"/>
              <path class="cls-21" d="M1392.34,433q-33.62,27.12-67.36,53.92"/>
              <path class="cls-21" d="M1372.37,497.56c-9.47-24-18.92-47.85-28.55-71.64"/>
              <path class="cls-21" d="M1538.54,454.59q-43.12,30.85-86.24,61.24"/>
              <path class="cls-21" d="M1515.25,530.43c-13.75-28.63-27.34-57.11-41.11-85.45"/>
              <path class="cls-21" d="M1359.45,416.61"/>
              <path class="cls-21" d="M1408,507.32"/>
              <path class="cls-21" d="M1421.48,425.31"/>
              <path class="cls-21" d="M1346.85,493.31"/>
              <path class="cls-35" d="M1363.52,461.78c-1.29,4.16-4.91,7-8.07,6.41s-4.63-4.42-3.36-8.52,4.84-7,8-6.43S1364.81,457.62,1363.52,461.78Z"/>
              <path class="cls-21" d="M1533.51,421.67"/>
              <path class="cls-21" d="M1374.74,405.19l14.37,1.65c8.75,1,17.94-10.44,16.29-20.52h0q-1.89-10.81-3.86-21.6c-.69-4,2.67-7.76,6.34-7.56l16.7.93c2.11.12,3.24,2.31,2.51,4.9l-.08.28c-.74,2.59-3.05,4.57-5.16,4.43h0c-4.74-.31-9.47,5.75-8.59,10.94q.85,4.27,1.69,8.54,2.29,13.56,4.46,27.14"/>
              <path class="cls-21" d="M1513.92,421.41h0c-20.21-2.4-34.57-16.43-38.51-36.56q-4.15-21.14-8.64-42.23-.71-2.82-1.43-5.64a3.68,3.68,0,0,0-3.55-2.94l-16.37-.45c-2.31-.06-4.78,2.12-5.54,4.88h0c-.76,2.76.49,5.07,2.79,5.16l11.18.43a3.68,3.68,0,0,1,3.52,3.15q4.54,22.11,8.67,44.28c1.67,8.91-1.47,19.42-8.19,27.44h0c-14.29,17-35.49,14-38.46-4.61"/>
              <path class="cls-21" d="M1474.24,551c-29.57-7.84-44-41.14-33.51-74.81s42.44-58.38,73.18-54.77c32.69,3.82,51.35,38.19,39.62,76.24S1505.63,559.32,1474.24,551Z"/>
              <path class="cls-21" d="M1478.17,538c-23.86-6-35.64-32.69-27.19-59.93s34.39-46.94,59-43.7c25.85,3.4,40.36,30.8,31.1,60.84S1503.19,544.3,1478.17,538Z"/>
              <path class="cls-21" d="M1490.78,435"/>
              <path class="cls-21" d="M1557.59,541.62"/>
              <path class="cls-21" d="M1573.2,446.6"/>
              <path class="cls-21" d="M1476.33,523"/>
              <path class="cls-35" d="M1501.7,487.73c-1.5,4.86-6.14,8.12-10.33,7.28s-6.31-5.38-4.83-10.16,6-8.06,10.22-7.3S1503.2,482.86,1501.7,487.73Z"/>
              <g>
                <path class="cls-21" d="M1527.76,402.15c9-30.27,17.6-60.57,25.45-90.93"/>
                <path class="cls-32" d="M1532.83,402.7a6.1,6.1,0,0,1-6.53,4.34,4.46,4.46,0,0,1-3.47-5.94,6.1,6.1,0,0,1,6.52-4.34A4.46,4.46,0,0,1,1532.83,402.7Z"/>
              </g>
              <g>
                <path class="cls-21" d="M1317.39,574.19q6.41-21.5,13.05-43"/>
                <path class="cls-32" d="M1335.36,532.27a4.42,4.42,0,0,0-3.43-5.89,6,6,0,0,0-6.54,4.19,4.42,4.42,0,0,0,3.44,5.89A6,6,0,0,0,1335.36,532.27Z"/>
              </g>
              <g>
                <path class="cls-21" d="M1376,308.57c-7.18,27.81-15,55.58-23.25,83.32"/>
                <path class="cls-32" d="M1347.85,390.86a4.4,4.4,0,0,0,3.5,5.83,6.07,6.07,0,0,0,6.5-4.27,4.4,4.4,0,0,0-3.51-5.83A6.07,6.07,0,0,0,1347.85,390.86Z"/>
              </g>
              <path class="cls-21" d="M1380,324.67l28.36.52"/>
              <path class="cls-21" d="M1383.28,312.2l45.12.17"/>
              <path class="cls-21" d="M1558.51,330.55l40.68.9"/>
              <path class="cls-21" d="M1562.53,315.4l64.94.45"/>
              <path class="cls-21" d="M1379.85,255.55q43.45-2.76,86.91-5.55"/>
              <path class="cls-21" d="M1376.84,268.79l63-3"/>
              <path class="cls-21" d="M1329.79,572.68q18.15,5.89,36.32,11.83"/>
              <path class="cls-21" d="M1334.47,557.1q28.91,8.89,57.85,17.88"/>
              <g>
                <path class="cls-21" d="M1282.17,609.88q106.76,42.28,215,86.38"/>
                <path class="cls-21" d="M1286,596.62q107.06,40.43,215.35,82.59"/>
                <path class="cls-21" d="M1278.42,623.14q70.92,29.39,142.61,59.62"/>
              </g>
            </g>
          </g>
        </g>
        <g>
          <ellipse class="cls-36" cx="1618.77" cy="848.5" rx="235.49" ry="48.41"/>
          <g>
            <path id="_Path_7" data-name="&lt;Path&gt;" class="cls-37" d="M1848.93,626.44H1606.07l24.77,224.43h0c0,6.35,43.28,11.5,96.66,11.5s96.66-5.15,96.66-11.5h0Z"/>
            <polygon class="cls-38" points="1801.03 853.46 1801.03 756.88 1693.32 853.46 1801.03 853.46"/>
            <line class="cls-39" x1="1805.06" y1="691.84" x2="1805.06" y2="691.84"/>
            <path class="cls-40" d="M1805.06,691.84l-174.5,156.47.28,2.56c0,6.35,43.28,11.5,96.66,11.5s96.66-5.15,96.66-11.5h0l21.58-195.51Zm-4,161.62H1693.32L1801,756.88Z"/>
          </g>
          <ellipse class="cls-41" cx="1727.5" cy="626.44" rx="121.43" ry="14.45"/>
          <g>
            <g>
              <polygon class="cls-42" points="1826.48 550.9 1826.48 550.9 1826.48 550.9 1842.54 553.12 1858.61 555.33 1859.29 550.41 1827.15 545.99 1826.44 551.13 1826.44 551.13 1826.48 550.9"/>
              <polygon class="cls-42" points="1860.64 540.56 1862.27 528.77 1830.13 524.35 1828.5 536.2 1828.51 536.13 1860.64 540.56"/>
              <path class="cls-42" d="M1825.12,560.76l-10.43,75.73c19.54-2.4,32.15-5.6,34-9.15l8.56-62.16Z"/>
              <polygon class="cls-43" points="1858.61 555.33 1858.08 559.16 1858.61 555.33 1842.54 553.12 1858.61 555.33"/>
              <polygon class="cls-44" points="1858.61 555.33 1858.08 559.16 1858.61 555.33 1842.54 553.12 1858.61 555.33"/>
              <polygon class="cls-43" points="1826.44 551.13 1826.48 550.9 1826.48 550.9 1826.44 551.13"/>
              <polygon class="cls-45" points="1826.44 551.13 1826.48 550.9 1826.48 550.9 1826.44 551.13"/>
              <polygon class="cls-43" points="1828.5 536.2 1828.51 536.13 1828.5 536.2 1827.79 541.38 1828.5 536.2"/>
              <polygon class="cls-45" points="1828.5 536.2 1828.51 536.13 1828.5 536.2 1827.79 541.38 1828.5 536.2"/>
              <rect class="cls-46" x="1847.47" y="472.44" width="10.52" height="13.51" transform="matrix(0.14, -0.99, 0.99, 0.14, 1125.13, 2249.18)"/>
              <polygon class="cls-43" points="1832.16 481.67 1830.18 524.35 1862.33 528.78 1871.96 487.16 1858.7 485.33 1845.32 483.49 1832.16 481.67"/>
              <polygon class="cls-43" points="1857.25 565.18 1857.97 559.94 1858.61 555.33 1858.61 555.33 1858.08 559.16 1858.61 555.33 1842.54 553.12 1826.48 550.9 1826.48 550.9 1826.44 551.13 1826.44 551.13 1826.43 551.2 1825.57 557.49 1825.12 560.76 1825.12 560.76 1825.12 560.76 1825.12 560.76 1857.25 565.18 1857.25 565.18"/>
              <polygon class="cls-43" points="1859.29 550.41 1860.64 540.56 1860.64 540.56 1828.51 536.13 1828.5 536.2 1827.79 541.38 1828.5 536.2 1827.62 542.63 1827.15 545.99 1827.15 545.99 1859.29 550.41 1859.29 550.41"/>
            </g>
            <g>
              <path class="cls-47" d="M1792.7,582.06l-3,56.79c12-.85,22.58-1.94,31.41-3.21l2.79-51.91-31.08-1.67Z"/>
              <path class="cls-47" d="M1828.59,495.53l.82-15.28-31.15-1.67-.82,15.29h.08Z"/>
              <path class="cls-15" d="M1829,495.55l-.46,0-31.08-1.67h-.08a4.64,4.64,0,0,0-4.81,4.71l.11,7a612.43,612.43,0,0,1-3.46,64.41l-.86,6.92a4.64,4.64,0,0,0,4.28,5.19h.08l31.08,1.67.46,0a4.64,4.64,0,0,0,4.89-4.71l-.11-7a612.4,612.4,0,0,1,3.46-64.41l.86-6.92A4.64,4.64,0,0,0,1829,495.55Z"/>
              <path class="cls-15" d="M1820.12,438.18a1.5,1.5,0,0,0-1.37-1.13l-4.88-.26a1.5,1.5,0,0,0-1.48,1l-14.13,40.82,31.15,1.67Z"/>
              <path class="cls-15" d="M1817.63,431.51a1.09,1.09,0,0,0-2.1-.11l-1.81,5.39,5.14.28Z"/>
            </g>
            <g>
              <polygon class="cls-41" points="1792.36 466.62 1778.89 465.55 1778.06 476.03 1784.65 476.56 1791.54 476.98 1792.36 466.62"/>
              <polygon class="cls-12" points="1784.65 476.56 1764.4 475.32 1765.66 517.73 1781.67 519.01 1798.06 520.01 1804.5 477.77 1791.54 476.98 1784.65 476.56"/>
              <polygon class="cls-48" points="1765.66 517.73 1765.25 517.7 1764.31 529.56 1796.64 532.13 1797.59 520.27 1781.67 519.01 1765.67 518.03 1765.66 517.73"/>
              <polygon class="cls-48" points="1762.49 552.42 1763.13 544.42 1795.46 546.99 1795.85 542.05 1763.52 539.48 1762.49 552.42"/>
              <path class="cls-48" d="M1762.34,554.34l-6.85,86.16c11.62-.33,22.6-.85,32.66-1.54l6.9-86.73-.37,4.69Z"/>
              <polygon class="cls-12" points="1765.67 518.03 1781.67 519.01 1765.66 517.73 1765.67 518.03"/>
              <polygon class="cls-49" points="1765.67 518.03 1781.67 519.01 1765.66 517.73 1765.67 518.03"/>
              <polygon class="cls-32" points="1762.49 552.42 1762.34 554.34 1762.34 554.34 1794.67 556.91 1795.05 552.22 1795.46 546.99 1795.46 546.99 1763.13 544.42 1762.49 552.42"/>
              <polygon class="cls-32" points="1764.31 529.56 1763.52 539.48 1763.52 539.48 1795.85 542.05 1795.85 542.05 1796.64 532.13 1796.64 532.13 1764.31 529.56 1764.31 529.56"/>
            </g>
            <g>
              <polygon class="cls-50" points="1758.22 461.36 1773.1 462.71 1765.8 436.96 1755.17 436 1761.74 422.65 1761.74 422.65 1743.34 460 1758.22 461.36 1758.22 461.36"/>
              <path class="cls-51" d="M1773.1,462.71l-14.88-1.35L1741.9,640.78q7.67-.11,15-.33l16.17-177.74Z"/>
              <polygon class="cls-50" points="1758.22 461.36 1773.1 462.71 1773.1 462.71 1758.22 461.36 1758.22 461.36"/>
              <polygon class="cls-52" points="1758.22 461.36 1773.1 462.71 1773.1 462.71 1758.22 461.36 1758.22 461.36"/>
              <polygon class="cls-15" points="1765.8 436.96 1765.8 436.96 1761.74 422.65 1761.74 422.65 1755.17 436 1765.8 436.96"/>
              <path class="cls-53" d="M1758.22,461.36h0L1743.34,460h0l-16.45,180.88h.61q7.31,0,14.4-.1l16.32-179.42Z"/>
            </g>
          </g>
        </g>
        <g>
          <path class="cls-54" d="M1243,443.83l24.85,4.94,28.8,2.56-.07,4.33a239.62,239.62,0,0,1-57.7-2Z"/>
          <g>
            <path id="_Path_8" data-name="&lt;Path&gt;" class="cls-12" d="M1372.1,512.53l1.85,1.38,6.8-9.09-2.5-1.87a22.73,22.73,0,0,1-8.5-12.94l-.15-.64a22.73,22.73,0,0,0-8.5-12.94L1197.28,353.86a17.38,17.38,0,0,0-24.33,3.5h0a17.38,17.38,0,0,0,3.5,24.33l163.16,122.07a22.73,22.73,0,0,0,16.24,4.38h0A22.73,22.73,0,0,1,1372.1,512.53Z"/>
            <path class="cls-20" d="M1278.23,457.84c-2.92-8.9-6.13-21-8.59-30.29-2.56-9.65-4.77-17.81-6.8-24.65l-12.74-9.53c3.67,10.24,7.79,25.77,10.64,36.54,1.88,7.11,3.54,13.28,5.06,18.63Z"/>
            <path class="cls-20" d="M1202.9,358.06c14.86,48.3,22.92,57.82,30.72,56.68,7-1,8.82-10.37,10.78-20.27.26-1.34.59-3,1-4.65l-8-6c-.75,2.66-1.36,5.68-2,8.86-.71,3.58-1.94,9.83-3.22,12.35-2.07-2-7.22-9.44-16.53-37.47Z"/>
            <path class="cls-20" d="M1285.81,420.08c-.81,21.72-2.08,34-3.25,41l8.12,6.08c1.76-7.43,3.16-19.8,4.07-40.37Z"/>
            <path class="cls-20" d="M1384.81,516.93l1.35-4.87a1.69,1.69,0,0,0-.62-1.81l-5.68-4.25-4.85,6.49,7.14,5.35A1.69,1.69,0,0,0,1384.81,516.93Z"/>
          </g>
          <path class="cls-15" d="M1190.35,568.79a14.51,14.51,0,0,0-6.63,4.5c.21.58.45,1.18.73,1.79a24.3,24.3,0,0,0,5.5,7.57l7.22,0a1.79,1.79,0,0,0,0-.59c-.31-1.85-3.58-2.55-3.78-2.59a9.17,9.17,0,0,1,0-7.8Z"/>
          <circle class="cls-47" cx="1218.5" cy="453.53" r="14.27"/>
          <path class="cls-16" d="M1222.75,474.32c4.81-4,15.95-2.14,19.31,3.59,3.51,6-1.56,15.93-7.61,27.6-1.67,3.22-4.22,7.93-15.72,26.28-6.39,10.18-7.69,12.06-11.73,18.63-5.78,9.4-10.25,17.15-13.08,22.16l-6.2-2.91c3-7,5.22-12.83,6.66-16.78,3.05-8.34,4.31-12.85,7.59-20,2.16-4.7,4.21-8.39,5.56-10.71q1.94-5.71,3.82-11.59,3.66-11.44,6.8-22.47a18.61,18.61,0,0,1,.89-7.5C1219.43,479.45,1220.54,476.17,1222.75,474.32Z"/>
          <path class="cls-15" d="M1234.67,573.85c-.28,1-.54,2.08-.76,3.23a40,40,0,0,0-.59,4.35,1.17,1.17,0,0,0,1.17,1.26l14.91-.06a2.69,2.69,0,0,0-.49-2c-.6-.71-1.49-.66-2.55-.83a11.46,11.46,0,0,1-5.53-2.91,9,9,0,0,1-2.08-3.2Z"/>
          <path class="cls-54" d="M1231.72,468.25c.48-.13,5.6-1.39,9.71,1.43,3.65,2.5,5.36,7.41,5.12,25.79-.12,9.14-.7,19.06-2.3,33.92-1.2,11.18-1.76,13.8-2.66,23.73-.83,9.23-1.24,16.8-1.45,21.81l-7.42.43c-1.63-9.23-2.69-17-3.4-23-.73-6.15-1-9.89-.5-14.49a73.38,73.38,0,0,1,2.41-11.41c.35-1.18.72-2.26,1.06-3.23-.46-2.49-1.21-6.35-2.27-11.07-1.32-5.86-2.48-11-4.37-17.52-3.18-10.9-4.47-12-3.68-15.6C1222.95,474.67,1226.36,469.66,1231.72,468.25Z"/>
          <path class="cls-47" d="M1247.5,429a11.77,11.77,0,0,1,.28,8.08,10.08,10.08,0,0,1-4.23,5.38,7.3,7.3,0,0,1-2.72.9,5.28,5.28,0,0,1-2.62-.19c-2.94-1.6.39-14.12,4.63-17.25a2.6,2.6,0,0,1,2-.66C1246.3,425.48,1247.06,427.67,1247.5,429Z"/>
          <path class="cls-23" d="M1218.5,481.77a24.81,24.81,0,0,0,31.32-.45,21.08,21.08,0,0,1-2.31-4.7,22.56,22.56,0,0,1-.29-13.74c1-3.06,1.94-3.41,2-5.79,0-1.08-.17-1.56-1.6-6.7-1-3.77-1.08-4-1.43-4.49s-2-2.46-8-2.77A32,32,0,0,0,1222,447a102.3,102.3,0,0,0,1.59,10.77c1.16,5.7,2.17,8.13,1.05,11.5-.53,1.6-1,1.73-2.79,5.15A65.48,65.48,0,0,0,1218.5,481.77Z"/>
          <path id="_Path_9" data-name="&lt;Path&gt;" class="cls-55" d="M1247.19,433.66a2.41,2.41,0,0,1-.59.53,6.8,6.8,0,0,1-.74.5c0,.51,0,1,0,1.59a25.31,25.31,0,0,1-.36,2.94,20.51,20.51,0,0,1-3.06.56,15.88,15.88,0,0,1-5.58-.22,10.12,10.12,0,0,1-3.55-1.41c-2.5-1.75-4.7-6-3-10s7.24-5.94,10.66-4.45a6.93,6.93,0,0,1,3.59,3.31c.4.93.19,1,.85,2.61a16.23,16.23,0,0,0,.69,1.47C1246.8,432.56,1247.43,433.17,1247.19,433.66Z"/>
          <path class="cls-55" d="M1232.77,435.51a8.89,8.89,0,0,1,.34,8.3q2.08,1.38,4.22,2.88,3.07,2.16,5.86,4.31l-2.47-6.32a20.93,20.93,0,0,1,.5-4.93Z"/>
          <path class="cls-55" d="M1223.19,399.7l1.55-6a23.07,23.07,0,0,0-.33-3.49c-.15-.89-.34-1.6-.92-1.92a1.39,1.39,0,0,0-.65-.16.93.93,0,0,0-.23-.94.88.88,0,0,0-.94-.21.86.86,0,0,0-.52.78,1,1,0,0,0-.64,0c-.83.29-1.16,2-.85,4.37-.69-1.07-1.58-1.62-2.17-1.41a.87.87,0,0,0-.41.34l1.45,2.79a6.67,6.67,0,0,0,.28,2,6.82,6.82,0,0,0,1.73,2.87Z"/>
          <path class="cls-47" d="M1241.77,431.26c-.83,1-1.26.52-2.06,1.43-1.68,1.91,0,4.33-1.56,6.09-.75.84-1.5.25-2.11,1.08-.89,1.21.53,2.54,0,4.62a5,5,0,0,1-3.25,3.4c-1.8.5-2.61-.79-4-.29-1.94.73-1.11,3.88-3,5.77-2.5,2.49-8.32,2.69-12.12-.39s-4-8.16-3.17-11.27a12.3,12.3,0,0,1,5.54-7.25c2.58-1.51,4.15-.95,6.62-3,1.12-.93,1.24-.93,3.25-4a15.73,15.73,0,0,1,5.24-5.48,11.67,11.67,0,0,1,7.4-1.08c1.63.22,4.73.64,5.78,2.77a3.52,3.52,0,0,1,.18,2.89c-.2.38-.38.44-.77.85C1242.44,428.75,1242.84,430,1241.77,431.26Z"/>
          <path class="cls-23" d="M1232.77,451.12l-5.65-24.7-3.39-28.71-4.33.19a239.62,239.62,0,0,0,3.66,57.61Z"/>
        </g>
        <g>
          <ellipse class="cls-56" cx="1185.39" cy="762.52" rx="132.27" ry="11.06"/>
          <g>
            <g>
              <path class="cls-41" d="M1257.74,760.54a2.9,2.9,0,0,1-2.71-1.87l-62.4-164.47a2.9,2.9,0,0,1,5.42-2.05l62.4,164.47a2.9,2.9,0,0,1-2.71,3.92Z"/>
              <path class="cls-41" d="M1312,760.54a2.9,2.9,0,0,1-2.71-1.87l-62.4-164.47a2.9,2.9,0,0,1,5.42-2.05l62.4,164.47a2.9,2.9,0,0,1-2.71,3.92Z"/>
            </g>
            <g>
              <path class="cls-41" d="M1257.59,617.18h-54.24a2.9,2.9,0,1,1,0-5.79h54.24a2.9,2.9,0,0,1,0,5.79Z"/>
              <path class="cls-41" d="M1266.59,640.91h-54.24a2.9,2.9,0,0,1,0-5.79h54.24a2.9,2.9,0,0,1,0,5.79Z"/>
              <path class="cls-41" d="M1275.6,664.64h-54.24a2.9,2.9,0,0,1,0-5.79h54.24a2.9,2.9,0,1,1,0,5.79Z"/>
              <path class="cls-41" d="M1284.6,688.37h-54.24a2.9,2.9,0,0,1,0-5.79h54.24a2.9,2.9,0,0,1,0,5.79Z"/>
              <path class="cls-41" d="M1293.6,712.09h-54.24a2.9,2.9,0,1,1,0-5.79h54.24a2.9,2.9,0,0,1,0,5.79Z"/>
              <path class="cls-41" d="M1302.6,735.82h-54.24a2.9,2.9,0,0,1,0-5.79h54.24a2.9,2.9,0,0,1,0,5.79Z"/>
            </g>
            <g>
              <path class="cls-12" d="M1168.5,760.54a2.9,2.9,0,0,1-2.71-3.92l62.4-164.47a2.9,2.9,0,1,1,5.42,2.05l-62.4,164.47A2.9,2.9,0,0,1,1168.5,760.54Z"/>
              <path class="cls-12" d="M1114.27,760.54a2.9,2.9,0,0,1-2.71-3.92L1174,592.15a2.9,2.9,0,1,1,5.42,2.05L1117,758.67A2.9,2.9,0,0,1,1114.27,760.54Z"/>
            </g>
            <rect class="cls-32" x="1166.88" y="582.69" width="93.49" height="12.77" rx="6.39" ry="6.39"/>
            <rect class="cls-12" x="1231.93" y="582.69" width="28.44" height="12.77" rx="6.39" ry="6.39"/>
            <g>
              <path class="cls-12" d="M1222.89,617.18h-54.24a2.9,2.9,0,0,1,0-5.79h54.24a2.9,2.9,0,0,1,0,5.79Z"/>
              <path class="cls-12" d="M1213.89,640.91h-54.24a2.9,2.9,0,0,1,0-5.79h54.24a2.9,2.9,0,0,1,0,5.79Z"/>
              <path class="cls-12" d="M1204.89,664.64h-54.24a2.9,2.9,0,0,1,0-5.79h54.24a2.9,2.9,0,0,1,0,5.79Z"/>
              <path class="cls-12" d="M1195.88,688.37h-54.24a2.9,2.9,0,0,1,0-5.79h54.24a2.9,2.9,0,0,1,0,5.79Z"/>
              <path class="cls-12" d="M1186.88,712.09h-54.24a2.9,2.9,0,1,1,0-5.79h54.24a2.9,2.9,0,0,1,0,5.79Z"/>
              <path class="cls-12" d="M1177.88,735.82h-54.24a2.9,2.9,0,0,1,0-5.79h54.24a2.9,2.9,0,0,1,0,5.79Z"/>
            </g>
          </g>
        </g>
        <g>
          <path class="cls-17" d="M81.39,695.21,88.31,666,92.6,632.1l5.12.27a283.52,283.52,0,0,1-.29,32.72,283.56,283.56,0,0,1-4.61,35.42Z"/>
          <g>
            <g>
              <rect id="_Rectangle_" data-name="&lt;Rectangle&gt;" class="cls-57" x="51.48" y="377.55" width="157.43" height="92.3" transform="translate(99.32 -18.48) rotate(13.09)"/>
              <path class="cls-38" d="M79,412.55a7.81,7.81,0,0,0-2,9.08,13,13,0,0,1,1,3.41l3.25-14a13.66,13.66,0,0,0-1.65,1Z"/>
              <path class="cls-58" d="M110.92,466.6l12.53,2.91,5.14,1.19,10.93-47c-4.31-1.86-9.79-4.21-16.94-7.24Z"/>
              <path class="cls-58" d="M86.59,409.63a15.58,15.58,0,0,0-3.82.76,13.28,13.28,0,0,0-1.59.69l-3.25,14a15.5,15.5,0,0,1-.27,5.75l-.06.25a7.77,7.77,0,0,1-1.89,3.54l-5.26,22.62,3,.69,8.68,2L93.81,409.6A69,69,0,0,0,86.59,409.63Z"/>
              <path class="cls-58" d="M159.77,478,166,479.4l10-42.83c-2.18-.42-4.26-.88-6.23-1.37Z"/>
              <path class="cls-59" d="M149.48,380.8l-10,42.86c9.57,4.14,13.42,5.91,17.31,7.43a106.5,106.5,0,0,0,12.88,4.1l11-47.14Z"/>
              <path class="cls-59" d="M140.65,378.75,103,370l-9.2,39.59a80.57,80.57,0,0,1,24.87,5.19l3.89,1.64,9.24-39.73Z"/>
              <path class="cls-59" d="M217.32,396.57l-30.44-7.08-10.94,47.07a128.31,128.31,0,0,0,26.8,2.14,6.18,6.18,0,0,0,5.9-4.77l4.5-19.34Z"/>
              <path class="cls-59" d="M77,421.63a7.81,7.81,0,0,1,2-9.08l.55-.48a13.66,13.66,0,0,1,1.65-1l10.18-43.78L64,360.93l-9.43,40.56a6.29,6.29,0,0,0,1.09.27h0c2.72.42,7.54,1.15,11.17,4.93A14.24,14.24,0,0,1,69,409.62l.29.68a7.81,7.81,0,0,1-2.08,9h0a14.89,14.89,0,0,0-4.76,7.88l-.08.36a7.81,7.81,0,0,0,5.84,9.38h0a7.8,7.8,0,0,0,7.49-2.3L77.94,425A13,13,0,0,0,77,421.63Z"/>
              <path class="cls-58" d="M140.65,378.75l-8.83-2.05-9.24,39.73c7.15,3,12.63,5.37,16.94,7.24l10-42.86Z"/>
              <path class="cls-59" d="M140.65,378.75l-8.83-2.05-9.24,39.73c7.15,3,12.63,5.37,16.94,7.24l10-42.86Z"/>
              <path class="cls-58" d="M77.67,430.78a15.5,15.5,0,0,0,.27-5.75l-2.22,9.54A7.77,7.77,0,0,0,77.61,431Z"/>
              <path class="cls-59" d="M77.67,430.78a15.5,15.5,0,0,0,.27-5.75l-2.22,9.54A7.77,7.77,0,0,0,77.61,431Z"/>
              <path class="cls-58" d="M91.36,367.29,81.18,411.08a13.28,13.28,0,0,1,1.59-.69,15.58,15.58,0,0,1,3.82-.76,69,69,0,0,1,7.22,0L103,370Z"/>
              <path class="cls-59" d="M91.36,367.29,81.18,411.08a13.28,13.28,0,0,1,1.59-.69,15.58,15.58,0,0,1,3.82-.76,69,69,0,0,1,7.22,0L103,370Z"/>
              <path class="cls-58" d="M180.66,388.05l-11,47.14c2,.49,4,1,6.23,1.37l10.94-47.07Z"/>
              <path class="cls-59" d="M180.66,388.05l-11,47.14c2,.49,4,1,6.23,1.37l10.94-47.07Z"/>
            </g>
            <g>
              <path id="_Compound_Path_" data-name="&lt;Compound Path&gt;" class="cls-60" d="M176.84,524.79l-38.1-8.86a19.89,19.89,0,0,0-23.88,14.87h0a23.42,23.42,0,0,0,4,19.21h0a23.42,23.42,0,0,1,4,19.21L111,619.93a25.74,25.74,0,0,1-30.9,19.24h0a25.74,25.74,0,0,1-19.24-30.9l11.79-50.71a23.42,23.42,0,0,1,12-15.49h0a23.42,23.42,0,0,0,12-15.49h0a19.89,19.89,0,0,0-14.87-23.88l-38.1-8.86A13.19,13.19,0,0,1,33.89,478l7-30.25a4,4,0,0,1,4.82-3l151,35.09a4,4,0,0,1,3,4.82l-7,30.25A13.19,13.19,0,0,1,176.84,524.79Zm-89.4,82.84a8.59,8.59,0,1,0,6.42,10.31A8.59,8.59,0,0,0,87.44,607.63Z"/>
              <circle class="cls-38" cx="85.5" cy="616" r="8.59" transform="translate(-533.87 559.8) rotate(-76.91)"/>
              <path class="cls-61" d="M84.69,542.07h0a23.42,23.42,0,0,0-12,15.49L60.87,608.27a25.74,25.74,0,0,0,19.24,30.9h0A25.74,25.74,0,0,0,111,619.93l11.79-50.71a23.42,23.42,0,0,0-4-19.21h0a23.39,23.39,0,0,1-3.23-6.12L90.29,538A23.39,23.39,0,0,1,84.69,542.07Zm9.18,75.87a8.59,8.59,0,1,1-6.42-10.31A8.59,8.59,0,0,1,93.86,617.95Z"/>
              <rect class="cls-40" x="107.56" y="406.94" width="15.17" height="163.01" transform="translate(-386.68 490) rotate(-76.91)"/>
            </g>
            <path id="_Path_10" data-name="&lt;Path&gt;" class="cls-62" d="M212.42,430l9-38.86a6.17,6.17,0,0,0-4.61-7.4L70.08,349.59a6.17,6.17,0,0,0-7.4,4.61l-8.39,36.1a6.18,6.18,0,0,0,5.14,7.5h0c2.72.42,7.54,1.15,11.17,4.93a14.25,14.25,0,0,1,2.17,2.93l.29.68a7.81,7.81,0,0,1-2.08,9h0a14.89,14.89,0,0,0-4.76,7.88l-.08.36A7.81,7.81,0,0,0,72,432.91h0a7.81,7.81,0,0,0,9.38-5.84l.06-.25a14.48,14.48,0,0,0-.71-9.15,7.81,7.81,0,0,1,2-9.08l.55-.48a13.49,13.49,0,0,1,3.24-1.68,15.58,15.58,0,0,1,3.82-.76,80,80,0,0,1,32.1,5.16c26.36,11.09,32.2,14,38.14,16.3,10.11,3.94,25.19,8,45.91,7.61A6.18,6.18,0,0,0,212.42,430Z"/>
            <path class="cls-63" d="M166.23,421.51c10.11,3.94,25.19,8,45.91,7.61l.49,0,8.83-38a6.17,6.17,0,0,0-4.61-7.4L70.08,349.59a6.14,6.14,0,0,0-2-.13L59.9,384.68a6.18,6.18,0,0,0,5.14,7.5h0c2.72.42,7.54,1.15,11.17,4.93A14.25,14.25,0,0,1,78.43,400l.29.68a7.81,7.81,0,0,1-2.08,9h0a14.89,14.89,0,0,0-4.76,7.88l-.08.36a7.81,7.81,0,0,0,5.84,9.38h0a7.77,7.77,0,0,0,3.71,0c0-.06,0-.12.05-.18l.06-.25a14.48,14.48,0,0,0-.71-9.15,7.81,7.81,0,0,1,2-9.08l.55-.48A13.53,13.53,0,0,1,86,406.63,7.8,7.8,0,0,1,88.38,403l.55-.48a13.49,13.49,0,0,1,3.24-1.68,15.59,15.59,0,0,1,3.82-.76,80,80,0,0,1,32.1,5.16C154.45,416.29,160.28,419.19,166.23,421.51Z"/>
          </g>
          <g>
            <ellipse class="cls-64" cx="109.96" cy="843.62" rx="85.73" ry="11.06"/>
            <path class="cls-15" d="M61.35,837.8c-.34,1.18-.65,2.46-.92,3.82a47.35,47.35,0,0,0-.72,5.14,1.38,1.38,0,0,0,1.37,1.5H78.71a1.76,1.76,0,0,0,.53-1.44c-.21-.85-1.57-1.17-2.33-1.37-3.11-.81-6.54-2.32-8.32-4a9.91,9.91,0,0,1-2.44-3.8Z"/>
            <path class="cls-15" d="M141.31,820.62c.34,1.18.76,2.43,1.25,3.73a47.35,47.35,0,0,0,2.12,4.74,1.38,1.38,0,0,0,2,.54l14.94-9.37a1.76,1.76,0,0,0-.31-1.5c-.63-.61-2-.16-2.7.08-3.07,1-6.77,1.51-9.18,1a9.91,9.91,0,0,1-4.09-1.92Z"/>
            <path class="cls-65" d="M64.94,722.45c.36-.46,4.31-5.29,10.21-5.54,4-.17,9.32,1.72,23.15,20.78,4.34,6,9.5,13.62,20.37,32.23,7.19,12.3,8,14.14,12.87,22.28,7.1,11.78,13.35,21,17.42,26.79l-7,4.15a120.86,120.86,0,0,1-20.6-19.19,93,93,0,0,1-9.72-13.54,81.39,81.39,0,0,1-7.11-16.33c-2.2-2-5.65-5.16-10-8.87-5.4-4.61-10.17-8.68-16.57-13.48-10.74-8.07-12.78-8.21-14.56-12.16C61.19,734.75,60.86,727.59,64.94,722.45Z"/>
            <path class="cls-54" d="M70.29,716.47c3.93-1.33,8.73.45,11.72,3.15,2.32,2.09,5.94,7,2.8,32.45-.51,4.1-1.36,10.13-6.37,34.24-2.78,13.38-3.43,15.9-5.14,24.51-2.45,12.31-4.15,22.35-5.18,28.8L60.36,839c.43-8.69.49-15.75.47-20.53,0-10.1-.48-15.4.19-24.3.45-5.86,1.17-10.61,1.69-13.62-.06-3.06-.18-7.91-.51-13.87-1-17.64-2.47-22.44-1-31.72C62.25,728.65,63.84,718.65,70.29,716.47Z"/>
            <path class="cls-47" d="M92.28,670.21a13.93,13.93,0,0,1,.33,9.56,11.93,11.93,0,0,1-5,6.36,8.64,8.64,0,0,1-3.22,1.07,6.25,6.25,0,0,1-3.1-.22c-3.47-1.89.46-16.7,5.48-20.41a3.07,3.07,0,0,1,2.34-.78C90.87,666.09,91.75,668.68,92.28,670.21Z"/>
            <path class="cls-17" d="M60.72,734.7A29.55,29.55,0,0,0,95,732.16a24.94,24.94,0,0,1-2.73-5.56A26.69,26.69,0,0,1,92,710.34c1.16-3.62,2.3-4,2.34-6.85,0-1.28-.21-1.84-1.89-7.93-1.23-4.47-1.27-4.74-1.69-5.32s-2.33-2.92-9.46-3.28a37.88,37.88,0,0,0-19.19,4.57A67.6,67.6,0,0,0,64,704.29c1.47,5.94,3.21,9.33,1.93,14-.57,2.07-1.16,2.26-2.45,5.25A34.67,34.67,0,0,0,60.72,734.7Z"/>
            <path id="_Path_11" data-name="&lt;Path&gt;" class="cls-55" d="M91.91,676.11a2.71,2.71,0,0,1-.66.59,7.64,7.64,0,0,1-.84.56c0,.57,0,1.17-.06,1.79a28.44,28.44,0,0,1-.4,3.3,23.05,23.05,0,0,1-3.43.63,17.85,17.85,0,0,1-6.27-.25,11.37,11.37,0,0,1-4-1.59c-2.81-2-5.28-6.71-3.41-11.22,1.94-4.67,8.13-6.68,12-5a7.79,7.79,0,0,1,4,3.72c.45,1,.21,1.16,1,2.94a18.24,18.24,0,0,0,.77,1.65C91.48,674.87,92.19,675.55,91.91,676.11Z"/>
            <path class="cls-55" d="M74.85,678a10.52,10.52,0,0,1,.41,9.82q2.46,1.63,5,3.41,3.63,2.56,6.94,5.1l-2.92-7.48a24.77,24.77,0,0,1,.59-5.83Z"/>
            <path class="cls-47" d="M85.83,673.41c-.93,1.15-1.42.59-2.32,1.61-1.89,2.14,0,4.87-1.75,6.84-.84.95-1.68.28-2.37,1.21-1,1.36.6,2.86,0,5.19a5.58,5.58,0,0,1-3.65,3.82c-2,.57-2.94-.89-4.45-.32-2.18.82-1.25,4.36-3.38,6.48-2.8,2.79-9.35,3-13.62-.44s-4.49-9.16-3.56-12.67A13.82,13.82,0,0,1,56.95,677c2.9-1.69,4.66-1.07,7.44-3.38,1.26-1,1.39-1,3.65-4.53,1-1.62,2.91-4.5,5.89-6.16a13.12,13.12,0,0,1,8.32-1.22c1.83.25,5.32.72,6.49,3.11a4,4,0,0,1,.2,3.25c-.23.43-.43.49-.86,1C86.58,670.59,87,671.94,85.83,673.41Z"/>
            <path class="cls-55" d="M63,635.2a3.36,3.36,0,0,0,1.63-2,8,8,0,0,0,.15-5.07q.81-6.66.26-6.77t-2,4.74c.06-1.28.07-2.63,0-4.06q0-.7-.09-1.38a1.54,1.54,0,0,0-1.38.11,1.41,1.41,0,0,0-.54.74.81.81,0,0,0-.59-.16c-.6.12-.81,1.2-1.13,2.62-.87,3.87-1,3.64-.94,4.29.07,1,.33,1.26,1.18,3.77.46,1.36.79,2.48,1,3.18A3.14,3.14,0,0,0,63,635.2Z"/>
            <path class="cls-17" d="M74.85,696.43,68.17,667.2l-4-34-5.12.22a283.54,283.54,0,0,0,4.33,68.17Z"/>
          </g>
        </g>
        <g>
          <path class="cls-16" d="M769.2,690.47A4.6,4.6,0,0,1,768,685c2.5-5.31,5.43-10.92,8.88-16.72a201.14,201.14,0,0,1,17.33-24.71,7,7,0,0,1,8.62,2,92.37,92.37,0,0,0-13.67,20,89.68,89.68,0,0,0-9.38,33.85C777.39,696.64,772.64,693.42,769.2,690.47Z"/>
          <g>
            <path class="cls-32" d="M953.19,654.45v0l-.32,0v0l-.32,0v0l-.32,0v0l-.32,0v0l-.32,0v0l-.32,0v0l-.32,0v0l-.32,0v0l-.32,0v0l-.32,0v0l-.32,0v0l-.32,0v0l-.32,0v0l-.32,0v0l-.32,0v0l-.32,0v0l-.32,0v0l-.32,0v0l-.32,0v0L921,657.36a10,10,0,0,1-7.28-8.49h0a10,10,0,0,1,8.79-11l28.82-3.24a39.08,39.08,0,0,0-36-24.92h-6a39.39,39.39,0,0,0-5.06.24A39,39,0,0,0,875.41,628a12.73,12.73,0,0,1-9.37,5.9L735.78,648.6a12.73,12.73,0,0,1-6.2-3.43,39,39,0,0,0-27.68-11.52h-6a39.08,39.08,0,0,0-39,33.37l.32,0v0l.32,0v0l.32,0v0l.32,0v0l.32,0v0l.32,0v0l.32,0v0l.32,0v0l.32,0v0l.32,0v0l.32,0v0l.32,0v0l.32,0v0l.32,0v0l.32,0v0l.32,0v0l.32,0v0l.32,0v0l.32,0v0l.32,0v0l26.19-2.95a10,10,0,0,1,7.28,8.49h0a10,10,0,0,1-8.79,11l-28.82,3.24a39.08,39.08,0,0,0,36,24.92h6a39.42,39.42,0,0,0,5.06-.24A39,39,0,0,0,735,693.38a12.73,12.73,0,0,1,9.37-5.9l130.25-14.65a12.73,12.73,0,0,1,6.2,3.43,39,39,0,0,0,27.68,11.52h6a39.08,39.08,0,0,0,39-33.37Z"/>
            <path class="cls-66" d="M907.32,648.87h0a10,10,0,0,0,11,8.79l28.82-3.24a39,39,0,0,1-66.32,21.85,12.73,12.73,0,0,0-10.45-3.67L738,687.48a12.73,12.73,0,0,0-9.37,5.9,39,39,0,0,1-69.52-6.56l28.82-3.24a10,10,0,0,0,8.79-11h0a10,10,0,0,0-11-8.79L656.89,667a39,39,0,0,1,66.32-21.85,12.73,12.73,0,0,0,10.45,3.67L866,633.95a12.73,12.73,0,0,0,9.37-5.9,39,39,0,0,1,69.52,6.56l-28.82,3.24a10,10,0,0,0-8.79,11"/>
            <rect class="cls-67" x="743.29" y="652.24" width="117.51" height="17.37" rx="8.69" ry="8.69" transform="translate(-68.86 93.8) rotate(-6.42)"/>
          </g>
          <ellipse class="cls-68" cx="764.36" cy="819.74" rx="12" ry="93.02" transform="translate(-86.02 1549.85) rotate(-87.65)"/>
          <path class="cls-55" d="M785.27,708.16a18,18,0,0,0-4.88,1.33c-6.57,2.85-9.85,9.14-13,15.27-.3.59-.48,1-.53,1.07a29.89,29.89,0,0,0-2.52,8.33c-.1.67-.15,1.14-.17,1.38-.79,7.37-5,13.08-7,22.76-.65,3.09-.75,5-2.39,7.49s-2.14,1.84-4.62,4.67c-1.16,1.33-2.39,3.72-4.85,8.49-.47.91-.85,1.68-1.11,2.21l-.31.63c-1.52,3.16-6.64,15-6.64,15a91.78,91.78,0,0,1-6.71,12.61q1.43,1.38,2.87,2.86.92.94,1.79,1.86c1.58-1.87,12.59-14.92,21.45-26.06,3.2-4,6.43-8.26,10.3-13.74.85-1.21,1.73-2.49,2.73-4,4.55-6.87,7.5-12.25,13.21-22.72,3.3-6,7.58-14.1,12.42-23.77a14.37,14.37,0,0,1-6.13-3.67C784.62,715.48,785.16,709.22,785.27,708.16Z"/>
          <path class="cls-15" d="M804.65,797.2c-1,.92-2,1.95-3,3.08a51.51,51.51,0,0,0-3.51,4.42,1.5,1.5,0,0,0,.46,2.16l16.53,9.73a3.46,3.46,0,0,0,.76-2.51c-.2-1.18-1.22-1.71-2.28-2.6a14.74,14.74,0,0,1-4.21-6.86,11.58,11.58,0,0,1-.19-4.91Z"/>
          <path class="cls-69" d="M806.44,789.13c-1.28,4.24-2.59,7.61-3.47,9.74l6.11,3.26,12.72-21.86c-4.31-.27-8.61-.76-12.91-1.06A99.92,99.92,0,0,1,806.44,789.13Z"/>
          <path class="cls-55" d="M833.23,749.2a18.31,18.31,0,0,0-2-3.41,23.92,23.92,0,0,0-3.63-3.42l-13,12,2.82.25a70.28,70.28,0,0,0-5.87,13.44,95,95,0,0,0-2.63,11.16c4.31.29,8.61.79,12.91,1.06l2.6-4.46C831.86,763.08,834.59,752.34,833.23,749.2Z"/>
          <path class="cls-70" d="M795.32,723.84a14.37,14.37,0,0,1-6.13-3.67c-4.56-4.69-4-10.94-3.91-12a18,18,0,0,0-4.88,1.33c-6.57,2.85-9.85,9.14-13,15.27-.3.59-.48,1-.53,1.07a29.89,29.89,0,0,0-2.52,8.33c-.11.73-.16,1.25-.17,1.38-.29,2.79-2.38,9.33-8.66,23.78l22.48.92c.76-1.44,1.86-3.54,3.13-6.1,1.5-3,2.57-5.31,3.15-6.55C786.33,743.26,790.24,734.84,795.32,723.84Z"/>
          <path class="cls-71" d="M807.62,730.29c-6.21-3.41-11.47-6-15.12-7.75l-5.8,1.92c-2.63.86-5.21,1.69-5.89,1.9-2.68.83-7.28,1.86-15,2.15a18,18,0,0,0,1,8.17s3.49,9.41,17.27,13.55a10,10,0,0,0,1.37.32c.7.14,1.59.36,1.9.44,1.69.43,9.54,1.28,15.46,2.75,2.56.63,6.26,1.64,10.72,3.19l14-14.54C823.07,738.8,817.89,735.93,807.62,730.29Z"/>
          <path class="cls-55" d="M770.41,671.12a23.51,23.51,0,0,1,1.91,9.27,14.18,14.18,0,0,0,7.4-.38,13.9,13.9,0,0,0,4.18-2.25L782.64,671Z"/>
          <path id="_Path_12" data-name="&lt;Path&gt;" class="cls-55" d="M785.46,663.76a1.64,1.64,0,0,1-.53.48,3,3,0,0,1-.67.35l.49,1.76q.35,1.23.71,2.44a2.3,2.3,0,0,1-1.06,2.65c-.67.39-1.44.81-2.29,1.27-3.55,1.88-5.36,2.82-7.24,2.87a9.62,9.62,0,0,1-5.47-1.79c-.7-.44-7.64-5-6.34-11.69,1.09-5.63,7.51-9.27,12.17-8.28l.37.08.41.11c1.9.53,3.79,3,3.79,3,1.28,1.66,1.11,2.19,2.36,3.31.33.29.43.34,1.29,1.08C785.25,662.95,785.6,663.45,785.46,663.76Z"/>
          <path class="cls-55" d="M845.74,675.77l6.61-.94A25,25,0,0,0,855.7,673c.82-.52,1.46-1,1.53-1.72a1.5,1.5,0,0,0-.11-.72A1,1,0,0,0,858,670a1,1,0,0,0-.18-1,.93.93,0,0,0-1-.2,1,1,0,0,0-.24-.65c-.64-.71-2.53-.3-4.72,1,.79-1.13,1-2.25.5-2.75a.94.94,0,0,0-.51-.27l-2.19,2.61a7.22,7.22,0,0,0-1.85,1.1,7.38,7.38,0,0,0-2.15,2.93Z"/>
          <path class="cls-54" d="M781.18,677.39l35.92-.2,28.56-7.93a8.57,8.57,0,0,1,1.89,4.21,8.41,8.41,0,0,1-.13,3.09,223.69,223.69,0,0,1-70,17c.83-2.64,1.62-5.51,2.32-8.59C780.33,682.32,780.81,679.79,781.18,677.39Z"/>
          <path class="cls-54" d="M772.54,680c2.1-1.49,4.32-2.09,8.17-2.5a66.65,66.65,0,0,1,17.1.44,80.54,80.54,0,0,1,1.13,14.88c-.15,8.27-1.54,12.07-1.39,20.32a70.57,70.57,0,0,0,1.3,12.3,23.75,23.75,0,0,1-33.51,2.72c.16-1.36.45-3.44,1-5.93,1.73-8.27,3.68-10,3.91-15.56.07-1.77-.26-4.08-.93-8.7-.63-4.41-1.37-8-1.93-10.55A14.41,14.41,0,0,1,772.54,680Z"/>
          <path class="cls-15" d="M730.54,809.41q-1.8,1.45-3.62,3-2,1.62-3.88,3.24c.23.74.51,1.5.82,2.27a30.38,30.38,0,0,0,6.48,9.74l9,.43a2.23,2.23,0,0,0,0-.74c-.29-2.33-4.34-3.36-4.58-3.42a11.46,11.46,0,0,1,.41-9.74q-.89-.95-1.83-1.9Q731.95,810.77,730.54,809.41Z"/>
          <path class="cls-69" d="M737.24,796.8a91.78,91.78,0,0,1-6.71,12.61q1.43,1.38,2.87,2.86.92.94,1.79,1.86c1.28-1.52,8.82-10.46,16.37-19.75l-13-.54Z"/>
          <path class="cls-55" d="M802.32,638.51a1.95,1.95,0,0,1,3,.76,15.84,15.84,0,0,1,1.59,5.09c0,.46.06,1-.22,1.14-.47.29-1.44-.58-1.52-.66a1.39,1.39,0,0,1-.71,1.93,1.32,1.32,0,0,1-1.35-.72,1.62,1.62,0,0,1-.7,1.18,1.72,1.72,0,0,1-2.18-.71q-.47,1.18-1,1.21-1.22.07-2.79-5.9a15.24,15.24,0,0,1-1.89.17c.66-3.09,1.59-3.63,2.37-3.81s1.07.17,2.46.35A11.37,11.37,0,0,0,802.32,638.51Z"/>
          <path class="cls-15" d="M775.91,671.35a1.6,1.6,0,0,1-.46,1.58,8.35,8.35,0,0,1-3.73,2l-1.23.16a2,2,0,0,1-.69-.34c-.35-.29-.73-.6-1.14-.89l0,0a15.63,15.63,0,0,1-4.35-4.67l-.46-.78a8.91,8.91,0,0,1-1.22-3.86h0a8.91,8.91,0,0,1,1.36-5.45h0a11.91,11.91,0,0,1,5.52-4.64l1.45-.6a3.38,3.38,0,0,0,1.42-1,1.57,1.57,0,0,1,1.71-.53l1.92.6a1.61,1.61,0,0,1,.69.43l2,1.35a1.9,1.9,0,0,1,.46,1.56c-.49,1.62-4.69.93-5.28,2.38-.34.83.37,2.36,4.18,5.39l-.61.84c-.14,0-2.49-.62-3.5.53S773.33,669.37,775.91,671.35Z"/>
        </g>
        <g>
          <rect class="cls-72" x="183.47" y="406.93" width="201.85" height="75.47"/>
          <circle class="cls-73" cx="382.1" cy="444.32" r="37.38" transform="matrix(0.32, -0.95, 0.95, 0.32, -162.27, 661.3)"/>
          <circle class="cls-46" cx="366.91" cy="433.35" r="3.98" transform="translate(-162.16 639.53) rotate(-71.04)"/>
          <circle class="cls-46" cx="401.09" cy="444.25" r="3.98" transform="translate(-149.38 679.21) rotate(-71.04)"/>
          <path class="cls-74" d="M362.35,446.6a24.72,24.72,0,0,0,33.92,11.66Z"/>
        </g>
        <g>
          <path class="cls-75" d="M1712.36,541.25c-8.68,9.15,0,32,10.37,35.14a12.54,12.54,0,0,0,6.37.09c4.85-1.39,7.25-6,8.4-8.13,3.28-6.24,4.34-15.6-.51-23.1a16.92,16.92,0,0,0-8.76-7.38C1722.5,536,1715.8,537.62,1712.36,541.25Z"/>
          <path class="cls-76" d="M1743.62,633.95c1.91.5,4,1,6.18,1.37s4.51.73,6.57.95c.82.39,1.42.78,1.36,1.05s-.54.33-.52.39.95-.25,1.34.14a.39.39,0,0,1,.13.25c0,.39-.82.62-.78.8s.42,0,.89.24c.11.05.58.27.59.57s-.6.51-.56.76,1.27.28,1.33.6-.58.64-1.35.93c-2.47.94-4.74.2-7.65-.07a24.45,24.45,0,0,0-4.95.05,14,14,0,0,0,3.15,2.1,5.73,5.73,0,0,1,2.34,1.64,2,2,0,0,1,.5,1.34,1.76,1.76,0,0,1-.31.88A33.22,33.22,0,0,1,1747,646c-3.83-1.86-8-3.88-8.08-6.68S1742.76,634.39,1743.62,633.95Z"/>
          <path class="cls-47" d="M1675.43,669.74l.07,18.57-3.94,1a1.78,1.78,0,0,0-3,.66,31.39,31.39,0,0,1-8.17,2.52,30.77,30.77,0,0,1-7.69.26,6.09,6.09,0,0,1,.86-2.45,7.86,7.86,0,0,1,3.27-2.6c3.11-1.77,5.51-3.14,6.77-5.51a8.72,8.72,0,0,0,.84-2.75,16.45,16.45,0,0,0-.8-8.67Z"/>
          <path class="cls-47" d="M1655.74,656.8l-7.23,17.11-4-.6a1.64,1.64,0,0,0-.76-1.55,1.76,1.76,0,0,0-2.3,1,27.06,27.06,0,0,1-15.42-3.84,6.22,6.22,0,0,1,1.5-1.75c3.55-2.8,8.15.32,11.78-2.28.92-.66,1.5-1.55,2.49-3.42a26.2,26.2,0,0,0,2.68-8.28Z"/>
          <path class="cls-75" d="M1711.23,574l7.15,2.35,5.92-18-14.15-4.65a15.65,15.65,0,0,1-5,7.29c-4.07,3.18-7.46,2-11,3.71-8.12,3.92-13.16,20.95-5.8,29.05,3.09,3.41,8.61,5.5,13.41,4C1708.92,595.59,1714.08,585.62,1711.23,574Z"/>
          <path class="cls-77" d="M1713.94,585.24c-6.68,1.83-12.35,3.06-16.67,3.89a87,87,0,0,1-12.13,1.51c-4.55.24-6.83.36-7.77-.37-3.18-2.48-.93-9.24,2.84-28,1-4.84,1.71-8.77,2.14-11.16l.7-3.22,7.79,1.08-2.19,3.65-1.62,25.7,20.54-6.08a11.41,11.41,0,0,1,3.07,1,8.79,8.79,0,0,1,4.26,4.12C1716.56,581.12,1714.16,584.92,1713.94,585.24Z"/>
          <path id="_Path_13" data-name="&lt;Path&gt;" class="cls-54" d="M1696.12,587.85c1.27-4,3.2-3.15,6.63-9.61,1.17-2.2,1.79-3.88,3.74-5.44a11.32,11.32,0,0,1,4.82-2.2l9.61.77c1.3.73,3,1.64,4.93,2.69a31.18,31.18,0,0,0,5.87,2.59l.18.06a10.43,10.43,0,0,1,4.81,3.31,9.07,9.07,0,0,1,2.14,5.45v0c.29,6.54-2.6,11.41-4.08,14.28a58.63,58.63,0,0,0-5.67,17.8l1.87,6.69-38.6.55c5.05-12.21,5.06-20.71,4-26.35C1695,590.81,1695.39,590.12,1696.12,587.85Z"/>
          <path class="cls-78" d="M1711.84,573.28a18.57,18.57,0,0,0,6.15,1.52,18.36,18.36,0,0,0,7.42-1,15.07,15.07,0,0,1-1.41-3.94,13.72,13.72,0,0,1-.08-5l-11.93.7Z"/>
          <path class="cls-76" d="M1715,542.44a39.77,39.77,0,0,0-4.43,8.79,16,16,0,0,1-1.11,1.17c-1.58,1.5-3,2.27-2.8,2.78,0,0,1.26.89,1.45,1.13,1.28,1.62-.87,4.4-.32,6.48,1.17,4.46,15.36,5.45,16.28,2.84.4-1.14-2.11-2-2-4.55,0-1,.6-4.67.46-5.1a3.82,3.82,0,0,0-.27-.66c-.55-1-1.58-1.74-4.38-5.08-1.68-2-2.19-2.8-2.55-3.87A8.8,8.8,0,0,1,1715,542.44Z"/>
          <path id="_Path_14" data-name="&lt;Path&gt;" class="cls-79" d="M1727.26,638.09a17.5,17.5,0,0,1-9.5,5.28,18.18,18.18,0,0,1-10.83-1.08l-39.84-17c-.69,3.34-1.57,6.94-2.68,10.75-1.22,4.16-2.46,7.5-4.13,12l-4.64,12.54q-4.57-1.34-9.37-3-2.13-.73-4.19-1.48c1.84-6,4.46-14.47,7.79-24.5,5.86-17.64,6.93-19.26,8.82-20.72,5-3.82,12-3.78,44.07,5.09,11.55,3.19,21.18,6.1,28.2,8.28a13.19,13.19,0,0,1,.56,3.89A15.15,15.15,0,0,1,1727.26,638.09Z"/>
          <path id="_Path_15" data-name="&lt;Path&gt;" class="cls-80" d="M1706.92,642.29c-5-.12-10.31-.46-16-1.12-3.58-.42-7-.93-10.24-1.5l-2.63-.2c.12,1.36.22,2.83.3,4.41,0,0,.13,2.62.15,5,0,3.38-.86,12.62-3.09,24.86a17.24,17.24,0,0,1-11.18,1.14l-3.75-36.3.51-8.9a9.93,9.93,0,0,1,5.72-6.91,11.82,11.82,0,0,1,6.41-.73Z"/>
          <path class="cls-81" d="M1677.17,624.48l24.11,14.44a47.48,47.48,0,0,0,3.51,3.3c-4-.14-8.25-.44-12.71-.93A49.55,49.55,0,0,1,1677.17,624.48Z"/>
          <path class="cls-82" d="M1738.94,585.81l3.29,24.74,1.93,27a4.59,4.59,0,0,1-1.54,1.86,4.89,4.89,0,0,1-3.77.68c-1.68-8.29-3.76-17.11-6.35-26.36-2.37-8.44-4.92-16.34-7.54-23.69a8,8,0,0,1,2.13-9.54,7.25,7.25,0,0,1,3.28-1.41A7.67,7.67,0,0,1,1738.94,585.81Z"/>
          <path class="cls-83" d="M1656.63,537.69"/>
          <g>
            <path class="cls-84" d="M1667.39,536.28h5.52a.86.86,0,0,1,.86.86V554a0,0,0,0,1,0,0h-7.25a0,0,0,0,1,0,0v-16.9A.86.86,0,0,1,1667.39,536.28Z" transform="translate(2374.01 -1064.56) rotate(95.54)"/>
            <path class="cls-84" d="M1685,538.89h3.63a.88.88,0,0,1,.88.88v14.91a0,0,0,0,1,0,0h-5.39a0,0,0,0,1,0,0V539.77a.88.88,0,0,1,.88-.88Z" transform="translate(2393.93 -1079.41) rotate(95.54)"/>
            <rect class="cls-84" x="1699.36" y="541.79" width="3.37" height="12.73" transform="translate(2410.86 -1092.02) rotate(95.54)"/>
            <rect class="cls-84" x="1705.35" y="548.2" width="5.36" height="1.3" rx="0.53" ry="0.53" transform="translate(2419.21 -1098.21) rotate(95.54)"/>
            <rect class="cls-84" x="1655.92" y="543.16" width="8.69" height="2.1" rx="0.85" ry="0.85" transform="translate(2362.22 -1055.76) rotate(95.54)"/>
          </g>
          <path class="cls-76" d="M1686.9,547.1l2.57.19a1.29,1.29,0,0,0,1.38-1.19l.19-2.57a1.77,1.77,0,0,0-.31-.94,1.8,1.8,0,0,0-1.07-.71l-2.35-.26a1.35,1.35,0,0,0-1,.34,1.4,1.4,0,0,0-.4,1.18l-.19,2.57A1.29,1.29,0,0,0,1686.9,547.1Z"/>
          <rect class="cls-76" x="1683.66" y="541.8" width="2.57" height="4.12" rx="1.29" ry="1.29" transform="translate(3324.81 1211.45) rotate(-175.74)"/>
          <rect class="cls-76" x="1690.41" y="542.3" width="2.57" height="4.12" rx="1.29" ry="1.29" transform="translate(3338.25 1212.95) rotate(-175.74)"/>
          <path class="cls-16" d="M1718,569.5a24,24,0,0,0,5.9-.3c0,.23.05.45.1.69a15.06,15.06,0,0,0,1.41,3.94,18.36,18.36,0,0,1-7.42,1,18.57,18.57,0,0,1-6.15-1.52l.1-5A23.32,23.32,0,0,0,1718,569.5Z"/>
        </g>
        <g>
          <path id="_Compound_Path_2" data-name="&lt;Compound Path&gt;" class="cls-41" d="M1598.93,893.59l261.35-234.34a3.21,3.21,0,0,1,5.35,2.39V896a3.21,3.21,0,0,1-3.21,3.21H1601.07A3.21,3.21,0,0,1,1598.93,893.59Zm221-40.13V756.88l-107.71,96.58Z"/>
          <polygon class="cls-38" points="1819.89 853.46 1819.89 756.88 1712.19 853.46 1819.89 853.46"/>
          <path class="cls-20" d="M1865.63,896V687.27L1629.29,899.19h233.13A3.21,3.21,0,0,0,1865.63,896Zm-45.73-42.52H1712.19l107.71-96.58Z"/>
          <line class="cls-85" x1="1852.21" y1="666.73" x2="1852.21" y2="666.73"/>
          <polygon class="cls-20" points="1860.55 677.53 1863.01 675.07 1853.43 665.5 1852.21 666.73 1850.98 667.96 1860.55 677.53"/>
          <line class="cls-85" x1="1849.54" y1="687.27" x2="1849.54" y2="687.27"/>
          <polygon class="cls-20" points="1841.2 676.48 1838.74 678.93 1848.31 688.5 1849.54 687.27 1850.77 686.04 1841.2 676.48"/>
          <line class="cls-85" x1="1827.74" y1="688.67" x2="1827.74" y2="688.67"/>
          <polygon class="cls-20" points="1836.08 699.47 1838.54 697.02 1828.97 687.45 1827.74 688.67 1826.51 689.9 1836.08 699.47"/>
          <line class="cls-85" x1="1815.5" y1="699.65" x2="1815.5" y2="699.65"/>
          <polygon class="cls-20" points="1823.85 710.45 1826.3 707.99 1816.73 698.42 1815.51 699.65 1814.28 700.88 1823.85 710.45"/>
          <line class="cls-85" x1="1812.84" y1="720.19" x2="1812.84" y2="720.19"/>
          <polygon class="cls-20" points="1804.5 709.39 1802.04 711.85 1811.61 721.42 1812.84 720.19 1814.07 718.96 1804.5 709.39"/>
          <line class="cls-85" x1="1791.04" y1="721.59" x2="1791.04" y2="721.59"/>
          <polygon class="cls-20" points="1799.38 732.39 1801.84 729.93 1792.27 720.36 1791.04 721.59 1789.81 722.82 1799.38 732.39"/>
          <line class="cls-85" x1="1778.8" y1="732.56" x2="1778.8" y2="732.56"/>
          <polygon class="cls-20" points="1787.14 743.36 1789.6 740.9 1780.03 731.33 1778.8 732.56 1777.58 733.79 1787.14 743.36"/>
          <line class="cls-85" x1="1776.14" y1="753.1" x2="1776.14" y2="753.1"/>
          <polygon class="cls-20" points="1767.8 742.3 1765.34 744.76 1774.91 754.33 1776.14 753.1 1777.37 751.87 1767.8 742.3"/>
          <line class="cls-85" x1="1754.34" y1="754.5" x2="1754.34" y2="754.5"/>
          <polygon class="cls-20" points="1762.68 765.3 1765.13 762.84 1755.57 753.27 1754.34 754.5 1753.11 755.73 1762.68 765.3"/>
          <line class="cls-85" x1="1742.1" y1="765.47" x2="1742.1" y2="765.47"/>
          <polygon class="cls-20" points="1750.44 776.27 1752.9 773.82 1743.33 764.25 1742.1 765.47 1740.87 766.7 1750.44 776.27"/>
          <line class="cls-85" x1="1729.87" y1="776.45" x2="1729.87" y2="776.45"/>
          <polygon class="cls-20" points="1738.21 787.24 1740.67 784.79 1731.1 775.22 1729.87 776.45 1728.64 777.67 1738.21 787.24"/>
          <line class="cls-85" x1="1717.63" y1="787.42" x2="1717.63" y2="787.42"/>
          <polygon class="cls-20" points="1725.98 798.22 1728.43 795.76 1718.86 786.19 1717.63 787.42 1716.41 788.64 1725.98 798.22"/>
          <rect class="cls-20" x="1708.45" y="796.41" width="3.48" height="13.53" transform="translate(-67.03 1444.53) rotate(-45)"/>
          <rect class="cls-20" x="1696.21" y="807.38" width="3.48" height="13.53" transform="translate(-78.37 1439.09) rotate(-45)"/>
          <line class="cls-85" x1="1690.5" y1="829.9" x2="1690.5" y2="829.9"/>
          <polygon class="cls-20" points="1682.16 819.1 1679.7 821.56 1689.28 831.13 1690.5 829.9 1691.73 828.67 1682.16 819.1"/>
          <line class="cls-85" x1="1678.27" y1="840.87" x2="1678.27" y2="840.87"/>
          <polygon class="cls-20" points="1669.93 830.07 1667.47 832.53 1677.04 842.1 1678.27 840.87 1679.5 839.64 1669.93 830.07"/>
          <line class="cls-85" x1="1666.04" y1="851.84" x2="1666.04" y2="851.84"/>
          <polygon class="cls-20" points="1657.69 841.04 1655.24 843.5 1664.81 853.07 1666.04 851.84 1667.27 850.61 1657.69 841.04"/>
          <line class="cls-85" x1="1653.8" y1="862.81" x2="1653.8" y2="862.81"/>
          <polygon class="cls-20" points="1645.46 852.01 1643 854.47 1652.57 864.04 1653.8 862.81 1655.03 861.59 1645.46 852.01"/>
          <line class="cls-85" x1="1641.57" y1="873.79" x2="1641.57" y2="873.79"/>
          <line class="cls-85" x1="1632" y1="864.22" x2="1632" y2="864.22"/>
          <polygon class="cls-20" points="1633.23 862.99 1632 864.22 1630.77 865.45 1640.34 875.01 1641.57 873.79 1642.8 872.56 1633.23 862.99"/>
          <line class="cls-85" x1="1629.33" y1="884.76" x2="1629.33" y2="884.76"/>
          <polygon class="cls-20" points="1620.99 873.96 1618.54 876.41 1628.11 885.99 1629.34 884.76 1630.56 883.53 1620.99 873.96"/>
          <line class="cls-85" x1="1617.1" y1="895.73" x2="1617.1" y2="895.73"/>
          <polygon class="cls-20" points="1608.76 884.93 1606.3 887.39 1615.87 896.96 1617.1 895.73 1618.33 894.5 1608.76 884.93"/>
        </g>
        <g>
          <ellipse class="cls-86" cx="199.81" cy="889.34" rx="60.59" ry="10.97"/>
          <path class="cls-87" d="M224.66,863.18l-2.6-.47a2.71,2.71,0,0,1-1.74-1.12l-.9-1.31a2.71,2.71,0,0,0-3.77-.69h0a2.71,2.71,0,0,1-3.77-.69h0a2.71,2.71,0,0,0-3.77-.69h0a2.71,2.71,0,0,1-3.77-.69h0a2.71,2.71,0,0,0-3.77-.69h0a2.71,2.71,0,0,1-3.77-.69h0a2.71,2.71,0,0,0-3.77-.69h0a2.71,2.71,0,0,1-3.77-.69h0a2.71,2.71,0,0,0-3.77-.69l-1.31.9a2.71,2.71,0,0,1-2,.44l-2.37-.43a2.71,2.71,0,0,0-3.15,2.18l-3.34,18.35a2.71,2.71,0,0,0,2.18,3.15l2.37.43a2.71,2.71,0,0,1,1.74,1.12l.9,1.31a2.71,2.71,0,0,0,3.77.69h0a2.71,2.71,0,0,1,3.77.69h0a2.71,2.71,0,0,0,3.77.69h0a2.71,2.71,0,0,1,3.77.69h0a2.71,2.71,0,0,0,3.77.69h0a2.71,2.71,0,0,1,3.77.69h0a2.71,2.71,0,0,0,3.77.69h0a2.71,2.71,0,0,1,3.77.69h0a2.71,2.71,0,0,0,3.77.69l1.31-.9a2.71,2.71,0,0,1,2-.44l3,.54a12,12,0,0,0,14.08-10.23A12.29,12.29,0,0,0,224.66,863.18Z"/>
          <circle class="cls-88" cx="167.02" cy="865.07" r="27.46" transform="translate(-713.97 874.67) rotate(-79.7)"/>
          <rect class="cls-43" x="155.18" y="862.05" width="23.74" height="5.79" transform="translate(-713.83 874.55) rotate(-79.69)"/>
          <rect class="cls-43" x="164.15" y="853.08" width="5.79" height="23.74" transform="translate(-713.83 874.61) rotate(-79.7)"/>
        </g>
        <g>
          <rect class="cls-89" x="1568.58" y="1.18" width="171.74" height="67.08"/>
          <circle class="cls-90" cx="1740.32" cy="34.13" r="34.12" transform="translate(164.28 773.02) rotate(-26.24)"/>
          <circle class="cls-46" cx="1723.44" cy="36.92" r="3.63" transform="translate(161.3 765.85) rotate(-26.24)"/>
          <circle class="cls-46" cx="1745.21" cy="44.19" r="6.94" transform="translate(160.33 776.22) rotate(-26.24)"/>
          <circle class="cls-46" cx="1752.49" cy="21.78" r="3.63" transform="translate(170.99 777.13) rotate(-26.24)"/>
        </g>
        <g>
          <ellipse class="cls-91" cx="1048.72" cy="684.23" rx="58.34" ry="10.24"/>
          <g>
            <path class="cls-92" d="M1033.05,659.38l2.5-.46a2.61,2.61,0,0,0,1.68-1.08l.87-1.26a2.61,2.61,0,0,1,3.63-.66h0a2.61,2.61,0,0,0,3.63-.66h0a2.61,2.61,0,0,1,3.63-.66h0a2.61,2.61,0,0,0,3.63-.66h0a2.61,2.61,0,0,1,3.63-.66h0a2.61,2.61,0,0,0,3.63-.66h0a2.61,2.61,0,0,1,3.63-.66h0a2.61,2.61,0,0,0,3.63-.66h0a2.61,2.61,0,0,1,3.63-.66l1.26.87a2.61,2.61,0,0,0,2,.42l2.28-.41a2.61,2.61,0,0,1,3,2.1l3.21,17.67a2.61,2.61,0,0,1-2.1,3l-2.28.41a2.61,2.61,0,0,0-1.68,1.08l-.87,1.26a2.61,2.61,0,0,1-3.63.66h0a2.61,2.61,0,0,0-3.63.66h0a2.61,2.61,0,0,1-3.63.66h0a2.61,2.61,0,0,0-3.63.66h0a2.61,2.61,0,0,1-3.63.66h0a2.61,2.61,0,0,0-3.63.66h0a2.61,2.61,0,0,1-3.63.66h0a2.61,2.61,0,0,0-3.63.66h0a2.61,2.61,0,0,1-3.63.66l-1.26-.87a2.61,2.61,0,0,0-2-.42l-2.86.52a11.59,11.59,0,0,1-13.56-9.85A11.83,11.83,0,0,1,1033.05,659.38Z"/>
            <circle class="cls-93" cx="1088.55" cy="661.19" r="26.44" transform="translate(-100.71 205.36) rotate(-10.3)"/>
            <line class="cls-94" x1="1086.48" y1="649.83" x2="1090.57" y2="672.32"/>
            <line class="cls-94" x1="1077.28" y1="663.12" x2="1099.77" y2="659.03"/>
          </g>
        </g>
      </g>
    </g>
  </g>
</svg>
