<?xml version="1.0" encoding="utf-8"?>
<svg id="master-artboard" viewBox="0 0 1400 980" version="1.1" xmlns="http://www.w3.org/2000/svg" x="0px" y="0px" width="1400px" height="980px" enable-background="new 0 0 1400 980">
<path id="XMLID_767_" fill="#161410" d="M207.2,289.2c-6-28.5-11.9-57-17.9-85.5c-2.4-11.3-1.5-22.5,2.1-33.4&#10;&#9;&#9;c1.2-3.9,1.5-3.7,4.4-1c2.7,2.4,5.8,4.3,8.6,6.6c11.6,9.3,17.1,22,20.8,35.9c5.1,19.2,10.6,38.3,14.3,57.8&#10;&#9;&#9;c1.1,5.7,2.1,11.4,2.7,17.1c0.3,3.4,2.5,2.3,4.3,2.6c2.6,0.4,2.3-1.3,2.3-3c0-29.9,1.7-59.9,0.5-89.8c-0.2-5.4,2.3-8,6.3-10.3&#10;&#9;&#9;c4-2.3,8-3,12.3-0.7c3.4,1.8,6.1,4.4,8.8,7.1c0.9,0.9,1.6,2,1.4,3.2c-1.6,8.3,0,16.6,0.2,24.9c0.6,22,1.1,43.9-0.2,65.9&#10;&#9;&#9;c-0.2,2.7,0.4,3.4,3.3,3.5c12,0.6,17.9,6.9,18.6,18.9c2.4,40.1,1,80.3,2,120.5c0.2,9.7-0.2,19.5,0.6,29.1c0.5,6.2-2.6,9.9-6.7,13.2&#10;&#9;&#9;c-7.9,6.4-17,10.8-26.4,14.2c-29.2,10.8-59.3,12.7-89.7,6.2c-11.6-2.5-20.9-9.4-30.1-16.6c-6.4-5-7.8-10.7-7.7-18.1&#10;&#9;&#9;c0.3-22-0.1-44-1.7-65.9c-1.7-22.2-3.4-44.4-2.8-66.6c0.2-7.1,0.3-14.3,1.4-21.4c1.4-8.8,5.3-12.2,14.1-12.3c2.3,0,4.6-0.1,6.9,0.1&#10;&#9;&#9;c2.8,0.3,3.2-0.6,2.2-3.1c-4.2-10.8-9-21.3-13.6-31.9c-4.7-10.8-9.4-21.7-14.2-32.5c-2-4.4-2.7-9.1-2.7-13.9c0-3.9,4.8-8.5,10-9.2&#10;&#9;&#9;c7.3-0.9,13.7-0.1,19,6.6c9.2,11.6,15.3,24.7,21.2,37.9c5.5,12.4,10.5,25,15.7,37.6C200,290.1,199.9,290.1,207.2,289.2z M167,305.8&#10;&#9;&#9;c-0.8-7.4-1-7.6-7.6-7.5c-1.9,0-3.8,0-5.7,0.1c-5.6,0.1-7,1.1-7.7,6.6c-1.8,14.6-1.1,29.4-0.4,44c0.8,17.1,2.5,34.1,3.5,51.2&#10;&#9;&#9;c1.4,22,1,43.9,0.6,65.9c0,1.5,0,2.8,1.5,3.8c9.5,6.5,19.4,12.2,30.8,14.6c12.2,2.6,24.6,2.6,37,2.2c17.3-0.6,34.2-3.8,50.5-10.1&#10;&#9;&#9;c6.8-2.6,13.3-5.8,19-10.5c1.6-1.3,4.4-1.3,4.5-4.4c0.1-4.7,1.2-9.3,1.2-14.1c-0.1-18.1-0.2-36.1,0.2-54.2&#10;&#9;&#9;c0.6-28,0.8-56.1-0.4-84.1c-0.3-8.5-3.5-12.4-11-13.5c-5.6-0.8-5.4-0.8-6.4,4.7c-0.5,2.8,0.4,2.7,2.5,1.9c2.1-0.8,4.4-1.3,6.6-1.7&#10;&#9;&#9;c1.8-0.4,3.6-0.3,4.5,1.7c0.8,1.9-0.4,3.1-1.8,4c-1.8,1.1-3.7,2.2-5.7,3c-18,7.4-36.9,9.7-56.1,10.4c-12,0.5-24-0.1-35.9-1.7&#10;&#9;&#9;c-9.7-1.3-19.5-2.8-28.5-7.1c-3.1-1.5-5.9-3.4-7.3-6.6c-0.5-1.2-1.1-2.7,0.2-3.7c1.3-1.1,2.5-0.2,3.5,0.8&#10;&#9;&#9;C161,304,163.8,304.9,167,305.8z M261.7,189.9c-4.3,0-8.3,3.9-7.9,8.6c1.4,15.6,1.9,31.2,2.1,46.8c0.2,12-0.4,24-0.5,36&#10;&#9;&#9;c-0.1,8.2,0.2,16.4-1.3,24.6c-0.4,2,0.4,2.3,2.2,2.1c16.1-1.6,16.1-1.6,16.1-18.1c-0.1-28.4,0-56.9,1.9-85.2&#10;&#9;&#9;c0.3-4.9-1.3-7.8-4.5-10.6C267.4,192.1,265.5,189.7,261.7,189.9z M193.4,310.4c6.3,0.2,6.3,0.2,4.5-4.1c-0.3-0.7-0.6-1.5-0.9-2.2&#10;&#9;&#9;c-7.5-19-15.1-38-22.5-57c-1-2.5-2.2-3.1-4.7-3c-5.2,0.1-9.7,2-14,4.6c-2.5,1.5-2.8,3-1.5,5.6c8.2,16.7,16.1,33.4,21.1,51.4&#10;&#9;&#9;c0.6,2.1,2,2.7,3.8,2.9C184.6,309.3,189.9,310,193.4,310.4z M192.6,199.3c-0.5,0.8-0.1,1.4,0.1,2.1c4.9,17.6,9.7,35.2,13.6,53.1&#10;&#9;&#9;c4,17.8,7.8,35.7,11.4,53.6c0.7,3.4,2.3,3.8,5,2.9c-2.9-14.1-5.9-28.1-8.6-42.2c-3.9-20.6-7.3-41.2-13.5-61.3&#10;&#9;&#9;C199.2,202.8,196.5,200.9,192.6,199.3z M146.4,237.6c4.1-6.2,9.7-8.7,16.3-8.9c3.3-0.1,3.2-1.5,1.8-3.7c-2.3-3.9-4.8-7.8-6.7-11.9&#10;&#9;&#9;c-3-6.3-8.5-6.9-14.2-6.8c-6.7,0.2-9.5,5-6.8,11.1C139.8,224,143.1,230.5,146.4,237.6z M237.5,310.6c2.2,0.5,1.8-1.3,1.5-3.2&#10;&#9;&#9;c-1.3-6.5-2.7-12.9-3.7-19.4c-4.5-29.9-12.2-59.1-19.3-88.5c-0.3-1.3-0.4-3-2-3.1c-1.2-0.1-1.1,1.6-1.7,2.4&#10;&#9;&#9;c-0.5,0.6-0.9,1.6-1.6,1.7c-2.4,0.7-1.8,2.1-1.2,3.7c1.3,3.2,2.6,6.4,3.8,9.7c6.5,19.1,10.1,38.9,15.4,58.3&#10;&#9;&#9;c3.3,12,6.6,24.1,5.8,36.8C234.4,310.8,235.6,310.5,237.5,310.6z M232.9,310.5c-0.7-2-1.4-3.6-1.8-5.3&#10;&#9;&#9;c-3.8-16.1-7.7-32.1-11.4-48.2c-4.1-17.6-6.5-35.7-11.9-53c-1-3.3-2.8-5.4-5.6-7.2c-1,3.5-0.3,6.5,0.9,9.6&#10;&#9;&#9;c1.5,3.9,2.7,7.9,3.7,11.9c7.3,29.6,14.7,59.1,18.7,89.4c0.4,3,1.4,4.1,4.3,3.4C230.7,310.8,231.7,310.7,232.9,310.5z M194,188.2&#10;&#9;&#9;c0,1.8,0.1,2.8,0,3.9c-0.1,1.7-0.2,3.4,2,3.7c2.6,0.3,1.5-1.9,1.8-3c1.1-3.7,3.2-4.4,6.2-1.8c0.6,0.5,1.1,1.3,1.7,1.7&#10;&#9;&#9;c1,0.7,1.7,3,3.4,1.5c1.4-1.3,2.7-3,0.6-5.1c-2.3-2.4-4.3-5.2-6.5-7.7c-1.1-1.2-2-3-4.3-1.7c-2.1,1.2-5.1,1.1-4.9,4.7&#10;&#9;&#9;C194.3,185.9,194,187.4,194,188.2z M170.9,239.2c-0.6-4.8-3.1-6.3-7.5-5.6c-4.8,0.7-9.1,2-12.4,5.9c-2.7,3.2-2.9,3,0,6.7&#10;&#9;&#9;C156.6,241.3,163.2,239,170.9,239.2z M213.3,310.9c-2.2-4.7-3.3-9.5-4.3-14.3c-0.8-3.8-3.9-2.5-5.8-2.1c-2.3,0.5-0.4,2.4,0,3.5&#10;&#9;&#9;c1.1,3.2,2.7,6.2,3.5,9.4C207.6,310.9,209.5,311.9,213.3,310.9z M249,302c0,0-0.1,0-0.1,0c0-1.9,0-3.7,0-5.6c0.1-2.6-1.9-2-3.4-2.2&#10;&#9;&#9;c-2-0.2-2,0.9-1.8,2.5c0.5,3.6,0.8,7.2,1.2,10.7c0.1,1.1,0.1,2.2,1.7,2.1c1.3-0.1,2.4-0.4,2.4-2C249,305.7,249,303.9,249,302z" transform="matrix(0.9999999999999999, 0, 0, 0.9999999999999999, 446.4348723604643, 119.73915880840319)"/><path id="XMLID_766_" fill="#C8886D" d="M167,305.8c-3.2-0.9-6-1.8-8.2-4c-1-1-2.2-1.9-3.5-0.8c-1.3,1-0.8,2.5-0.2,3.7&#10;&#9;&#9;c1.5,3.2,4.2,5.1,7.3,6.6c9,4.3,18.7,5.8,28.5,7.1c11.9,1.6,23.9,2.1,35.9,1.7c19.2-0.7,38.1-3.1,56.1-10.4c2-0.8,3.9-1.9,5.7-3&#10;&#9;&#9;c1.4-0.9,2.6-2.1,1.8-4c-0.8-2-2.7-2.1-4.5-1.7c-2.2,0.4-4.5,0.9-6.6,1.7c-2.1,0.8-3,0.8-2.5-1.9c0.9-5.5,0.8-5.5,6.4-4.7&#10;&#9;&#9;c7.5,1.1,10.6,4.9,11,13.5c1.1,28,0.9,56.1,0.4,84.1c-0.4,18.1-0.3,36.1-0.2,54.2c0,4.8-1.2,9.4-1.2,14.1c0,3.1-2.9,3-4.5,4.4&#10;&#9;&#9;c-5.7,4.7-12.2,7.9-19,10.5c-16.2,6.3-33.1,9.5-50.5,10.1c-12.4,0.4-24.8,0.4-37-2.2c-11.4-2.5-21.3-8.2-30.8-14.6&#10;&#9;&#9;c-1.5-1-1.6-2.3-1.5-3.8c0.5-22,0.8-44-0.6-65.9c-1.1-17.1-2.8-34.1-3.5-51.2c-0.7-14.7-1.4-29.4,0.4-44c0.7-5.5,2-6.5,7.7-6.6&#10;&#9;&#9;c1.9,0,3.8-0.1,5.7-0.1C166,298.3,166.2,298.4,167,305.8z" transform="matrix(0.9999999999999999, 0, 0, 0.9999999999999999, 446.4348723604643, 119.73915880840319)"/><path id="XMLID_765_" fill="#49536E" d="M261.7,189.9c3.8-0.2,5.8,2.2,8,4.1c3.3,2.8,4.9,5.7,4.5,10.6c-1.9,28.4-1.9,56.8-1.9,85.2&#10;&#9;&#9;c0,16.5,0,16.5-16.1,18.1c-1.7,0.2-2.5-0.1-2.2-2.1c1.6-8.1,1.2-16.3,1.3-24.6c0.1-12,0.7-24,0.5-36c-0.3-15.6-0.8-31.2-2.1-46.8&#10;&#9;&#9;C253.4,193.8,257.4,189.9,261.7,189.9z" transform="matrix(0.9999999999999999, 0, 0, 0.9999999999999999, 446.4348723604643, 119.73915880840319)"/><path id="XMLID_764_" fill="#84B588" d="M193.4,310.4c-3.5-0.5-8.8-1.2-14.2-1.9c-1.8-0.2-3.2-0.9-3.8-2.9&#10;&#9;&#9;c-5-18-12.9-34.8-21.1-51.4c-1.3-2.6-1-4.1,1.5-5.6c4.3-2.6,8.8-4.4,14-4.6c2.5-0.1,3.8,0.6,4.7,3c7.4,19.1,15,38,22.5,57&#10;&#9;&#9;c0.3,0.8,0.6,1.5,0.9,2.2C199.8,310.6,199.8,310.6,193.4,310.4z" transform="matrix(0.9999999999999999, 0, 0, 0.9999999999999999, 446.4348723604643, 119.73915880840319)"/><path id="XMLID_763_" fill="#EBE15E" d="M192.6,199.3c3.9,1.5,6.6,3.5,8,8.1c6.2,20.1,9.5,40.7,13.5,61.3&#10;&#9;&#9;c2.7,14.1,5.7,28.1,8.6,42.2c-2.7,0.9-4.3,0.5-5-2.9c-3.6-17.9-7.4-35.8-11.4-53.6c-4-17.8-8.7-35.5-13.6-53.1&#10;&#9;&#9;C192.5,200.8,192.1,200.2,192.6,199.3z" transform="matrix(0.9999999999999999, 0, 0, 0.9999999999999999, 446.4348723604643, 119.73915880840319)"/><path id="XMLID_762_" fill="#F07078" d="M146.4,237.6c-3.4-7.1-6.6-13.6-9.5-20.2c-2.7-6.1,0.1-10.9,6.8-11.1&#10;&#9;&#9;c5.7-0.2,11.2,0.5,14.2,6.8c1.9,4.1,4.4,8,6.7,11.9c1.3,2.3,1.5,3.6-1.8,3.7C156.1,228.9,150.5,231.4,146.4,237.6z" transform="matrix(0.9999999999999999, 0, 0, 0.9999999999999999, 446.4348723604643, 119.73915880840319)"/><path id="XMLID_761_" fill="#EBE15E" d="M237.5,310.6c-1.8-0.1-3.1,0.3-3-1.5c0.8-12.7-2.6-24.8-5.8-36.8&#10;&#9;&#9;c-5.3-19.4-9-39.2-15.4-58.3c-1.1-3.3-2.5-6.5-3.8-9.7c-0.6-1.6-1.2-3,1.2-3.7c0.6-0.2,1.1-1.1,1.6-1.7c0.6-0.8,0.5-2.5,1.7-2.4&#10;&#9;&#9;c1.6,0.1,1.7,1.8,2,3.1c7,29.4,14.7,58.6,19.3,88.5c1,6.5,2.4,12.9,3.7,19.4C239.3,309.3,239.7,311.1,237.5,310.6z" transform="matrix(0.9999999999999999, 0, 0, 0.9999999999999999, 446.4348723604643, 119.73915880840319)"/><path id="XMLID_760_" fill="#EBE15E" d="M232.9,310.5c-1.3,0.2-2.2,0.3-3.1,0.5c-2.9,0.7-3.9-0.4-4.3-3.4&#10;&#9;&#9;c-4-30.2-11.4-59.8-18.7-89.4c-1-4-2.2-8-3.7-11.9c-1.2-3.1-1.9-6.1-0.9-9.6c2.7,1.8,4.5,3.8,5.6,7.2c5.4,17.4,7.8,35.4,11.9,53&#10;&#9;&#9;c3.7,16.1,7.6,32.1,11.4,48.2C231.5,306.9,232.2,308.5,232.9,310.5z" transform="matrix(0.9999999999999999, 0, 0, 0.9999999999999999, 446.4348723604643, 119.73915880840319)"/><path id="XMLID_759_" fill="#FEFEFE" d="M194,188.2c0-0.8,0.3-2.3,0.1-3.7c-0.3-3.6,2.8-3.6,4.9-4.7c2.3-1.3,3.2,0.5,4.3,1.7&#10;&#9;&#9;c2.2,2.5,4.2,5.3,6.5,7.7c2,2.1,0.8,3.8-0.6,5.1c-1.7,1.5-2.4-0.8-3.4-1.5c-0.7-0.4-1.1-1.2-1.7-1.7c-3-2.6-5.1-1.9-6.2,1.8&#10;&#9;&#9;c-0.3,1.1,0.8,3.3-1.8,3c-2.2-0.3-2.2-2-2-3.7C194.1,191,194,189.9,194,188.2z" transform="matrix(0.9999999999999999, 0, 0, 0.9999999999999999, 446.4348723604643, 119.73915880840319)"/><path id="XMLID_758_" fill="#EBE15E" d="M170.9,239.2c-7.7-0.2-14.2,2.1-19.9,6.9c-2.8-3.6-2.6-3.5,0-6.7c3.3-3.9,7.6-5.2,12.4-5.9&#10;&#9;&#9;C167.8,232.9,170.3,234.4,170.9,239.2z" transform="matrix(0.9999999999999999, 0, 0, 0.9999999999999999, 446.4348723604643, 119.73915880840319)"/><path id="XMLID_757_" fill="#C8886D" d="M213.3,310.9c-3.8,1-5.7,0-6.6-3.5c-0.8-3.2-2.5-6.2-3.5-9.4c-0.4-1.1-2.3-3,0-3.5&#10;&#9;&#9;c1.9-0.4,5-1.7,5.8,2.1C210.1,301.4,211.1,306.2,213.3,310.9z" transform="matrix(0.9999999999999999, 0, 0, 0.9999999999999999, 446.4348723604643, 119.73915880840319)"/><path id="XMLID_756_" fill="#C8886D" d="M249,302c0,1.9,0,3.7,0,5.6c0,1.6-1.1,1.9-2.4,2c-1.6,0.1-1.6-1-1.7-2.1&#10;&#9;&#9;c-0.4-3.6-0.6-7.2-1.2-10.7c-0.2-1.6-0.3-2.7,1.8-2.5c1.5,0.1,3.5-0.5,3.4,2.2c0,1.9,0,3.7,0,5.6C249,302,249,302,249,302z" transform="matrix(0.9999999999999999, 0, 0, 0.9999999999999999, 446.4348723604643, 119.73915880840319)"/>







</svg>