<?xml version="1.0" encoding="utf-8"?>
<svg id="master-artboard" viewBox="0 0 387.5225830078125 677.8387451171875" version="1.0" xmlns="http://www.w3.org/2000/svg" x="0px" y="0px" width="387.5225830078125px" height="677.8387451171875px" enable-background="new 0 0 1400 980"><rect id="ee-background" x="0" y="0" width="387.5225830078125" height="677.8387451171875" style="fill: white; fill-opacity: 0; pointer-events: none;"/>


<g id="XMLID_3_" transform="matrix(-0.9999194741249084, 0.013029420748353004, 0.013029420748353004, 0.9999194741249084, 779.4069213867188, -225.3460178375244)">
	
	<g id="XMLID_36_">
		<path id="XMLID_427_" fill="#EEC19C" d="M 688.8 556.9 L 748.0999999999999 554.6 L 750.9999999999999 576.4 C 751 576.4000244140625 744.2694091796875 577.2352294921875 734.7074584960938 578.2587890625 C 713.7647705078125 580.5006103515625 679.239990234375 583.6461791992188 672.0999755859375 580.9000244140625 C 672.1 581 677.5 557.4 688.8 556.9 Z" transform="matrix(0.8736675381660463, 0.486523449420929, -0.486523449420929, 0.8736675381660463, 363.23147669721857, -261.0478498282189)"/>
		<path id="XMLID_44_" fill="#CE838B" d="M623.5,463.8c0,0,25.5,5.4,38.1,27.6c12.6,22.3,27.3,65.5,27.3,65.5l-16.8,24l-43.7-66.5&#10;&#9;&#9;&#9;C628.4,514.5,616.1,473.2,623.5,463.8z"/>
		<path id="XMLID_106_" fill="#34383D" d="M484.4,542.4l8.9-5.5l6.9-59.8C500.2,477.1,480.6,496,484.4,542.4z"/>
		<path id="XMLID_105_" fill="#5B616B" d="M498.6,478.7c0,0,48-43.2,124.9-14.9l0,0l-88.7,14.9H498.6z"/>
		<path id="XMLID_104_" fill="#4B5059" d="M535.4,475.1c0,0-24.3-5.4-36.8,3.5c0,0-27.5,78.3,9.7,161.3c0,0,16.8,2.9,35.1-6.6&#10;&#9;&#9;&#9;L535.4,475.1z"/>
		<path id="XMLID_103_" fill="#34383D" d="M587.7,461.6c0,0-36.7-8.8-52.3,13.6c0,0-19.4,113.5,0.3,153.4l53.5-8.1L587.7,461.6z"/>
		<path id="XMLID_102_" fill="#AF6672" d="M623.5,466.4c0,0,15.8-1.1,19.5,14.4c3.7,15.5,8.7,81.8,8.7,81.8h-18.3L623.5,466.4z"/>
		<path id="XMLID_98_" fill="#777E8D" d="M535.4,471.1c0,0,14.9-21.5,54.3-11.3l-0.5-5.7c0,0-60.5-9-93.8,22.2&#10;&#9;&#9;&#9;C495.4,476.3,512.5,465.9,535.4,471.1z"/>
		<path id="XMLID_97_" fill="#AF6672" d="M583.3,462.3c0,0-35,4.8-40.5,35.8s8.6,60.8-5.3,119.5c0,0,24.6,30.9,105.5,18.9&#10;&#9;&#9;&#9;c0,0,27.3-143.1-24.9-173.7L583.3,462.3z"/>
		<path id="XMLID_87_" fill="#EEC19C" d="M587.7,461.6c0,0-10.5,0.4-10.1,7c0.4,6.6,35.2,29.7,42.6,27.5&#10;&#9;&#9;&#9;C627.9,493.6,639.3,448,587.7,461.6z"/>
		<path d="M 670.7000122070312 848.4000244140625 L 642.9000244140625 853.2000122070312 L 617.5999755859375 716.5 L 647.2999877929688 720.7000122070312 Z" id="XMLID_73_" fill="#DBA97F"/>
		<path d="M 670.5999755859375 839.7000122070312 L 664.9000244140625 811.7999877929688 L 636 816.7999877929688 L 641.0999755859375 846.0999755859375 Z" id="XMLID_72_" fill="#EFCAAC"/>
		<path id="XMLID_71_" fill="#2D1A1E" d="M640.1,877.1l85.4-6.6c-1.6-3.4-3.5-6.5-5.5-9.2c-25.1-33.4-79.5-18.1-79.5-18.1l-0.2,24.2&#10;&#9;&#9;&#9;L640.1,877.1z"/>
		<path id="XMLID_70_" fill="#E9A2A4" d="M640.1,877.1l85.4-6.6c-1.6-3.4-3.5-6.5-5.5-9.2l-79.8,6.1L640.1,877.1z"/>
		<path id="XMLID_69_" fill="#E9A2A4" d="M669.7,838.4c0,0-2.8,2.6-2.8,15.7c0,0,3.3,3.7,6.9,1c0,0,0.1-10.4,2.4-15.7&#10;&#9;&#9;&#9;C676.2,839.4,673.7,836.5,669.7,838.4z"/>
		<path id="XMLID_68_" fill="#E9A2A4" d="M680.1,839.3c0,0-2.8,2.6-2.8,15.7c0,0,3.3,3.7,6.9,1c0,0,0.1-10.4,2.4-15.7&#10;&#9;&#9;&#9;C686.6,840.3,684.1,837.4,680.1,839.3z"/>
		<path d="M 478.1000061035156 816.4000244140625 L 463.1000061035156 792.5999755859375 L 513.7000122070312 758.7999877929688 L 529.7999877929688 784.5999755859375 Z" id="XMLID_67_" fill="#DBA97F"/>
		<path d="M 483.5 806.7000122070312 L 509.3999938964844 794.9000244140625 L 498.1000061035156 767.7999877929688 L 470.6000061035156 779.2999877929688 Z" id="XMLID_66_" fill="#EFCAAC"/>
		<path id="XMLID_65_" fill="#2D1A1E" d="M440.1,785.3l25.5,81.8c3-2.4,5.6-4.9,7.8-7.5c26.9-31.9-0.1-81.6-0.1-81.6l-23.7,5.2&#10;&#9;&#9;&#9;L440.1,785.3z"/>
		<path id="XMLID_64_" fill="#E9A2A4" d="M440.1,785.3l25.5,81.8c3-2.4,5.6-4.9,7.8-7.5l-23.8-76.4L440.1,785.3z"/>
		<path id="XMLID_63_" fill="#E9A2A4" d="M484.5,805.5c0,0-3.2-2.2-16,0.8c0,0-2.8,4.1,0.6,6.9c0,0,10.1-2.2,15.9-1.2&#10;&#9;&#9;&#9;C485,812.1,487.2,809,484.5,805.5z"/>
		<path id="XMLID_62_" fill="#E9A2A4" d="M485.2,814.8c0,0-2.3-2.4-15.1,0.5c0,0-3.4,2.4,0.6,6.9c0,0,9.3-1.9,15-0.9&#10;&#9;&#9;&#9;C485.7,821.4,488,818.3,485.2,814.8z"/>
		<path id="XMLID_61_" fill="#45282D" d="M643,636.5c0,0-0.8,3.3-2.7,8.2c-6.5,17.1-26,53.8-69.5,40.5c-37-11.3-36.8-45.2-34.7-60.3&#10;&#9;&#9;&#9;c0.6-4.5,1.4-7.3,1.4-7.3C566.4,643.4,643,636.5,643,636.5z"/>
		<path id="XMLID_60_" fill="#45282D" d="M542.6,644.5c0,0,15.6,67.9,5.3,81.8c-13.4,18-51.5,37.8-60.6,42.2c0,0-18.4,13.8,8.6,36.9&#10;&#9;&#9;&#9;c0,0,50.1-19.4,80-53c13.5-15.2,19.1-57.9,10.8-92.7L542.6,644.5z"/>
		<path id="XMLID_59_" fill="#45282D" d="M618.3,651c0,0,39,63.6,50.7,177.3c0,0,3.4,7.2-31.1,2.7c0,0-14.1-96.3-57.8-161.4&#10;&#9;&#9;&#9;L618.3,651z"/>
		<path id="XMLID_58_" fill="#6E4048" d="M626.2,806.3c0,0,35.9,2,49.4-4.4l3.8,27c0,0-15.7,10.7-50.9,4.5L626.2,806.3z"/>
		<path id="XMLID_57_" fill="#6E4048" d="M497.8,758.1c0,0,1,24.1,25.7,40.5l-21.3,18c0,0-25.8-13.2-24.7-42.9L497.8,758.1z"/>
		<path id="XMLID_54_" fill="#CE838B" d="M583.3,462.3c0,0-18.3,5.2,36.9,33.7l-22.4,26.7c0,0-37.1-43.7-23.5-58.1&#10;&#9;&#9;&#9;C574.3,464.6,578.8,463.1,583.3,462.3z"/>
		<path id="XMLID_53_" fill="#CE838B" d="M618,462.8c0,0,15,17.8,2.1,33.2l17.9,21.5C638.1,517.5,652.3,482.9,618,462.8z"/>
		<path id="XMLID_52_" fill="#4B5059" d="M640.4,562.5c0,0-1.5,38.1-109.2,53.1c0,0-8.6-7-3.1-18.7c0,0,79.1-4.1,95.4-35.5&#10;&#9;&#9;&#9;L640.4,562.5z"/>
		<path id="XMLID_51_" fill="#EEC19C" d="M565.3,487.9c0,0-6.6-18.6-19.3-2.9c-12.6,15.7-7.1,58.2,5.9,115.6c0,0,0.9,21.2,19.9,17.3&#10;&#9;&#9;&#9;c19-3.9,56-43,56-43l-10.8-16.8l-41.2,28C575.9,586.2,576.6,527.2,565.3,487.9z"/>
		<path id="XMLID_50_" fill="#CE838B" d="M558.6,472.7c0,0-22.3,3.3-21.1,30.6c1.4,30.4,10.1,96,12.5,98.3&#10;&#9;&#9;&#9;c2.4,2.3,31.4-19.2,31.4-19.2l-3.8,2.6C577.6,585,575.6,474.1,558.6,472.7z"/>
		<path id="XMLID_47_" fill="#4B5059" d="M622.5,552.9c0,0-27.7-65.4-79.1-85.7c0,0,8.2-7,20.3-7c0,0,52.5,30.7,72.4,86.4&#10;&#9;&#9;&#9;L622.5,552.9z"/>
		<path id="XMLID_45_" fill="#EEC19C" d="M617.1,558.1c0,0-3.8-29.1,10.8-28c0,0,6.8-7.9,12,0c0,0,4.4,3.2,6.4,12.3&#10;&#9;&#9;&#9;c0,0,3.9,11.1,3.9,15.8c0,4.7-16.7,15.5-22.3,16.8C627.9,574.9,617.5,566,617.1,558.1z"/>
		<path id="XMLID_42_" fill="#6C7380" d="M495.4,582.9c0,0,3.2,32,10.3,41.5c0,0,10.4,3.1,24-1c0,0-6.1-25.5-5.7-42.4L495.4,582.9z"/>
		<path id="XMLID_41_" fill="#5B616B" d="M495.4,574.9c0,0,15.6,0.8,28.6-0.9v8.5c0,0-12.7,2.8-28.6,0.4V574.9z"/>
		<path id="XMLID_40_" fill="#454A52" d="M535.4,475.1c0,0-21.6-4.4-36.8,3.5c0,0-16.4,31.6-14.2,63.7l-5.8,1.8&#10;&#9;&#9;&#9;c0,0-2.6-38.5,16.8-67.9c0,0,14.4-10.5,40-5.2V475.1z"/>
		<path id="XMLID_39_" fill="#E9A2A4" d="M643,636.5c0,0-0.8,3.3-2.7,8.2c-63.5,10.5-98.8-15.4-104.2-19.8c0.6-4.5,1.4-7.3,1.4-7.3&#10;&#9;&#9;&#9;C566.4,643.4,643,636.5,643,636.5z"/>
		<path id="XMLID_95_" fill="#B38B4E" d="M498,281.2l-0.7,20.9c-0.3,0-0.5,0-0.7,0c-67.6,0.4-43.7,146-43.7,146&#10;&#9;&#9;&#9;c-41.8-65-19.2-119.5-17.1-124.3c-32.8,63.2,14.1,149.6,15.7,152.5c0,0,0,0.1,0.1,0.1c-38.8-19-65.5-138.8-20.6-188.2&#10;&#9;&#9;&#9;S498,281.2,498,281.2z"/>
		<path id="XMLID_94_" fill="#A37F47" d="M496,298.7c0,0,0.2,1.2,0.6,3.3c-67.6,0.4-43.7,146-43.7,146&#10;&#9;&#9;&#9;c-41.8-65-19.2-119.5-17.1-124.3c-32.8,63.2,14.1,149.6,15.7,152.5c-74.4-111-12.1-159.6-10.6-160.7C423.4,359.2,441,409,441,409&#10;&#9;&#9;&#9;C421.2,295.2,496,298.7,496,298.7z"/>
		<path id="XMLID_93_" fill="#DFAE57" d="M496,269.2c0,0-16.2-6.8-21.6,16.3c-5.4,23.1,13.3,22.4,13.3,22.4L496,269.2z"/>
		<path id="XMLID_92_" fill="#B38B4E" d="M537.1,418.5c0,0-50.7-27.2-53.7-108.3S586,202.9,633.4,241.6S537.1,418.5,537.1,418.5z"/>
		<path id="XMLID_91_" fill="#EEC19C" d="M614.6,469.2l-29.8,2.4c-0.8,0.1-1.5-0.5-1.6-1.3l-3.8-47.4c-0.1-0.8,0.5-1.5,1.3-1.6&#10;&#9;&#9;&#9;l29.8-2.4c0.8-0.1,1.5,0.5,1.6,1.3l3.8,47.4C616,468.5,615.4,469.2,614.6,469.2z"/>
		<path id="XMLID_37_" fill="#DBA97F" d="M664.8,381.4L664.8,381.4c-8.8,1.8-17.5-4-19.3-12.8l-3.8-19c-1.8-8.8,4-17.5,12.8-19.3&#10;&#9;&#9;&#9;l0,0c8.8-1.8,17.5,4,19.3,12.8l3.8,19C679.4,371,673.7,379.6,664.8,381.4z"/>
		<path id="XMLID_90_" fill="#DBA97F" d="M599.6,461L599.6,461c-9,0.7-16.9-6-17.6-15l-1.4-17.7c-0.7-9,6-16.9,15-17.6l0,0&#10;&#9;&#9;&#9;c9-0.7,16.9,6,17.6,15l1.4,17.7C615.3,452.3,608.6,460.2,599.6,461z"/>
		<path id="XMLID_89_" fill="#EEC19C" d="M631.9,446.3l-12.7,2.6c-32.4,6.5-81-11.3-87.5-43.6l-18.2-90.5&#10;&#9;&#9;&#9;c-6.5-32.4,14.7-64.1,47-70.6l27-5.4c32.4-6.5,64.1,14.7,70.6,47l16.3,81C682,404.3,669.5,438.8,631.9,446.3z"/>
		<path id="XMLID_88_" fill="#352312" d="M586.3,373.7L586.3,373.7c-3,0.6-5.9-1.4-6.5-4.3l-1.4-7.2c-0.6-3,1.4-5.9,4.3-6.5l0,0&#10;&#9;&#9;&#9;c3-0.6,5.9,1.4,6.5,4.3l1.4,7.2C591.3,370.2,589.3,373.1,586.3,373.7z"/>
		<path id="XMLID_86_" fill="#352312" d="M648.4,361.3L648.4,361.3c-3,0.6-5.9-1.4-6.5-4.3l-1.4-7.2c-0.6-3,1.4-5.9,4.3-6.5l0,0&#10;&#9;&#9;&#9;c3-0.6,5.9,1.4,6.5,4.3l1.4,7.2C653.3,357.8,651.3,360.7,648.4,361.3z"/>
		<path id="XMLID_85_" fill="#DBA97F" d="M623.7,376.7c0,0,14.2,12.3-0.6,18.2C623.2,395,644.5,390.7,623.7,376.7z"/>
		<path id="XMLID_84_" fill="#AB8964" d="M588.2,322.9c0,0-19.3-10.4-38.5,7.7C549.7,330.6,564.4,304.3,588.2,322.9z"/>
		<path id="XMLID_83_" fill="#B38B4E" d="M661.6,308.2c0,0-16.2-11-31.3,6.3C630.3,314.4,641.4,288.9,661.6,308.2z"/>
		<g id="XMLID_411_">
			<path id="XMLID_82_" fill="#352312" d="M633.6,408.8c-1.9,4-3.8,7-5.7,9.2c-7.5,8.6-15.2,5.3-20.5,0.7c-4.2-3.6-6.9-7.9-6.9-7.9&#10;&#9;&#9;&#9;&#9;C612.5,413.3,633.6,408.8,633.6,408.8z"/>
			<path id="XMLID_81_" fill="#BE1E2D" d="M627.8,418c-7.5,8.6-15.2,5.3-20.5,0.7c2-3.7,5.6-6.1,9.7-6.4&#10;&#9;&#9;&#9;&#9;C621.4,412.1,625.3,414.4,627.8,418z"/>
			<path id="XMLID_80_" fill="#FFFFFF" d="M600.2,410.7c0,0,7.1,1.8,33.5-2l-1.8,3.6c0,0-19.8,5.8-29.4,1.5&#10;&#9;&#9;&#9;&#9;C602.6,413.8,601,412,600.2,410.7z"/>
		</g>
		<path id="XMLID_79_" fill="#A8684E" d="M545.9,419.2C545.9,419.2,545.9,419.2,545.9,419.2c0,0,0,0.1,0.1,0.1&#10;&#9;&#9;&#9;C546,419.3,546,419.3,545.9,419.2z"/>
		<path id="XMLID_78_" fill="#EEC19C" d="M528.6,405.5L528.6,405.5c-7.7,1.6-15.3-3.5-16.9-11.2l-3.3-16.6&#10;&#9;&#9;&#9;c-1.6-7.7,3.5-15.3,11.2-16.9l0,0c7.7-1.6,15.3,3.5,16.9,11.2l3.3,16.6C541.3,396.4,536.3,404,528.6,405.5z"/>
		<path id="XMLID_77_" fill="#DBA97F" d="M533.5,394.1c0,0,0.1-24.5-12.2-25.9c0,0,6.8,6.7,5.3,13.1c0,0-4.1,1.2-2.8,8.6&#10;&#9;&#9;&#9;C525,397.4,532,397.4,533.5,394.1z"/>
		
			<path d="M 597.000025 389.600006 A 12.1 7.3 0 0 1 584.900024 396.900006 A 12.1 7.3 0 0 1 572.800024 389.600006 A 12.1 7.3 0 0 1 584.900024 382.300006 A 12.1 7.3 0 0 1 597.000025 389.600006 Z" id="XMLID_76_" transform="matrix(0.9849 -0.1734 0.1734 0.9849 -58.6943 107.301)" fill="#EFCAAC"/>
		
			<path d="M 668.6 372.299988 A 8.6 7.3 0 0 1 660 379.599988 A 8.6 7.3 0 0 1 651.4 372.299988 A 8.6 7.3 0 0 1 660 364.999988 A 8.6 7.3 0 0 1 668.6 372.299988 Z" id="XMLID_75_" transform="matrix(0.9849 -0.1734 0.1734 0.9849 -54.5551 120.0525)" fill="#EFCAAC"/>
		<path id="XMLID_74_" fill="#B38B4E" d="M670.9,348.9c0,0-3.9-36.2-21.2-59.9c-17.3-23.7-24.6-29.8-24.6-29.8s-7.5,69-61.7,89.6&#10;&#9;&#9;&#9;c-54.2,20.6,32.4,57.7-14.2,107.6c0.5-1.4,13.2-36.1-13.7-59.4c-27.4-23.8-16.4-54.3-16.4-54.3s-32.7-68.1,21.1-93.9&#10;&#9;&#9;&#9;c53.8-25.8,87.4-15.8,103.4,1.9C659.7,268.4,690.6,304.8,670.9,348.9z"/>
		<path id="XMLID_56_" fill="#A37F47" d="M670.9,348.9c0,0-3.9-36.2-21.2-59.9c-17.3-23.7-24.6-29.8-24.6-29.8s-7.5,69-61.7,89.6&#10;&#9;&#9;&#9;c-54.2,20.6,32.4,57.7-14.2,107.6c0.8-1.2,16.3-24.3,1.3-51.4c-15.3-27.8-29.3-48.4,2.7-65.6c32-17.1,73.8-65.5,63.2-97.9&#10;&#9;&#9;&#9;C616.4,241.6,677.4,279.4,670.9,348.9z"/><path d="M 868.4348754882812 575.7391967773438" style="fill: rgb(238, 193, 156); fill-opacity: 1; stroke: rgb(0, 0, 0); stroke-opacity: 1; stroke-width: 0; paint-order: fill;" transform="matrix(0.5165116190910339, -0.8562802076339723, 0.8562802076339723, 0.5165116190910339, -149.16572484086743, 855.6923828125)"/>
		<path id="XMLID_55_" fill="#BF9452" d="M567.8,234c0,0-35.9,0.8-59.9,42.7s2.9,53.3,12.2,30.1C529.3,283.5,531.6,250.9,567.8,234z&#10;&#9;&#9;&#9;"/>
		<path id="XMLID_38_" fill="#BF9452" d="M478.7,268.8c0,0-44.3-4.4-62.4,62.3C416.4,331.1,437.4,278,478.7,268.8z"/>
		<path id="XMLID_48_" fill="#EEC19C" d="M 744.0785766601563 553.4554077148438 C 744.0785766601563 553.4554077148438 762.8000000000001 535.8000000000001 775 548.7 C 775 548.7 788.7 549.7 785.7 556.8000000000001 C 785.7 556.8000000000001 770.1589721679688 564.4707275390625 760.7589721679688 569.3707275390626 C 760.7589721679688 569.3707275390626 779.8 580.8000000000001 770.9 581.5000000000001 C 770.9 581.5000000000001 761.1999999999999 585.0000000000001 745.1 572.2000000000002 C 745.2 572.3 734.0785766601563 561.8554077148438 744.0785766601563 553.4554077148438 Z" transform="matrix(0.8736675381660463, 0.486523449420929, -0.486523449420929, 0.8736675381660463, 366.18799874282286, -255.13480573701042)"/>
	<path d="M 831.4783325195312 572.7826538085938 L 688.0870361328125 565.391357421875" style="fill: rgb(238, 193, 156); fill-opacity: 1; stroke: rgb(0, 0, 0); stroke-opacity: 1; stroke-width: 0; paint-order: fill;"/><path d="M 889.1305541992188 674.7826538085938" style="fill: rgb(238, 193, 156); fill-opacity: 1; stroke: rgb(0, 0, 0); stroke-opacity: 1; stroke-width: 0; paint-order: fill;"/></g>
</g>

</svg>