<?xml version="1.0" encoding="utf-8"?>
<svg id="master-artboard" viewBox="0 0 1920 1080" version="1.1" xmlns="http://www.w3.org/2000/svg" x="0px" y="0px" style="enable-background:new 0 0 1920 1080;" width="1920px" height="1080px">
<path style="fill:#FFFFFF;" d="M1821.4,331.2C1821.4,331.2,1821.4,331.2,1821.4,331.2C1821.4,331.2,1821.4,331.2,1821.4,331.2&#10;&#9;&#9;&#9;c0.4,0.1,0.6,0.1,0.9,0.2C1822.5,331.3,1822.4,331.3,1821.4,331.2z" transform="matrix(1, 0, 0, 1, 0, -7.105427357601002e-15)"/><path style="fill:#FFFFFF;" d="M1729.6,292.6c0.3,0.3,0.6,0.7,0.8,1c0,0,0,0,0.1,0.1C1730.3,293,1729.8,292.6,1729.6,292.6z" transform="matrix(1, 0, 0, 1, 0, -7.105427357601002e-15)"/><path style="fill:#FFFFFF;" d="M1781,329.8c0,0-0.1,0-0.1,0c0,0-0.1,0-0.1,0c0,0,0,0,0,0C1780.9,329.8,1780.9,329.9,1781,329.8&#10;&#9;&#9;&#9;C1781,329.9,1781,329.8,1781,329.8z" transform="matrix(1, 0, 0, 1, 0, -7.105427357601002e-15)"/><path style="fill:#FFFFFF;" d="M1781,329.9C1781,329.9,1781,329.9,1781,329.9C1781,329.9,1781,329.9,1781,329.9z" transform="matrix(1, 0, 0, 1, 0, -7.105427357601002e-15)"/><path style="fill:#FFFFFF;" d="M1781,329.9c0,0-0.1,0-0.1,0c0.1,0.1,0.2,0.2,0.3,0.2c0,0,0,0,0,0&#10;&#9;&#9;&#9;C1781.1,330.1,1781.1,330,1781,329.9z" transform="matrix(1, 0, 0, 1, 0, -7.105427357601002e-15)"/><path style="fill:#FFFFFF;" d="M956.2,285.3C956.2,285.3,956.2,285.3,956.2,285.3c0.5,0,1.2,0.1,1.7,0.3&#10;&#9;&#9;&#9;C958.1,285.5,957.6,285.1,956.2,285.3z" transform="matrix(1, 0, 0, 1, 0, -7.105427357601002e-15)"/><path style="fill:#FFFFFF;" d="M948.2,282.1c0.1,0.1,0.2,0.1,0.2,0.1c0.1,0.1,0.3,0.1,0.4,0.2&#10;&#9;&#9;&#9;C949.5,282.8,949.8,282.8,948.2,282.1z" transform="matrix(1, 0, 0, 1, 0, -7.105427357601002e-15)"/><path style="fill:#FFFFFF;" d="M946,279.5c0,0.1,0,0.3,0,0.4c0.2,0.3,0.3,0.6,0.4,0.8c0.2,0.1,0.3,0.3,0.5,0.4&#10;&#9;&#9;&#9;C947,280.7,946.8,280.1,946,279.5z" transform="matrix(1, 0, 0, 1, 0, -7.105427357601002e-15)"/><path style="fill:#FFFFFF;" d="M955,258.9c-0.1,0.2-0.3,0.3-0.4,0.4c0,0.1-0.1,0.1-0.1,0.2C955.9,258.7,955.6,258.3,955,258.9z" transform="matrix(1, 0, 0, 1, 0, -7.105427357601002e-15)"/><path style="fill:#FFFFFF;" d="M1350.8,248C1351,247.8,1351.1,247.7,1350.8,248L1350.8,248z" transform="matrix(1, 0, 0, 1, 0, -7.105427357601002e-15)"/><path style="fill:#FFFFFF;" d="M1329.6,281.4C1331.4,282,1330.4,281.5,1329.6,281.4L1329.6,281.4z" transform="matrix(1, 0, 0, 1, 0, -7.105427357601002e-15)"/><path style="fill:#FFFFFF;" d="M945.9,279.5c0,0,0,0.1,0,0.1C945.9,279.5,945.9,279.5,945.9,279.5&#10;&#9;&#9;&#9;C945.9,279.5,945.9,279.5,945.9,279.5z" transform="matrix(1, 0, 0, 1, 0, -7.105427357601002e-15)"/><path style="fill:#FFFFFF;" d="M1096.8,143c-0.2,0-0.4,0.1-0.5,0.1c0,0-0.1,0-0.1,0C1096.8,143,1096.9,143,1096.8,143z" transform="matrix(1, 0, 0, 1, 0, -7.105427357601002e-15)"/><path style="fill:#FFFFFF;" d="M1292.7,299.4c0,0,0.1-0.1,0.2-0.1c-0.1,0.1-0.2,0.1-0.3,0.2&#10;&#9;&#9;&#9;C1292.6,299.5,1292.6,299.5,1292.7,299.4z" transform="matrix(1, 0, 0, 1, 0, -7.105427357601002e-15)"/><path style="fill:#FFFFFF;" d="M1328.8,281.3C1328.8,281.3,1328.8,281.3,1328.8,281.3c-0.2,0.1-0.3,0.2-0.3,0.2c0,0,0,0,0,0&#10;&#9;&#9;&#9;C1328.6,281.6,1328.7,281.5,1328.8,281.3C1328.8,281.4,1328.8,281.4,1328.8,281.3z" transform="matrix(1, 0, 0, 1, 0, -7.105427357601002e-15)"/><path style="fill:#FFFFFF;" d="M1293.5,163c-0.1,0.3-0.3,0.6-0.4,0.8C1293.1,163.8,1293.3,163.5,1293.5,163&#10;&#9;&#9;&#9;C1293.5,163,1293.5,163,1293.5,163z" transform="matrix(1, 0, 0, 1, 0, -7.105427357601002e-15)"/><path style="fill:#FFFFFF;" d="M1350.6,175.3C1350.6,175.2,1350.6,175.2,1350.6,175.3c-0.3-0.2-0.7-0.6-1-1&#10;&#9;&#9;&#9;C1349.5,174.4,1350,175,1350.6,175.3z" transform="matrix(1, 0, 0, 1, 0, -7.105427357601002e-15)"/><path style="fill:#FFFFFF;" d="M272.3,329.7c0.3,0.2,0.7,0.4,1,0.7c0,0,0,0,0.1,0C272.3,329.2,272,329.3,272.3,329.7z" transform="matrix(1, 0, 0, 1, 0, -7.105427357601002e-15)"/><path style="fill:#FFFFFF;" d="M49.7,350.1c-0.1,0.1-0.1,0.2-0.2,0.3C49.9,350.3,50,349.8,49.7,350.1z" transform="matrix(1, 0, 0, 1, 0, -7.105427357601002e-15)"/><path style="fill:#FFFFFF;" d="M511.6,269.9c0,0,0-0.1,0-0.1c-0.1-0.3-0.2-0.6-0.3-0.9C511.2,268.9,511.3,269.2,511.6,269.9z" transform="matrix(1, 0, 0, 1, 0, -7.105427357601002e-15)"/><path style="fill:#FFFFFF;" d="M473.9,331.3C473.9,331.3,473.9,331.3,473.9,331.3c0.3-0.1,0.7-0.1,1-0.2&#10;&#9;&#9;&#9;C475.2,331,475.1,331,473.9,331.3z" transform="matrix(1, 0, 0, 1, 0, -7.105427357601002e-15)"/><path style="fill:#FFFFFF;" d="M269.7,327.2c0.2,0.2,0.3,0.5,0.5,0.8c0,0,0,0,0.1,0.1c-0.1-0.2-0.2-0.5-0.4-0.7&#10;&#9;&#9;&#9;C269.8,327.2,269.7,327.2,269.7,327.2z" transform="matrix(1, 0, 0, 1, 0, -7.105427357601002e-15)"/><path style="fill:#FFFFFF;" d="M373.4,210.1C373.4,210.1,373.4,210.1,373.4,210.1c-0.2-0.2-0.5-0.5-0.7-0.7&#10;&#9;&#9;&#9;C372.5,209.1,372.4,209.1,373.4,210.1z" transform="matrix(1, 0, 0, 1, 0, -7.105427357601002e-15)"/><path style="fill:#FFFFFF;" d="M270.3,328.1c0.1,0,0.1,0.1,0.2,0.1c-0.1-0.1-0.1-0.3-0.2-0.4C270.3,327.9,270.3,328,270.3,328.1z" transform="matrix(1, 0, 0, 1, 0, -7.105427357601002e-15)"/><path style="fill:#FFFFFF;" d="M413.3,172.7C413,173.1,412.7,173.5,413.3,172.7L413.3,172.7z" transform="matrix(1, 0, 0, 1, 0, -7.105427357601002e-15)"/><path style="fill:#FFFFFF;" d="M520.3,233.4c-0.2,0.3-0.3,0.7-0.3,0.9c0.1-0.2,0.2-0.4,0.3-0.6c0,0,0,0.1,0,0.1&#10;&#9;&#9;&#9;c0-0.1,0.1-0.3,0.1-0.4c0,0,0,0,0,0c0,0,0,0,0,0c0,0,0-0.1,0-0.1c0-0.1,0-0.1,0.1-0.2c0,0,0,0-0.1,0.1c0-0.2,0-0.4,0-0.5&#10;&#9;&#9;&#9;c0-0.1,0-0.2,0-0.3C520.4,232.4,520.3,232.8,520.3,233.4z" transform="matrix(1, 0, 0, 1, 0, -7.105427357601002e-15)"/><path style="fill:#FFFFFF;" d="M943.6,21c-0.2,0.1-0.3,0.1-0.5,0.2c0-0.1,0.1-0.1,0.1-0.2c-0.1,0-0.1,0-0.2,0c0,0,0,0-0.1,0&#10;&#9;&#9;&#9;c0,0.1,0.1,0.1,0.1,0.1c-0.2,0.1-0.3,0.1-0.5,0.2c0,0-0.1,0-0.1,0c-0.1,0.1-0.3,0.2-0.4,0.3c0.3-0.1,0.8-0.3,1-0.5&#10;&#9;&#9;&#9;c0.5,0.3,1.4-0.2,1.4-0.4c-0.2,0-0.4,0.1-0.7,0.1C943.7,21,943.7,21,943.6,21z" transform="matrix(1, 0, 0, 1, 0, -7.105427357601002e-15)"/><path style="fill:#FFFFFF;" d="M734.8,55.8C734.8,55.8,734.8,55.8,734.8,55.8C734.8,55.8,734.8,55.8,734.8,55.8&#10;&#9;&#9;&#9;c0.4,0.1,0.6,0.1,0.9,0.2C735.9,56,735.7,56,734.8,55.8z" transform="matrix(1, 0, 0, 1, 0, -7.105427357601002e-15)"/><path style="fill:#FFFFFF;" d="M643,17.3c0.3,0.3,0.6,0.7,0.8,1c0,0,0,0,0.1,0.1C643.7,17.7,643.2,17.3,643,17.3z" transform="matrix(1, 0, 0, 1, 0, -7.105427357601002e-15)"/><path style="fill:#FFFFFF;" d="M694.3,54.5c0,0-0.1,0-0.1,0c0,0-0.1,0-0.1,0c0,0,0,0,0,0C694.2,54.5,694.3,54.5,694.3,54.5&#10;&#9;&#9;&#9;C694.3,54.5,694.3,54.5,694.3,54.5z" transform="matrix(1, 0, 0, 1, 0, -7.105427357601002e-15)"/><path style="fill:#FFFFFF;" d="M694.3,54.5C694.4,54.6,694.4,54.6,694.3,54.5C694.4,54.6,694.4,54.6,694.3,54.5z" transform="matrix(1, 0, 0, 1, 0, -7.105427357601002e-15)"/><path style="fill:#FFFFFF;" d="M694.4,54.6c0,0-0.1,0-0.1,0c0.1,0.1,0.2,0.2,0.3,0.2c0,0,0,0,0,0&#10;&#9;&#9;&#9;C694.5,54.7,694.4,54.7,694.4,54.6z" transform="matrix(1, 0, 0, 1, 0, -7.105427357601002e-15)"/><path style="fill:#FFFFFF;" d="M939.9,23.9c0,0.1-0.1,0.1-0.1,0.2c0.8-0.1,1.2-1.3,0.6-0.8c-0.1,0.2-0.3,0.3-0.4,0.5&#10;&#9;&#9;&#9;C940,23.8,939.9,23.8,939.9,23.9z" transform="matrix(1, 0, 0, 1, 0, -7.105427357601002e-15)"/><path style="fill:#FFFFFF;" d="M130.3,13.8C132.1,14.4,131.2,14,130.3,13.8L130.3,13.8z" transform="matrix(1, 0, 0, 1, 0, -7.105427357601002e-15)"/><path style="fill:#FFFFFF;" d="M93.5,31.9c0,0,0.1-0.1,0.2-0.1c-0.1,0.1-0.2,0.1-0.3,0.2C93.4,31.9,93.4,31.9,93.5,31.9z" transform="matrix(1, 0, 0, 1, 0, -7.105427357601002e-15)"/><path style="fill:#FFFFFF;" d="M129.6,13.8C129.5,13.8,129.5,13.8,129.6,13.8c-0.2,0.1-0.3,0.2-0.3,0.2c0,0,0,0,0,0&#10;&#9;&#9;&#9;C129.3,14,129.5,13.9,129.6,13.8C129.6,13.8,129.6,13.8,129.6,13.8z" transform="matrix(1, 0, 0, 1, 0, -7.105427357601002e-15)"/><path style="fill:#57B148;" d="M2090.2,954.3c-13.5-47.4-28-96.2-51.1-135.3c-21.6-36.5-50.6-60-81.6-74.4&#10;&#9;&#9;c-32.1-14.9-65.9-22.2-98.9-31.2c-40.4-11-80.6-12.4-121.4-15.5c-41.2-3.1-82.2-9.7-123.5-10.6c-41.8-0.9-83.6,1.3-125.3-2.3&#10;&#9;&#9;c-82.7-7.2-165.8-5-248.7-6.1c-41.3-0.5-82.3,2.9-123.5,4.8c-41.4,1.9-82.9,0.7-124.3,2.5c-41.4,1.8-82.7,7.7-123.9,13.3&#10;&#9;&#9;c-39.4,5.3-79.3,6.6-118.5,14.5c-41.8,8.4-82.8,19.3-125,21.7c-41.5,2.3-83-0.3-124.3-5.5c-41.4-5.2-82.1-10-123.8-9.4&#10;&#9;&#9;c-42.3,0.7-84.4,1.7-126.6-1c-82.9-5.3-164.4-12.3-246.9,5.5c-32.4,7-66.1,12.5-93.5,40c-3.6-2.6-7.9-2.2-11.3,3.5l-2.1,3.5&#10;&#9;&#9;c-1.5,2.4-2.3,5-2.6,7.7c-7.8,19.2-17.4,36.1-23.9,56.7c-7.8,24.9-15.3,49.6-21,75.8c-5.9,26.8-10.9,53.8-14.7,81.4&#10;&#9;&#9;c-3.9,28-10,56.1-11.6,84.6c-1,18.1,0.4,36.6,8.4,51.1c9.5,17.1,25,26.5,38.5,34.4c35.6,20.5,75.5,26.5,113.2,33.5&#10;&#9;&#9;c83.3,15.4,167.5,17.8,251.4,19.9c85.3,2.1,170.5,4.1,255.8,4.5c170.2,0.6,340.4-4.7,510.5-6.6c169.5-1.9,339-4.5,508.4-15.5&#10;&#9;&#9;c166.6-10.8,332.5-32.2,497.4-68.9c19.9-4.4,40-8.6,59.4-16.7c11.4-4.8,23-11.7,30.6-25.8C2115.8,1051.4,2100.9,992,2090.2,954.3z" transform="matrix(1, 0, 0, 1, 81.02362155289768, -79.09448770640013)"/><path style="fill:#4F9940;" d="M19.8,976.9c-0.6-1.9-1.2-3.9-1.9-5.8c-0.3-1-0.6-1.9-0.9-2.9c-0.2-0.5-1.2-4.5-0.3-0.9&#10;&#9;&#9;&#9;c-0.5-2-1-3.9-1.4-5.9c-0.2-1.2-0.4-2.4-0.6-3.6c0-0.1,0-0.1,0-0.2c0-0.2,0-0.4,0-0.6c-0.4-8.2-4.6-16.2-10.7-15.8&#10;&#9;&#9;&#9;c-5.4,0.4-11.1,7-10.7,15.8c0.6,11.3,3.3,21.1,6.6,31.3c0.6,1.9,1.2,3.9,1.8,5.8c0.1,0.3,0.1,0.5,0.2,0.7c0-0.1-0.1-0.2-0.1-0.4&#10;&#9;&#9;&#9;c0,0.1,0.1,0.3,0.1,0.4c0.2,0.7,0.3,1.1,0.1,0.5c0.2,0.9,0.4,1.7,0.6,2.6c0.3,1.3,1.4,4.7,1.1,6c-0.1-2-0.2-2.4-0.1-1.2&#10;&#9;&#9;&#9;c0,0.6,0.1,1.2,0.1,1.8c0,1.3,0,2.5-0.1,3.8c-0.4,8.3,5.2,16.2,10.7,15.8c6.1-0.4,10.3-7,10.7-15.8&#10;&#9;&#9;&#9;C25.6,997.2,22.9,986.8,19.8,976.9z" transform="matrix(1, 0, 0, 1, 0, -7.105427357601002e-15)"/><path style="fill:#4F9940;" d="M1.9,994.8c0.1,0.2,0.1,0.4,0.1,0.5C2,995.1,2,995,1.9,994.8C2,994.8,1.9,994.8,1.9,994.8z" transform="matrix(1, 0, 0, 1, 0, -7.105427357601002e-15)"/><path style="fill:#4F9940;" d="M118.4,956.6c-5.8,0.4-10.7,7-10.7,15.8v30.8c0,8.3,4.9,16.2,10.7,15.8c5.8-0.4,10.7-7,10.7-15.8&#10;&#9;&#9;v-30.8C129.1,964.1,124.1,956.2,118.4,956.6z" transform="matrix(1, 0, 0, 1, 0, -7.105427357601002e-15)"/><path style="fill:#4F9940;" d="M41,820.7c-0.3-0.7-1.5-5.3-1-2.7c-0.3-1.1-0.5-2.2-0.7-3.4c-0.1-0.8-0.4-4.7-0.2-1&#10;&#9;&#9;c-0.1-1.8-0.1-3.6-0.1-5.4c0.1-8.3-5-16.2-10.7-15.8c-5.9,0.4-10.6,7-10.7,15.8c-0.2,10.1,1.6,19.8,4.9,28.5&#10;&#9;&#9;c2.7,7.2,9.8,10.3,14.6,5.7C42.1,837.6,43.9,828.4,41,820.7z" transform="matrix(1, 0, 0, 1, 0, -7.105427357601002e-15)"/><path style="fill:#4F9940;" d="M323.4,911.5c-0.3-1.7-0.7-6-0.3-0.7c-0.4-4.4-0.9-7.9-3.1-11.2c-1.9-2.7-4.9-4.8-7.6-4.6&#10;&#9;&#9;c-2.8,0.2-5.6,1.5-7.6,4.6c-1.8,2.9-3.5,7.2-3.1,11.2c0.6,6.4,1.2,12.4,3.5,18c2.5,6.2,6.5,11,11.3,12.7&#10;&#9;&#9;c5.4,1.9,11.8-2.5,13.1-11.1C330.8,922.9,328.4,914.3,323.4,911.5z" transform="matrix(1, 0, 0, 1, 0, -7.105427357601002e-15)"/><path style="fill:#4F9940;" d="M318.2,779.6c-0.5-1.1-0.9-2.3-1.3-3.4c0-0.1,0-0.1,0-0.2c-0.2-1-0.4-1.9-0.6-2.9&#10;&#9;&#9;c0-0.3-0.1-0.5-0.1-0.8c0,0,0-0.1,0-0.1c-0.4-8.2-4.6-16.2-10.7-15.8c-5.4,0.4-11.2,7-10.7,15.8c0.4,8.4,1.9,16.2,4.9,23.4&#10;&#9;&#9;c3,7,9.7,10.4,14.6,5.7C319.1,796.8,321.4,787.1,318.2,779.6z" transform="matrix(1, 0, 0, 1, 0, -7.105427357601002e-15)"/><path style="fill:#4F9940;" d="M468.4,966.8c-6,0.4-10.5,7-10.7,15.8c0,0.2,0,0.4,0,0.6c0,0,0,0.1,0,0.1c-0.2,0.7-0.3,1.5-0.5,2.3&#10;&#9;&#9;c-0.1,0.3-0.6,1.8-0.7,2.3c-0.5,1.4-1.1,2.7-1.6,4c-2,4.6-4.2,8.8-6.1,13.5c-2.8,7.1-1.3,17.7,3.8,21.7c5.1,4,11.6,1.9,14.6-5.7&#10;&#9;&#9;c5.1-12.7,11.5-23.2,11.9-38.8C479.3,974.4,474,966.5,468.4,966.8z" transform="matrix(1, 0, 0, 1, 0, -7.105427357601002e-15)"/><path style="fill:#4F9940;" d="M701.2,1002.3l-6.9-10.3c-4-5.9-11.2-6.3-15.1,0c-3.9,6.3-4.2,16.1,0,22.4l6.9,10.3&#10;&#9;&#9;c4,5.9,11.2,6.3,15.1,0C705.1,1018.3,705.4,1008.5,701.2,1002.3z" transform="matrix(1, 0, 0, 1, 0, -7.105427357601002e-15)"/><path style="fill:#4F9940;" d="M714.3,839.9c-0.7-7-2.8-13.5-3.5-20.5c-0.8-8.2-8.1-13.5-13.1-11.1c-6.1,2.9-8.3,10.7-7.5,19.5&#10;&#9;&#9;c0.7,7,2.8,13.5,3.5,20.5c0.8,8.2,8.1,13.5,13.1,11.1C713,856.4,715.2,848.7,714.3,839.9z" transform="matrix(1, 0, 0, 1, 0, -7.105427357601002e-15)"/><path style="fill:#4F9940;" d="M562,915.5c-5.8,0.4-10.7,7-10.7,15.8v15.4c0,8.3,4.9,16.2,10.7,15.8c5.8-0.4,10.7-7,10.7-15.8&#10;&#9;&#9;v-15.4C572.6,923.1,567.7,915.1,562,915.5z" transform="matrix(1, 0, 0, 1, 0, -7.105427357601002e-15)"/><path style="fill:#4F9940;" d="M267.7,1080.2c-0.5-6-1.2-12-1.9-18c-0.3-2.4-0.6-4.8-0.9-7.2c-0.1-1.1-0.3-2.2-0.4-3.2&#10;&#9;&#9;c0,0-0.5-5-0.3-2.3c-0.7-8.2-4.4-16.2-10.7-15.8c-5.2,0.3-11.5,7-10.7,15.8c0.5,6,1.2,12,1.9,18c0.3,2.4,0.6,4.8,0.9,7.2&#10;&#9;&#9;c0.1,1.1,0.3,2.2,0.4,3.2c0,0,0.5,5,0.3,2.3c0.7,8.2,4.4,16.2,10.7,15.8C262.2,1095.7,268.5,1089,267.7,1080.2z" transform="matrix(1, 0, 0, 1, 0, -7.105427357601002e-15)"/><path style="fill:#4F9940;" d="M946.6,997.6c-5.8,0.4-10.7,7-10.7,15.8v10.3c0,8.3,4.9,16.2,10.7,15.8c5.8-0.4,10.7-7,10.7-15.8&#10;&#9;&#9;v-10.3C957.3,1005.2,952.4,997.2,946.6,997.6z" transform="matrix(1, 0, 0, 1, 0, -7.105427357601002e-15)"/><path style="fill:#4F9940;" d="M932.8,782.1c-5.8,0.4-10.7,7-10.7,15.8v15.4c0,8.3,4.9,16.2,10.7,15.8c5.8-0.4,10.7-7,10.7-15.8&#10;&#9;&#9;v-15.4C943.5,789.6,938.5,781.7,932.8,782.1z" transform="matrix(1, 0, 0, 1, 0, -7.105427357601002e-15)"/><path style="fill:#4F9940;" d="M863.4,978.5c-0.7-7-2.8-13.5-3.5-20.5c-0.8-8.2-8.1-13.5-13.1-11.1c-6.1,2.9-8.3,10.7-7.5,19.5&#10;&#9;&#9;c0.7,7,2.8,13.5,3.5,20.5c0.8,8.2,8.1,13.5,13.1,11.1C862,995,864.2,987.3,863.4,978.5z" transform="matrix(1, 0, 0, 1, 0, -7.105427357601002e-15)"/><path style="fill:#4F9940;" d="M1109.5,961.7c-5.8,0.4-10.7,7-10.7,15.8v10.3c0,8.3,4.9,16.2,10.7,15.8c5.8-0.4,10.7-7,10.7-15.8&#10;&#9;&#9;v-10.3C1120.2,969.2,1115.3,961.3,1109.5,961.7z" transform="matrix(1, 0, 0, 1, 0, -7.105427357601002e-15)"/><path style="fill:#4F9940;" d="M1123.4,741c-5.8,0.4-10.7,7-10.7,15.8c0,0.6,0,1.2,0,1.8c0,0.2-0.1,0.4-0.1,0.7&#10;&#9;&#9;c-0.3,1.4-0.6,2.9-0.9,4.4c-0.7,3.1-1.5,6.2-2.1,9.4c-1.4,8,1.8,17.6,7.5,19.5c5.6,1.9,11.6-2.5,13.1-11.1&#10;&#9;&#9;c1.5-8.4,3.9-15.8,3.8-24.7C1134,748.6,1129.2,740.6,1123.4,741z" transform="matrix(1, 0, 0, 1, 0, -7.105427357601002e-15)"/><path style="fill:#4F9940;" d="M1047.4,926.2c-0.3-8.6-4.7-15.8-10.7-15.8c-5.6,0-10.9,7.3-10.7,15.8c0.3,8.6,4.7,15.8,10.7,15.8&#10;&#9;&#9;C1042.3,942,1047.7,934.8,1047.4,926.2z" transform="matrix(1, 0, 0, 1, 0, -7.105427357601002e-15)"/><path style="fill:#4F9940;" d="M1275.8,1029.8c-0.4-3.4-1.4-6.5-2.3-9.6c-0.2-0.6-0.3-1.2-0.5-1.8c-0.3-1.3-0.5-2.6-0.7-4&#10;&#9;&#9;c-1.1-8.1-7.9-13.6-13.1-11.1c-5.8,2.8-8.6,10.8-7.5,19.5c0.4,3.4,1.4,6.5,2.3,9.6c0.2,0.6,0.3,1.2,0.5,1.8c0.3,1.3,0.5,2.6,0.7,4&#10;&#9;&#9;c1.1,8.1,7.9,13.6,13.1,11.1C1274.1,1046.4,1276.9,1038.5,1275.8,1029.8z" transform="matrix(1, 0, 0, 1, 0, -7.105427357601002e-15)"/><path style="fill:#4F9940;" d="M1334.7,922c-0.4-3.4-1.4-6.5-2.3-9.6c-0.2-0.6-0.3-1.2-0.5-1.8c-0.3-1.3-0.5-2.6-0.7-4&#10;&#9;&#9;c-1.1-8.1-7.9-13.6-13.1-11.1c-5.8,2.8-8.6,10.8-7.5,19.5c0.4,3.4,1.4,6.5,2.3,9.6c0.2,0.6,0.3,1.2,0.5,1.8c0.3,1.3,0.5,2.6,0.7,4&#10;&#9;&#9;c1.1,8.1,7.9,13.6,13.1,11.1C1333.1,938.7,1335.8,930.7,1334.7,922z" transform="matrix(1, 0, 0, 1, 0, -7.105427357601002e-15)"/><path style="fill:#4F9940;" d="M1431.7,957.9c-0.9-8.2-8.1-13.5-13.1-11.1c-5.6,2.7-8.1,9.7-7.6,17.8c0,0,0,0.1,0,0.1&#10;&#9;&#9;c0,0.2-0.1,0.7-0.2,1.2c-0.1,0.2-0.1,0.4-0.2,0.7c-1.2,3.8-2.4,7.7-2.9,11.8c-0.9,8.1,1.4,17.4,7.5,19.5&#10;&#9;&#9;c5.1,1.7,12.2-2.3,13.1-11.1c0.2-1.6,1-3.7,1-5.3c0-0.2,0.1-0.3,0.1-0.5c0.5-1.8,1.1-3.5,1.5-5.3&#10;&#9;&#9;C1432.4,969.8,1432.4,964.1,1431.7,957.9z" transform="matrix(1, 0, 0, 1, 0, -7.105427357601002e-15)"/><path style="fill:#4F9940;" d="M1452,721.1c-5.1-1.7-12.3,2.3-13.1,11.1c-0.7,7-2.8,13.5-3.5,20.5c-0.8,8.2,1.4,17.4,7.5,19.5&#10;&#9;&#9;c5.1,1.7,12.3-2.3,13.1-11.1c0.7-7,2.8-13.5,3.5-20.5C1460.2,732.4,1458.1,723.1,1452,721.1z" transform="matrix(1, 0, 0, 1, 0, -7.105427357601002e-15)"/><path style="fill:#4F9940;" d="M1567.6,1012.5c-1.9-2.7-4-5.1-5.9-7.8c-0.4-0.6-0.8-1.3-1.3-1.9c-0.1-0.2-0.1-0.4-0.2-0.5&#10;&#9;&#9;c-0.5-7.9-5-15.2-10.6-14.8c-5.7,0.4-10.8,7-10.7,15.8c0.1,8.4,2.5,15.3,6.1,21.5c2.2,3.8,5,6.7,7.4,10.2c4,5.8,11.2,6.4,15.1,0&#10;&#9;&#9;C1571.5,1028.7,1571.9,1018.7,1567.6,1012.5z" transform="matrix(1, 0, 0, 1, 0, -7.105427357601002e-15)"/><path style="fill:#4F9940;" d="M1691.6,983.6c-1-8.2-8-13.5-13.1-11.1c-5.7,2.7-8.3,10.1-7.6,18.5c0,0.7,0.1,1.4,0,2.1&#10;&#9;&#9;c0,0.5,0,1.1,0,1.6c-0.1,0.7-0.2,1.3-0.3,1.9c0,0.1,0,0.1-0.1,0.2c-0.1,0.1-0.1,0.2-0.2,0.3c-4,5.8-4.2,16.6,0,22.4&#10;&#9;&#9;c4.3,5.8,10.8,6.2,15.1,0C1691.9,1010.1,1693.2,996.3,1691.6,983.6z" transform="matrix(1, 0, 0, 1, 0, -7.105427357601002e-15)"/><path style="fill:#4F9940;" d="M1668.1,838c-2-2.8-4.7-4.8-7.6-4.6l-2.8,0.6c-1.8,0.8-3.4,2.1-4.7,4.1c-4.4,5.1-6.5,13.4-6.6,21.5&#10;&#9;&#9;c-0.1,8.3,5,16.2,10.7,15.8c5.5-0.4,10.1-6.3,10.6-14.4c0.1-0.2,0.3-0.3,0.4-0.5c2-2.3,3.1-7.6,3.1-11.2&#10;&#9;&#9;C1671.2,845.3,1670.1,840.7,1668.1,838z" transform="matrix(1, 0, 0, 1, 0, -7.105427357601002e-15)"/><path style="fill:#4F9940;" d="M1713.1,730.3c-1-1.5-2.1-2.6-3.4-3.3c-1.3-1-2.6-1.4-4.1-1.4c-2.8,0.2-5.6,1.5-7.6,4.6&#10;&#9;&#9;c-1.9,3.1-3.1,6.9-3.1,11.2v5.1c0,4.1,1.2,8.3,3.1,11.2c1,1.5,2.1,2.6,3.4,3.3c1.3,1,2.6,1.4,4.1,1.4c2.8-0.2,5.6-1.5,7.6-4.6&#10;&#9;&#9;c1.9-3.1,3.1-6.9,3.1-11.2v-5.1C1716.3,737.4,1715.1,733.1,1713.1,730.3z" transform="matrix(1, 0, 0, 1, 0, -7.105427357601002e-15)"/><path style="fill:#4F9940;" d="M1813.6,1022.8c-0.3-0.4-0.5-0.8-0.7-1.3c-0.1-0.1-0.1-0.3-0.2-0.5c-0.6-1.5-1.2-3.1-1.8-4.6&#10;&#9;&#9;c-0.1-0.4-0.2-0.7-0.3-0.9c-0.1-0.5-0.2-0.9-0.3-1.4c-0.3-1.6-0.6-3.2-0.7-4.9c-0.8-8.2-8.1-13.5-13.1-11.1&#10;&#9;&#9;c-6.1,2.9-8.3,10.7-7.5,19.5c1,10.3,5,19.9,9.7,27.5c3.7,6.2,11.4,6.1,15.1,0C1817.7,1038.6,1817.6,1029.4,1813.6,1022.8z" transform="matrix(1, 0, 0, 1, 0, -7.105427357601002e-15)"/><path style="fill:#4F9940;" d="M1889.5,777.4c-0.1-8.3-4.8-16.2-10.7-15.8c-5.7,0.4-10.8,7-10.7,15.8c0,1.4,0,2.8-0.1,4.3&#10;&#9;&#9;c0,0.4-0.1,1.4-0.3,2.2c-0.2,1.3-0.5,2.5-0.8,3.8c0.7-3.4-0.6,1.6-0.9,2.3c-2.7,7.2-1.3,17.6,3.8,21.7c5,4,11.7,2,14.6-5.7&#10;&#9;&#9;C1887.9,797.1,1889.7,787.4,1889.5,777.4z" transform="matrix(1, 0, 0, 1, 0, -7.105427357601002e-15)"/><path style="fill:#4F9940;" d="M1874.2,954.1c-2.3-6.8-4.6-13.7-6.9-20.5c-2.5-7.4-10-10.1-14.6-5.7c-5.1,4.9-6.5,13.7-3.8,21.7&#10;&#9;&#9;c2.3,6.8,4.6,13.7,6.9,20.5c2.5,7.4,10,10.1,14.6,5.7C1875.5,970.9,1876.9,962.1,1874.2,954.1z" transform="matrix(1, 0, 0, 1, 0, -7.105427357601002e-15)"/>
<g transform="matrix(1, 0, 0, 1, 0, -7.105427357601002e-15)">
		<g>
			<path style="fill:#F5D954;" d="M1248.6,581.3c5.6,44,5.1,88.6,6.9,132.9c0.2,4.4,0.4,9,2.8,12.7c3.1,4.9,9,7.1,14.7,8.6&#10;&#9;&#9;&#9;&#9;c15.3,3.9,31.5,4.2,46.9,0.9c-1.9-96.8-20-193.4-53.4-284.3c-1.5-4.2-3.4-8.7-7.5-10.7c-3.6-1.7-7.8-0.9-11.6,0.1&#10;&#9;&#9;&#9;&#9;c-7.2,1.9-32.4,7.4-36.1,14.7c-4.4,8.8,10.4,27.3,14.5,36.8C1237.9,521,1244.7,551.1,1248.6,581.3z"/>
			<path style="fill:#092936;" d="M1298.4,744.4c-9,0-18.1-1.1-26.8-3.3c-6.2-1.6-13.8-4.2-18.1-11.1c-3.2-5.2-3.5-11.2-3.6-15.5&#10;&#9;&#9;&#9;&#9;c-0.5-12.1-0.8-24.5-1.1-36.4c-0.8-31.6-1.7-64.3-5.8-96l0,0c-4.3-33.5-11.6-61.8-22.4-86.7c-1-2.3-3-5.7-5.1-9.2&#10;&#9;&#9;&#9;&#9;c-6.5-11-13.9-23.4-9.3-32.5c3.7-7.3,16.8-11.9,36.7-16.9c1.2-0.3,2.2-0.6,3-0.8c5.1-1.3,10.5-2.2,15.6,0.3&#10;&#9;&#9;&#9;&#9;c5.9,2.9,8.4,8.7,10.4,13.9c33.8,91.9,51.9,188.2,53.8,286.2c0.1,2.8-1.9,5.2-4.6,5.8C1313.6,743.6,1306,744.4,1298.4,744.4z&#10;&#9;&#9;&#9;&#9; M1254.3,446.2c-1.6,0-3.5,0.4-5.4,0.9c-0.8,0.2-1.9,0.5-3.2,0.8c-4.6,1.2-11.6,2.9-17.9,5.1c-9.8,3.4-11.3,5.7-11.3,5.8&#10;&#9;&#9;&#9;&#9;c-0.1,0.3-0.8,2,1.5,7.5c1.8,4.4,4.8,9.4,7.5,13.9c2.3,3.8,4.4,7.5,5.7,10.5c11.2,25.9,18.8,55.3,23.2,89.8l0,0&#10;&#9;&#9;&#9;&#9;c4.1,32.3,5,65.3,5.9,97.2c0.3,11.9,0.6,24.2,1.1,36.2c0.2,4.1,0.4,7.5,1.9,9.9c1.7,2.6,5.1,4.5,11.2,6&#10;&#9;&#9;&#9;&#9;c12.9,3.3,26.5,3.8,39.6,1.7c-2.4-95-20.2-188.3-53-277.5c-1.1-3.1-2.5-6.5-4.6-7.5C1255.9,446.3,1255.1,446.2,1254.3,446.2z"/>
		</g>
		<g>
			<path style="fill:#F6AC93;" d="M1210.3,453.6c-0.7-17.9-0.4-35.8,1-53.7c21.3,5.9,40.4,19.7,52.6,38.2&#10;&#9;&#9;&#9;&#9;c-16.7,5.1-33.5,10-50.4,14.7"/>
			<path style="fill:#092936;" d="M1210.3,459.4c-3.1,0-5.6-2.4-5.8-5.6c-0.7-18-0.4-36.3,1-54.3c0.1-1.7,1-3.3,2.4-4.3&#10;&#9;&#9;&#9;&#9;c1.4-1,3.2-1.3,4.9-0.8c22.6,6.2,42.9,21,55.9,40.5c1,1.5,1.2,3.4,0.6,5.1c-0.6,1.7-2,3-3.7,3.6c-16.7,5.1-33.7,10.1-50.5,14.8&#10;&#9;&#9;&#9;&#9;c-0.6,0.2-1.2,0.2-1.8,0.2c-0.8,0.5-1.7,0.7-2.7,0.8C1210.4,459.4,1210.4,459.4,1210.3,459.4z M1216.6,407.7&#10;&#9;&#9;&#9;&#9;c-0.8,12.8-1,25.7-0.7,38.5c12.9-3.6,25.8-7.4,38.6-11.2C1244.6,422.7,1231.3,413.1,1216.6,407.7z"/>
		</g>
		<g>
			<path style="fill:#092936;" d="M1218.9,799.6c-2.6,0-4.9-1.7-5.6-4.3c-0.8-3.1,1-6.2,4.1-7.1c16.7-4.4,32.5-11.4,47.1-20.8&#10;&#9;&#9;&#9;&#9;c1.6-1,3.2-2.1,3.9-3.2c0.7-1,1-2.8,1.3-4.5l4.5-23.3c0.6-3.1,3.6-5.2,6.8-4.6c3.1,0.6,5.2,3.6,4.6,6.8l-4.5,23.3&#10;&#9;&#9;&#9;&#9;c-0.5,2.5-1.1,5.7-3,8.6c-2,3.1-4.7,5-7.4,6.7c-15.5,10-32.5,17.4-50.3,22.2C1219.9,799.5,1219.4,799.6,1218.9,799.6z"/>
		</g>
		<g>
			<path style="fill:#092936;" d="M1346.4,817.1c-2.3,0-4.4-1.3-5.3-3.6l-30.6-73.5c-1.2-2.9,0.2-6.3,3.1-7.6&#10;&#9;&#9;&#9;&#9;c2.9-1.2,6.3,0.2,7.6,3.1l30.6,73.5c1.2,2.9-0.2,6.3-3.1,7.6C1347.9,816.9,1347.2,817.1,1346.4,817.1z"/>
		</g>
		<g>
			<path style="fill:#092936;" d="M1207.6,658.8c-0.1,0-0.2,0-0.3,0c-3.2-0.2-5.6-2.9-5.5-6.1l1.5-29.7c0.3-5.7,0.7-12.9,4.2-19.2&#10;&#9;&#9;&#9;&#9;c3.3-5.9,8.7-9.8,13.5-13.2c0.6-0.5,1.3-0.9,1.9-1.4c12.6-9.3,23.5-21.3,31.3-34.9c1.6-2.8,5.1-3.7,7.9-2.1&#10;&#9;&#9;&#9;&#9;c2.8,1.6,3.7,5.1,2.1,7.9c-8.6,14.9-20.6,28.2-34.5,38.4c-0.7,0.5-1.3,1-2,1.4c-4.2,3-8.1,5.8-10.1,9.5&#10;&#9;&#9;&#9;&#9;c-2.2,3.9-2.5,9.1-2.7,14.1l-1.5,29.7C1213.2,656.4,1210.7,658.8,1207.6,658.8z"/>
		</g>
		<g>
			<path style="fill:#092936;" d="M1355.4,642.4c-17.3,0-34.6-7.4-46.3-20.1c-2.2-2.3-2-6,0.3-8.2c2.3-2.2,6-2,8.2,0.3&#10;&#9;&#9;&#9;&#9;c10.6,11.5,26.8,17.7,42.4,16.2c3.2-0.3,6,2,6.3,5.2c0.3,3.2-2,6-5.2,6.3C1359.2,642.3,1357.3,642.4,1355.4,642.4z"/>
		</g>
		<g>
			<path style="fill:#092936;" d="M1210.9,424.5c8.5-3,17-6,25.6-9c-5.6-8.4-14.4-14.7-24.2-17.1c0,8.1-0.1,16.2-0.1,24.3"/>
			<path style="fill:#092936;" d="M1210.9,430.3c-2.4,0-4.6-1.5-5.4-3.9c-0.7-1.9-0.3-4,0.9-5.5l0.1-22.6c0-1.8,0.8-3.4,2.2-4.5&#10;&#9;&#9;&#9;&#9;c1.4-1.1,3.2-1.5,4.9-1.1c11.2,2.7,21.3,9.8,27.7,19.5c1,1.5,1.2,3.3,0.7,5c-0.6,1.7-1.9,3-3.6,3.6l-25.6,9&#10;&#9;&#9;&#9;&#9;C1212.2,430.2,1211.5,430.3,1210.9,430.3z M1217.9,406.6l-0.1,9.3l8.8-3.1C1224.1,410.3,1221.2,408.2,1217.9,406.6z"/>
		</g>
		<g>
			<path style="fill:#092936;" d="M1280.4,703.3c1.5,8.4,3.2,17.3,7.2,23.5c4,6.2,10.8,8,13.7,1.5c-7.9-86.8-26.4-172.1-49.2-253.9&#10;&#9;&#9;&#9;&#9;c-2.3-8.4-4.9-17.1-9.3-22.8c-3.4-4.4-12.4-8.6-13.8,0.1c-0.6,4.1,9.1,24.9,10.7,29.8c7.4,23,13,47.3,17.5,71.9&#10;&#9;&#9;&#9;&#9;C1266.5,603,1271.7,653.6,1280.4,703.3z"/>
			<path style="fill:#092936;" d="M1295.9,738.2c-4.9,0-9.8-3.1-13.1-8.2c-4.5-7-6.4-16.5-8-25.6c-4.1-23.3-7.5-47.2-10.7-70.3&#10;&#9;&#9;&#9;&#9;c-3.7-26.2-7.5-53.3-12.4-79.6c-5.2-27.7-10.8-51-17.3-71.1c-0.4-1.3-1.7-4.3-3.1-7.6c-6.3-15-8.4-21.1-7.9-24.9&#10;&#9;&#9;&#9;&#9;c1.1-7.1,5.9-9.1,7.9-9.6c5.9-1.5,12.7,2.4,16.2,6.9c4.9,6.3,7.6,15,10.3,24.8c26.1,93.6,42.3,177,49.4,254.9&#10;&#9;&#9;&#9;&#9;c0.1,1-0.1,2-0.5,2.9c-2,4.4-5.6,7.2-9.9,7.5C1296.4,738.2,1296.1,738.2,1295.9,738.2z M1234.8,452.7c0.6,3.4,5,14,7,18.6&#10;&#9;&#9;&#9;&#9;c1.6,3.8,2.8,6.8,3.4,8.5c6.7,20.7,12.5,44.4,17.7,72.6c4.9,26.5,8.8,53.8,12.5,80.1c3.2,23,6.6,46.8,10.7,69.9c0,0,0,0,0,0&#10;&#9;&#9;&#9;&#9;c1.4,8,3,16.2,6.4,21.4c1.1,1.7,2.3,2.5,2.9,2.8c-7.2-76.6-23.1-158.5-48.8-250.5c-1.9-6.6-4.4-15.7-8.3-20.8&#10;&#9;&#9;&#9;&#9;C1237.4,454.1,1235.9,453.1,1234.8,452.7z"/>
		</g>
		<g>
			<path style="fill:#FFFFFF;" d="M1215.7,793.1c-5.5-2.4-12.7,2.6-12.5,8.6c0.2,5.3,4.8,9.3,7.2,14c1,2,1.7,4.3,3.6,5.5&#10;&#9;&#9;&#9;&#9;c1.3,0.8,2.9,1,4.4,1.1c7.6,0.5,15.3,1,22.9,1.6c1.4,0.1,2.9,0.2,4-0.6c3.3-2.2-0.1-7.2-3.5-9.3c-9.2-5.7-20.2-10.8-23.8-21"/>
			<path style="fill:#092936;" d="M1242.6,829.8c-0.6,0-1.2,0-1.7-0.1l-22.9-1.6c-1.8-0.1-4.6-0.3-7.2-2c-2.9-1.9-4.2-4.7-5.1-6.8&#10;&#9;&#9;&#9;&#9;c-0.2-0.4-0.3-0.7-0.5-1.1c-0.6-1.3-1.6-2.6-2.5-4c-2.3-3.2-5.1-7.2-5.2-12.4c-0.2-4.8,2.3-9.4,6.6-12.4&#10;&#9;&#9;&#9;&#9;c3.9-2.7,8.6-3.5,12.7-2.2c2.9-0.7,5.8,0.9,6.8,3.7c2.3,6.7,9.5,10.9,17,15.4c1.4,0.9,2.9,1.7,4.4,2.6c3.7,2.3,7.4,6.7,7.5,11.6&#10;&#9;&#9;&#9;&#9;c0.1,3-1.3,5.7-3.9,7.5C1246.5,829.5,1244.3,829.8,1242.6,829.8z M1242.9,818.2L1242.9,818.2L1242.9,818.2z M1217.2,816.4&#10;&#9;&#9;&#9;&#9;c0.4,0.1,1.2,0.1,1.7,0.2l18.3,1.3c-0.8-0.5-1.6-1-2.5-1.5c-7.5-4.4-15.8-9.4-20.3-17.6c-0.3-0.1-0.6-0.2-0.9-0.3&#10;&#9;&#9;&#9;&#9;c-0.7-0.3-1.9-0.1-2.9,0.6c-1,0.7-1.6,1.7-1.6,2.5c0.1,1.8,1.5,3.8,3.2,6.2c1.1,1.6,2.4,3.5,3.4,5.5c0.2,0.5,0.4,0.9,0.7,1.4&#10;&#9;&#9;&#9;&#9;C1216.5,815.2,1216.9,816,1217.2,816.4z M1217,816.4"/>
		</g>
		<g>
			<path style="fill:#FFFFFF;" d="M1346.6,812.5c-3.8,2-6.6,5.8-7.4,10.1c17.5,6,36.6,7.3,54.8,3.7c1.9-0.4,4.1-1,5-2.7&#10;&#9;&#9;&#9;&#9;c1.3-2.3-0.3-5.1-2.1-6.9c-4-3.9-9.6-5.8-15.1-6.8c-11-2.1-22.5-1.5-33.2,1.9"/>
			<path style="fill:#092936;" d="M1373.5,834c-12.3,0-24.5-2-36.2-6c-2.7-0.9-4.4-3.7-3.8-6.6c1.1-6,5-11.2,10.4-14.1&#10;&#9;&#9;&#9;&#9;c0.6-0.3,1.1-0.5,1.7-0.6c0.4-0.2,0.8-0.4,1.3-0.6c11.6-3.6,24.1-4.4,36-2c7.9,1.5,13.8,4.3,18,8.3c4.3,4.2,5.6,9.6,3.1,13.9&#10;&#9;&#9;&#9;&#9;c-2.4,4.2-7,5.1-9,5.5C1388,833.3,1380.7,834,1373.5,834z M1347.4,819c14.8,4,30.3,4.5,45.3,1.6c-2.6-2.4-6.5-4.1-12-5.1&#10;&#9;&#9;&#9;&#9;c-10.1-1.9-20.6-1.4-30.4,1.7c-0.3,0.1-0.5,0.1-0.8,0.2c-0.1,0.1-0.2,0.1-0.3,0.2C1348.6,817.9,1348,818.4,1347.4,819z"/>
		</g>
	</g><g transform="matrix(1, 0, 0, 1, 0, -7.105427357601002e-15)">
			<g>
				<path style="fill:#F5D954;" d="M1592,697c-7,21.8-21.8,41.1-41,53.6c12.2,4.7,27.2,0.5,35.3-9.8c-0.8,7.9-3.8,15.5-8.4,22&#10;&#9;&#9;&#9;&#9;&#9;c13.4-9.6,23.5-23.9,28.2-39.7c1.8-6,2.7-12.8-0.1-18.4c-2.8-5.6-10.5-9.1-15.6-5.5"/>
				<path style="fill:#092936;" d="M1577.9,768.6c-1.5,0-3-0.6-4.1-1.7c-2-2-2.2-5.2-0.6-7.5c0.9-1.2,1.7-2.5,2.4-3.8&#10;&#9;&#9;&#9;&#9;&#9;c-8.4,3.3-18.1,3.7-26.7,0.4c-2-0.8-3.5-2.6-3.7-4.8c-0.2-2.2,0.8-4.3,2.6-5.5c16.5-10.7,29.7-27,36.9-45.4&#10;&#9;&#9;&#9;&#9;&#9;c-0.4-2.1,0.3-4.3,2-5.6c1.2-2.7,4.2-4.1,7.1-3.2c0.3,0.1,0.7,0.2,1,0.4c1.5,0,3,0.1,4.5,0.5c5.1,1.3,9.7,5,12,9.7&#10;&#9;&#9;&#9;&#9;&#9;c3,6,3.1,13.4,0.4,22.6c-5,17.2-15.8,32.4-30.4,42.8C1580.2,768.2,1579,768.6,1577.9,768.6z M1595.9,703.5&#10;&#9;&#9;&#9;&#9;&#9;c-6.2,16.5-16.4,31.2-29.6,42.8c6-1.1,11.7-4.3,15.5-9.1c1.6-2,4.3-2.8,6.7-1.8c1.9,0.8,3.2,2.5,3.5,4.4&#10;&#9;&#9;&#9;&#9;&#9;c3.7-5.7,6.6-11.9,8.6-18.4c1.8-6.3,1.9-10.9,0.3-14.2c-0.8-1.7-2.6-3.1-4.5-3.6C1596.2,703.6,1596,703.6,1595.9,703.5z"/>
			</g>
			<g>
				<path style="fill:#E84158;" d="M1770.9,602.7c-2-78.5-30.6-154.4-58.8-228.1c-44.5-0.8-89.1,1.7-133.3,7.6&#10;&#9;&#9;&#9;&#9;&#9;c-31.1,4.1-65.9,12.5-81.6,39.7c38.1,91.2,58.7,185.6,62.9,284.4c28.5,13.5,61.8,14.5,92.7,8c30.9-6.5,59.8-20.1,87.8-34.7&#10;&#9;&#9;&#9;&#9;&#9;c10.3-5.4,20.9-11.3,27.7-20.9c5.3-7.5,8.8-22.6,6.1-32.8C1772.4,618.3,1771.1,610.6,1770.9,602.7z"/>
				<path style="fill:#092936;" d="M1616.3,724c-18.5,0-38.9-3.1-58.7-12.5c-1.9-0.9-3.2-2.8-3.3-5c-2.1-49-8.3-97.5-18.6-144&#10;&#9;&#9;&#9;&#9;&#9;c-10.3-46.9-25.1-93.5-43.9-138.4c-0.7-1.7-0.6-3.5,0.3-5.1c17.2-29.9,54.9-38.5,85.8-42.6c44.3-5.9,89.5-8.4,134.2-7.6&#10;&#9;&#9;&#9;&#9;&#9;c2.4,0,4.4,1.5,5.3,3.7c26.8,70,57.2,149.2,59.2,230l0,0c0.2,6.9,1.3,14.1,3.3,21.9c3.3,12.4-1,29.2-6.9,37.6&#10;&#9;&#9;&#9;&#9;&#9;c-7.3,10.4-18.2,16.6-29.7,22.7c-27.2,14.3-56.9,28.4-89.3,35.3C1643.3,722.2,1630.3,724,1616.3,724z M1565.7,702.5&#10;&#9;&#9;&#9;&#9;&#9;c30.9,13.4,63.6,10.8,85.9,6.1c31-6.5,59.8-20.3,86.3-34.2c10.2-5.3,19.8-10.8,25.6-19.1c4.3-6.1,7.5-19.4,5.2-27.9&#10;&#9;&#9;&#9;&#9;&#9;c-2.3-8.7-3.5-16.7-3.7-24.5l0,0c-2-77.4-30.9-154.3-57-222.5c-42.8-0.6-86.1,2-128.5,7.6c-27.4,3.6-60.5,10.8-75.9,34.5&#10;&#9;&#9;&#9;&#9;&#9;c18.5,44.7,33.1,91,43.4,137.6C1557.2,606.1,1563.5,654,1565.7,702.5z"/>
			</g>
			<g>
				<path style="fill:#092936;" d="M1628.4,721c-3.2,0-5.8-2.6-5.8-5.7c-0.4-55.4-6.2-111.2-17-165.8&#10;&#9;&#9;&#9;&#9;&#9;c-10.8-54.7-26.8-108.4-47.6-159.8c-1.2-3,0.2-6.3,3.2-7.5c3-1.2,6.3,0.2,7.5,3.2c21,52,37.2,106.5,48.2,161.9&#10;&#9;&#9;&#9;&#9;&#9;c11,55.4,16.8,111.9,17.2,168C1634.2,718.3,1631.7,720.9,1628.4,721C1628.5,721,1628.4,721,1628.4,721z"/>
			</g>
			<g>
				<path style="fill:#A72B45;" d="M1598.2,496.2c11.3,36.2,19.5,73.3,24.4,110.9c-22.4,10.6-48.7,12.5-72.4,5.3&#10;&#9;&#9;&#9;&#9;&#9;c-0.4-0.1-13.7-82.4-13.9-89.3c-0.3-14.4,2.4-15.4,17.7-20.5C1568.1,497.7,1583.2,495.5,1598.2,496.2z"/>
				<path style="fill:#092936;" d="M1579.2,622.5c-10.4,0-20.8-1.5-30.8-4.5c-3.4-1-4-4.1-4.2-5.4c-0.1-0.6-0.3-1.6-0.5-2.7&#10;&#9;&#9;&#9;&#9;&#9;c-0.4-2.3-0.9-5.5-1.6-9.5c-1.4-8.2-3.1-18.8-4.7-29.1c-3.1-19.6-6.8-43.8-6.9-48c-0.2-8,0.5-13.5,4.6-17.8&#10;&#9;&#9;&#9;&#9;&#9;c3.5-3.7,8.6-5.5,17-8.3c15.1-5.1,30.7-7.4,46.4-6.6c2.4,0.1,4.5,1.7,5.2,4c11.4,36.4,19.6,74.1,24.6,111.9c0.3,2.5-1,4.9-3.3,6&#10;&#9;&#9;&#9;&#9;&#9;C1610.8,619.1,1595,622.5,1579.2,622.5z M1555.1,607.9c20.1,5.3,42,3.8,61.2-4.3c-4.7-34.4-12.2-68.6-22.4-101.7&#10;&#9;&#9;&#9;&#9;&#9;c-12.8-0.1-25.9,2-38.1,6.2c-6.2,2.1-10.7,3.7-12.3,5.3c-1,1-1.6,3-1.4,9.6c0,1.9,1.8,14.7,6.5,44.6&#10;&#9;&#9;&#9;&#9;&#9;C1551.3,585.3,1553.9,601.3,1555.1,607.9z"/>
			</g>
			<g>
				<path style="fill:#092936;" d="M1779.5,801.9c-2.5,0-4.8-1.6-5.5-4.1c-10.8-36.5-24.7-77.9-53.4-106.6c-2.3-2.3-2.3-5.9,0-8.2&#10;&#9;&#9;&#9;&#9;&#9;c2.3-2.3,5.9-2.3,8.2,0c30.7,30.7,45.2,73.7,56.3,111.5c0.9,3.1-0.8,6.3-3.9,7.2C1780.6,801.9,1780,801.9,1779.5,801.9z"/>
			</g>
			<g>
				<path style="fill:#092936;" d="M1556.8,798.7c-2.4,0-4.6-1.5-5.4-3.8c-1.1-3,0.5-6.3,3.5-7.4c21.1-7.5,41.3-17.7,59.8-30.3&#10;&#9;&#9;&#9;&#9;&#9;c2.2-1.5,4.1-2.8,5.1-4.4c0.7-1.2,1.1-2.8,1.6-4.6c2.4-10,4.2-20.2,5.2-30.4c0.3-3.2,3.1-5.5,6.3-5.2c3.2,0.3,5.5,3.1,5.2,6.3&#10;&#9;&#9;&#9;&#9;&#9;c-1,10.8-2.9,21.6-5.4,32.1c-0.6,2.6-1.4,5.4-3,8c-2.2,3.5-5.3,5.9-8.4,7.9c-19.4,13.1-40.4,23.8-62.4,31.6&#10;&#9;&#9;&#9;&#9;&#9;C1558.1,798.6,1557.5,798.7,1556.8,798.7z"/>
			</g>
			<g>
				<path style="fill:#FFFFFF;" d="M1770.4,814.2c1.5,3.3,5.6,4.3,9.1,4.8c21.6,3,43.5,3.1,65.1,0.3c-0.1-9.8-11.4-15-20.9-17.3&#10;&#9;&#9;&#9;&#9;&#9;C1816.6,800.3,1758.8,787.9,1770.4,814.2z"/>
				<path style="fill:#092936;" d="M1813.1,827.1c-11.5,0-23-0.8-34.4-2.4c-2.9-0.4-10.7-1.5-13.6-8.2c-3.8-8.7-1.5-14.2,1.1-17.3&#10;&#9;&#9;&#9;&#9;&#9;c5-6.1,15.7-8.3,32.6-7c12.9,1,25,3.8,26.3,4.1c16,3.8,25.3,12.1,25.4,22.8c0,2.9-2.1,5.4-5,5.8&#10;&#9;&#9;&#9;&#9;&#9;C1834.7,826.4,1823.9,827.1,1813.1,827.1z M1775.7,811.8c0.1,0.1,0.8,0.9,4.7,1.4c18.6,2.6,37.5,3,56.3,1.1&#10;&#9;&#9;&#9;&#9;&#9;c-3.1-3.2-8.8-5.5-14.2-6.8c-0.5-0.1-12.3-2.9-24.6-3.9c-18.2-1.5-22.2,2.1-22.8,2.9C1774.1,807.7,1775.1,810.4,1775.7,811.8z&#10;&#9;&#9;&#9;&#9;&#9; M1775.7,811.8l-5.3,2.3L1775.7,811.8C1775.7,811.8,1775.7,811.8,1775.7,811.8L1775.7,811.8z"/>
			</g>
			<g>
				<path style="fill:#FFFFFF;" d="M1555.4,790.2c-3.9,0.1-7.7,0.2-11.6,0.2c-1.6,9.9-2.4,22,5.7,27.8c2.5,1.8,5.6,2.7,8.7,3.5&#10;&#9;&#9;&#9;&#9;&#9;c9.7,2.6,19.5,4.6,29.4,6.1c2.7,0.4,5.6,0.7,7.9-0.8c2.6-1.8,3.2-5.7,1.9-8.6c-1.3-2.9-4-5-6.9-6.4c-6.3-3-13.5-3.5-20.2-5.6&#10;&#9;&#9;&#9;&#9;&#9;c-6.7-2-13.5-6.5-14.8-13.4"/>
				<path style="fill:#092936;" d="M1591.1,834c-1.7,0-3.2-0.2-4.4-0.4c-10.1-1.5-20.1-3.6-30-6.2c-3.7-1-7.3-2.1-10.6-4.4&#10;&#9;&#9;&#9;&#9;&#9;c-12.1-8.7-9.1-26.7-8-33.4c0.5-2.7,2.8-4.8,5.6-4.8l11.6-0.2c0,0,0.1,0,0.1,0c3.1,0,5.7,2.5,5.8,5.7c0,0.5,0,0.9-0.1,1.4&#10;&#9;&#9;&#9;&#9;&#9;c0.1,0.2,0.1,0.4,0.2,0.7c0.8,4.4,6.1,7.5,10.7,8.9c2.3,0.7,4.7,1.2,7.2,1.7c4.5,1,9.2,2,13.8,4.2c4.7,2.3,8,5.4,9.7,9.2&#10;&#9;&#9;&#9;&#9;&#9;c2.5,5.7,0.8,12.5-4,15.7C1596.2,833.5,1593.5,834,1591.1,834z M1548.9,796.1c-1,9.2,0.3,14.8,4,17.4c1.7,1.2,4.1,1.9,6.8,2.6&#10;&#9;&#9;&#9;&#9;&#9;c9.4,2.5,19.1,4.5,28.8,6c2.5,0.4,3.4,0.3,3.7,0.2c0.1-0.3,0.2-1-0.1-1.5c-0.5-1.2-2-2.5-4.1-3.5c-3.3-1.6-7.1-2.4-11.2-3.3&#10;&#9;&#9;&#9;&#9;&#9;c-2.7-0.6-5.4-1.1-8.2-2c-9.5-2.9-16.2-8.8-18.3-16L1548.9,796.1z"/>
			</g>
			<g>
				<path style="fill:#092936;" d="M1739.6,637.3c-62.9,0-124.7-31.5-161.7-82.3c-1.9-2.6-1.3-6.2,1.3-8.1c2.6-1.9,6.2-1.3,8.1,1.3&#10;&#9;&#9;&#9;&#9;&#9;c34.8,47.9,93.1,77.6,152.4,77.6c0.4,0,0.7,0,1.1,0c0,0,0,0,0,0c3.2,0,5.8,2.6,5.8,5.7c0,3.2-2.6,5.8-5.7,5.8&#10;&#9;&#9;&#9;&#9;&#9;C1740.3,637.3,1740,637.3,1739.6,637.3z"/>
			</g>
			<g>
				<path style="fill:#092936;" d="M1762.2,514.1c-0.8,0-1.6-0.2-2.4-0.5c-2.9-1.3-4.1-4.8-2.8-7.7c14.4-30.9,20.8-65.1,18.7-99.1&#10;&#9;&#9;&#9;&#9;&#9;c-0.2-3.2,2.2-5.9,5.4-6.1c3.2-0.2,5.9,2.2,6.1,5.4c2.2,35.9-4.6,72.1-19.8,104.7C1766.4,512.9,1764.3,514.1,1762.2,514.1z"/>
			</g>
		</g><path style="fill:#FFFFFF;" d="M1624.1,500.1c0.6,2.3,1.6,5,3.9,5.7c1.2,0.4,2.5,0.1,3.8-0.1c31.9-6.7,63.7-13.3,95.6-20&#10;&#9;&#9;&#9;&#9;c-3.8-17.9-8.4-35.5-13.8-53c-28.2,2-57.6,4.6-85.2,11.4c-13.4,3.3-14.9,3.5-13.6,17.1C1616,474.1,1620.8,487.6,1624.1,500.1z" transform="matrix(1, 0, 0, 1, 0, -7.105427357601002e-15)"/><path style="fill:#092936;" d="M1629.4,511.8c-1,0-2.1-0.1-3.2-0.5c-5.5-1.8-7.1-7.6-7.6-9.7c-0.8-3.1-1.7-6.3-2.7-9.6&#10;&#9;&#9;&#9;&#9;c-2.9-9.9-5.8-20.1-6.8-30.2c-0.7-7.2-0.9-12.5,2.6-16.7c3.1-3.6,7.6-4.7,15.1-6.5l0.4-0.1c28.8-7,59.6-9.6,86.1-11.5&#10;&#9;&#9;&#9;&#9;c2.7-0.2,5.1,1.5,5.9,4.1c5.4,17.5,10.1,35.5,13.9,53.5c0.3,1.5,0,3.1-0.8,4.4c-0.8,1.3-2.2,2.2-3.7,2.5l-95.6,20&#10;&#9;&#9;&#9;&#9;C1632.1,511.5,1630.8,511.8,1629.4,511.8z M1630.5,500.8L1630.5,500.8L1630.5,500.8z M1620.5,452.6c-0.4,0.8-0.4,3.5,0.1,8.1&#10;&#9;&#9;&#9;&#9;c0.9,9,3.7,18.7,6.4,28c0.9,3.2,1.9,6.6,2.8,9.8l0,0c0.2,0.7,0.4,1.2,0.5,1.5c0.1,0,0.3-0.1,0.4-0.1l89.9-18.8&#10;&#9;&#9;&#9;&#9;c-3.2-14.2-6.9-28.5-11.1-42.4c-25,1.8-53.3,4.5-79.6,10.9l-0.4,0.1C1625.6,450.7,1621.3,451.8,1620.5,452.6z" transform="matrix(1, 0, 0, 1, 0, -7.105427357601002e-15)"/><g transform="matrix(1, 0, 0, 1, 0, -7.105427357601002e-15)">
			<path style="fill:#7FCBEE;" d="M1020.1,514.9c-6.4-36-13.6-73.4-35.7-102.5c-78.5,121.2-175.6,224.5-268.3,334&#10;&#9;&#9;&#9;&#9;c113.5,7,228.3-6.6,337-39.9C1042.4,642.6,1031.4,578.7,1020.1,514.9z M980.9,660.9c-0.1,4.7-64.4,16.6-71,17.9&#10;&#9;&#9;&#9;&#9;c-21,4.3-57,18.1-37.2-11.7c27.4-41.4,59.6-78.6,84.8-121.8C973.4,581.6,981.4,621.3,980.9,660.9z"/>
			<path style="fill:#092936;" d="M773.9,753.9c-19.5,0-38.9-0.6-58.2-1.8c-2.2-0.1-4.1-1.5-5-3.5c-0.9-2-0.5-4.3,0.9-6&#10;&#9;&#9;&#9;&#9;c20.6-24.4,41.8-48.8,62.3-72.4c71.2-82.1,144.8-167.1,205.6-261c1-1.6,2.7-2.6,4.6-2.6c1.9-0.1,3.7,0.8,4.8,2.3&#10;&#9;&#9;&#9;&#9;c23.7,31,31,72,36.8,105c11.3,63.5,22.4,128,33,191.6c0.5,2.9-1.2,5.6-4,6.5c-54.5,16.7-110.9,28.5-167.7,35.2&#10;&#9;&#9;&#9;&#9;C849.5,751.7,811.6,753.9,773.9,753.9z M728,741.2c52.4,2.6,105.4,0.7,157.7-5.5c54.5-6.4,108.6-17.7,160.9-33.3&#10;&#9;&#9;&#9;&#9;c-10.4-62-21.2-124.7-32.2-186.5l0,0c-5.5-30.8-11.6-65.5-29.8-93.2c-60.3,91.8-132.3,174.8-201.9,255.1&#10;&#9;&#9;&#9;&#9;C764.7,698.5,746.2,719.9,728,741.2z M875.3,691.6c-5.4,0-9.6-1.3-12.1-5c-4.7-6.6,0.1-15.6,4.8-22.7&#10;&#9;&#9;&#9;&#9;c11.3-17.1,23.6-33.7,35.4-49.7c16.9-22.9,34.5-46.6,49.2-71.8c1.1-1.9,3.2-3,5.3-2.9c2.2,0.1,4.1,1.5,5,3.4&#10;&#9;&#9;&#9;&#9;c16.2,36.9,24.4,77.7,23.9,118c-0.1,5.7-6.6,7.7-12.4,9.5c-4.7,1.5-11.4,3.2-19.9,5.1c-15,3.4-31.6,6.6-39.6,8.2&#10;&#9;&#9;&#9;&#9;c-1.8,0.3-3.1,0.6-3.7,0.7c-3.3,0.7-7.1,1.6-11,2.6C890.7,689.4,882.1,691.6,875.3,691.6z M872.8,679.8c1,0.2,3.2,0.4,7.9-0.3&#10;&#9;&#9;&#9;&#9;c5-0.7,10.9-2.2,16.6-3.6c4.1-1,7.9-2,11.5-2.7c0.7-0.1,2-0.4,3.8-0.7c44-8.5,58.1-12.6,62.5-14.4c0.1-33.9-6.3-68.2-18.6-99.9&#10;&#9;&#9;&#9;&#9;c-13.7,22.1-29,42.8-43.9,63c-11.8,15.9-23.9,32.4-35.1,49.2C873.9,675.9,873,678.6,872.8,679.8z"/>
		</g><path style="fill:#092936;" d="M824.8,793c-1.1,0-2.2-0.3-3.2-1c-2.6-1.8-3.3-5.4-1.5-8c6.9-10.2,10.2-22.6,9.3-34.9&#10;&#9;&#9;&#9;&#9;c-0.2-3.2,2.1-6,5.3-6.2c3.2-0.2,6,2.1,6.2,5.3c1.2,14.9-2.8,29.9-11.2,42.3C828.5,792.1,826.7,793,824.8,793z" transform="matrix(1, 0, 0, 1, 0, -7.105427357601002e-15)"/><path style="fill:#092936;" d="M995.6,777.8c-1.2,0-2.5-0.4-3.6-1.2c-14.2-11.2-22.9-29.3-22.6-47.4c0-3.2,2.6-5.7,5.9-5.7&#10;&#9;&#9;&#9;&#9;c3.2,0,5.7,2.7,5.7,5.9c-0.2,14.5,6.8,29.1,18.2,38.1c2.5,2,2.9,5.6,1,8.1C999,777.1,997.3,777.8,995.6,777.8z" transform="matrix(1, 0, 0, 1, 0, -7.105427357601002e-15)"/><path style="fill:#092936;" d="M838.6,630.1c-1.1,0-2.2-0.3-3.1-0.9c-12-7.7-26.1-12.4-40.8-13.7c-14.7-1.3-29.5,1-42.5,6.6&#10;&#9;&#9;&#9;&#9;c-2.9,1.2-6.3-0.1-7.6-3.1c-1.2-2.9,0.1-6.3,3.1-7.6c30.3-12.9,66.4-9.8,94.1,8c2.7,1.7,3.5,5.3,1.7,8&#10;&#9;&#9;&#9;&#9;C842.4,629.1,840.5,630.1,838.6,630.1z" transform="matrix(1, 0, 0, 1, 0, -7.105427357601002e-15)"/><path style="fill:#092936;" d="M1034.8,593.9c-0.7,0-1.3,0-2-0.1c-3.2-0.2-5.6-2.9-5.4-6.1c0.2-3.2,2.9-5.6,6.1-5.4&#10;&#9;&#9;&#9;&#9;c5.9,0.3,15.4-1.6,27.4-12.9c13-12.3,22.7-28.6,27.3-46c0.8-3.1,4-4.9,7.1-4.1c3.1,0.8,4.9,4,4.1,7.1&#10;&#9;&#9;&#9;&#9;c-5.2,19.7-15.7,37.5-30.5,51.4C1057.4,588.5,1046,593.9,1034.8,593.9z" transform="matrix(1, 0, 0, 1, 0, -7.105427357601002e-15)"/><path style="fill:#FFFFFF;" d="M819.3,812.8c2.4,3.5,5.2,6.8,8.6,9.3c10.8,8,25.7,6.6,39,4.8c1.8-0.2,3.9-0.6,4.9-2.1&#10;&#9;&#9;&#9;&#9;c1.4-2,0.2-4.9-1.8-6.2c-2-1.4-4.5-1.6-6.9-2.1c-9.3-1.8-17.9-6.9-23.8-14.3c-5.2-6.5-11.2-19.1-20.9-12.1&#10;&#9;&#9;&#9;&#9;C810.5,795.6,815,806.7,819.3,812.8z" transform="matrix(1, 0, 0, 1, 0, -7.105427357601002e-15)"/><path style="fill:#092936;" d="M850.2,834c-9.3,0-18.2-1.7-25.8-7.3c-3.5-2.6-6.6-5.9-9.9-10.6c0,0,0,0,0,0&#10;&#9;&#9;&#9;&#9;c-7-10.1-9.7-23.5,0.4-30.8c3.6-2.6,7.4-3.6,11.1-3c7,1.2,11.5,7.6,15.2,12.8c0.9,1.3,1.7,2.4,2.5,3.4c5,6.3,12.5,10.8,20.4,12.3&#10;&#9;&#9;&#9;&#9;c0.3,0.1,0.7,0.1,1,0.2c2.4,0.4,5.3,0.9,8.1,2.8c2.5,1.7,4.3,4.4,4.8,7.3c0.5,2.5,0,5-1.4,7.1c-2.6,3.7-6.9,4.3-8.9,4.6&#10;&#9;&#9;&#9;&#9;C861.8,833.3,855.9,834,850.2,834z M824,809.5c2.5,3.6,4.8,6.1,7.3,7.9c7.6,5.6,18.1,5.6,29.4,4.4c-10.1-2.2-19.5-8.1-25.9-16.1&#10;&#9;&#9;&#9;&#9;c-1-1.2-1.9-2.5-2.9-3.9c-2.2-3.1-5.4-7.7-7.7-8c-0.6-0.1-1.4,0.2-2.5,1C816.4,798.4,823.9,809.3,824,809.5L824,809.5z" transform="matrix(1, 0, 0, 1, 0, -7.105427357601002e-15)"/><path style="fill:#FFFFFF;" d="M1010.5,780.2c5.6-0.8,10.5-4.2,15-7.6c6-4.6,11.9-9.4,17.5-14.4c1.8-1.6,3.8-3.9,2.9-6.2&#10;&#9;&#9;&#9;&#9;c-0.4-1-1.2-1.7-2.1-2.3c-6.4-4.1-14.9-2-21.8,1.3C1013.3,755.2,981.6,784.2,1010.5,780.2z" transform="matrix(1, 0, 0, 1, 0, -7.105427357601002e-15)"/><path style="fill:#092936;" d="M1005.9,786.3c-7,0-11.2-2.4-12.6-7.1c-1.6-5.4,1.5-11.9,9.9-20.4c5.5-5.6,12.4-11,16.4-13&#10;&#9;&#9;&#9;&#9;c10.9-5.2,20.4-5.5,27.5-1c2.2,1.4,3.6,3.1,4.3,5.1c1.1,2.9,1.2,7.5-4.5,12.6c-5.7,5.1-11.8,10.1-17.9,14.7&#10;&#9;&#9;&#9;&#9;c-4.9,3.7-10.7,7.7-17.7,8.7c0,0,0,0,0,0C1009.3,786.2,1007.5,786.3,1005.9,786.3z M1010.5,780.2L1010.5,780.2L1010.5,780.2z&#10;&#9;&#9;&#9;&#9; M1005.1,774.8c1,0,2.5,0,4.6-0.3c4.3-0.6,8.4-3.5,12.3-6.5c5.9-4.4,11.6-9.2,17.2-14.1c0,0,0,0,0.1-0.1&#10;&#9;&#9;&#9;&#9;c-4.7-1.8-11.1,0.7-14.7,2.4c-1.9,0.9-6.9,4.5-12.1,9.6C1008.2,770,1006,773,1005.1,774.8z" transform="matrix(1, 0, 0, 1, 0, -7.105427357601002e-15)"/><path style="fill:#092936;" d="M765.8,750.5c-3,0-5.5-2.3-5.7-5.3l-1.4-16.7c-0.3-3.2,2.1-6,5.3-6.2c3.2-0.3,6,2.1,6.2,5.3&#10;&#9;&#9;&#9;&#9;l1.4,16.7c0.3,3.2-2.1,6-5.3,6.2C766.1,750.5,765.9,750.5,765.8,750.5z" transform="matrix(1, 0, 0, 1, 0, -7.105427357601002e-15)"/><path style="fill:#092936;" d="M784.8,751.8c-0.2,0-0.5,0-0.7,0c-3.2-0.4-5.4-3.3-5-6.5l2.8-21.8c0.4-3.2,3.3-5.4,6.5-5&#10;&#9;&#9;&#9;&#9;c3.2,0.4,5.4,3.3,5,6.5l-2.8,21.8C790.1,749.7,787.6,751.8,784.8,751.8z" transform="matrix(1, 0, 0, 1, 0, -7.105427357601002e-15)"/><path style="fill:#092936;" d="M809.3,753.1c-3.2,0-5.8-2.6-5.8-5.8v-21.9c0-3.2,2.6-5.8,5.8-5.8c3.2,0,5.8,2.6,5.8,5.8v21.9&#10;&#9;&#9;&#9;&#9;C815.1,750.5,812.5,753.1,809.3,753.1z" transform="matrix(1, 0, 0, 1, 0, -7.105427357601002e-15)"/><path style="fill:#092936;" d="M835.9,751.7c-2.8,0-5.2-2-5.7-4.9l-3.4-21.7c-0.5-3.2,1.6-6.1,4.8-6.6c3.2-0.5,6.1,1.6,6.6,4.8&#10;&#9;&#9;&#9;&#9;l3.4,21.7c0.5,3.2-1.6,6.1-4.8,6.6C836.5,751.7,836.2,751.7,835.9,751.7z" transform="matrix(1, 0, 0, 1, 0, -7.105427357601002e-15)"/><path style="fill:#092936;" d="M867.4,747.9c-2.7,0-5.1-1.9-5.7-4.7l-4.1-21.8c-0.6-3.1,1.5-6.2,4.6-6.7c3.1-0.6,6.2,1.5,6.7,4.6&#10;&#9;&#9;&#9;&#9;l4.1,21.8c0.6,3.1-1.5,6.2-4.6,6.7C868.1,747.9,867.7,747.9,867.4,747.9z" transform="matrix(1, 0, 0, 1, 0, -7.105427357601002e-15)"/><path style="fill:#092936;" d="M888.8,744.2c-2.9,0-5.4-2.2-5.7-5.1l-3.1-27.1c-0.4-3.2,1.9-6,5.1-6.4c3.2-0.4,6,1.9,6.4,5.1&#10;&#9;&#9;&#9;&#9;l3.1,27.1c0.4,3.2-1.9,6-5.1,6.4C889.2,744.1,889,744.2,888.8,744.2z" transform="matrix(1, 0, 0, 1, 0, -7.105427357601002e-15)"/><path style="fill:#092936;" d="M925.5,740.2c-2.6,0-4.9-1.7-5.6-4.3l-6.1-22.9c-0.8-3.1,1-6.2,4.1-7.1c3.1-0.8,6.2,1,7.1,4.1&#10;&#9;&#9;&#9;&#9;l6.1,22.9c0.8,3.1-1,6.2-4.1,7.1C926.4,740.1,925.9,740.2,925.5,740.2z" transform="matrix(1, 0, 0, 1, 0, -7.105427357601002e-15)"/><path style="fill:#092936;" d="M951.3,737.6c-2.7,0-5.1-1.8-5.6-4.6c-2-9.3-4.7-18.4-8.1-27.3c-1.1-3,0.3-6.3,3.3-7.5&#10;&#9;&#9;&#9;&#9;c3-1.1,6.3,0.3,7.5,3.3c3.6,9.4,6.5,19.1,8.6,29c0.7,3.1-1.3,6.2-4.4,6.9C952.1,737.5,951.7,737.6,951.3,737.6z" transform="matrix(1, 0, 0, 1, 0, -7.105427357601002e-15)"/><path style="fill:#092936;" d="M976.3,728.8c-2.3,0-4.4-1.4-5.4-3.6l-8.9-21.9c-1.2-3,0.2-6.3,3.2-7.5c3-1.2,6.3,0.2,7.5,3.2&#10;&#9;&#9;&#9;&#9;l8.9,21.9c1.2,3-0.2,6.3-3.2,7.5C977.8,728.6,977.1,728.8,976.3,728.8z" transform="matrix(1, 0, 0, 1, 0, -7.105427357601002e-15)"/><path style="fill:#092936;" d="M1012.7,722.2c-2.5,0-4.7-1.6-5.5-4.1l-7.6-24.5c-0.9-3,0.8-6.3,3.8-7.2c3.1-0.9,6.3,0.8,7.2,3.8&#10;&#9;&#9;&#9;&#9;l7.6,24.5c0.9,3-0.8,6.3-3.8,7.2C1013.8,722.1,1013.2,722.2,1012.7,722.2z" transform="matrix(1, 0, 0, 1, 0, -7.105427357601002e-15)"/><path style="fill:#092936;" d="M1032.8,717.2c-2.7,0-5.2-1.9-5.7-4.7l-5-27c-0.6-3.1,1.5-6.2,4.6-6.7c3.1-0.6,6.2,1.5,6.7,4.6&#10;&#9;&#9;&#9;&#9;l5,27c0.6,3.1-1.5,6.2-4.6,6.7C1033.5,717.1,1033.1,717.2,1032.8,717.2z" transform="matrix(1, 0, 0, 1, 0, -7.105427357601002e-15)"/><g transform="matrix(1, 0, 0, 1, 0, -7.105427357601002e-15)">
			<path style="fill:#FFFFFF;" d="M601,411.3c-29,39.9-39.9,91-37.4,140.2c2.5,49.2,17.6,97.1,36.6,142.6&#10;&#9;&#9;&#9;&#9;c-63.4,8-126.2,21.6-187.2,40.5c-4.6,1.4-9.7,2.9-14.1,0.9c-3.5-1.6-5.7-4.9-7.7-8.2c-52.7-84.6-67.5-191.8-39.8-287.6&#10;&#9;&#9;&#9;&#9;C428.8,405.5,519,390.3,601,411.3z"/>
			<path style="fill:#092936;" d="M403.7,742.2c-2.4,0-4.8-0.4-7.3-1.5c-4.9-2.2-7.8-6.3-10.3-10.4&#10;&#9;&#9;&#9;&#9;c-53.4-85.9-68.5-195.1-40.4-292.2c0.5-1.6,1.7-3,3.2-3.7c86.6-38.1,176.6-48.3,253.5-28.7c1.9,0.5,3.4,1.8,4,3.6&#10;&#9;&#9;&#9;&#9;c0.6,1.8,0.4,3.8-0.8,5.4c-26,35.9-38.9,84.4-36.3,136.5c2.1,42,13.6,86.7,36.1,140.6c0.7,1.7,0.6,3.6-0.3,5.1&#10;&#9;&#9;&#9;&#9;c-0.9,1.6-2.5,2.6-4.3,2.8c-63,8-125.6,21.5-186.3,40.2C411.8,741,407.9,742.2,403.7,742.2z M356.1,443.9&#10;&#9;&#9;&#9;&#9;c-26.2,93.4-11.3,198,39.9,280.3c1.6,2.6,3.3,5.1,5.2,6c2.4,1.1,6.1,0.1,10.1-1.1c58.9-18.2,119.6-31.5,180.7-39.7&#10;&#9;&#9;&#9;&#9;c-21.1-52.1-32-96-34.1-137.5c-2.6-51.5,9.3-99.7,33.6-136.8C519.7,398.8,436.6,409,356.1,443.9z"/>
		</g><path style="fill:#092936;" d="M566.9,542.4c-3,0-5.5-2.3-5.8-5.4c-0.2-3.2,2.2-5.9,5.4-6.2c31.7-2.2,62.1-18.4,81.5-43.5&#10;&#9;&#9;&#9;&#9;c-0.6-0.8-1-1.8-1.1-2.8c-0.3-3.2,2-6,5.2-6.3c3-0.3,5.7,1.1,7.1,3.7c2.1,3.7,0.8,8.7-1.4,11.6c-21.4,28.2-55.3,46.4-90.6,48.9&#10;&#9;&#9;&#9;&#9;C567.1,542.4,567,542.4,566.9,542.4z" transform="matrix(1, 0, 0, 1, 0, -7.105427357601002e-15)"/><path style="fill:#092936;" d="M397.3,605.9c-25.7,0-51-14.1-63.6-36.7c-1.6-2.8-0.6-6.3,2.2-7.9c2.8-1.6,6.3-0.6,7.9,2.2&#10;&#9;&#9;&#9;&#9;c6,10.7,15.8,19.6,27.8,25c11.9,5.5,25.1,7.1,37.1,4.6c3.1-0.6,6.2,1.4,6.8,4.5c0.6,3.1-1.4,6.2-4.5,6.8&#10;&#9;&#9;&#9;&#9;C406.4,605.4,401.8,605.9,397.3,605.9z" transform="matrix(1, 0, 0, 1, 0, -7.105427357601002e-15)"/><path style="fill:#FFFFFF;" d="M529.1,707.5c6.2,32.8,12.4,65.6,18.6,98.4c0.4,1.9,1,4,2.7,4.7c1.8,0.7,3.8-2.4,2-3.1&#10;&#9;&#9;&#9;&#9;c15.3-2.8,31.4-1.7,46.7-4.5c4.6-0.8,9.9-2.2,11.6-6.6c2.7-6.9-6.4-12.7-13.8-13c-17.9-0.7-33.9,10.6-48.2,21.5" transform="matrix(1, 0, 0, 1, 0, -7.105427357601002e-15)"/><path style="fill:#092936;" d="M550.9,816.5c-0.8,0-1.7-0.1-2.5-0.4c-5.1-1.8-6.1-7.3-6.4-9.1l-18.6-98.4&#10;&#9;&#9;&#9;&#9;c-0.6-3.1,1.5-6.2,4.6-6.7c3.1-0.6,6.2,1.5,6.7,4.6l16.8,89.2c14.3-10.3,28.8-18.6,45.6-17.9c7,0.3,14.3,4.1,17.6,9.2&#10;&#9;&#9;&#9;&#9;c2.4,3.6,2.8,7.8,1.3,11.7c-3.1,7.8-12.1,9.4-15.9,10.1c-8,1.5-16.2,1.9-24.1,2.3c-6.4,0.4-12.4,0.7-18.4,1.5&#10;&#9;&#9;&#9;&#9;C556.2,815.1,553.6,816.5,550.9,816.5z M595.3,789.3c-10.3,0-20.1,4.6-29.9,10.9c3.4-0.3,6.7-0.4,10.1-0.6&#10;&#9;&#9;&#9;&#9;c7.9-0.4,15.3-0.9,22.6-2.2c4.3-0.8,6.8-1.8,7.2-3c0.1-0.3,0.2-0.5-0.2-1.1c-1.3-2-5.2-3.8-8.4-4&#10;&#9;&#9;&#9;&#9;C596.2,789.3,595.8,789.3,595.3,789.3z" transform="matrix(1, 0, 0, 1, 0, -7.105427357601002e-15)"/><path style="fill:#092936;" d="M418.9,780.2c-2.3,0-4.5-1.4-5.4-3.7c-1.2-3,0.3-6.3,3.3-7.5l40.6-16c-4.4-8.3-9.4-16.3-14.8-24&#10;&#9;&#9;&#9;&#9;c-1.8-2.6-1.2-6.2,1.4-8.1c2.6-1.8,6.2-1.2,8.1,1.4c6.9,9.9,13.2,20.3,18.6,31.1c0.7,1.4,0.8,3.1,0.2,4.6&#10;&#9;&#9;&#9;&#9;c-0.6,1.5-1.8,2.7-3.3,3.3L421,779.8C420.4,780.1,419.6,780.2,418.9,780.2z" transform="matrix(1, 0, 0, 1, 0, -7.105427357601002e-15)"/><path style="fill:#FFFFFF;" d="M419.4,777c-2.9,9.3-4.5,19-4.8,28.8c-0.2,5.4,0.2,11.1,2.9,15.8c2.8,4.7,8.6,7.9,13.7,6.1&#10;&#9;&#9;&#9;&#9;c4.8-1.7,7.3-7,8.2-12c3-15.5-5-32.4-18.9-39.9" transform="matrix(1, 0, 0, 1, 0, -7.105427357601002e-15)"/><path style="fill:#092936;" d="M428.3,834c-6.1,0-12.3-3.6-15.7-9.5c-3.6-6.1-3.9-13-3.7-18.9c0.3-10.3,2-20.5,5.1-30.4&#10;&#9;&#9;&#9;&#9;c0.4-1.2,1.1-2.3,2.1-3c1.7-2.2,4.8-2.9,7.3-1.6c16.1,8.7,25.3,28.1,21.8,46.1c-1.6,8.2-6,14.2-12,16.3&#10;&#9;&#9;&#9;&#9;C431.6,833.7,430,834,428.3,834z M423.3,784.7c-1.7,7-2.7,14.1-2.9,21.3c-0.1,4.3,0,9.1,2.1,12.7c1.6,2.6,4.7,4.3,6.8,3.6&#10;&#9;&#9;&#9;&#9;c2.4-0.8,3.9-4.5,4.5-7.6C435.9,803.9,431.5,792,423.3,784.7z" transform="matrix(1, 0, 0, 1, 0, -7.105427357601002e-15)"/><path style="fill:#092936;" d="M377.3,521.3c-2.5,0-4.7-1.6-5.5-4.1c-0.9-3,0.8-6.3,3.8-7.2c47.7-14.8,97.2-24.7,146.9-29.4&#10;&#9;&#9;&#9;&#9;c3.2-0.3,6,2,6.3,5.2c0.3,3.2-2,6-5.2,6.3c-49,4.7-97.6,14.4-144.6,28.9C378.5,521.2,377.9,521.3,377.3,521.3z" transform="matrix(1, 0, 0, 1, 0, -7.105427357601002e-15)"/><path style="fill:#092936;" d="M375.3,568.7c-2.6,0-4.9-1.7-5.6-4.3c-0.8-3.1,1-6.2,4.1-7.1c50.1-13.4,101.7-22,153.4-25.5&#10;&#9;&#9;&#9;&#9;c3.2-0.2,5.9,2.2,6.2,5.4c0.2,3.2-2.2,5.9-5.4,6.2c-51,3.5-101.9,12-151.2,25.2C376.3,568.7,375.8,568.7,375.3,568.7z" transform="matrix(1, 0, 0, 1, 0, -7.105427357601002e-15)"/><path style="fill:#092936;" d="M379.9,624.2c-2.8,0-5.3-2.1-5.7-5c-0.5-3.2,1.7-6.1,4.9-6.5l143-20.5c3.2-0.5,6.1,1.7,6.5,4.9&#10;&#9;&#9;&#9;&#9;c0.5,3.2-1.7,6.1-4.9,6.5l-143,20.5C380.4,624.2,380.1,624.2,379.9,624.2z" transform="matrix(1, 0, 0, 1, 0, -7.105427357601002e-15)"/><path style="fill:#092936;" d="M409.8,671.9c-2.4,0-4.7-1.5-5.5-3.9c-1-3,0.6-6.3,3.6-7.3c40.8-13.8,83.2-23.7,126-29.5&#10;&#9;&#9;&#9;&#9;c3.2-0.4,6.1,1.8,6.5,5c0.4,3.2-1.8,6.1-5,6.5c-42,5.6-83.6,15.4-123.8,29C411,671.8,410.4,671.9,409.8,671.9z" transform="matrix(1, 0, 0, 1, 0, -7.105427357601002e-15)"/><path style="fill:#E84158;" d="M519.1,472.2c-4.6,0-9.3-1.6-13-4.9c-5.6-4.9-8.7-12.7-8.4-21.4c0.2-6.5,2.3-11.8,6.2-15.3&#10;&#9;&#9;&#9;&#9;c2.8-2.6,6.8-4,10.6-3.8c3.4,0.2,6.5,1.6,8.7,4.1c2.1,2.4,1.9,6-0.5,8.2c-2.4,2.1-6,1.9-8.2-0.5c0,0-0.2-0.1-0.6-0.2&#10;&#9;&#9;&#9;&#9;c-0.8,0-1.7,0.3-2.2,0.8c-2,1.8-2.3,5.2-2.4,7.1c-0.2,5.1,1.5,9.7,4.4,12.3c2.7,2.4,7.2,2.7,9.4,0.7c2.4-2.1,6-1.9,8.2,0.4&#10;&#9;&#9;&#9;&#9;c2.1,2.4,1.9,6-0.4,8.2C527.5,470.8,523.4,472.2,519.1,472.2z" transform="matrix(1, 0, 0, 1, 0, -7.105427357601002e-15)"/><path style="fill:#E84158;" d="M537,437.7c-2.7,0-5.2-2-5.7-4.8c-0.6-3.1,1.5-6.1,4.7-6.7l5.7-1c3.1-0.6,6.1,1.5,6.7,4.7&#10;&#9;&#9;&#9;&#9;c0.6,3.1-1.5,6.1-4.7,6.7l-5.7,1C537.7,437.7,537.4,437.7,537,437.7z" transform="matrix(1, 0, 0, 1, 0, -7.105427357601002e-15)"/><g transform="matrix(1, 0, 0, 1, 0, -7.105427357601002e-15)">
			<path style="fill:#57B148;" d="M127.7,512c2.5-0.4,5.3-0.7,6.8-2.6c1.8-2.3,1.1-5.6,0.9-8.5c-0.4-6.1,2.9-12.5,8.6-14.9&#10;&#9;&#9;&#9;&#9;c5.6-2.4,13.1,0.3,15.2,6.1c0.8,2.3,0.8,5,2.1,7.1c1,1.7,2.8,2.8,4.4,3.9c13.5,9.6,20.6,27.5,17.3,43.8&#10;&#9;&#9;&#9;&#9;c0.4-1.9-62.7,0.5-67.9-2.4C98.2,535.1,110.1,515.1,127.7,512z"/>
			<path style="fill:#092936;" d="M183,552.6c-0.4,0-0.8,0-1.1-0.1c-0.4-0.1-0.8-0.2-1.2-0.4c-3.4-0.4-15.1-0.3-24.6-0.3&#10;&#9;&#9;&#9;&#9;c-32.6,0-40.3-0.4-43.8-2.3c-8.3-4.6-12.3-12-10.9-20.3c1.8-11,12.4-20.6,25.3-22.9c0.3-0.1,0.6-0.1,0.9-0.2&#10;&#9;&#9;&#9;&#9;c0.7-0.1,1.8-0.3,2.4-0.5c0-0.6-0.1-1.8-0.1-2.6c-0.1-0.6-0.1-1.3-0.2-1.9c-0.5-8.9,4.5-17.3,12.1-20.5c4.4-1.8,9.5-1.7,14,0.3&#10;&#9;&#9;&#9;&#9;c4.2,1.9,7.4,5.1,8.8,9.2c0.5,1.3,0.7,2.5,0.9,3.6c0.2,0.9,0.4,2,0.6,2.4c0.3,0.5,1.3,1.2,2.2,1.8l0.6,0.4c7.5,5.4,13.4,13,17,22&#10;&#9;&#9;&#9;&#9;c3.6,9,4.5,18.6,2.7,27.6c0,0,0,0,0,0C188.1,550.7,185.7,552.6,183,552.6z M161.1,540.2c5.1,0,9.8,0,13.5,0.1&#10;&#9;&#9;&#9;&#9;c1.2,0,2.3,0,3.3,0.1c0.5-12.5-5.5-25.3-15.7-32.6l-0.6-0.4c-1.7-1.2-3.9-2.7-5.4-5.2c-1.3-2.2-1.8-4.4-2.1-6.2&#10;&#9;&#9;&#9;&#9;c-0.2-0.8-0.3-1.5-0.5-2c-0.5-1.4-1.8-2.2-2.6-2.5c-1.6-0.7-3.5-0.8-4.9-0.2c-3.1,1.3-5.3,5.3-5,9.2c0,0.5,0.1,1,0.1,1.5&#10;&#9;&#9;&#9;&#9;c0.3,2.9,0.7,7.3-2.3,11c-2.8,3.4-6.8,4.1-9.5,4.6c-0.3,0-0.5,0.1-0.8,0.1c0,0,0,0,0,0c-8.7,1.6-15,8.2-15.9,13.4&#10;&#9;&#9;&#9;&#9;c-0.5,3.3,1,6,4.7,8.1c4.2,1,25.6,1,38.5,1C157.7,540.2,159.5,540.2,161.1,540.2z M117.9,539.4L117.9,539.4L117.9,539.4z&#10;&#9;&#9;&#9;&#9; M117.3,539.2 M127.7,512L127.7,512L127.7,512z"/>
		</g><path style="fill:#092936;" d="M130.5,714.7c3.2,10,7.6,20.9,17.2,25.1c5.1,2.2,10.9,2.1,16.4,1.8c11.1-0.6,22.1-1.9,33-3.7&#10;&#9;&#9;&#9;&#9;c2.1-0.3,4.3-0.8,5.8-2.3c2-2,2.1-5.1,2.1-7.9c-0.7-26.8-6-53.2-10-79.7c-5.4-36.3-8.1-73.1-8-109.8c0-10-52.2-5.8-58.2-4.4&#10;&#9;&#9;&#9;&#9;c-26,6.2-30.8,11.9-28.6,37.4C104.3,619.7,115.5,668.4,130.5,714.7z" transform="matrix(1, 0, 0, 1, 0, -7.105427357601002e-15)"/><path style="fill:#092936;" d="M159,747.5c-4.5,0-9.1-0.5-13.5-2.4c-11.4-4.9-16.6-16.7-20.4-28.6c0,0,0,0,0,0&#10;&#9;&#9;&#9;&#9;c-16.4-50.6-26.7-99.4-30.5-144.9c-1.1-13.1-0.7-22.7,4.9-30c5.4-7,14.8-10.4,28.1-13.6c3.2-0.8,15.7-2,28.5-2.2&#10;&#9;&#9;&#9;&#9;c23.4-0.4,30.2,2.8,33.2,5.2c2.3,1.8,3.6,4.4,3.6,7.1c0,36.4,2.6,73,8,109c0.9,6.2,1.9,12.4,2.9,18.5c3.3,20.1,6.6,41,7.1,61.9&#10;&#9;&#9;&#9;&#9;c0.1,2.7,0.2,8.3-3.8,12.2c-2.9,2.8-6.6,3.5-8.9,3.8c-11.1,1.9-22.4,3.1-33.6,3.8C162.7,747.4,160.8,747.5,159,747.5z M136,713&#10;&#9;&#9;&#9;&#9;c3,9.4,6.8,18.4,14,21.6c3.9,1.7,8.8,1.6,13.8,1.3c10.8-0.6,21.7-1.8,32.4-3.6c0.6-0.1,2.2-0.4,2.7-0.7c0.1-0.2,0.4-1,0.3-3.7&#10;&#9;&#9;&#9;&#9;c-0.5-20.1-3.8-40.6-7-60.3c-1-6.1-2-12.4-2.9-18.7c-5.4-36-8.1-72.7-8.1-109.1c-2.5-1.1-9.8-2.5-25-2.2&#10;&#9;&#9;&#9;&#9;c-12.6,0.2-24.1,1.4-26,1.9c-12.7,3-18.7,5.7-21.6,9.4c-2.9,3.7-3.6,9.8-2.6,21.9C109.8,615.3,119.9,663.2,136,713L136,713z" transform="matrix(1, 0, 0, 1, 0, -7.105427357601002e-15)"/><path style="fill:#092936;" d="M91.7,701.7c-5.6,0-10.4-2.5-13.1-7c-1.7-2.7-0.8-6.3,1.9-7.9c2.7-1.7,6.3-0.8,7.9,1.9&#10;&#9;&#9;&#9;&#9;c0.9,1.5,2.9,1.6,4,1.4c3-0.3,5.9-2.3,6.7-4.6c2.1-6.1-2.2-13.2-7.1-17.3c-4.1-3.4-9-5.9-14.3-8.5c-2.7-1.3-5.5-2.7-8.2-4.3&#10;&#9;&#9;&#9;&#9;c-11.2-6.4-18-14.6-19.7-23.8c-2.1-11,3.5-23.1,14.1-30.9c8.9-6.5,19.6-9.2,29-11.7c3.1-0.8,6.2,1.1,7,4.2c0.8,3.1-1.1,6.2-4.2,7&#10;&#9;&#9;&#9;&#9;c-8.9,2.3-18,4.6-25.1,9.8c-5.8,4.2-11,11.8-9.6,19.4c1.4,7.2,8.4,12.6,14.1,15.9c2.4,1.4,5,2.7,7.6,4c5.6,2.8,11.4,5.7,16.5,10&#10;&#9;&#9;&#9;&#9;c8.1,6.8,14.5,18.7,10.5,30c-2.3,6.5-8.9,11.5-16.4,12.2C93,701.7,92.4,701.7,91.7,701.7z" transform="matrix(1, 0, 0, 1, 0, -7.105427357601002e-15)"/><path style="fill:#092936;" d="M199.5,596.3c-2.5,0-5.1-0.2-7.6-0.7c-3.1-0.6-5.2-3.7-4.5-6.8c0.6-3.1,3.7-5.2,6.8-4.5&#10;&#9;&#9;&#9;&#9;c11.1,2.2,24.2-3.1,32.5-13.4c9.3-11.5,11.8-26.4,12.3-36.9c0.5-9.9-0.6-20.7-3-32.2c-0.7-3.1,1.3-6.2,4.4-6.9&#10;&#9;&#9;&#9;&#9;c3.1-0.7,6.2,1.3,6.9,4.4c2.7,12.4,3.8,24.2,3.3,35.1c-0.8,17.5-6,32.6-14.9,43.6C226.4,589.6,212.8,596.3,199.5,596.3z" transform="matrix(1, 0, 0, 1, 0, -7.105427357601002e-15)"/><path style="fill:#FFFFFF;" d="M159.3,746.4c3.7,13.1,7.4,26.2,11,39.3c3.2,11.3,7,23.5,16.5,30.2c9.2,6.5,21.4,6.2,32.6,5.7&#10;&#9;&#9;&#9;&#9;c6.1-7.2-2.2-19-11.6-19.6s-17.7,5.6-25.1,11.5" transform="matrix(1, 0, 0, 1, 0, -7.105427357601002e-15)"/><path style="fill:#092936;" d="M211.1,827.7c-9,0-19.2-1.1-27.6-7c-0.7-0.5-1.3-1-2-1.5c-1.3-0.3-2.5-1-3.3-2&#10;&#9;&#9;&#9;&#9;c-0.6-0.7-0.9-1.5-1.1-2.3c-6.3-7.4-9.5-17.2-12.4-27.5l-11-39.3c-0.9-3.1,0.9-6.3,4-7.1c3.1-0.9,6.3,0.9,7.1,4l11,39.3&#10;&#9;&#9;&#9;&#9;c2.2,7.8,4.5,15.3,8.4,20.9c7.2-5.2,14.9-9.4,24-8.8c7.4,0.5,14.7,5.8,17.7,13c2.4,5.8,1.6,11.8-2.1,16.1c-1,1.2-2.5,1.9-4.1,2&#10;&#9;&#9;&#9;&#9;C217.1,827.6,214.2,827.7,211.1,827.7z M193.1,813c6.2,3.1,14,3.4,22.7,3.1c0-0.7-0.1-1.4-0.5-2.3c-1.3-3.2-4.8-5.8-7.8-6&#10;&#9;&#9;&#9;&#9;C202.7,807.5,197.9,809.7,193.1,813z" transform="matrix(1, 0, 0, 1, 0, -7.105427357601002e-15)"/><path style="fill:#092936;" d="M105.8,797.3c-2.7,0-5.1-1.9-5.7-4.7c-0.6-3.1,1.5-6.2,4.6-6.8l41.9-8&#10;&#9;&#9;&#9;&#9;c11.7-2.2,21.8-4.6,28.2-11.5c7.9-8.4,8.3-22.1,8.1-35.4c-0.1-3.2,2.5-5.8,5.7-5.9c3.2-0.1,5.8,2.5,5.9,5.7&#10;&#9;&#9;&#9;&#9;c0.3,15.6-0.4,31.9-11.2,43.5c-9.5,10.2-23.9,12.9-34.5,15l-41.9,8C106.5,797.3,106.1,797.3,105.8,797.3z" transform="matrix(1, 0, 0, 1, 0, -7.105427357601002e-15)"/><path style="fill:#FFFFFF;" d="M106.4,789.1c-5.1,7.4-7.6,16.6-6.9,25.6c0.4,4.4,1.7,9,5.2,11.7c7.5,5.6,18.8-2.9,19.3-12.3&#10;&#9;&#9;&#9;&#9;c0.5-9.3-5.6-17.6-11.3-25" transform="matrix(1, 0, 0, 1, 0, -7.105427357601002e-15)"/><path style="fill:#092936;" d="M110.1,834c-3.2,0-6.2-1-8.9-3c-4.3-3.2-6.9-8.7-7.4-15.8c-0.8-10.4,2-20.8,7.9-29.4&#10;&#9;&#9;&#9;&#9;c1.8-2.6,5.3-3.2,7.9-1.5c2.5-1.6,5.8-1,7.6,1.3c5.3,6.7,13.2,16.9,12.6,28.9c-0.4,7.4-5.4,14.6-12.5,17.9&#10;&#9;&#9;&#9;&#9;C114.9,833.4,112.4,834,110.1,834z M109.7,794.7c-3.4,5.9-5,12.8-4.4,19.5c0.3,3.7,1.3,6.3,2.9,7.5c1.1,0.8,2.5,0.9,4.3,0&#10;&#9;&#9;&#9;&#9;c3.1-1.5,5.6-4.9,5.8-8C118.6,807.4,114.6,801.1,109.7,794.7z" transform="matrix(1, 0, 0, 1, 0, -7.105427357601002e-15)"/>
</svg>