<?xml version="1.0" encoding="utf-8"?>
<svg id="master-artboard" viewBox="0 0 1357.1463623046875 1283.7017822265625" version="1.1" xmlns="http://www.w3.org/2000/svg" x="0px" y="0px" width="1357.1463623046875px" height="1283.7017822265625px" enable-background="new 0 0 1400 980"><rect id="ee-background" x="0" y="0" width="1357.1463623046875" height="1283.7017822265625" style="fill: white; fill-opacity: 0; pointer-events: none;"/>
<g transform="matrix(1, 0, 0, 1, -40.99042892456055, -7.105427357601002e-15)">
			<path fill="#F0D7BF" d="M848.9,316.7h-10.1v75.5h10.1c6.9,0,12.6-5.6,12.6-12.6v-50.3C861.5,322.3,855.8,316.7,848.9,316.7z"/>
			<path d="M848.9,395.4h-10.1c-1.8,0-3.3-1.5-3.3-3.3v-75.5c0-1.8,1.5-3.3,3.3-3.3h10.1c8.7,0,15.9,7.1,15.9,15.9v50.3&#10;&#9;&#9;&#9;&#9;C864.7,388.3,857.6,395.4,848.9,395.4z M842,388.9h6.9c5.1,0,9.3-4.2,9.3-9.3v-50.3c0-5.1-4.2-9.3-9.3-9.3H842V388.9z"/>
		</g><path fill="#F0D7BF" d="M571.1,316.7h10.1v75.5h-10.1c-6.9,0-12.6-5.6-12.6-12.6v-50.3C558.5,322.3,564.1,316.7,571.1,316.7z" transform="matrix(1, 0, 0, 1, -40.99042892456055, -7.105427357601002e-15)"/><path d="M581.2,395.4h-10.1c-8.7,0-15.9-7.1-15.9-15.9v-50.3c0-8.7,7.1-15.9,15.9-15.9h10.1c1.8,0,3.3,1.5,3.3,3.3v75.5&#10;&#9;&#9;&#9;&#9;C584.5,393.9,583,395.4,581.2,395.4z M571.1,320c-5.1,0-9.3,4.2-9.3,9.3v50.3c0,5.1,4.2,9.3,9.3,9.3h6.9V320H571.1z" transform="matrix(1, 0, 0, 1, -40.99042892456055, -7.105427357601002e-15)"/><g transform="matrix(1, 0, 0, 1, -40.99042892456055, -7.105427357601002e-15)">
				<g>
					<path fill="#BE7F59" d="M762.9,320.7h-12.4c-87.8,0-151.7-21.1-182-33.7l-20.3-8.4v-24.5c0-89.2,72.6-161.8,161.8-161.8&#10;&#9;&#9;&#9;&#9;&#9;&#9;c89.2,0,161.8,72.6,161.8,161.8V286l-14.3,9.9c-28,19.3-62.7,26.7-66.5,27.5l-24.1,4.9L762.9,320.7z"/>
				</g>
				<g>
					<path d="M766.9,331.4c-1.2,0-2.3-0.7-2.9-1.7l-3-5.7h-10.4c-88.4,0-152.8-21.3-183.3-34l-20.3-8.4c-1.2-0.5-2-1.7-2-3v-24.5&#10;&#9;&#9;&#9;&#9;&#9;&#9;C544.9,163,619,89,710,89c91,0,165.1,74.1,165.1,165.1V286c0,1.1-0.5,2.1-1.4,2.7l-14.3,9.9c-28.5,19.7-63.8,27.2-67.7,28&#10;&#9;&#9;&#9;&#9;&#9;&#9;l-24.1,4.9C767.3,331.4,767.1,331.4,766.9,331.4z M551.5,276.3l18.3,7.6c30.1,12.5,93.5,33.5,180.8,33.5h12.4&#10;&#9;&#9;&#9;&#9;&#9;&#9;c1.2,0,2.3,0.7,2.9,1.7l2.8,5.2l21.7-4.4c3.8-0.8,37.9-8,65.3-26.9l12.8-8.9v-30.2c0-87.4-71.1-158.5-158.5-158.5&#10;&#9;&#9;&#9;&#9;&#9;&#9;c-87.4,0-158.5,71.1-158.5,158.5V276.3z"/>
				</g>
			</g><path fill="#FFE6CB" d="M784.5,290.9l-19.7-37.1l-14.2,33.9c-82.3,0-141.5-19.6-169.3-31.2v118c0,71.1,57.7,128.8,128.8,128.8&#10;&#9;&#9;&#9;&#9;&#9;c71.1,0,128.8-57.7,128.8-128.8V268.6C815.5,284.6,784.5,290.9,784.5,290.9z" transform="matrix(1, 0, 0, 1, -40.99042892456055, -7.105427357601002e-15)"/><path d="M710,506.5c-72.8,0-132-59.2-132-132v-118c0-1.1,0.5-2.1,1.5-2.7c0.9-0.6,2.1-0.7,3.1-0.3&#10;&#9;&#9;&#9;&#9;&#9;c27.5,11.5,85.5,30.6,165.9,30.9l13.4-31.9c0.5-1.2,1.6-2,2.9-2c1-0.1,2.4,0.6,3,1.7l18.6,34.9c7.6-1.8,31.9-8.3,50.7-21.2&#10;&#9;&#9;&#9;&#9;&#9;c1-0.7,2.3-0.8,3.4-0.2c1.1,0.6,1.8,1.7,1.8,2.9v105.9C842,447.3,782.8,506.5,710,506.5z M584.5,261.4v113.1&#10;&#9;&#9;&#9;&#9;&#9;c0,69.2,56.3,125.5,125.5,125.5c69.2,0,125.5-56.3,125.5-125.5v-99.8c-22.6,13.8-49.1,19.2-50.3,19.4c-1.5,0.3-2.9-0.4-3.5-1.7&#10;&#9;&#9;&#9;&#9;&#9;l-16.5-31l-11.5,27.6c-0.5,1.2-1.7,2-3,2C672.1,291,614.3,273.2,584.5,261.4z" transform="matrix(1, 0, 0, 1, -40.99042892456055, -7.105427357601002e-15)"/><path d="M676.4,331.4c-0.8,0-1.6-0.3-2.2-0.9c-26-24.2-48.1-1.2-49-0.2c-1.2,1.3-3.3,1.4-4.6,0.2c-1.3-1.2-1.4-3.3-0.2-4.6&#10;&#9;&#9;&#9;&#9;&#9;c0.3-0.3,27.5-28.8,58.3-0.2c1.3,1.2,1.4,3.3,0.2,4.6C678.2,331,677.3,331.4,676.4,331.4z" transform="matrix(1, 0, 0, 1, -40.99042892456055, -7.105427357601002e-15)"/><path d="M743.6,331.4c-0.8,0-1.6-0.3-2.2-0.9c-1.3-1.2-1.4-3.3-0.2-4.6c0.3-0.3,27.5-28.8,58.3-0.2c1.3,1.2,1.4,3.3,0.2,4.6&#10;&#9;&#9;&#9;&#9;&#9;c-1.2,1.3-3.3,1.4-4.6,0.2c-26-24.2-48.1-1.2-49-0.2C745.3,331,744.5,331.4,743.6,331.4z" transform="matrix(1, 0, 0, 1, -40.99042892456055, -7.105427357601002e-15)"/><path d="M710.2,421.4c-14.1,0-19-11.5-19.6-17.6l0-49.4c0-1.8,1.5-3.3,3.3-3.3s3.3,1.5,3.3,3.3v49.1c0.1,0.9,1.6,11.4,13,11.4&#10;&#9;&#9;&#9;&#9;&#9;c1.8,0,3.3,1.5,3.3,3.3C713.5,420,712,421.4,710.2,421.4z" transform="matrix(1, 0, 0, 1, -40.99042892456055, -7.105427357601002e-15)"/><g transform="matrix(1, 0, 0, 1, -40.99042892456055, -7.105427357601002e-15)">
				<path fill="#FFFFFF" d="M500.4,413.9V381c0,0,155.4,14.8,209.5,91.9l-118.9-10.7L500.4,413.9z"/>
				<path d="M710,476.2c-0.1,0-0.2,0-0.3,0l-118.9-10.7c-0.4,0-0.9-0.2-1.3-0.4l-90.6-48.3c-1.1-0.6-1.7-1.7-1.7-2.9V381&#10;&#9;&#9;&#9;&#9;&#9;c0-0.9,0.4-1.8,1.1-2.4c0.7-0.6,1.6-0.9,2.5-0.8c6.4,0.6,156.7,15.7,211.5,92.6c0.7,0.6,1.2,1.5,1.2,2.5c0,1.8-1.5,3.3-3.3,3.3&#10;&#9;&#9;&#9;&#9;&#9;C710.1,476.2,710,476.2,710,476.2z M592,459l110.9,9.9c-51.3-63.8-176.4-81.5-199.2-84.3V412L592,459z"/>
			</g><path fill="#FFFFFF" d="M919.5,413.9V381c0,0-155.4,14.8-209.5,91.9l118.9-10.7L919.5,413.9z" transform="matrix(1, 0, 0, 1, -40.99042892456055, -7.105427357601002e-15)"/><path d="M710,476.2c-1.2,0-2.2-0.6-2.8-1.6c-0.6-1.1-0.6-2.5,0.2-3.5c54.4-77.5,205.5-92.6,211.9-93.3c0.9-0.1,1.8,0.2,2.5,0.8&#10;&#9;&#9;&#9;&#9;&#9;c0.7,0.6,1.1,1.5,1.1,2.4v32.9c0,1.2-0.7,2.3-1.7,2.9l-90.6,48.3c-0.4,0.2-0.8,0.3-1.3,0.4l-118.9,10.7&#10;&#9;&#9;&#9;&#9;&#9;C710.2,476.2,710.1,476.2,710,476.2z M916.2,384.7c-22.8,2.7-147.9,20.5-199.2,84.3l110.9-9.9l88.3-47V384.7z" transform="matrix(1, 0, 0, 1, -40.99042892456055, -7.105427357601002e-15)"/><path fill="#F1F2F2" d="M472.2,448v-36.7c0,0,161.5,9.3,237.8,68.6v23.3l-237.8-45.9V448z" transform="matrix(1, 0, 0, 1, -40.99042892456055, -7.105427357601002e-15)"/><path d="M710,506.5c-0.2,0-0.4,0-0.6-0.1l-237.8-45.9c-1.5-0.3-2.7-1.6-2.7-3.2v-45.9c0-0.9,0.4-1.8,1-2.4&#10;&#9;&#9;&#9;&#9;&#9;c0.7-0.6,1.6-0.9,2.4-0.9c6.6,0.4,163.4,10,239.6,69.3c0.8,0.6,1.3,1.6,1.3,2.6v23.3c0,1-0.4,1.9-1.2,2.5&#10;&#9;&#9;&#9;&#9;&#9;C711.5,506.3,710.7,506.5,710,506.5z M475.5,454.6l231.2,44.7v-17.7c-68.9-52.5-207.6-64.9-231.2-66.7V454.6z" transform="matrix(1, 0, 0, 1, -40.99042892456055, -7.105427357601002e-15)"/><path fill="#F1F2F2" d="M947.8,448v-36.7c0,0-161.5,9.3-237.8,68.6v23.3l237.8-45.9V448z" transform="matrix(1, 0, 0, 1, -40.99042892456055, -7.105427357601002e-15)"/><path d="M710,506.5c-0.8,0-1.5-0.3-2.1-0.8c-0.8-0.6-1.2-1.6-1.2-2.5V480c0-1,0.5-2,1.3-2.6c76.2-59.3,233-68.9,239.6-69.3&#10;&#9;&#9;&#9;&#9;&#9;c0.9,0,1.8,0.3,2.4,0.9c0.7,0.6,1,1.5,1,2.4v45.9c0,1.6-1.1,2.9-2.7,3.2l-237.8,45.9C710.4,506.5,710.2,506.5,710,506.5z&#10;&#9;&#9;&#9;&#9;&#9; M713.3,481.6v17.7l231.2-44.7v-39.7C920.8,416.7,782.2,429.2,713.3,481.6z" transform="matrix(1, 0, 0, 1, -40.99042892456055, -7.105427357601002e-15)"/><path fill="#F0D7BF" d="M941.4,613.8c2.5,6.6,10.2,9,17.3,5.4l41.7-21.6c7.1-3.7,10.8-12.1,8.4-18.7l0,0&#10;&#9;&#9;&#9;&#9;&#9;c-2.5-6.7-10.2-9-17.3-5.3l-41.8,21.7C942.7,598.9,938.9,607.2,941.4,613.8L941.4,613.8z" transform="matrix(1, 0, 0, 1, -40.99042892456055, -7.105427357601002e-15)"/><path d="M951.9,624.1C951.9,624.1,951.9,624.1,951.9,624.1c-6.3,0-11.5-3.5-13.6-9.2c-3.1-8.2,1.3-18.2,9.9-22.6l41.8-21.7&#10;&#9;&#9;&#9;&#9;&#9;c2.6-1.4,5.5-2.1,8.3-2.1c6.3,0,11.5,3.5,13.6,9.2c3,8.2-1.4,18.4-9.9,22.8L960.2,622C957.5,623.4,954.7,624.1,951.9,624.1z&#10;&#9;&#9;&#9;&#9;&#9; M998.3,575c-1.7,0-3.5,0.5-5.3,1.4l-41.8,21.7c-5.5,2.9-8.7,9.5-6.8,14.5c1.7,4.6,7.5,6.3,12.7,3.6l41.7-21.5&#10;&#9;&#9;&#9;&#9;&#9;c5.6-2.9,8.7-9.6,6.8-14.7C1004.5,576.9,1001.8,575,998.3,575z" transform="matrix(1, 0, 0, 1, -40.99042892456055, -7.105427357601002e-15)"/><path fill="#F0D7BF" d="M484.9,613.8c-2.5,6.6-10.2,9-17.3,5.4l-41.8-21.6c-7.1-3.7-10.8-12.1-8.4-18.7l0,0&#10;&#9;&#9;&#9;&#9;&#9;c2.5-6.7,10.2-9,17.3-5.3l41.7,21.7C483.6,598.9,487.3,607.2,484.9,613.8L484.9,613.8z" transform="matrix(1, 0, 0, 1, -40.99042892456055, -7.105427357601002e-15)"/><path d="M474.3,624.1c-2.8,0-5.6-0.7-8.2-2.1l-41.8-21.6c-8.5-4.4-12.9-14.6-9.9-22.8c2.1-5.7,7.3-9.2,13.6-9.2&#10;&#9;&#9;&#9;&#9;&#9;c2.8,0,5.7,0.7,8.3,2.1l41.7,21.7c8.6,4.5,13,14.4,9.9,22.6C485.8,620.6,480.6,624.1,474.3,624.1z M428,575&#10;&#9;&#9;&#9;&#9;&#9;c-3.5,0-6.3,1.8-7.4,4.9c-1.9,5.1,1.2,11.8,6.8,14.7l41.8,21.5c5.2,2.7,11,1,12.7-3.6c1.9-5-1.3-11.6-6.8-14.5l-41.8-21.7&#10;&#9;&#9;&#9;&#9;&#9;C431.5,575.5,429.7,575,428,575z" transform="matrix(1, 0, 0, 1, -40.99042892456055, -7.105427357601002e-15)"/><g transform="matrix(1, 0, 0, 1, -40.99042892456055, -7.105427357601002e-15)">
					<path d="M 437.6000061035156 428.29998779296875 L 437.6000061035156 790.4000244140625 L 662.4000244140625 828.0999755859375 L 662.4000244140625 466 Z" fill="#397BA4"/>
					<path d="M662.4,831.4c-0.2,0-0.4,0-0.5,0l-224.8-37.7c-1.6-0.3-2.7-1.6-2.7-3.2V428.3c0-1,0.4-1.9,1.2-2.5&#10;&#9;&#9;&#9;&#9;&#9;&#9;c0.7-0.6,1.7-0.9,2.7-0.7l224.8,37.7c1.6,0.3,2.7,1.6,2.7,3.2v362.1c0,1-0.4,1.9-1.2,2.5C663.9,831.1,663.2,831.4,662.4,831.4z&#10;&#9;&#9;&#9;&#9;&#9;&#9; M440.9,787.6l218.2,36.6V468.8l-218.2-36.6V787.6z"/>
				</g><path d="M 764.0999755859375 466 L 764.0999755859375 828.0999755859375 L 988.9000244140625 790.4000244140625 L 988.9000244140625 428.29998779296875 Z" fill="#397BA4" transform="matrix(1, 0, 0, 1, -40.99042892456055, -7.105427357601002e-15)"/><path d="M764.1,831.4c-0.8,0-1.5-0.3-2.1-0.8c-0.7-0.6-1.2-1.5-1.2-2.5V466c0-1.6,1.2-3,2.7-3.2l224.8-37.7&#10;&#9;&#9;&#9;&#9;&#9;&#9;c1-0.1,1.9,0.1,2.7,0.7c0.7,0.6,1.2,1.5,1.2,2.5v362.1c0,1.6-1.2,3-2.7,3.2l-224.8,37.7C764.5,831.4,764.3,831.4,764.1,831.4z&#10;&#9;&#9;&#9;&#9;&#9;&#9; M767.4,468.8v355.4l218.2-36.6V432.2L767.4,468.8z" transform="matrix(1, 0, 0, 1, -40.99042892456055, -7.105427357601002e-15)"/><path fill="#4490C2" d="M713.3,482.4c-23.8,0-50.9-16.4-50.9-16.4v362.1c0,0,27.1,16.4,50.9,16.4s50.9-16.4,50.9-16.4V466&#10;&#9;&#9;&#9;&#9;&#9;&#9;C764.1,466,737,482.4,713.3,482.4z" transform="matrix(1, 0, 0, 1, -40.99042892456055, -7.105427357601002e-15)"/><path d="M713.3,847.8c-24.4,0-51.4-16.2-52.6-16.9c-1-0.6-1.6-1.7-1.6-2.8V466c0-1.2,0.6-2.3,1.7-2.9c1-0.6,2.3-0.6,3.3,0.1&#10;&#9;&#9;&#9;&#9;&#9;&#9;c0.3,0.2,26.6,15.9,49.2,15.9c22.6,0,48.9-15.8,49.2-15.9c1-0.6,2.3-0.6,3.3-0.1c1,0.6,1.7,1.7,1.7,2.9v362.1&#10;&#9;&#9;&#9;&#9;&#9;&#9;c0,1.1-0.6,2.2-1.6,2.8C764.7,831.6,737.7,847.8,713.3,847.8z M665.7,826.2c6,3.4,28.2,15,47.6,15c19.4,0,41.5-11.6,47.6-15&#10;&#9;&#9;&#9;&#9;&#9;&#9;V471.6c-9.1,4.8-29.1,14.1-47.6,14.1s-38.5-9.3-47.6-14.1V826.2z" transform="matrix(1, 0, 0, 1, -40.99042892456055, -7.105427357601002e-15)"/><path d="M 941.7999877929688 606.2999877929688 L 811.2000122070312 628.2000122070312 L 811.2000122070312 540.7999877929688 L 941.7999877929688 518.9000244140625 Z" fill="#FFF09E" transform="matrix(1, 0, 0, 1, -40.99042892456055, -7.105427357601002e-15)"/><path d="M811.2,631.5c-0.8,0-1.5-0.3-2.1-0.8c-0.7-0.6-1.2-1.5-1.2-2.5v-87.4c0-1.6,1.2-3,2.7-3.2l130.5-21.9&#10;&#9;&#9;&#9;&#9;&#9;c1-0.2,1.9,0.1,2.7,0.7c0.7,0.6,1.2,1.5,1.2,2.5v87.4c0,1.6-1.2,3-2.7,3.2l-130.5,21.9C811.6,631.5,811.4,631.5,811.2,631.5z&#10;&#9;&#9;&#9;&#9;&#9; M814.5,543.6v80.7l124-20.8v-80.7L814.5,543.6z" transform="matrix(1, 0, 0, 1, -40.99042892456055, -7.105427357601002e-15)"/><path fill="#FFE6CB" d="M486.9,648.8c0,7.4-6.1,12.5-13.6,11.2l-44.2-7.2c-7.5-1.2-13.6-8.3-13.6-15.8l0,0&#10;&#9;&#9;&#9;&#9;&#9;c0-7.5,6.1-12.6,13.6-11.3l44.2,7.4C480.8,634.3,486.9,641.4,486.9,648.8L486.9,648.8z" transform="matrix(1, 0, 0, 1, -40.99042892456055, -7.105427357601002e-15)"/><path d="M475.5,663.5c-0.9,0-1.8-0.1-2.7-0.2l-44.2-7.2c-9.2-1.5-16.3-9.9-16.3-19c0-9.4,7.7-16.2,17.4-14.5l44.2,7.4&#10;&#9;&#9;&#9;&#9;&#9;c9.2,1.5,16.3,9.9,16.3,18.9C490.1,657.2,483.8,663.5,475.5,663.5z M426.8,628.8c-4.7,0-8,3.4-8,8.2c0,5.8,5,11.6,10.8,12.6&#10;&#9;&#9;&#9;&#9;&#9;l44.2,7.2c5.6,0.9,9.8-2.6,9.8-8c0-5.8-5-11.5-10.8-12.5l-44.2-7.4C427.9,628.9,427.4,628.8,426.8,628.8z" transform="matrix(1, 0, 0, 1, -40.99042892456055, -7.105427357601002e-15)"/><path fill="#FFE6CB" d="M515.3,680.3c0,7.4-6.1,12.4-13.6,11.2l-72.6-11.6c-7.5-1.2-13.6-8.2-13.6-15.7l0,0&#10;&#9;&#9;&#9;&#9;&#9;c0-7.5,6.1-12.6,13.6-11.4l72.6,11.8C509.2,665.9,515.3,672.9,515.3,680.3L515.3,680.3z" transform="matrix(1, 0, 0, 1, -40.99042892456055, -7.105427357601002e-15)"/><path d="M503.9,694.9c-0.9,0-1.8-0.1-2.7-0.2l-72.6-11.6c-9.2-1.5-16.4-9.8-16.4-19c0-9.4,7.8-16.2,17.4-14.6l72.6,11.8&#10;&#9;&#9;&#9;&#9;&#9;c9.2,1.5,16.3,9.8,16.3,18.8C518.6,688.6,512.3,694.9,503.9,694.9z M426.9,655.9c-4.8,0-8.1,3.4-8.1,8.3c0,5.8,5,11.6,10.8,12.5&#10;&#9;&#9;&#9;&#9;&#9;l72.6,11.6c5.6,0.9,9.8-2.7,9.8-8c0-5.7-5-11.4-10.8-12.4l-72.6-11.8C428,656,427.4,655.9,426.9,655.9z" transform="matrix(1, 0, 0, 1, -40.99042892456055, -7.105427357601002e-15)"/><path fill="#FFE6CB" d="M500.4,704.7c0,7.4-6.1,12.5-13.6,11.3l-57.8-9c-7.5-1.2-13.6-8.2-13.6-15.7l0,0&#10;&#9;&#9;&#9;&#9;&#9;c0-7.5,6.1-12.6,13.6-11.4l57.8,9.2C494.4,690.3,500.4,697.3,500.4,704.7L500.4,704.7z" transform="matrix(1, 0, 0, 1, -40.99042892456055, -7.105427357601002e-15)"/><path d="M489,719.5c-0.9,0-1.7-0.1-2.6-0.2l-57.8-9c-9.2-1.4-16.4-9.7-16.4-18.9c0-9.4,7.7-16.2,17.4-14.7l57.8,9.2&#10;&#9;&#9;&#9;&#9;&#9;c9.2,1.5,16.4,9.7,16.4,18.8C503.7,713.1,497.4,719.5,489,719.5z M426.9,683c-4.8,0-8.2,3.4-8.2,8.3c0,5.8,4.9,11.5,10.8,12.4&#10;&#9;&#9;&#9;&#9;&#9;l57.8,9c5.5,0.9,9.8-2.8,9.8-8.1c0-5.7-5-11.4-10.8-12.3l-57.8-9.2C428,683.1,427.5,683,426.9,683z" transform="matrix(1, 0, 0, 1, -40.99042892456055, -7.105427357601002e-15)"/><path fill="#FFE6CB" d="M472.2,727.2c0,7.4-6.1,12.6-13.6,11.4l-29.5-4.5c-7.5-1.1-13.6-8.1-13.6-15.6l0,0&#10;&#9;&#9;&#9;&#9;&#9;c0-7.5,6.1-12.6,13.6-11.5l29.5,4.6C466.1,712.8,472.2,719.8,472.2,727.2L472.2,727.2z" transform="matrix(1, 0, 0, 1, -40.99042892456055, -7.105427357601002e-15)"/><path d="M460.7,742.1c-0.8,0-1.7-0.1-2.6-0.2l-29.5-4.5c-9-1.4-16.4-9.8-16.4-18.9c0-9.4,7.7-16.2,17.4-14.7l29.5,4.6&#10;&#9;&#9;&#9;&#9;&#9;c9.2,1.4,16.3,9.7,16.3,18.8C475.5,735.7,469.1,742.1,460.7,742.1z M427,710.1c-4.8,0-8.2,3.5-8.2,8.4c0,5.8,4.9,11.5,10.8,12.4&#10;&#9;&#9;&#9;&#9;&#9;l29.5,4.5c5.6,0.9,9.8-2.9,9.8-8.2c0-5.8-4.9-11.4-10.8-12.3l-29.5-4.6C428,710.2,427.5,710.1,427,710.1z" transform="matrix(1, 0, 0, 1, -40.99042892456055, -7.105427357601002e-15)"/><path fill="#FFE6CB" d="M939.4,648.8c0,7.4,6.1,12.5,13.6,11.2l44.2-7.2c7.5-1.2,13.6-8.3,13.6-15.8l0,0&#10;&#9;&#9;&#9;&#9;&#9;c0-7.5-6.1-12.6-13.6-11.3l-44.2,7.4C945.5,634.3,939.4,641.4,939.4,648.8L939.4,648.8z" transform="matrix(1, 0, 0, 1, -40.99042892456055, -7.105427357601002e-15)"/><path d="M950.7,663.5L950.7,663.5c-8.4,0-14.6-6.3-14.6-14.7c0-9.1,7.2-17.4,16.3-18.9l44.2-7.4c9.6-1.6,17.4,5.2,17.4,14.5&#10;&#9;&#9;&#9;&#9;&#9;c0,9.2-7.2,17.5-16.3,19l-44.2,7.2C952.6,663.4,951.6,663.5,950.7,663.5z M999.4,628.8c-0.6,0-1.1,0-1.7,0.1l-44.2,7.4&#10;&#9;&#9;&#9;&#9;&#9;c-5.9,1-10.8,6.7-10.8,12.5c0,4.8,3.3,8.1,8.1,8.1l0,0c0.6,0,1.1,0,1.7-0.1l44.2-7.2c5.9-1,10.8-6.7,10.8-12.6&#10;&#9;&#9;&#9;&#9;&#9;C1007.5,632.2,1004.2,628.8,999.4,628.8z" transform="matrix(1, 0, 0, 1, -40.99042892456055, -7.105427357601002e-15)"/><path fill="#FFE6CB" d="M911,680.3c0,7.4,6.1,12.4,13.6,11.2l72.6-11.6c7.5-1.2,13.6-8.2,13.6-15.7l0,0&#10;&#9;&#9;&#9;&#9;&#9;c0-7.5-6.1-12.6-13.6-11.4l-72.6,11.8C917,665.9,911,672.9,911,680.3L911,680.3z" transform="matrix(1, 0, 0, 1, -40.99042892456055, -7.105427357601002e-15)"/><path d="M922.3,694.9c-8.4,0-14.7-6.3-14.7-14.7c0-9.1,7.2-17.3,16.3-18.8l72.6-11.8c9.6-1.6,17.4,5.2,17.4,14.6&#10;&#9;&#9;&#9;&#9;&#9;c0,9.2-7.2,17.5-16.3,19l-72.6,11.6C924.1,694.9,923.2,694.9,922.3,694.9z M999.4,655.9c-0.5,0-1.1,0-1.7,0.1l-72.6,11.8&#10;&#9;&#9;&#9;&#9;&#9;c-5.9,1-10.8,6.6-10.8,12.4c0,5.3,4.2,8.9,9.8,8l72.6-11.6c5.9-0.9,10.8-6.7,10.8-12.5C1007.5,659.3,1004.1,655.9,999.4,655.9z" transform="matrix(1, 0, 0, 1, -40.99042892456055, -7.105427357601002e-15)"/><path fill="#FFE6CB" d="M925.8,704.7c0,7.4,6.1,12.5,13.6,11.3l57.8-9c7.5-1.2,13.6-8.2,13.6-15.7l0,0c0-7.5-6.1-12.6-13.6-11.4&#10;&#9;&#9;&#9;&#9;&#9;l-57.8,9.2C931.9,690.3,925.8,697.3,925.8,704.7L925.8,704.7z" transform="matrix(1, 0, 0, 1, -40.99042892456055, -7.105427357601002e-15)"/><path d="M937.3,719.5c-8.4,0-14.7-6.3-14.7-14.8c0-9.1,7.2-17.4,16.3-18.8l57.8-9.2c9.7-1.5,17.4,5.3,17.4,14.7&#10;&#9;&#9;&#9;&#9;&#9;c0,9.2-7.2,17.5-16.3,18.9l-57.8,9C939,719.4,938.1,719.5,937.3,719.5z M999.3,683c-0.5,0-1.1,0-1.6,0.1l-57.8,9.2&#10;&#9;&#9;&#9;&#9;&#9;c-5.9,0.9-10.8,6.6-10.8,12.3c0,5.4,4.2,8.9,9.8,8.1l57.8-9c5.9-0.9,10.8-6.6,10.8-12.4C1007.5,686.5,1004.1,683,999.3,683z" transform="matrix(1, 0, 0, 1, -40.99042892456055, -7.105427357601002e-15)"/><path fill="#FFE6CB" d="M954.1,727.2c0,7.4,6.1,12.6,13.6,11.4l29.5-4.5c7.5-1.1,13.6-8.1,13.6-15.6l0,0&#10;&#9;&#9;&#9;&#9;&#9;c0-7.5-6.1-12.6-13.6-11.5l-29.5,4.6C960.1,712.8,954.1,719.8,954.1,727.2L954.1,727.2z" transform="matrix(1, 0, 0, 1, -40.99042892456055, -7.105427357601002e-15)"/><path d="M965.6,742.1L965.6,742.1c-8.4,0-14.8-6.4-14.8-14.9c0-9.1,7.2-17.4,16.4-18.8l29.5-4.6c9.7-1.5,17.4,5.3,17.4,14.7&#10;&#9;&#9;&#9;&#9;&#9;c0,9.1-7.3,17.5-16.4,18.9l-29.5,4.5C967.3,742,966.4,742.1,965.6,742.1z M999.3,710.1c-0.5,0-1.1,0-1.6,0.1l-29.5,4.6&#10;&#9;&#9;&#9;&#9;&#9;c-5.9,0.9-10.8,6.6-10.8,12.3c0,4.8,3.5,8.3,8.2,8.3l0,0c0.5,0,1,0,1.6-0.1l29.5-4.5c5.9-0.9,10.8-6.6,10.8-12.4&#10;&#9;&#9;&#9;&#9;&#9;C1007.5,713.7,1004,710.1,999.3,710.1z" transform="matrix(1, 0, 0, 1, -40.99042892456055, -7.105427357601002e-15)"/><path fill="#BCBEC0" d="M1326.4,805.6c0-12.4-10.1-22.5-22.5-22.5h-207.2c-12.4,0-22.5,10.1-22.5,22.5l0,0&#10;&#9;&#9;&#9;c0,12.4,10.1,22.5,22.5,22.5h207.2C1316.3,828.1,1326.4,818,1326.4,805.6L1326.4,805.6z" transform="matrix(1, 0, 0, 1, -40.99042892456055, -7.105427357601002e-15)"/><path d="M1303.9,831.4h-207.2c-14.2,0-25.8-11.6-25.8-25.8c0-14.2,11.6-25.8,25.8-25.8h207.2c14.2,0,25.8,11.6,25.8,25.8&#10;&#9;&#9;&#9;C1329.7,819.8,1318.1,831.4,1303.9,831.4z M1096.7,786.4c-10.6,0-19.2,8.6-19.2,19.2c0,10.6,8.6,19.2,19.2,19.2h207.2&#10;&#9;&#9;&#9;c10.6,0,19.2-8.6,19.2-19.2c0-10.6-8.6-19.2-19.2-19.2H1096.7z" transform="matrix(1, 0, 0, 1, -40.99042892456055, -7.105427357601002e-15)"/><path fill="#FF766A" d="M1292.9,783.1v-10.9c0-36.1-29.3-65.4-65.4-65.4h-54.5c-36.1,0-65.3,29.3-65.3,65.4v10.9H1292.9z" transform="matrix(1, 0, 0, 1, -40.99042892456055, -7.105427357601002e-15)"/><path d="M1292.9,786.4h-185.2c-1.8,0-3.3-1.5-3.3-3.3v-10.9c0-37.8,30.8-68.6,68.6-68.6h54.5c37.8,0,68.6,30.8,68.6,68.6v10.9&#10;&#9;&#9;&#9;C1296.2,784.9,1294.7,786.4,1292.9,786.4z M1111,779.8h178.6v-7.6c0-34.2-27.8-62.1-62.1-62.1h-54.5c-34.2,0-62.1,27.8-62.1,62.1&#10;&#9;&#9;&#9;V779.8z" transform="matrix(1, 0, 0, 1, -40.99042892456055, -7.105427357601002e-15)"/><path d="M1200.3,710.1c-0.2,0-0.3,0-0.5,0c-1.8-0.3-3-1.9-2.8-3.7l35.2-240.2l-55.6-235.7c-0.4-1.8,0.7-3.5,2.4-3.9&#10;&#9;&#9;&#9;c1.8-0.4,3.5,0.7,3.9,2.4l55.8,236.4c0.1,0.4,0.1,0.8,0.1,1.2l-35.3,240.8C1203.3,709,1201.9,710.1,1200.3,710.1z" transform="matrix(1, 0, 0, 1, -40.99042892456055, -7.105427357601002e-15)"/><path d="M 1264.999975 466 A 29.4 29.4 0 0 1 1235.599976 495.4 A 29.4 29.4 0 0 1 1206.199976 466 A 29.4 29.4 0 0 1 1235.599976 436.6 A 29.4 29.4 0 0 1 1264.999975 466 Z" fill="#BCBEC0" transform="matrix(1, 0, 0, 1, -40.99042892456055, -7.105427357601002e-15)"/><path d="M1235.6,498.7c-18,0-32.7-14.7-32.7-32.7s14.7-32.7,32.7-32.7s32.7,14.7,32.7,32.7S1253.6,498.7,1235.6,498.7z&#10;&#9;&#9;&#9; M1235.6,439.9c-14.4,0-26.1,11.7-26.1,26.1s11.7,26.1,26.1,26.1c14.4,0,26.1-11.7,26.1-26.1S1250,439.9,1235.6,439.9z" transform="matrix(1, 0, 0, 1, -40.99042892456055, -7.105427357601002e-15)"/><path fill="#BCBEC0" d="M1222.5,273.6c0,17.8-14.5,32.3-32.3,32.3s-32.3-14.5-32.3-32.3s14.5-32.3,32.3-32.3&#10;&#9;&#9;&#9;S1222.5,255.7,1222.5,273.6z" transform="matrix(1, 0, 0, 1, -40.99042892456055, -7.105427357601002e-15)"/><path d="M1190.2,309.2c-19.6,0-35.6-16-35.6-35.6c0-19.6,16-35.6,35.6-35.6c19.6,0,35.6,16,35.6,35.6&#10;&#9;&#9;&#9;C1225.8,293.2,1209.8,309.2,1190.2,309.2z M1190.2,244.6c-16,0-29,13-29,29c0,16,13,29,29,29c16,0,29-13,29-29&#10;&#9;&#9;&#9;C1219.2,257.6,1206.2,244.6,1190.2,244.6z" transform="matrix(1, 0, 0, 1, -40.99042892456055, -7.105427357601002e-15)"/><g transform="matrix(1, 0, 0, 1, -40.99042892456055, -7.105427357601002e-15)">
			<path fill="#FFF09E" d="M1103.7,244.6c8.4,26.3-6,54.5-32.4,63c-26.3,8.5-54.6-6.1-63-32.4s6.1-54.6,32.4-63&#10;&#9;&#9;&#9;&#9;C1067,203.7,1095.2,218.3,1103.7,244.6z"/>
			<path d="M1056,313.3c-23.3,0-43.7-14.9-50.8-37.1c-9-28,6.5-58.1,34.5-67.1c5.3-1.7,10.8-2.6,16.3-2.6&#10;&#9;&#9;&#9;&#9;c23.3,0,43.7,14.9,50.8,37.1c9,28-6.5,58.1-34.5,67.1C1067,312.4,1061.5,313.3,1056,313.3z M1056,213.1c-4.8,0-9.6,0.8-14.3,2.2&#10;&#9;&#9;&#9;&#9;c-24.6,7.9-38.2,34.3-30.3,58.9c6.2,19.5,24.1,32.5,44.6,32.5c4.8,0,9.7-0.8,14.3-2.3c24.6-7.9,38.1-34.3,30.3-58.9&#10;&#9;&#9;&#9;&#9;C1094.3,226.1,1076.4,213.1,1056,213.1z"/>
		</g><path fill="#F1F2F2" d="M1055.9,140.9l-43.7,14l69.2,215.8l43.7-14c38.7-12.4,59.9-53.8,47.5-92.4l-24.3-75.8&#10;&#9;&#9;&#9;&#9;C1136,149.8,1094.6,128.5,1055.9,140.9z" transform="matrix(1, 0, 0, 1, -40.990429089445115, 2.98112154006958)" style="fill-opacity: 1;"/><path fill="#FF766A" d="M1230.5,150.2l-94.4,30.3l31.3,97.4l94.4-30.3c21.5-6.9,33.4-30,26.5-51.5l-6.2-19.5&#10;&#9;&#9;&#9;&#9;C1275,155.1,1252,143.3,1230.5,150.2z" transform="matrix(1, 0, 0, 1, -40.99042892456055, -7.105427357601002e-15)"/><path d="M1167.3,281.2c-0.5,0-1-0.1-1.5-0.4c-0.8-0.4-1.4-1.1-1.6-1.9l-31.3-97.4c-0.6-1.7,0.4-3.6,2.1-4.1l94.4-30.3&#10;&#9;&#9;&#9;&#9;c4.4-1.4,8.9-2.1,13.5-2.1c19.3,0,36.2,12.3,42.1,30.7l6.2,19.5c3.6,11.2,2.6,23.2-2.8,33.7c-5.4,10.5-14.6,18.3-25.8,21.9&#10;&#9;&#9;&#9;&#9;l-94.4,30.3C1168,281.1,1167.6,281.2,1167.3,281.2z M1140.2,182.6l29.3,91.2l91.3-29.3c9.6-3.1,17.4-9.7,22-18.6&#10;&#9;&#9;&#9;&#9;c4.6-8.9,5.4-19.1,2.4-28.7l-6.2-19.5c-5-15.6-19.4-26.2-35.8-26.2c-3.9,0-7.8,0.6-11.5,1.8L1140.2,182.6z" transform="matrix(1, 0, 0, 1, -40.99042892456055, -7.105427357601002e-15)"/><path d="M1081.4,374c-1.4,0-2.7-0.9-3.1-2.3L1009.1,156c-0.6-1.7,0.4-3.6,2.1-4.1l43.7-14c7.6-2.4,15.5-3.7,23.5-3.7&#10;&#9;&#9;&#9;&#9;c33.5,0,62.9,21.4,73.1,53.3l24.3,75.8c6.3,19.5,4.6,40.3-4.8,58.6c-9.4,18.2-25.3,31.7-44.8,38l-43.7,14&#10;&#9;&#9;&#9;&#9;C1082.1,374,1081.8,374,1081.4,374z M1016.3,157.1l67.2,209.5l40.6-13c17.9-5.7,32.4-18.1,41-34.8c8.6-16.7,10.1-35.7,4.4-53.6&#10;&#9;&#9;&#9;&#9;l-24.3-75.8c-9.4-29.2-36.2-48.8-66.8-48.8c-7.3,0-14.5,1.1-21.5,3.4L1016.3,157.1z" transform="matrix(1, 0, 0, 1, -40.99042892456055, -7.105427357601002e-15)"/><path d="M1290.2,867.4h-132.3c-1.8,0-3.3-1.5-3.3-3.3s1.5-3.3,3.3-3.3h132.3c1.8,0,3.3,1.5,3.3,3.3S1292,867.4,1290.2,867.4z" transform="matrix(1, 0, 0, 1, -40.99042892456055, -7.105427357601002e-15)"/><path d="M1094.2,867.4H919.5c-1.8,0-3.3-1.5-3.3-3.3s1.5-3.3,3.3-3.3h174.7c1.8,0,3.3,1.5,3.3,3.3S1096,867.4,1094.2,867.4z" transform="matrix(1, 0, 0, 1, -40.99042892456055, -7.105427357601002e-15)"/><path d="M446.3,357.7H98.7c-1.8,0-3.3-1.5-3.3-3.3c0-1.8,1.5-3.3,3.3-3.3h347.6c1.8,0,3.3,1.5,3.3,3.3&#10;&#9;&#9;&#9;C449.5,356.2,448.1,357.7,446.3,357.7z" transform="matrix(1, 0, 0, 1, -40.99042892456055, -7.105427357601002e-15)"/><path d="M 144.100006 126.900002 H 206.400005 V 354.400002 H 144.100006 V 126.900002 Z" fill="#BCBEC0" transform="matrix(1, 0, 0, 1, -40.99042892456055, -7.105427357601002e-15)"/><path d="M206.4,357.7h-62.3c-1.8,0-3.3-1.5-3.3-3.3V126.9c0-1.8,1.5-3.3,3.3-3.3h62.3c1.8,0,3.3,1.5,3.3,3.3v227.5&#10;&#9;&#9;&#9;C209.7,356.2,208.2,357.7,206.4,357.7z M147.3,351.1h55.8v-221h-55.8V351.1z" transform="matrix(1, 0, 0, 1, -40.99042892456055, -7.105427357601002e-15)"/><path d="M 249.100006 105.800003 H 317.200005 V 354.400009 H 249.100006 V 105.800003 Z" fill="#397BA4" transform="matrix(1, 0, 0, 1, -40.99042892456055, -7.105427357601002e-15)"/><path d="M317.2,357.7h-68.1c-1.8,0-3.3-1.5-3.3-3.3V105.8c0-1.8,1.5-3.3,3.3-3.3h68.1c1.8,0,3.3,1.5,3.3,3.3v248.6&#10;&#9;&#9;&#9;C320.4,356.2,319,357.7,317.2,357.7z M252.3,351.1h61.5v-242h-61.5V351.1z" transform="matrix(1, 0, 0, 1, -40.99042892456055, -7.105427357601002e-15)"/><path d="M 317.200012 105.800003 H 385.300011 V 354.400009 H 317.200012 V 105.800003 Z" fill="#FF766A" transform="matrix(1, 0, 0, 1, -40.99042892456055, -7.105427357601002e-15)"/><path d="M385.3,357.7h-68.1c-1.8,0-3.3-1.5-3.3-3.3V105.8c0-1.8,1.5-3.3,3.3-3.3h68.1c1.8,0,3.3,1.5,3.3,3.3v248.6&#10;&#9;&#9;&#9;C388.6,356.2,387.1,357.7,385.3,357.7z M320.4,351.1H382v-242h-61.5V351.1z" transform="matrix(1, 0, 0, 1, -40.99042892456055, -7.105427357601002e-15)"/><path d="M 206.399994 158.600006 H 249.099995 V 354.400009 H 206.399994 V 158.600006 Z" fill="#FFF09E" transform="matrix(1, 0, 0, 1, -40.99042892456055, -7.105427357601002e-15)"/><path d="M249.1,357.7h-42.7c-1.8,0-3.3-1.5-3.3-3.3V158.6c0-1.8,1.5-3.3,3.3-3.3h42.7c1.8,0,3.3,1.5,3.3,3.3v195.8&#10;&#9;&#9;&#9;C252.3,356.2,250.9,357.7,249.1,357.7z M209.7,351.1h36.1V161.9h-36.1V351.1z" transform="matrix(1, 0, 0, 1, -40.99042892456055, -7.105427357601002e-15)"/><path d="M365.5,147.7h-28.6c-1.8,0-3.3-1.5-3.3-3.3c0-1.8,1.5-3.3,3.3-3.3h28.6c1.8,0,3.3,1.5,3.3,3.3&#10;&#9;&#9;&#9;C368.8,146.2,367.4,147.7,365.5,147.7z" transform="matrix(1, 0, 0, 1, -40.99042892456055, -7.105427357601002e-15)"/><path d="M365.5,177.7h-28.6c-1.8,0-3.3-1.5-3.3-3.3c0-1.8,1.5-3.3,3.3-3.3h28.6c1.8,0,3.3,1.5,3.3,3.3&#10;&#9;&#9;&#9;C368.8,176.3,367.4,177.7,365.5,177.7z" transform="matrix(1, 0, 0, 1, -40.99042892456055, -7.105427357601002e-15)"/><path d="M365.5,207.8h-28.6c-1.8,0-3.3-1.5-3.3-3.3s1.5-3.3,3.3-3.3h28.6c1.8,0,3.3,1.5,3.3,3.3S367.4,207.8,365.5,207.8z" transform="matrix(1, 0, 0, 1, -40.99042892456055, -7.105427357601002e-15)"/><path d="M 266.200012 192.5 H 300.100014 V 354.399994 H 266.200012 V 192.5 Z" fill="#F1F2F2" transform="matrix(1, 0, 0, 1, -40.99042892456055, -7.105427357601002e-15)"/><path d="M300.1,357.7h-33.9c-1.8,0-3.3-1.5-3.3-3.3V192.5c0-1.8,1.5-3.3,3.3-3.3h33.9c1.8,0,3.3,1.5,3.3,3.3v161.9&#10;&#9;&#9;&#9;C303.3,356.2,301.9,357.7,300.1,357.7z M269.4,351.1h27.3V195.8h-27.3V351.1z" transform="matrix(1, 0, 0, 1, -40.99042892456055, -7.105427357601002e-15)"/><path d="M227.7,309.5c-1.8,0-3.3-1.5-3.3-3.3v-99.5c0-1.8,1.5-3.3,3.3-3.3c1.8,0,3.3,1.5,3.3,3.3v99.5&#10;&#9;&#9;&#9;C231,308.1,229.5,309.5,227.7,309.5z" transform="matrix(1, 0, 0, 1, -40.99042892456055, -7.105427357601002e-15)"/><path fill="#F1F2F2" d="M190.5,181.6c0,8.5-6.9,15.3-15.3,15.3c-8.5,0-15.3-6.9-15.3-15.3s6.9-15.3,15.3-15.3&#10;&#9;&#9;&#9;C183.7,166.3,190.5,173.1,190.5,181.6z" transform="matrix(1, 0, 0, 1, -40.99042892456055, -7.105427357601002e-15)"/><path d="M175.2,200.2c-10.3,0-18.6-8.3-18.6-18.6c0-10.3,8.3-18.6,18.6-18.6c10.2,0,18.6,8.3,18.6,18.6&#10;&#9;&#9;&#9;C193.8,191.8,185.5,200.2,175.2,200.2z M175.2,169.5c-6.6,0-12,5.4-12,12c0,6.6,5.4,12,12,12c6.6,0,12-5.4,12-12&#10;&#9;&#9;&#9;C187.2,174.9,181.9,169.5,175.2,169.5z" transform="matrix(1, 0, 0, 1, -40.99042892456055, -7.105427357601002e-15)"/><path d="M 1062.800049 432.899994 H 1119.100048 V 489.199993 H 1062.800049 V 432.899994 Z" fill="#F1F2F2" transform="matrix(1, 0, 0, 1, -40.99042892456055, -7.105427357601002e-15)"/><path d="M1119.1,492.5h-56.3c-1.8,0-3.3-1.5-3.3-3.3v-56.3c0-1.8,1.5-3.3,3.3-3.3h56.3c1.8,0,3.3,1.5,3.3,3.3v56.3&#10;&#9;&#9;&#9;C1122.4,491,1120.9,492.5,1119.1,492.5z M1066.1,485.9h49.7v-49.8h-49.7V485.9z" transform="matrix(1, 0, 0, 1, -40.99042892456055, -7.105427357601002e-15)"/><path d="M 1062.800049 523.099976 H 1119.100048 V 579.399975 H 1062.800049 V 523.099976 Z" fill="#397BA4" transform="matrix(1, 0, 0, 1, -40.99042892456055, -7.105427357601002e-15)"/><path d="M1119.1,582.7h-56.3c-1.8,0-3.3-1.5-3.3-3.3v-56.3c0-1.8,1.5-3.3,3.3-3.3h56.3c1.8,0,3.3,1.5,3.3,3.3v56.3&#10;&#9;&#9;&#9;C1122.4,581.2,1120.9,582.7,1119.1,582.7z M1066.1,576.1h49.7v-49.8h-49.7V576.1z" transform="matrix(1, 0, 0, 1, -40.99042892456055, -7.105427357601002e-15)"/><path d="M 1062.800049 613.299988 H 1119.100048 V 669.599987 H 1062.800049 V 613.299988 Z" fill="#FF766A" transform="matrix(1, 0, 0, 1, -40.99042892456055, -7.105427357601002e-15)"/><path d="M1119.1,672.9h-56.3c-1.8,0-3.3-1.5-3.3-3.3v-56.3c0-1.8,1.5-3.3,3.3-3.3h56.3c1.8,0,3.3,1.5,3.3,3.3v56.3&#10;&#9;&#9;&#9;C1122.4,671.4,1120.9,672.9,1119.1,672.9z M1066.1,666.3h49.7v-49.8h-49.7V666.3z" transform="matrix(1, 0, 0, 1, -40.99042892456055, -7.105427357601002e-15)"/><path d="M 191.699997 778 L 456.700012 778" fill="#FFFFFF" transform="matrix(1, 0, 0, 1, -40.99042892456055, -7.105427357601002e-15)"/><path d="M 311.899994 803.900024 L 399 803.900024" fill="#FFFFFF" transform="matrix(1, 0, 0, 1, -40.99042892456055, -7.105427357601002e-15)"/><path d="M1326.4,663.5h-82.6c-1.8,0-3.3-1.5-3.3-3.3c0-1.8,1.5-3.3,3.3-3.3h82.6c1.8,0,3.3,1.5,3.3,3.3&#10;&#9;&#9;&#9;C1329.7,662,1328.2,663.5,1326.4,663.5z" transform="matrix(1, 0, 0, 1, -40.99042892456055, -7.105427357601002e-15)"/><path d="M1326.4,599.6h-41.3c-1.8,0-3.3-1.5-3.3-3.3c0-1.8,1.5-3.3,3.3-3.3h41.3c1.8,0,3.3,1.5,3.3,3.3&#10;&#9;&#9;&#9;C1329.7,598.1,1328.2,599.6,1326.4,599.6z" transform="matrix(1, 0, 0, 1, -40.99042892456055, -7.105427357601002e-15)"/>
<g transform="matrix(0.9999997615814209, 0, 0, 0.9999997615814209, -415.49404048241354, 526.9133535475054)"><path id="XMLID_490_" fill="#FFFEFE" d="M574.4,779.5c-5.3,9.1-7.4,18.1-2.6,27.6c-8.4,0-16.6,0.1-24.8,0c-16-0.3-32.1-0.7-48.1-1&#10;&#9;&#9;c-26.3-0.5-52.7-0.5-79-1.6c-13.9-0.6-23.6-13-21.7-26.8c0.3-1.8,0.5-3.7,0.7-5.5c1.7,0.3,3.5,0.6,5.2,0.8&#10;&#9;&#9;c12.8,1.7,25.6,2.2,38.4,2.8c37.6,1.8,75.2,2.3,112.8,3.1C561.7,778.9,567.9,779.1,574.4,779.5z" transform="matrix(1, 0, 0, 1, 85.84406557278623, -217.78955000567305)"/><path id="XMLID_489_" fill="#FFFEFE" d="M653,624.4c0.4,5.4,0.4,10.9,3.3,15.8c0.3,0.6,0,1.1-0.2,1.7c-9.1,21-17,42.5-26.1,63.5&#10;&#9;&#9;c-11.7,26.8-24.9,52.8-37.9,79c-3.5,7.2-8.4,13.6-11.4,21c-0.9,2.2-1.7,1.5-2.8,0.1c-3.7-4.8-3.7-13-0.3-18&#10;&#9;&#9;c9-13.1,16-27.3,23.1-41.4c19.5-38.9,36-79,51.6-119.5C652.5,625.8,652.7,625.1,653,624.4z" transform="matrix(1, 0, 0, 1, 85.84406557278623, -217.78955000567305)"/><path id="XMLID_494_" fill="#111314" d="M566.4,588.6c28.4,0.9,56.8,1.7,85.2,2.7c3.5,0.1,7.1,0,10.6,0.9c1.2,0.3,1.3,0.6,1.1,2&#10;&#9;&#9;c-1.6,10.9-4.5,21.7-4.3,32.8c0.1,3.9,0.3,7.9,2.3,11.5c0.5,0.8,0.7,1.6,0,2.5c-4.5,6-5.8,13.3-8.2,20.2&#10;&#9;&#9;c-12.4,35.1-27.7,69-44.5,102.2c-7.1,14-14.3,28-21.2,42c-2.3,4.6-6.7,6.7-11.4,6.2c-2-0.2-3.9-0.1-5.7,0.6c-3.1,1-6.3,0.3-9.4,0.3&#10;&#9;&#9;c-18.4-0.1-36.8-0.5-55.2-0.8c-20.2-0.4-40.4-0.7-60.6-1.3c-10.4-0.3-20.7-1.1-31.1-2.3c-10.4-1.2-19.4-10.9-20.4-21.3&#10;&#9;&#9;c-0.4-4.7-1.6-9.3-1.1-14.1c0.4-3.8,1.3-7.2,3.7-10.4c1.5-1.9,2.2-4.4,3.3-6.6c10.6-22.6,23.2-44,35.1-65.8&#10;&#9;&#9;c15.7-28.9,31.7-57.6,47-86.8c0.6-1.2,0.9-2.4,1-3.8c0.2-3.7,1.7-7.2,4.2-9.9c1.8-1.9,4.6-1.6,7-1.6c12.2-0.1,24.3-0.1,36.5,0.3&#10;&#9;&#9;C542.5,588.3,554.5,588.1,566.4,588.6z M577.1,774.2c2,0.6,2.4-0.6,3-1.6c3.3-6.2,6.7-12.3,9.9-18.6c17.2-33.6,33-67.9,47.6-102.8&#10;&#9;&#9;c7.1-17,14.9-33.8,21.3-51.2c0.7-1.8,0.7-2.3-1.5-2.4c-11.4-0.3-22.7-0.8-34.1-1.1c-18-0.5-36-0.9-54-1.5c-26-0.8-52-1.5-78-3&#10;&#9;&#9;c-1.2-0.1-1.9,0.1-2.4,1.5c-4.2,10.8-8.6,21.5-13.7,31.8c-12.3,24.8-25.1,49.3-38.3,73.7c-12.1,22.4-24,45-36.1,67.4&#10;&#9;&#9;c-0.8,1.5-0.5,1.9,1,2c4.1,0.2,8.3,0.5,12.4,0.7c27,1.3,54,2.2,81,2.9C522.7,772.7,550.1,773,577.1,774.2z M574.4,779.5&#10;&#9;&#9;c-6.5-0.5-12.8-0.6-19-0.7c-37.6-0.7-75.2-1.3-112.8-3.1c-12.8-0.6-25.7-1.1-38.4-2.8c-1.7-0.2-3.5-0.5-5.2-0.8&#10;&#9;&#9;c-0.2,1.8-0.5,3.7-0.7,5.5c-1.9,13.8,7.8,26.2,21.7,26.8c26.3,1.2,52.6,1.1,79,1.6c16,0.3,32.1,0.7,48.1,1c8.2,0.1,16.4,0,24.8,0&#10;&#9;&#9;C567,797.6,569.1,788.6,574.4,779.5z M653,624.4c-0.3,0.7-0.6,1.4-0.8,2.2c-15.5,40.6-32.1,80.6-51.6,119.5&#10;&#9;&#9;c-7.1,14.1-14.1,28.3-23.1,41.4c-3.4,5-3.3,13.2,0.3,18c1,1.4,1.9,2.1,2.8-0.1c3-7.4,7.8-13.9,11.4-21c13-26.2,26.2-52.2,37.9-79&#10;&#9;&#9;c9.2-21,17-42.5,26.1-63.5c0.2-0.6,0.6-1.1,0.2-1.7C653.4,635.3,653.5,629.8,653,624.4z" transform="matrix(1, 0, 0, 1, 85.84406557278623, -217.78955000567305)"/><path id="XMLID_491_" fill="#7A8DAB" d="M577.1,774.2c-27-1.1-54.4-1.4-81.8-2.1c-27-0.7-54-1.5-81-2.9c-4.1-0.2-8.3-0.5-12.4-0.7&#10;&#9;&#9;c-1.5-0.1-1.8-0.5-1-2c12-22.5,23.9-45,36.1-67.4c13.2-24.3,26-48.8,38.3-73.7c5.1-10.4,9.5-21.1,13.7-31.8&#10;&#9;&#9;c0.5-1.4,1.2-1.5,2.4-1.5c26,1.5,52,2.1,78,3c18,0.6,36,0.9,54,1.5c11.4,0.3,22.7,0.8,34.1,1.1c2.2,0.1,2.1,0.6,1.5,2.4&#10;&#9;&#9;c-6.4,17.4-14.2,34.1-21.3,51.2C623,686,607.3,720.3,590,753.9c-3.2,6.2-6.6,12.4-9.9,18.6C579.6,773.6,579.1,774.7,577.1,774.2z&#10;&#9;&#9; M532.3,611.3c-8.3,0-14.7,0-21.2,0c-3.1,0-5.5-0.2-6.8,4.3c-1.9,6.7-5.4,12.9-8.9,19c-2.8,4.9-5.8,9.6-8.8,14.4&#10;&#9;&#9;c-2.1,3.4-0.9,5.7,3.1,6.1c0.6,0.1,1.2,0.1,1.8,0.1c26.2,0.1,52.4,2.4,78.5,4c6.3,0.4,12.7,0.4,19,0.6c1.4,0,3.2,0.1,3.4-2&#10;&#9;&#9;c0.2-1.8,1.2-3.1,2.1-4.5c2.8-4.4,6.3-8.4,8.2-13.4c2.4-6.1,5.5-11.8,9-17.3c0.6-0.9,1.1-1.9,1.5-2.9c1.1-2.9,0.2-4.5-3-4.9&#10;&#9;&#9;c-4.6-0.6-9.2-1-13.9-1c-6.6-0.1-13.3-0.1-19.9-0.3C561,612.8,545.7,612,532.3,611.3z" transform="matrix(1, 0, 0, 1, 85.84406557278623, -217.78955000567305)"/><path id="XMLID_486_" fill="#111314" d="M532.3,611.3c13.5,0.7,28.8,1.5,44.1,2.1c6.6,0.3,13.3,0.3,19.9,0.3&#10;&#9;&#9;c4.7,0.1,9.3,0.4,13.9,1c3.1,0.4,4.1,2,3,4.9c-0.4,1-0.9,2-1.5,2.9c-3.4,5.6-6.6,11.3-9,17.3c-1.9,5-5.4,8.9-8.2,13.4&#10;&#9;&#9;c-0.9,1.4-1.9,2.8-2.1,4.5c-0.2,2.1-2,2-3.4,2c-6.3-0.1-12.7-0.2-19-0.6c-26.2-1.7-52.3-3.9-78.5-4c-0.6,0-1.2,0-1.8-0.1&#10;&#9;&#9;c-4-0.5-5.2-2.7-3.1-6.1c3-4.8,6-9.5,8.8-14.4c3.4-6.1,7-12.3,8.9-19c1.3-4.4,3.7-4.2,6.8-4.3C517.5,611.3,524,611.3,532.3,611.3z&#10;&#9;&#9; M491.2,650.5c0.9,0.1,1.4,0.2,2,0.2c29.8,0.4,59.5,3,89.2,4.9c4.3,0.3,6.6-0.4,8.6-4.4c2.5-4.9,6.3-9.1,8.4-14.3&#10;&#9;&#9;c2-5,4.5-9.7,7.3-14.2c2.5-4,2.5-4.1-2.2-4.2c-22-0.8-44.1-1.6-66.1-2.5c-10.1-0.4-20.2-0.3-30.2-1.5c-1.4-0.2-1.4,0.5-1.6,1.4&#10;&#9;&#9;c-1.7,8.7-5.7,16.6-9.7,24.4C495.1,643.6,493.2,646.9,491.2,650.5z" transform="matrix(1, 0, 0, 1, 85.84406557278623, -217.78955000567305)"/><path id="XMLID_485_" fill="#FFFEFE" d="M491.2,650.5c2-3.6,3.9-6.9,5.6-10.2c4-7.8,7.9-15.7,9.7-24.4c0.2-0.9,0.2-1.5,1.6-1.4&#10;&#9;&#9;c10,1.2,20.1,1.1,30.2,1.5c22,0.9,44.1,1.6,66.1,2.5c4.7,0.2,4.7,0.3,2.2,4.2c-2.9,4.5-5.4,9.2-7.3,14.2c-2.1,5.2-5.9,9.4-8.4,14.3&#10;&#9;&#9;c-2,4-4.4,4.6-8.6,4.4c-29.7-1.9-59.4-4.5-89.2-4.9C492.7,650.6,492.1,650.5,491.2,650.5z" transform="matrix(1, 0, 0, 1, 85.84406557278623, -217.78955000567305)"/></g><g transform="matrix(0.9999997615814209, 0, 0, 0.9999997615814209, -416.69039058007, 489.71700344984913)"><path id="path-13" fill="#FFFEFE" d="M574.4,779.5c-5.3,9.1-7.4,18.1-2.6,27.6c-8.4,0-16.6,0.1-24.8,0c-16-0.3-32.1-0.7-48.1-1&#10;&#9;&#9;c-26.3-0.5-52.7-0.5-79-1.6c-13.9-0.6-23.6-13-21.7-26.8c0.3-1.8,0.5-3.7,0.7-5.5c1.7,0.3,3.5,0.6,5.2,0.8&#10;&#9;&#9;c12.8,1.7,25.6,2.2,38.4,2.8c37.6,1.8,75.2,2.3,112.8,3.1C561.7,778.9,567.9,779.1,574.4,779.5z" transform="matrix(1, 0, 0, 1, 85.84406557278623, -217.78955000567305)"/><path id="path-14" fill="#FFFEFE" d="M653,624.4c0.4,5.4,0.4,10.9,3.3,15.8c0.3,0.6,0,1.1-0.2,1.7c-9.1,21-17,42.5-26.1,63.5&#10;&#9;&#9;c-11.7,26.8-24.9,52.8-37.9,79c-3.5,7.2-8.4,13.6-11.4,21c-0.9,2.2-1.7,1.5-2.8,0.1c-3.7-4.8-3.7-13-0.3-18&#10;&#9;&#9;c9-13.1,16-27.3,23.1-41.4c19.5-38.9,36-79,51.6-119.5C652.5,625.8,652.7,625.1,653,624.4z" transform="matrix(1, 0, 0, 1, 85.84406557278623, -217.78955000567305)"/><path id="path-15" fill="#111314" d="M566.4,588.6c28.4,0.9,56.8,1.7,85.2,2.7c3.5,0.1,7.1,0,10.6,0.9c1.2,0.3,1.3,0.6,1.1,2&#10;&#9;&#9;c-1.6,10.9-4.5,21.7-4.3,32.8c0.1,3.9,0.3,7.9,2.3,11.5c0.5,0.8,0.7,1.6,0,2.5c-4.5,6-5.8,13.3-8.2,20.2&#10;&#9;&#9;c-12.4,35.1-27.7,69-44.5,102.2c-7.1,14-14.3,28-21.2,42c-2.3,4.6-6.7,6.7-11.4,6.2c-2-0.2-3.9-0.1-5.7,0.6c-3.1,1-6.3,0.3-9.4,0.3&#10;&#9;&#9;c-18.4-0.1-36.8-0.5-55.2-0.8c-20.2-0.4-40.4-0.7-60.6-1.3c-10.4-0.3-20.7-1.1-31.1-2.3c-10.4-1.2-19.4-10.9-20.4-21.3&#10;&#9;&#9;c-0.4-4.7-1.6-9.3-1.1-14.1c0.4-3.8,1.3-7.2,3.7-10.4c1.5-1.9,2.2-4.4,3.3-6.6c10.6-22.6,23.2-44,35.1-65.8&#10;&#9;&#9;c15.7-28.9,31.7-57.6,47-86.8c0.6-1.2,0.9-2.4,1-3.8c0.2-3.7,1.7-7.2,4.2-9.9c1.8-1.9,4.6-1.6,7-1.6c12.2-0.1,24.3-0.1,36.5,0.3&#10;&#9;&#9;C542.5,588.3,554.5,588.1,566.4,588.6z M577.1,774.2c2,0.6,2.4-0.6,3-1.6c3.3-6.2,6.7-12.3,9.9-18.6c17.2-33.6,33-67.9,47.6-102.8&#10;&#9;&#9;c7.1-17,14.9-33.8,21.3-51.2c0.7-1.8,0.7-2.3-1.5-2.4c-11.4-0.3-22.7-0.8-34.1-1.1c-18-0.5-36-0.9-54-1.5c-26-0.8-52-1.5-78-3&#10;&#9;&#9;c-1.2-0.1-1.9,0.1-2.4,1.5c-4.2,10.8-8.6,21.5-13.7,31.8c-12.3,24.8-25.1,49.3-38.3,73.7c-12.1,22.4-24,45-36.1,67.4&#10;&#9;&#9;c-0.8,1.5-0.5,1.9,1,2c4.1,0.2,8.3,0.5,12.4,0.7c27,1.3,54,2.2,81,2.9C522.7,772.7,550.1,773,577.1,774.2z M574.4,779.5&#10;&#9;&#9;c-6.5-0.5-12.8-0.6-19-0.7c-37.6-0.7-75.2-1.3-112.8-3.1c-12.8-0.6-25.7-1.1-38.4-2.8c-1.7-0.2-3.5-0.5-5.2-0.8&#10;&#9;&#9;c-0.2,1.8-0.5,3.7-0.7,5.5c-1.9,13.8,7.8,26.2,21.7,26.8c26.3,1.2,52.6,1.1,79,1.6c16,0.3,32.1,0.7,48.1,1c8.2,0.1,16.4,0,24.8,0&#10;&#9;&#9;C567,797.6,569.1,788.6,574.4,779.5z M653,624.4c-0.3,0.7-0.6,1.4-0.8,2.2c-15.5,40.6-32.1,80.6-51.6,119.5&#10;&#9;&#9;c-7.1,14.1-14.1,28.3-23.1,41.4c-3.4,5-3.3,13.2,0.3,18c1,1.4,1.9,2.1,2.8-0.1c3-7.4,7.8-13.9,11.4-21c13-26.2,26.2-52.2,37.9-79&#10;&#9;&#9;c9.2-21,17-42.5,26.1-63.5c0.2-0.6,0.6-1.1,0.2-1.7C653.4,635.3,653.5,629.8,653,624.4z" transform="matrix(1, 0, 0, 1, 85.84406557278623, -217.78955000567305)"/><path id="path-16" fill="#7A8DAB" d="M577.1,774.2c-27-1.1-54.4-1.4-81.8-2.1c-27-0.7-54-1.5-81-2.9c-4.1-0.2-8.3-0.5-12.4-0.7&#10;&#9;&#9;c-1.5-0.1-1.8-0.5-1-2c12-22.5,23.9-45,36.1-67.4c13.2-24.3,26-48.8,38.3-73.7c5.1-10.4,9.5-21.1,13.7-31.8&#10;&#9;&#9;c0.5-1.4,1.2-1.5,2.4-1.5c26,1.5,52,2.1,78,3c18,0.6,36,0.9,54,1.5c11.4,0.3,22.7,0.8,34.1,1.1c2.2,0.1,2.1,0.6,1.5,2.4&#10;&#9;&#9;c-6.4,17.4-14.2,34.1-21.3,51.2C623,686,607.3,720.3,590,753.9c-3.2,6.2-6.6,12.4-9.9,18.6C579.6,773.6,579.1,774.7,577.1,774.2z&#10;&#9;&#9; M532.3,611.3c-8.3,0-14.7,0-21.2,0c-3.1,0-5.5-0.2-6.8,4.3c-1.9,6.7-5.4,12.9-8.9,19c-2.8,4.9-5.8,9.6-8.8,14.4&#10;&#9;&#9;c-2.1,3.4-0.9,5.7,3.1,6.1c0.6,0.1,1.2,0.1,1.8,0.1c26.2,0.1,52.4,2.4,78.5,4c6.3,0.4,12.7,0.4,19,0.6c1.4,0,3.2,0.1,3.4-2&#10;&#9;&#9;c0.2-1.8,1.2-3.1,2.1-4.5c2.8-4.4,6.3-8.4,8.2-13.4c2.4-6.1,5.5-11.8,9-17.3c0.6-0.9,1.1-1.9,1.5-2.9c1.1-2.9,0.2-4.5-3-4.9&#10;&#9;&#9;c-4.6-0.6-9.2-1-13.9-1c-6.6-0.1-13.3-0.1-19.9-0.3C561,612.8,545.7,612,532.3,611.3z" transform="matrix(1, 0, 0, 1, 85.84406557278623, -217.78955000567305)"/><path id="path-17" fill="#111314" d="M532.3,611.3c13.5,0.7,28.8,1.5,44.1,2.1c6.6,0.3,13.3,0.3,19.9,0.3&#10;&#9;&#9;c4.7,0.1,9.3,0.4,13.9,1c3.1,0.4,4.1,2,3,4.9c-0.4,1-0.9,2-1.5,2.9c-3.4,5.6-6.6,11.3-9,17.3c-1.9,5-5.4,8.9-8.2,13.4&#10;&#9;&#9;c-0.9,1.4-1.9,2.8-2.1,4.5c-0.2,2.1-2,2-3.4,2c-6.3-0.1-12.7-0.2-19-0.6c-26.2-1.7-52.3-3.9-78.5-4c-0.6,0-1.2,0-1.8-0.1&#10;&#9;&#9;c-4-0.5-5.2-2.7-3.1-6.1c3-4.8,6-9.5,8.8-14.4c3.4-6.1,7-12.3,8.9-19c1.3-4.4,3.7-4.2,6.8-4.3C517.5,611.3,524,611.3,532.3,611.3z&#10;&#9;&#9; M491.2,650.5c0.9,0.1,1.4,0.2,2,0.2c29.8,0.4,59.5,3,89.2,4.9c4.3,0.3,6.6-0.4,8.6-4.4c2.5-4.9,6.3-9.1,8.4-14.3&#10;&#9;&#9;c2-5,4.5-9.7,7.3-14.2c2.5-4,2.5-4.1-2.2-4.2c-22-0.8-44.1-1.6-66.1-2.5c-10.1-0.4-20.2-0.3-30.2-1.5c-1.4-0.2-1.4,0.5-1.6,1.4&#10;&#9;&#9;c-1.7,8.7-5.7,16.6-9.7,24.4C495.1,643.6,493.2,646.9,491.2,650.5z" transform="matrix(1, 0, 0, 1, 85.84406557278623, -217.78955000567305)"/><path id="path-18" fill="#FFFEFE" d="M491.2,650.5c2-3.6,3.9-6.9,5.6-10.2c4-7.8,7.9-15.7,9.7-24.4c0.2-0.9,0.2-1.5,1.6-1.4&#10;&#9;&#9;c10,1.2,20.1,1.1,30.2,1.5c22,0.9,44.1,1.6,66.1,2.5c4.7,0.2,4.7,0.3,2.2,4.2c-2.9,4.5-5.4,9.2-7.3,14.2c-2.1,5.2-5.9,9.4-8.4,14.3&#10;&#9;&#9;c-2,4-4.4,4.6-8.6,4.4c-29.7-1.9-59.4-4.5-89.2-4.9C492.7,650.6,492.1,650.5,491.2,650.5z" transform="matrix(1, 0, 0, 1, 85.84406557278623, -217.78955000567305)"/></g><g transform="matrix(0.9999997615814209, 0, 0, 0.9999997615814209, -420.4167852333901, 450.5897451490679)"><path id="path-1" fill="#FFFEFE" d="M574.4,779.5c-5.3,9.1-7.4,18.1-2.6,27.6c-8.4,0-16.6,0.1-24.8,0c-16-0.3-32.1-0.7-48.1-1&#10;&#9;&#9;c-26.3-0.5-52.7-0.5-79-1.6c-13.9-0.6-23.6-13-21.7-26.8c0.3-1.8,0.5-3.7,0.7-5.5c1.7,0.3,3.5,0.6,5.2,0.8&#10;&#9;&#9;c12.8,1.7,25.6,2.2,38.4,2.8c37.6,1.8,75.2,2.3,112.8,3.1C561.7,778.9,567.9,779.1,574.4,779.5z" transform="matrix(1, 0, 0, 1, 85.84406557278623, -217.78955000567305)"/><path id="path-2" fill="#FFFEFE" d="M653,624.4c0.4,5.4,0.4,10.9,3.3,15.8c0.3,0.6,0,1.1-0.2,1.7c-9.1,21-17,42.5-26.1,63.5&#10;&#9;&#9;c-11.7,26.8-24.9,52.8-37.9,79c-3.5,7.2-8.4,13.6-11.4,21c-0.9,2.2-1.7,1.5-2.8,0.1c-3.7-4.8-3.7-13-0.3-18&#10;&#9;&#9;c9-13.1,16-27.3,23.1-41.4c19.5-38.9,36-79,51.6-119.5C652.5,625.8,652.7,625.1,653,624.4z" transform="matrix(1, 0, 0, 1, 85.84406557278623, -217.78955000567305)"/><path id="path-3" fill="#111314" d="M566.4,588.6c28.4,0.9,56.8,1.7,85.2,2.7c3.5,0.1,7.1,0,10.6,0.9c1.2,0.3,1.3,0.6,1.1,2&#10;&#9;&#9;c-1.6,10.9-4.5,21.7-4.3,32.8c0.1,3.9,0.3,7.9,2.3,11.5c0.5,0.8,0.7,1.6,0,2.5c-4.5,6-5.8,13.3-8.2,20.2&#10;&#9;&#9;c-12.4,35.1-27.7,69-44.5,102.2c-7.1,14-14.3,28-21.2,42c-2.3,4.6-6.7,6.7-11.4,6.2c-2-0.2-3.9-0.1-5.7,0.6c-3.1,1-6.3,0.3-9.4,0.3&#10;&#9;&#9;c-18.4-0.1-36.8-0.5-55.2-0.8c-20.2-0.4-40.4-0.7-60.6-1.3c-10.4-0.3-20.7-1.1-31.1-2.3c-10.4-1.2-19.4-10.9-20.4-21.3&#10;&#9;&#9;c-0.4-4.7-1.6-9.3-1.1-14.1c0.4-3.8,1.3-7.2,3.7-10.4c1.5-1.9,2.2-4.4,3.3-6.6c10.6-22.6,23.2-44,35.1-65.8&#10;&#9;&#9;c15.7-28.9,31.7-57.6,47-86.8c0.6-1.2,0.9-2.4,1-3.8c0.2-3.7,1.7-7.2,4.2-9.9c1.8-1.9,4.6-1.6,7-1.6c12.2-0.1,24.3-0.1,36.5,0.3&#10;&#9;&#9;C542.5,588.3,554.5,588.1,566.4,588.6z M577.1,774.2c2,0.6,2.4-0.6,3-1.6c3.3-6.2,6.7-12.3,9.9-18.6c17.2-33.6,33-67.9,47.6-102.8&#10;&#9;&#9;c7.1-17,14.9-33.8,21.3-51.2c0.7-1.8,0.7-2.3-1.5-2.4c-11.4-0.3-22.7-0.8-34.1-1.1c-18-0.5-36-0.9-54-1.5c-26-0.8-52-1.5-78-3&#10;&#9;&#9;c-1.2-0.1-1.9,0.1-2.4,1.5c-4.2,10.8-8.6,21.5-13.7,31.8c-12.3,24.8-25.1,49.3-38.3,73.7c-12.1,22.4-24,45-36.1,67.4&#10;&#9;&#9;c-0.8,1.5-0.5,1.9,1,2c4.1,0.2,8.3,0.5,12.4,0.7c27,1.3,54,2.2,81,2.9C522.7,772.7,550.1,773,577.1,774.2z M574.4,779.5&#10;&#9;&#9;c-6.5-0.5-12.8-0.6-19-0.7c-37.6-0.7-75.2-1.3-112.8-3.1c-12.8-0.6-25.7-1.1-38.4-2.8c-1.7-0.2-3.5-0.5-5.2-0.8&#10;&#9;&#9;c-0.2,1.8-0.5,3.7-0.7,5.5c-1.9,13.8,7.8,26.2,21.7,26.8c26.3,1.2,52.6,1.1,79,1.6c16,0.3,32.1,0.7,48.1,1c8.2,0.1,16.4,0,24.8,0&#10;&#9;&#9;C567,797.6,569.1,788.6,574.4,779.5z M653,624.4c-0.3,0.7-0.6,1.4-0.8,2.2c-15.5,40.6-32.1,80.6-51.6,119.5&#10;&#9;&#9;c-7.1,14.1-14.1,28.3-23.1,41.4c-3.4,5-3.3,13.2,0.3,18c1,1.4,1.9,2.1,2.8-0.1c3-7.4,7.8-13.9,11.4-21c13-26.2,26.2-52.2,37.9-79&#10;&#9;&#9;c9.2-21,17-42.5,26.1-63.5c0.2-0.6,0.6-1.1,0.2-1.7C653.4,635.3,653.5,629.8,653,624.4z" transform="matrix(1, 0, 0, 1, 85.84406557278623, -217.78955000567305)"/><path id="path-4" fill="#7A8DAB" d="M577.1,774.2c-27-1.1-54.4-1.4-81.8-2.1c-27-0.7-54-1.5-81-2.9c-4.1-0.2-8.3-0.5-12.4-0.7&#10;&#9;&#9;c-1.5-0.1-1.8-0.5-1-2c12-22.5,23.9-45,36.1-67.4c13.2-24.3,26-48.8,38.3-73.7c5.1-10.4,9.5-21.1,13.7-31.8&#10;&#9;&#9;c0.5-1.4,1.2-1.5,2.4-1.5c26,1.5,52,2.1,78,3c18,0.6,36,0.9,54,1.5c11.4,0.3,22.7,0.8,34.1,1.1c2.2,0.1,2.1,0.6,1.5,2.4&#10;&#9;&#9;c-6.4,17.4-14.2,34.1-21.3,51.2C623,686,607.3,720.3,590,753.9c-3.2,6.2-6.6,12.4-9.9,18.6C579.6,773.6,579.1,774.7,577.1,774.2z&#10;&#9;&#9; M532.3,611.3c-8.3,0-14.7,0-21.2,0c-3.1,0-5.5-0.2-6.8,4.3c-1.9,6.7-5.4,12.9-8.9,19c-2.8,4.9-5.8,9.6-8.8,14.4&#10;&#9;&#9;c-2.1,3.4-0.9,5.7,3.1,6.1c0.6,0.1,1.2,0.1,1.8,0.1c26.2,0.1,52.4,2.4,78.5,4c6.3,0.4,12.7,0.4,19,0.6c1.4,0,3.2,0.1,3.4-2&#10;&#9;&#9;c0.2-1.8,1.2-3.1,2.1-4.5c2.8-4.4,6.3-8.4,8.2-13.4c2.4-6.1,5.5-11.8,9-17.3c0.6-0.9,1.1-1.9,1.5-2.9c1.1-2.9,0.2-4.5-3-4.9&#10;&#9;&#9;c-4.6-0.6-9.2-1-13.9-1c-6.6-0.1-13.3-0.1-19.9-0.3C561,612.8,545.7,612,532.3,611.3z" transform="matrix(1, 0, 0, 1, 85.84406557278623, -217.78955000567305)"/><path id="path-5" fill="#111314" d="M532.3,611.3c13.5,0.7,28.8,1.5,44.1,2.1c6.6,0.3,13.3,0.3,19.9,0.3&#10;&#9;&#9;c4.7,0.1,9.3,0.4,13.9,1c3.1,0.4,4.1,2,3,4.9c-0.4,1-0.9,2-1.5,2.9c-3.4,5.6-6.6,11.3-9,17.3c-1.9,5-5.4,8.9-8.2,13.4&#10;&#9;&#9;c-0.9,1.4-1.9,2.8-2.1,4.5c-0.2,2.1-2,2-3.4,2c-6.3-0.1-12.7-0.2-19-0.6c-26.2-1.7-52.3-3.9-78.5-4c-0.6,0-1.2,0-1.8-0.1&#10;&#9;&#9;c-4-0.5-5.2-2.7-3.1-6.1c3-4.8,6-9.5,8.8-14.4c3.4-6.1,7-12.3,8.9-19c1.3-4.4,3.7-4.2,6.8-4.3C517.5,611.3,524,611.3,532.3,611.3z&#10;&#9;&#9; M491.2,650.5c0.9,0.1,1.4,0.2,2,0.2c29.8,0.4,59.5,3,89.2,4.9c4.3,0.3,6.6-0.4,8.6-4.4c2.5-4.9,6.3-9.1,8.4-14.3&#10;&#9;&#9;c2-5,4.5-9.7,7.3-14.2c2.5-4,2.5-4.1-2.2-4.2c-22-0.8-44.1-1.6-66.1-2.5c-10.1-0.4-20.2-0.3-30.2-1.5c-1.4-0.2-1.4,0.5-1.6,1.4&#10;&#9;&#9;c-1.7,8.7-5.7,16.6-9.7,24.4C495.1,643.6,493.2,646.9,491.2,650.5z" transform="matrix(1, 0, 0, 1, 85.84406557278623, -217.78955000567305)"/><path id="path-6" fill="#FFFEFE" d="M491.2,650.5c2-3.6,3.9-6.9,5.6-10.2c4-7.8,7.9-15.7,9.7-24.4c0.2-0.9,0.2-1.5,1.6-1.4&#10;&#9;&#9;c10,1.2,20.1,1.1,30.2,1.5c22,0.9,44.1,1.6,66.1,2.5c4.7,0.2,4.7,0.3,2.2,4.2c-2.9,4.5-5.4,9.2-7.3,14.2c-2.1,5.2-5.9,9.4-8.4,14.3&#10;&#9;&#9;c-2,4-4.4,4.6-8.6,4.4c-29.7-1.9-59.4-4.5-89.2-4.9C492.7,650.6,492.1,650.5,491.2,650.5z" transform="matrix(1, 0, 0, 1, 85.84406557278623, -217.78955000567305)"/></g><g transform="matrix(0.9999997615814209, 0, 0, 0.9999997615814209, -429.73261164940595, 409.5992666334429)"><path id="path-7" fill="#FFFEFE" d="M574.4,779.5c-5.3,9.1-7.4,18.1-2.6,27.6c-8.4,0-16.6,0.1-24.8,0c-16-0.3-32.1-0.7-48.1-1&#10;&#9;&#9;c-26.3-0.5-52.7-0.5-79-1.6c-13.9-0.6-23.6-13-21.7-26.8c0.3-1.8,0.5-3.7,0.7-5.5c1.7,0.3,3.5,0.6,5.2,0.8&#10;&#9;&#9;c12.8,1.7,25.6,2.2,38.4,2.8c37.6,1.8,75.2,2.3,112.8,3.1C561.7,778.9,567.9,779.1,574.4,779.5z" transform="matrix(1, 0, 0, 1, 85.84406557278623, -217.78955000567305)"/><path id="path-8" fill="#FFFEFE" d="M653,624.4c0.4,5.4,0.4,10.9,3.3,15.8c0.3,0.6,0,1.1-0.2,1.7c-9.1,21-17,42.5-26.1,63.5&#10;&#9;&#9;c-11.7,26.8-24.9,52.8-37.9,79c-3.5,7.2-8.4,13.6-11.4,21c-0.9,2.2-1.7,1.5-2.8,0.1c-3.7-4.8-3.7-13-0.3-18&#10;&#9;&#9;c9-13.1,16-27.3,23.1-41.4c19.5-38.9,36-79,51.6-119.5C652.5,625.8,652.7,625.1,653,624.4z" transform="matrix(1, 0, 0, 1, 85.84406557278623, -217.78955000567305)"/><path id="path-9" fill="#111314" d="M566.4,588.6c28.4,0.9,56.8,1.7,85.2,2.7c3.5,0.1,7.1,0,10.6,0.9c1.2,0.3,1.3,0.6,1.1,2&#10;&#9;&#9;c-1.6,10.9-4.5,21.7-4.3,32.8c0.1,3.9,0.3,7.9,2.3,11.5c0.5,0.8,0.7,1.6,0,2.5c-4.5,6-5.8,13.3-8.2,20.2&#10;&#9;&#9;c-12.4,35.1-27.7,69-44.5,102.2c-7.1,14-14.3,28-21.2,42c-2.3,4.6-6.7,6.7-11.4,6.2c-2-0.2-3.9-0.1-5.7,0.6c-3.1,1-6.3,0.3-9.4,0.3&#10;&#9;&#9;c-18.4-0.1-36.8-0.5-55.2-0.8c-20.2-0.4-40.4-0.7-60.6-1.3c-10.4-0.3-20.7-1.1-31.1-2.3c-10.4-1.2-19.4-10.9-20.4-21.3&#10;&#9;&#9;c-0.4-4.7-1.6-9.3-1.1-14.1c0.4-3.8,1.3-7.2,3.7-10.4c1.5-1.9,2.2-4.4,3.3-6.6c10.6-22.6,23.2-44,35.1-65.8&#10;&#9;&#9;c15.7-28.9,31.7-57.6,47-86.8c0.6-1.2,0.9-2.4,1-3.8c0.2-3.7,1.7-7.2,4.2-9.9c1.8-1.9,4.6-1.6,7-1.6c12.2-0.1,24.3-0.1,36.5,0.3&#10;&#9;&#9;C542.5,588.3,554.5,588.1,566.4,588.6z M577.1,774.2c2,0.6,2.4-0.6,3-1.6c3.3-6.2,6.7-12.3,9.9-18.6c17.2-33.6,33-67.9,47.6-102.8&#10;&#9;&#9;c7.1-17,14.9-33.8,21.3-51.2c0.7-1.8,0.7-2.3-1.5-2.4c-11.4-0.3-22.7-0.8-34.1-1.1c-18-0.5-36-0.9-54-1.5c-26-0.8-52-1.5-78-3&#10;&#9;&#9;c-1.2-0.1-1.9,0.1-2.4,1.5c-4.2,10.8-8.6,21.5-13.7,31.8c-12.3,24.8-25.1,49.3-38.3,73.7c-12.1,22.4-24,45-36.1,67.4&#10;&#9;&#9;c-0.8,1.5-0.5,1.9,1,2c4.1,0.2,8.3,0.5,12.4,0.7c27,1.3,54,2.2,81,2.9C522.7,772.7,550.1,773,577.1,774.2z M574.4,779.5&#10;&#9;&#9;c-6.5-0.5-12.8-0.6-19-0.7c-37.6-0.7-75.2-1.3-112.8-3.1c-12.8-0.6-25.7-1.1-38.4-2.8c-1.7-0.2-3.5-0.5-5.2-0.8&#10;&#9;&#9;c-0.2,1.8-0.5,3.7-0.7,5.5c-1.9,13.8,7.8,26.2,21.7,26.8c26.3,1.2,52.6,1.1,79,1.6c16,0.3,32.1,0.7,48.1,1c8.2,0.1,16.4,0,24.8,0&#10;&#9;&#9;C567,797.6,569.1,788.6,574.4,779.5z M653,624.4c-0.3,0.7-0.6,1.4-0.8,2.2c-15.5,40.6-32.1,80.6-51.6,119.5&#10;&#9;&#9;c-7.1,14.1-14.1,28.3-23.1,41.4c-3.4,5-3.3,13.2,0.3,18c1,1.4,1.9,2.1,2.8-0.1c3-7.4,7.8-13.9,11.4-21c13-26.2,26.2-52.2,37.9-79&#10;&#9;&#9;c9.2-21,17-42.5,26.1-63.5c0.2-0.6,0.6-1.1,0.2-1.7C653.4,635.3,653.5,629.8,653,624.4z" transform="matrix(1, 0, 0, 1, 85.84406557278623, -217.78955000567305)"/><path id="path-10" fill="#7A8DAB" d="M577.1,774.2c-27-1.1-54.4-1.4-81.8-2.1c-27-0.7-54-1.5-81-2.9c-4.1-0.2-8.3-0.5-12.4-0.7&#10;&#9;&#9;c-1.5-0.1-1.8-0.5-1-2c12-22.5,23.9-45,36.1-67.4c13.2-24.3,26-48.8,38.3-73.7c5.1-10.4,9.5-21.1,13.7-31.8&#10;&#9;&#9;c0.5-1.4,1.2-1.5,2.4-1.5c26,1.5,52,2.1,78,3c18,0.6,36,0.9,54,1.5c11.4,0.3,22.7,0.8,34.1,1.1c2.2,0.1,2.1,0.6,1.5,2.4&#10;&#9;&#9;c-6.4,17.4-14.2,34.1-21.3,51.2C623,686,607.3,720.3,590,753.9c-3.2,6.2-6.6,12.4-9.9,18.6C579.6,773.6,579.1,774.7,577.1,774.2z&#10;&#9;&#9; M532.3,611.3c-8.3,0-14.7,0-21.2,0c-3.1,0-5.5-0.2-6.8,4.3c-1.9,6.7-5.4,12.9-8.9,19c-2.8,4.9-5.8,9.6-8.8,14.4&#10;&#9;&#9;c-2.1,3.4-0.9,5.7,3.1,6.1c0.6,0.1,1.2,0.1,1.8,0.1c26.2,0.1,52.4,2.4,78.5,4c6.3,0.4,12.7,0.4,19,0.6c1.4,0,3.2,0.1,3.4-2&#10;&#9;&#9;c0.2-1.8,1.2-3.1,2.1-4.5c2.8-4.4,6.3-8.4,8.2-13.4c2.4-6.1,5.5-11.8,9-17.3c0.6-0.9,1.1-1.9,1.5-2.9c1.1-2.9,0.2-4.5-3-4.9&#10;&#9;&#9;c-4.6-0.6-9.2-1-13.9-1c-6.6-0.1-13.3-0.1-19.9-0.3C561,612.8,545.7,612,532.3,611.3z" transform="matrix(1, 0, 0, 1, 85.84406557278623, -217.78955000567305)"/><path id="path-11" fill="#111314" d="M532.3,611.3c13.5,0.7,28.8,1.5,44.1,2.1c6.6,0.3,13.3,0.3,19.9,0.3&#10;&#9;&#9;c4.7,0.1,9.3,0.4,13.9,1c3.1,0.4,4.1,2,3,4.9c-0.4,1-0.9,2-1.5,2.9c-3.4,5.6-6.6,11.3-9,17.3c-1.9,5-5.4,8.9-8.2,13.4&#10;&#9;&#9;c-0.9,1.4-1.9,2.8-2.1,4.5c-0.2,2.1-2,2-3.4,2c-6.3-0.1-12.7-0.2-19-0.6c-26.2-1.7-52.3-3.9-78.5-4c-0.6,0-1.2,0-1.8-0.1&#10;&#9;&#9;c-4-0.5-5.2-2.7-3.1-6.1c3-4.8,6-9.5,8.8-14.4c3.4-6.1,7-12.3,8.9-19c1.3-4.4,3.7-4.2,6.8-4.3C517.5,611.3,524,611.3,532.3,611.3z&#10;&#9;&#9; M491.2,650.5c0.9,0.1,1.4,0.2,2,0.2c29.8,0.4,59.5,3,89.2,4.9c4.3,0.3,6.6-0.4,8.6-4.4c2.5-4.9,6.3-9.1,8.4-14.3&#10;&#9;&#9;c2-5,4.5-9.7,7.3-14.2c2.5-4,2.5-4.1-2.2-4.2c-22-0.8-44.1-1.6-66.1-2.5c-10.1-0.4-20.2-0.3-30.2-1.5c-1.4-0.2-1.4,0.5-1.6,1.4&#10;&#9;&#9;c-1.7,8.7-5.7,16.6-9.7,24.4C495.1,643.6,493.2,646.9,491.2,650.5z" transform="matrix(1, 0, 0, 1, 85.84406557278623, -217.78955000567305)"/><path id="path-12" fill="#FFFEFE" d="M491.2,650.5c2-3.6,3.9-6.9,5.6-10.2c4-7.8,7.9-15.7,9.7-24.4c0.2-0.9,0.2-1.5,1.6-1.4&#10;&#9;&#9;c10,1.2,20.1,1.1,30.2,1.5c22,0.9,44.1,1.6,66.1,2.5c4.7,0.2,4.7,0.3,2.2,4.2c-2.9,4.5-5.4,9.2-7.3,14.2c-2.1,5.2-5.9,9.4-8.4,14.3&#10;&#9;&#9;c-2,4-4.4,4.6-8.6,4.4c-29.7-1.9-59.4-4.5-89.2-4.9C492.7,650.6,492.1,650.5,491.2,650.5z" transform="matrix(1, 0, 0, 1, 85.84406557278623, -217.78955000567305)"/></g><g transform="matrix(0.9693902134895325, 0, 0, 0.9693902134895325, -175.14099372680812, 610.2917914275251)"><path id="XMLID_767_" fill="#161410" d="M207.2,289.2c-6-28.5-11.9-57-17.9-85.5c-2.4-11.3-1.5-22.5,2.1-33.4&#10;&#9;&#9;c1.2-3.9,1.5-3.7,4.4-1c2.7,2.4,5.8,4.3,8.6,6.6c11.6,9.3,17.1,22,20.8,35.9c5.1,19.2,10.6,38.3,14.3,57.8&#10;&#9;&#9;c1.1,5.7,2.1,11.4,2.7,17.1c0.3,3.4,2.5,2.3,4.3,2.6c2.6,0.4,2.3-1.3,2.3-3c0-29.9,1.7-59.9,0.5-89.8c-0.2-5.4,2.3-8,6.3-10.3&#10;&#9;&#9;c4-2.3,8-3,12.3-0.7c3.4,1.8,6.1,4.4,8.8,7.1c0.9,0.9,1.6,2,1.4,3.2c-1.6,8.3,0,16.6,0.2,24.9c0.6,22,1.1,43.9-0.2,65.9&#10;&#9;&#9;c-0.2,2.7,0.4,3.4,3.3,3.5c12,0.6,17.9,6.9,18.6,18.9c2.4,40.1,1,80.3,2,120.5c0.2,9.7-0.2,19.5,0.6,29.1c0.5,6.2-2.6,9.9-6.7,13.2&#10;&#9;&#9;c-7.9,6.4-17,10.8-26.4,14.2c-29.2,10.8-59.3,12.7-89.7,6.2c-11.6-2.5-20.9-9.4-30.1-16.6c-6.4-5-7.8-10.7-7.7-18.1&#10;&#9;&#9;c0.3-22-0.1-44-1.7-65.9c-1.7-22.2-3.4-44.4-2.8-66.6c0.2-7.1,0.3-14.3,1.4-21.4c1.4-8.8,5.3-12.2,14.1-12.3c2.3,0,4.6-0.1,6.9,0.1&#10;&#9;&#9;c2.8,0.3,3.2-0.6,2.2-3.1c-4.2-10.8-9-21.3-13.6-31.9c-4.7-10.8-9.4-21.7-14.2-32.5c-2-4.4-2.7-9.1-2.7-13.9c0-3.9,4.8-8.5,10-9.2&#10;&#9;&#9;c7.3-0.9,13.7-0.1,19,6.6c9.2,11.6,15.3,24.7,21.2,37.9c5.5,12.4,10.5,25,15.7,37.6C200,290.1,199.9,290.1,207.2,289.2z M167,305.8&#10;&#9;&#9;c-0.8-7.4-1-7.6-7.6-7.5c-1.9,0-3.8,0-5.7,0.1c-5.6,0.1-7,1.1-7.7,6.6c-1.8,14.6-1.1,29.4-0.4,44c0.8,17.1,2.5,34.1,3.5,51.2&#10;&#9;&#9;c1.4,22,1,43.9,0.6,65.9c0,1.5,0,2.8,1.5,3.8c9.5,6.5,19.4,12.2,30.8,14.6c12.2,2.6,24.6,2.6,37,2.2c17.3-0.6,34.2-3.8,50.5-10.1&#10;&#9;&#9;c6.8-2.6,13.3-5.8,19-10.5c1.6-1.3,4.4-1.3,4.5-4.4c0.1-4.7,1.2-9.3,1.2-14.1c-0.1-18.1-0.2-36.1,0.2-54.2&#10;&#9;&#9;c0.6-28,0.8-56.1-0.4-84.1c-0.3-8.5-3.5-12.4-11-13.5c-5.6-0.8-5.4-0.8-6.4,4.7c-0.5,2.8,0.4,2.7,2.5,1.9c2.1-0.8,4.4-1.3,6.6-1.7&#10;&#9;&#9;c1.8-0.4,3.6-0.3,4.5,1.7c0.8,1.9-0.4,3.1-1.8,4c-1.8,1.1-3.7,2.2-5.7,3c-18,7.4-36.9,9.7-56.1,10.4c-12,0.5-24-0.1-35.9-1.7&#10;&#9;&#9;c-9.7-1.3-19.5-2.8-28.5-7.1c-3.1-1.5-5.9-3.4-7.3-6.6c-0.5-1.2-1.1-2.7,0.2-3.7c1.3-1.1,2.5-0.2,3.5,0.8&#10;&#9;&#9;C161,304,163.8,304.9,167,305.8z M261.7,189.9c-4.3,0-8.3,3.9-7.9,8.6c1.4,15.6,1.9,31.2,2.1,46.8c0.2,12-0.4,24-0.5,36&#10;&#9;&#9;c-0.1,8.2,0.2,16.4-1.3,24.6c-0.4,2,0.4,2.3,2.2,2.1c16.1-1.6,16.1-1.6,16.1-18.1c-0.1-28.4,0-56.9,1.9-85.2&#10;&#9;&#9;c0.3-4.9-1.3-7.8-4.5-10.6C267.4,192.1,265.5,189.7,261.7,189.9z M193.4,310.4c6.3,0.2,6.3,0.2,4.5-4.1c-0.3-0.7-0.6-1.5-0.9-2.2&#10;&#9;&#9;c-7.5-19-15.1-38-22.5-57c-1-2.5-2.2-3.1-4.7-3c-5.2,0.1-9.7,2-14,4.6c-2.5,1.5-2.8,3-1.5,5.6c8.2,16.7,16.1,33.4,21.1,51.4&#10;&#9;&#9;c0.6,2.1,2,2.7,3.8,2.9C184.6,309.3,189.9,310,193.4,310.4z M192.6,199.3c-0.5,0.8-0.1,1.4,0.1,2.1c4.9,17.6,9.7,35.2,13.6,53.1&#10;&#9;&#9;c4,17.8,7.8,35.7,11.4,53.6c0.7,3.4,2.3,3.8,5,2.9c-2.9-14.1-5.9-28.1-8.6-42.2c-3.9-20.6-7.3-41.2-13.5-61.3&#10;&#9;&#9;C199.2,202.8,196.5,200.9,192.6,199.3z M146.4,237.6c4.1-6.2,9.7-8.7,16.3-8.9c3.3-0.1,3.2-1.5,1.8-3.7c-2.3-3.9-4.8-7.8-6.7-11.9&#10;&#9;&#9;c-3-6.3-8.5-6.9-14.2-6.8c-6.7,0.2-9.5,5-6.8,11.1C139.8,224,143.1,230.5,146.4,237.6z M237.5,310.6c2.2,0.5,1.8-1.3,1.5-3.2&#10;&#9;&#9;c-1.3-6.5-2.7-12.9-3.7-19.4c-4.5-29.9-12.2-59.1-19.3-88.5c-0.3-1.3-0.4-3-2-3.1c-1.2-0.1-1.1,1.6-1.7,2.4&#10;&#9;&#9;c-0.5,0.6-0.9,1.6-1.6,1.7c-2.4,0.7-1.8,2.1-1.2,3.7c1.3,3.2,2.6,6.4,3.8,9.7c6.5,19.1,10.1,38.9,15.4,58.3&#10;&#9;&#9;c3.3,12,6.6,24.1,5.8,36.8C234.4,310.8,235.6,310.5,237.5,310.6z M232.9,310.5c-0.7-2-1.4-3.6-1.8-5.3&#10;&#9;&#9;c-3.8-16.1-7.7-32.1-11.4-48.2c-4.1-17.6-6.5-35.7-11.9-53c-1-3.3-2.8-5.4-5.6-7.2c-1,3.5-0.3,6.5,0.9,9.6&#10;&#9;&#9;c1.5,3.9,2.7,7.9,3.7,11.9c7.3,29.6,14.7,59.1,18.7,89.4c0.4,3,1.4,4.1,4.3,3.4C230.7,310.8,231.7,310.7,232.9,310.5z M194,188.2&#10;&#9;&#9;c0,1.8,0.1,2.8,0,3.9c-0.1,1.7-0.2,3.4,2,3.7c2.6,0.3,1.5-1.9,1.8-3c1.1-3.7,3.2-4.4,6.2-1.8c0.6,0.5,1.1,1.3,1.7,1.7&#10;&#9;&#9;c1,0.7,1.7,3,3.4,1.5c1.4-1.3,2.7-3,0.6-5.1c-2.3-2.4-4.3-5.2-6.5-7.7c-1.1-1.2-2-3-4.3-1.7c-2.1,1.2-5.1,1.1-4.9,4.7&#10;&#9;&#9;C194.3,185.9,194,187.4,194,188.2z M170.9,239.2c-0.6-4.8-3.1-6.3-7.5-5.6c-4.8,0.7-9.1,2-12.4,5.9c-2.7,3.2-2.9,3,0,6.7&#10;&#9;&#9;C156.6,241.3,163.2,239,170.9,239.2z M213.3,310.9c-2.2-4.7-3.3-9.5-4.3-14.3c-0.8-3.8-3.9-2.5-5.8-2.1c-2.3,0.5-0.4,2.4,0,3.5&#10;&#9;&#9;c1.1,3.2,2.7,6.2,3.5,9.4C207.6,310.9,209.5,311.9,213.3,310.9z M249,302c0,0-0.1,0-0.1,0c0-1.9,0-3.7,0-5.6c0.1-2.6-1.9-2-3.4-2.2&#10;&#9;&#9;c-2-0.2-2,0.9-1.8,2.5c0.5,3.6,0.8,7.2,1.2,10.7c0.1,1.1,0.1,2.2,1.7,2.1c1.3-0.1,2.4-0.4,2.4-2C249,305.7,249,303.9,249,302z" transform="matrix(0.9999999999999999, 0, 0, 0.9999999999999999, 446.4348723604643, 119.73915880840319)"/><path id="XMLID_766_" fill="#C8886D" d="M167,305.8c-3.2-0.9-6-1.8-8.2-4c-1-1-2.2-1.9-3.5-0.8c-1.3,1-0.8,2.5-0.2,3.7&#10;&#9;&#9;c1.5,3.2,4.2,5.1,7.3,6.6c9,4.3,18.7,5.8,28.5,7.1c11.9,1.6,23.9,2.1,35.9,1.7c19.2-0.7,38.1-3.1,56.1-10.4c2-0.8,3.9-1.9,5.7-3&#10;&#9;&#9;c1.4-0.9,2.6-2.1,1.8-4c-0.8-2-2.7-2.1-4.5-1.7c-2.2,0.4-4.5,0.9-6.6,1.7c-2.1,0.8-3,0.8-2.5-1.9c0.9-5.5,0.8-5.5,6.4-4.7&#10;&#9;&#9;c7.5,1.1,10.6,4.9,11,13.5c1.1,28,0.9,56.1,0.4,84.1c-0.4,18.1-0.3,36.1-0.2,54.2c0,4.8-1.2,9.4-1.2,14.1c0,3.1-2.9,3-4.5,4.4&#10;&#9;&#9;c-5.7,4.7-12.2,7.9-19,10.5c-16.2,6.3-33.1,9.5-50.5,10.1c-12.4,0.4-24.8,0.4-37-2.2c-11.4-2.5-21.3-8.2-30.8-14.6&#10;&#9;&#9;c-1.5-1-1.6-2.3-1.5-3.8c0.5-22,0.8-44-0.6-65.9c-1.1-17.1-2.8-34.1-3.5-51.2c-0.7-14.7-1.4-29.4,0.4-44c0.7-5.5,2-6.5,7.7-6.6&#10;&#9;&#9;c1.9,0,3.8-0.1,5.7-0.1C166,298.3,166.2,298.4,167,305.8z" transform="matrix(0.9999999999999999, 0, 0, 0.9999999999999999, 446.4348723604643, 119.73915880840319)"/><path id="XMLID_765_" fill="#49536E" d="M261.7,189.9c3.8-0.2,5.8,2.2,8,4.1c3.3,2.8,4.9,5.7,4.5,10.6c-1.9,28.4-1.9,56.8-1.9,85.2&#10;&#9;&#9;c0,16.5,0,16.5-16.1,18.1c-1.7,0.2-2.5-0.1-2.2-2.1c1.6-8.1,1.2-16.3,1.3-24.6c0.1-12,0.7-24,0.5-36c-0.3-15.6-0.8-31.2-2.1-46.8&#10;&#9;&#9;C253.4,193.8,257.4,189.9,261.7,189.9z" transform="matrix(0.9999999999999999, 0, 0, 0.9999999999999999, 446.4348723604643, 119.73915880840319)"/><path id="XMLID_764_" fill="#84B588" d="M193.4,310.4c-3.5-0.5-8.8-1.2-14.2-1.9c-1.8-0.2-3.2-0.9-3.8-2.9&#10;&#9;&#9;c-5-18-12.9-34.8-21.1-51.4c-1.3-2.6-1-4.1,1.5-5.6c4.3-2.6,8.8-4.4,14-4.6c2.5-0.1,3.8,0.6,4.7,3c7.4,19.1,15,38,22.5,57&#10;&#9;&#9;c0.3,0.8,0.6,1.5,0.9,2.2C199.8,310.6,199.8,310.6,193.4,310.4z" transform="matrix(0.9999999999999999, 0, 0, 0.9999999999999999, 446.4348723604643, 119.73915880840319)"/><path id="XMLID_763_" fill="#EBE15E" d="M192.6,199.3c3.9,1.5,6.6,3.5,8,8.1c6.2,20.1,9.5,40.7,13.5,61.3&#10;&#9;&#9;c2.7,14.1,5.7,28.1,8.6,42.2c-2.7,0.9-4.3,0.5-5-2.9c-3.6-17.9-7.4-35.8-11.4-53.6c-4-17.8-8.7-35.5-13.6-53.1&#10;&#9;&#9;C192.5,200.8,192.1,200.2,192.6,199.3z" transform="matrix(0.9999999999999999, 0, 0, 0.9999999999999999, 446.4348723604643, 119.73915880840319)"/><path id="XMLID_762_" fill="#F07078" d="M146.4,237.6c-3.4-7.1-6.6-13.6-9.5-20.2c-2.7-6.1,0.1-10.9,6.8-11.1&#10;&#9;&#9;c5.7-0.2,11.2,0.5,14.2,6.8c1.9,4.1,4.4,8,6.7,11.9c1.3,2.3,1.5,3.6-1.8,3.7C156.1,228.9,150.5,231.4,146.4,237.6z" transform="matrix(0.9999999999999999, 0, 0, 0.9999999999999999, 446.4348723604643, 119.73915880840319)"/><path id="XMLID_761_" fill="#EBE15E" d="M237.5,310.6c-1.8-0.1-3.1,0.3-3-1.5c0.8-12.7-2.6-24.8-5.8-36.8&#10;&#9;&#9;c-5.3-19.4-9-39.2-15.4-58.3c-1.1-3.3-2.5-6.5-3.8-9.7c-0.6-1.6-1.2-3,1.2-3.7c0.6-0.2,1.1-1.1,1.6-1.7c0.6-0.8,0.5-2.5,1.7-2.4&#10;&#9;&#9;c1.6,0.1,1.7,1.8,2,3.1c7,29.4,14.7,58.6,19.3,88.5c1,6.5,2.4,12.9,3.7,19.4C239.3,309.3,239.7,311.1,237.5,310.6z" transform="matrix(0.9999999999999999, 0, 0, 0.9999999999999999, 446.4348723604643, 119.73915880840319)"/><path id="XMLID_760_" fill="#EBE15E" d="M232.9,310.5c-1.3,0.2-2.2,0.3-3.1,0.5c-2.9,0.7-3.9-0.4-4.3-3.4&#10;&#9;&#9;c-4-30.2-11.4-59.8-18.7-89.4c-1-4-2.2-8-3.7-11.9c-1.2-3.1-1.9-6.1-0.9-9.6c2.7,1.8,4.5,3.8,5.6,7.2c5.4,17.4,7.8,35.4,11.9,53&#10;&#9;&#9;c3.7,16.1,7.6,32.1,11.4,48.2C231.5,306.9,232.2,308.5,232.9,310.5z" transform="matrix(0.9999999999999999, 0, 0, 0.9999999999999999, 446.4348723604643, 119.73915880840319)"/><path id="XMLID_759_" fill="#FEFEFE" d="M194,188.2c0-0.8,0.3-2.3,0.1-3.7c-0.3-3.6,2.8-3.6,4.9-4.7c2.3-1.3,3.2,0.5,4.3,1.7&#10;&#9;&#9;c2.2,2.5,4.2,5.3,6.5,7.7c2,2.1,0.8,3.8-0.6,5.1c-1.7,1.5-2.4-0.8-3.4-1.5c-0.7-0.4-1.1-1.2-1.7-1.7c-3-2.6-5.1-1.9-6.2,1.8&#10;&#9;&#9;c-0.3,1.1,0.8,3.3-1.8,3c-2.2-0.3-2.2-2-2-3.7C194.1,191,194,189.9,194,188.2z" transform="matrix(0.9999999999999999, 0, 0, 0.9999999999999999, 446.4348723604643, 119.73915880840319)"/><path id="XMLID_758_" fill="#EBE15E" d="M170.9,239.2c-7.7-0.2-14.2,2.1-19.9,6.9c-2.8-3.6-2.6-3.5,0-6.7c3.3-3.9,7.6-5.2,12.4-5.9&#10;&#9;&#9;C167.8,232.9,170.3,234.4,170.9,239.2z" transform="matrix(0.9999999999999999, 0, 0, 0.9999999999999999, 446.4348723604643, 119.73915880840319)"/><path id="XMLID_757_" fill="#C8886D" d="M213.3,310.9c-3.8,1-5.7,0-6.6-3.5c-0.8-3.2-2.5-6.2-3.5-9.4c-0.4-1.1-2.3-3,0-3.5&#10;&#9;&#9;c1.9-0.4,5-1.7,5.8,2.1C210.1,301.4,211.1,306.2,213.3,310.9z" transform="matrix(0.9999999999999999, 0, 0, 0.9999999999999999, 446.4348723604643, 119.73915880840319)"/><path id="XMLID_756_" fill="#C8886D" d="M249,302c0,1.9,0,3.7,0,5.6c0,1.6-1.1,1.9-2.4,2c-1.6,0.1-1.6-1-1.7-2.1&#10;&#9;&#9;c-0.4-3.6-0.6-7.2-1.2-10.7c-0.2-1.6-0.3-2.7,1.8-2.5c1.5,0.1,3.5-0.5,3.4,2.2c0,1.9,0,3.7,0,5.6C249,302,249,302,249,302z" transform="matrix(0.9999999999999999, 0, 0, 0.9999999999999999, 446.4348723604643, 119.73915880840319)"/></g><g transform="matrix(1.2283184528350832, 0, 0, 1.2283184528350832, -560.0787337852963, -30.132206456178167)"><path id="XMLID_798_" fill="#220F0F" d="M837.6,586c-2.7-10.5-1.7-20,3.6-28.9c4.4-7.2,11.3-9.6,19.1-10c2.6-0.1,4.5,1.3,6.1,3.4&#10;&#9;&#9;c5.6,7.4,11.9,14,19.2,19.8c2.7,2.1,5.5,4.3,8.9,5.1c4.5,1.2,8.4,3.5,11.8,6.4c4.2,3.6,9.1,5,14.4,5.8c6.6,0.9,13.1,2.4,19.2,5.1&#10;&#9;&#9;c14.2,6.2,22.7,17.6,28.2,31.5c5.9,15.1,8.1,31,9.5,47c1.9,22.5,1.3,45,1,67.6c-0.1,11.6-0.6,23.3-1.6,34.9c-0.3,3.3-2,4.7-4.5,5.7&#10;&#9;&#9;c-24.9,10.1-51.2,15.2-77.5,20.1c-21.4,4.1-43.1,5.2-64.8,6.5c-13.2,0.8-25.1-1.7-36.5-8c-3-1.7-5.9-3.7-8.1-6.3&#10;&#9;&#9;c-2.8-3.3-6.5-4.1-10.3-5.2c-8.7-2.3-17.9-2.2-26.3-6.2c-9.1-4.3-11.4-9.1-8.2-18.6c3-8.9,8.5-16.5,13.3-24.4&#10;&#9;&#9;c2.5-4.1,5-8.1,7.3-12.3c5.4-9.3,5.7-19.7,5.9-30c0.3-14.7-1.3-29.2-2.9-43.8c-1.1-10-1.8-20.1-2.9-30.1&#10;&#9;&#9;c-0.6-5.2-1.8-10.2-2.3-15.4c-0.9-11-0.9-21.9,3.6-32.3c2.1-4.7,5-8.9,9-12.2c6.8-5.7,13.4-6.4,21.2-2.3c5.8,3,10.9,7,15.4,11.5&#10;&#9;&#9;C816.5,578.5,826.9,581.7,837.6,586z M970.7,734.9c0.7-11.5,0.7-23.1,0.5-34.6c0.1-4,0.4-8.1-0.4-12c0.4-1.3,0.1-2.7-0.1-4&#10;&#9;&#9;c0.2-9-0.9-17.9-2-26.8c-1.5-12.1-4-24-9-35.2c-3.1-6.9-7.1-13-14.1-16.6c-1.9-1-4.3-0.4-5.9-2.1c-8.1-2.6-16.5-2.6-24.9-1.9&#10;&#9;&#9;c-1.3,0-2.7,0.1-4,0.1c-0.6,0-1.3,0.1-1.9,0.1c-1-0.2-1.9,0-2.7,0.4c-0.7,0-1.3,0.1-2,0.1c-7.4,0.7-14.8,1.6-22,3.9&#10;&#9;&#9;c-3.1,0.4-5.9,1.3-8.7,2.6c-6.8,1.9-12.9,5.2-18.6,9.3c-13.5,10-20.2,24.1-24,39.9c-4.8,20.1-5.8,40.6-6.5,61.1&#10;&#9;&#9;c-0.8,25.5-0.4,51.1-0.1,76.6c0.1,5.4,0.4,5.9,5.9,5.6c6.5-0.3,13.1-0.8,19.6-1.3c12-1,24-2.3,36-4.2c18.4-2.9,36.5-7.3,54.5-11.7&#10;&#9;&#9;c8.7-2.2,17.4-4.3,25.6-7.9c1.1-0.5,2.8-0.6,2.3-2.6c0.8-0.5,1.2-1.2,1.2-2.2c0.3-7.1,0.6-14.1,0.9-21.2c0.1-1.6,0.2-3.1,0.2-4.7&#10;&#9;&#9;c0-1.1,0-2.3,0.1-3.4c0-1.6,0-3.1,0-4.7c0-0.7,0-1.3,0-2C970.8,735.3,970.8,735.1,970.7,734.9z M746.1,768.1&#10;&#9;&#9;c-0.2,1.8,0.6,3,1.9,4.1c2.2,1.8,4.7,2.8,7.3,3.8c6.6,2.5,13.9,2.8,20.4,5.7c1.7,0.7,1.8-0.6,1.9-1.8c0.2-2.7,0.4-5.3,0.5-8&#10;&#9;&#9;c0.3-14.2,0.1-28.4-0.4-42.6c-0.8-22.3-0.4-44.6,3.8-66.6c2.9-15.1,7.3-29.7,15.1-43.1c0.5-0.9,0.9-1.5,0.2-2.6&#10;&#9;&#9;c-5.1-7.6-10.1-15.4-15.3-22.9c-3.2-4.6-7.2-8.5-13-9.6c-2.2-0.4-3.6,0.1-4.1,2.5c-1.4,5.9-2.2,11.9-1.3,18&#10;&#9;&#9;c2.7,18,5.9,35.9,8.2,53.9c2,16.1,3.6,32.2,2.3,48.4c-0.6,7.5-2.3,14.7-6.3,21.2c-4.8,7.9-9.7,15.6-14.4,23.5&#10;&#9;&#9;C749.8,757,747,762.1,746.1,768.1z M919.8,594c-9.4-1.7-19-2.6-28.6-3.3c-5.4-0.4-10.2,0.5-15.2,2.2c-25.2,8.5-44.6,23.8-56.9,47.6&#10;&#9;&#9;c-14.2,27.4-21.8,56.3-18.9,87.5c0.2,1.6,0.8,2.3,2.2,2.8c4.2,1.5,8.3,3.1,12.1,5.4c2.3,1.4,2.6,0.7,2.6-1.7&#10;&#9;&#9;c0.4-22.1,1.1-44.1,4.5-66c2-13,5.6-25.5,12.3-37c9.7-16.8,24.9-25.9,43-31.2C890.7,596.3,905.2,594.9,919.8,594z M865.8,591.1&#10;&#9;&#9;c-6,0-12.3-0.8-18.3,0.2c-13.2,2.1-24.8,7.6-34.2,17.7c-11.9,12.8-18.4,28.3-22.4,45c-5.2,21.5-6.2,43.4-6.1,65.4&#10;&#9;&#9;c0.1,7.9,0,7.9,8.1,9c2.5,0.3,2.9-0.5,2.4-2.7c-2.4-10.1-2.5-20.3-1-30.4c3.1-21.1,9.8-41.1,20.2-59.8&#10;&#9;&#9;c9.8-17.6,23.5-31.3,41.8-40.1C859.6,593.7,863,592.4,865.8,591.1z M817.6,782.4c1.1-12-0.4-23.9-0.4-35.9c0-1.9-0.8-3-2.3-4&#10;&#9;&#9;c-8.3-5.4-17.5-8.5-26.8-11.6c-2.5-0.8-2.7-0.1-2.6,2.1c0.3,16.4,1,32.8-1.3,49.2c-0.2,1.7,0.5,2.7,1.7,3.7&#10;&#9;&#9;c8.4,7.4,18.2,11.6,29.2,13.6c1.8,0.3,2.7,0.1,2.6-2C817.5,792.4,817.6,787.4,817.6,782.4z M830.6,588.8c-1.3-1.2-2.5-1.8-4-1.7&#10;&#9;&#9;c-2.9,0.2-5.4-0.9-7.9-2.3c-3.8-2.1-7.2-4.8-10.5-7.5c-6.1-5-11.8-10.5-18.9-13.9c-4.2-2.1-8.4-1.9-12.2,0.9&#10;&#9;&#9;c-4.6,3.3-7.7,7.9-9.9,13.1c-0.7,1.8-0.1,2.1,1.5,2c3.4-0.1,6.2,1.4,8.9,3.2c3.9,2.7,6.9,6.3,9.4,10.2c4.4,7,8.7,14,13.1,21.2&#10;&#9;&#9;C808.2,603.1,817.6,593.9,830.6,588.8z M896.8,584.4c0-1.2-0.9-1.4-1.5-1.9c-3.5-2.7-7.9-4-11.5-6.7c-8.1-6.1-15.1-13.4-21.1-21.5&#10;&#9;&#9;c-1.1-1.5-2.3-2.1-4.2-1.9c-7.7,1.1-13.6,6.3-15.4,13.7c-0.2,1-0.3,1.6,0.8,2.2c6.1,3.1,10.5,8.2,15,13.1c1.8,2,3.5,2.5,6,2.5&#10;&#9;&#9;c10.2-0.2,20.4-0.3,30.5,1.1C895.9,585,896.7,585.1,896.8,584.4z M854.4,584.2c-3-3.6-5.6-6.7-8.1-9.9c-1-1.2-2.3-1.2-3.6-1.3&#10;&#9;&#9;c-0.9-0.1-1.1,0.6-1.1,1.3c0.1,3.2-0.2,6.4,0.5,9.6c0.3,1.5,1,1.8,2.3,1.6C847.5,585.1,850.7,584.7,854.4,584.2z" transform="matrix(1, 0, 0, 1, -250.4156935348658, -189.3024357686927)"/><path id="XMLID_783_" fill="#F07078" d="M970.7,737.6c0,1.6,0,3.1,0,4.7c-1.4,1.1-2,2.2-0.1,3.4c-0.1,1.6-0.2,3.1-0.2,4.7&#10;&#9;&#9;c-1-1-2-1.9-3-2.9c0-2.3,0.3-4.6-0.5-6.9c-0.4-1.1-0.9-2.7-2.2-2.5c-1.3,0.2-1.1,1.9-1.2,3c-0.4,3.7,1.3,7.1,1.5,10.7&#10;&#9;&#9;c-0.2,1.2-1.3,2.5,0.5,3.6c0.8,0.5,0.6,1.5,0.5,2.4c-0.9-0.6-1.7-0.8-2.5,0.3c-1.4,2.2-0.5,6.3,1.8,8c-0.2,1.3-2.1,3.7,1.6,2.4&#10;&#9;&#9;c0.9-0.3,1,0.4,1.2,1.1c0.5,1.4,0.2,2.7,0,4.1c0.5,1.9-1.1,2.1-2.3,2.6c-8.3,3.6-16.9,5.7-25.6,7.9c-18.1,4.5-36.1,8.8-54.5,11.7&#10;&#9;&#9;c-11.9,1.9-23.9,3.3-36,4.2c-6.5,0.5-13,1-19.6,1.3c-5.4,0.2-5.8-0.2-5.9-5.6c-0.3-25.5-0.7-51.1,0.1-76.6&#10;&#9;&#9;c0.7-20.5,1.6-41,6.5-61.1c3.8-15.8,10.5-29.9,24-39.9c5.6-4.2,11.8-7.4,18.6-9.3c2.4,0.9,4.9-0.1,7.3,0c2.3,0.1,2.2-1.1,1.4-2.7&#10;&#9;&#9;c7.1-2.3,14.5-3.3,22-3.9c0.1,0.7-0.2,1.7,0.9,1.7c1.3,0.1,1-1.1,1.1-1.8c0.9-0.4,1.8-0.6,2.7-0.4c0.7,0.6,1.3,0.6,1.9-0.1&#10;&#9;&#9;c1.3,0,2.7-0.1,4-0.1c0.5,1.8-0.8,2.5-2,3.3c-0.4,0-0.9,0-1.3,0c-0.4-0.6-0.5-1.8-1.3-1.7c-1,0.1-0.6,1.5-1.3,2.1&#10;&#9;&#9;c-0.9,0.3-1.9,0.5-2.8,1c-1.1,0.6-1.2,1.6-0.1,2.3c2.2,1.4,8.3-0.1,10.1-2.4c0-2.2,1.8-2.5,3.2-2.6c3.6-0.2,7.1-0.1,10.7-0.1&#10;&#9;&#9;c-2.4,0.2-1.7,1.5-1.2,2.8c-0.1,0.9-0.3,1.9,0.6,2.4c3.7,1.9,7.1,4.7,11.6,3.1c-1.1-2.4-3-3.6-5.1-4.6c0.8-1.1,0.1-1.9-0.7-2.7&#10;&#9;&#9;c1.5-0.4,2.9-0.7,4.4-1c1.6,1.7,4,1.1,5.9,2.1c7,3.6,11,9.7,14.1,16.6c5.1,11.2,7.6,23.1,9,35.2c1.1,8.9,2.2,17.8,2,26.8&#10;&#9;&#9;c-2.8,0.2-2.3,3.3-3.9,4.5c-0.7-0.9-0.9-2.6-2.6-2c-1.3,0.4-1.4,1.8-1.6,3c-0.7,3.2,1,5.8,2.2,8.4c0,1.1,0,2.1,1.5,2&#10;&#9;&#9;c0.4,0,0.9-0.2,0.9-0.8c0.1-1.4-1.1-1-1.9-1.2c-0.2-2.6,1.8-4.7,1.5-7.3c0.1-0.1,0.2-0.1,0.2-0.2c0-0.2-0.1-0.3-0.2-0.5&#10;&#9;&#9;c0-0.2,0-0.5,0-0.7c3.8,1,1.9,3.7,1.3,5.5c-0.5,1.9-0.4,3.3,0.4,4.9c1.2-0.7,0.6-1.7,0.8-2.5c0.9-3,0-6.3,1.4-9.3&#10;&#9;&#9;c0.8,4,0.5,8,0.4,12c-0.7,0.9-0.2,1.9-0.5,2.8c-0.6,2.2-0.7,4.7-2.5,6.4c-3.9-0.3-3,2.8-3.2,4.8c-0.3,3,1.9,5.5,2.4,8.4&#10;&#9;&#9;c1.5,1.5,1.9,3,1.4,5.3c-0.5,2.5-0.1,5.3-0.2,7.9C968.7,737.3,969.5,737.6,970.7,737.6z M885.1,611.8c-2.1-2.5-4.3-2.7-6.7-0.5&#10;&#9;&#9;c-1.2,1.1-1.3,2,0.5,2.5c0.1,1.2-2,1.6-1.3,2.8c0.8,1.3,2.4,0.5,3.7,0.4c3.7-0.2,6.8-1.4,8.1-5.5&#10;&#9;&#9;C887.9,611.5,886.5,611.6,885.1,611.8z M840.4,726.5c1.1-0.7,1.9-2.2,3.2-1.4c1.3,0.7,0.6,2.2,0.5,3.4c-0.8,15.4-1.5,30.8-2.4,46.2&#10;&#9;&#9;c-0.4,6.6,0.7,8.5,7,11c2,0.8,3.9,1.6,5.9,2.3c3.8,1.5,7.9,2,11.6,1.4c17.8-3.1,35.5-6.6,53.2-10.3c11.1-2.3,22-5,33-7.4&#10;&#9;&#9;c3.9-0.8,4.4-1.4,2.7-5c-0.3-0.7-0.1-1.3-0.1-1.9c-0.5-7.3-0.9-14.6-1.5-21.9c-0.7-7-0.8-7,6.4-7.8c1.5-0.2,3.5-0.6,3.3-2.1&#10;&#9;&#9;c-0.6-6.5,2.1-13.4-2.1-19.6c-2.1-3.1-4.4-6.1-7.1-8.8c-2-2-4.3-2.9-7.2-2.8c-9.2,0.1-18.3,1.1-27.4,2.7&#10;&#9;&#9;c-19.7,3.4-39.6,6.2-59,11.3c-6.6,1.7-13.1,3.5-18.5,7.9C841.1,724.2,839.7,724.5,840.4,726.5z M832.5,742.1&#10;&#9;&#9;c3.2-4.4,2.7-9,1.5-13.7c-0.1-0.6-0.3-1.3-1.2-1.4c-1-0.2-1.4,0.6-1.6,1.3C829.8,733,828.8,737.7,832.5,742.1z M963.7,677.2&#10;&#9;&#9;c2.4-5.1,2.4-10.1,1.1-15.2c-0.2-0.8-0.4-1.6-1.4-1.6c-0.8,0-1,0.9-1.1,1.4C961,667.1,960.6,672.3,963.7,677.2z M962.6,652.3&#10;&#9;&#9;c3-3.7,1.4-7.1-0.3-10.5c-0.6-1.1-1.3-2.2-2.8-1.7c-1.4,0.5-1.4,1.9-1.3,3.1C958.3,646.9,960.3,649.6,962.6,652.3z M831.3,768.3&#10;&#9;&#9;c2.8-3.5,2.5-7.4,1.7-11.2c-0.2-1-0.6-2.1-1.8-2.1c-1.2,0-1.5,1.2-1.7,2.1C828.8,761,828.4,764.9,831.3,768.3z M834.2,782.4&#10;&#9;&#9;c0-1.9,0.1-3.6-0.6-5.1c-0.7-1.4-1.7-1.7-2.4-0.3c-1.3,3-1.8,6.1-1.3,9.4c0.1,0.9,0.7,1.7,1.7,1.8c1.1,0.2,1.5-0.7,1.9-1.5&#10;&#9;&#9;C834.4,785.3,834.1,783.7,834.2,782.4z M841.3,650c3.1-3.8,5.1-7.8,6.1-12.6C842.6,638.6,840.3,644.7,841.3,650z M865.3,622.4&#10;&#9;&#9;c-5.1-0.4-11,4.4-10.8,9.5c1.4-2.8,3.7-3.5,5.6-4.6C862.2,626.1,864.5,625.3,865.3,622.4z M832.7,715.3c2.4-2.9,2.6-6.1,1.9-9.3&#10;&#9;&#9;c-0.2-0.9-0.3-2.4-1.8-2.3c-1.3,0.1-1.7,1.3-1.9,2.4C830.3,709.3,830.5,712.4,832.7,715.3z M835.5,690.5c1.3-2.5,3.3-4.3,2.8-7.3&#10;&#9;&#9;c-0.2-1.4-0.2-2.8-1.9-3c-1.9-0.2-2.3,1.3-2.7,2.7C832.8,685.7,834.5,687.8,835.5,690.5z M954.5,627.2c0.3-2.4,1.8-4.7,0.2-7&#10;&#9;&#9;c-1.1-1.5-2.4-3.7-4.4-2.3c-1.8,1.3-0.3,3.3,0.7,4.6C952.1,624.1,953.8,625.2,954.5,627.2z M838.6,668.3c0.7-2.7,2.3-4.5,2.6-6.8&#10;&#9;&#9;c0.2-1.4,0.6-3.2-1-3.7c-1.5-0.4-2,1.4-2.5,2.5C836.4,663,837.1,665.5,838.6,668.3z" transform="matrix(1, 0, 0, 1, -250.4156935348658, -189.3024357686927)"/><path id="XMLID_755_" fill="#D6393C" d="M746.1,768.1c0.9-5.9,3.8-11.1,6.8-16.1c4.7-7.9,9.6-15.7,14.4-23.5&#10;&#9;&#9;c4-6.5,5.7-13.7,6.3-21.2c1.3-16.2-0.2-32.3-2.3-48.4c-2.3-18-5.4-35.9-8.2-53.9c-0.9-6.1-0.1-12,1.3-18c0.6-2.4,1.9-2.9,4.1-2.5&#10;&#9;&#9;c5.9,1.1,9.8,5,13,9.6c5.3,7.5,10.2,15.3,15.3,22.9c0.7,1.1,0.4,1.7-0.2,2.6c-7.8,13.4-12.2,28-15.1,43.1&#10;&#9;&#9;c-4.3,22-4.6,44.3-3.8,66.6c0.5,14.2,0.7,28.4,0.4,42.6c-0.1,2.7-0.3,5.3-0.5,8c-0.1,1.2-0.2,2.5-1.9,1.8&#10;&#9;&#9;c-6.5-2.9-13.8-3.2-20.4-5.7c-2.6-1-5.2-2-7.3-3.8C746.7,771.1,745.8,769.8,746.1,768.1z" transform="matrix(1, 0, 0, 1, -250.4156935348658, -189.3024357686927)"/><path id="XMLID_754_" fill="#EB7076" d="M919.8,594c-14.6,0.9-29,2.2-43,6.3c-18,5.3-33.3,14.4-43,31.2c-6.6,11.5-10.2,24-12.3,37&#10;&#9;&#9;c-3.4,21.9-4.1,43.9-4.5,66c0,2.4-0.3,3.1-2.6,1.7c-3.8-2.4-7.9-4-12.1-5.4c-1.4-0.5-2-1.2-2.2-2.8c-2.9-31.2,4.8-60,18.9-87.5&#10;&#9;&#9;c12.3-23.8,31.7-39.1,56.9-47.6c5-1.7,9.9-2.5,15.2-2.2C900.8,591.4,910.3,592.3,919.8,594z" transform="matrix(1, 0, 0, 1, -250.4156935348658, -189.3024357686927)"/><path id="XMLID_753_" fill="#EB7076" d="M865.8,591.1c-2.9,1.3-6.2,2.7-9.4,4.2c-18.3,8.8-32,22.5-41.8,40.1&#10;&#9;&#9;c-10.4,18.7-17.2,38.6-20.2,59.8c-1.5,10.1-1.4,20.3,1,30.4c0.5,2.2,0.1,3-2.4,2.7c-8-1.1-8-1-8.1-9c-0.2-22,0.9-43.9,6.1-65.4&#10;&#9;&#9;c4-16.7,10.5-32.2,22.4-45c9.3-10.1,21-15.6,34.2-17.7C853.6,590.3,859.9,591.1,865.8,591.1z" transform="matrix(1, 0, 0, 1, -250.4156935348658, -189.3024357686927)"/><path id="XMLID_749_" fill="#F07078" d="M817.6,782.4c0,5-0.1,10,0,15c0.1,2.1-0.9,2.4-2.6,2c-10.9-2-20.8-6.2-29.2-13.6&#10;&#9;&#9;c-1.1-1-1.9-2-1.7-3.7c2.3-16.3,1.6-32.8,1.3-49.2c0-2.2,0.2-2.9,2.6-2.1c9.3,3.1,18.5,6.2,26.8,11.6c1.6,1,2.3,2.1,2.3,4&#10;&#9;&#9;C817.2,758.5,818.7,770.4,817.6,782.4z M800,744.8c-1.9-3.9-4.9-5.8-8.8-6.6c-0.9-0.2-2.1-0.3-2.6,0.9c-0.5,1.3,0.3,2.1,1.2,2.8&#10;&#9;&#9;C792.9,744,796.3,744.5,800,744.8z M806.6,744.9c-1.5,0.1-3.1-0.1-3.5,1.5c-0.4,1.7,1.4,2,2.5,2.6c2,0.9,4.2,1.6,6.4,0.5&#10;&#9;&#9;c0.8-0.4,0.6-1.1,0.3-1.7C811.1,745.1,808.7,745.1,806.6,744.9z" transform="matrix(1, 0, 0, 1, -250.4156935348658, -189.3024357686927)"/><path id="XMLID_748_" fill="#EB7076" d="M830.6,588.8c-13,5.1-22.3,14.3-30.5,25.3c-4.4-7.2-8.7-14.3-13.1-21.2&#10;&#9;&#9;c-2.5-4-5.4-7.5-9.4-10.2c-2.7-1.8-5.5-3.3-8.9-3.2c-1.6,0-2.3-0.3-1.5-2c2.2-5.2,5.2-9.7,9.9-13.1c3.9-2.8,8-3,12.2-0.9&#10;&#9;&#9;c7.2,3.5,12.9,8.9,18.9,13.9c3.3,2.7,6.7,5.4,10.5,7.5c2.5,1.3,5,2.5,7.9,2.3C828.1,587,829.3,587.7,830.6,588.8z" transform="matrix(1, 0, 0, 1, -250.4156935348658, -189.3024357686927)"/><path id="XMLID_747_" fill="#EB7076" d="M896.8,584.4c-0.1,0.7-0.8,0.6-1.5,0.5c-10.1-1.4-20.3-1.3-30.5-1.1&#10;&#9;&#9;c-2.5,0.1-4.2-0.5-6-2.5c-4.5-4.9-8.9-10-15-13.1c-1.1-0.5-1-1.2-0.8-2.2c1.8-7.4,7.7-12.6,15.4-13.7c1.9-0.3,3,0.3,4.2,1.9&#10;&#9;&#9;c6.1,8.1,13,15.4,21.1,21.5c3.6,2.7,7.9,4,11.5,6.7C895.9,583,896.8,583.1,896.8,584.4z" transform="matrix(1, 0, 0, 1, -250.4156935348658, -189.3024357686927)"/><path id="XMLID_746_" fill="#D6393C" d="M854.4,584.2c-3.7,0.5-6.8,0.9-10,1.3c-1.3,0.2-1.9-0.1-2.3-1.6c-0.7-3.2-0.5-6.4-0.5-9.6&#10;&#9;&#9;c0-0.7,0.2-1.4,1.1-1.3c1.3,0.1,2.6,0.1,3.6,1.3C848.8,577.5,851.4,580.6,854.4,584.2z" transform="matrix(1, 0, 0, 1, -250.4156935348658, -189.3024357686927)"/><path id="XMLID_745_" fill="#EB7076" d="M967.4,747.4c1,1,2,1.9,3,2.9c-0.3,7.1-0.6,14.1-0.9,21.2c0,1-0.4,1.7-1.2,2.2&#10;&#9;&#9;c0.2-1.4,0.5-2.7,0-4.1c-0.2-0.6-0.3-1.4-1.2-1.1c-3.7,1.2-1.8-1.1-1.6-2.4l0,0c1-0.1,1.8-0.2,0.6-1.3c0.6-2.3,1.1-4.7,0.1-7&#10;&#9;&#9;c0.1-0.9,0.3-1.9-0.5-2.4c-1.8-1.1-0.7-2.4-0.5-3.6c0.4,0.2,0.9,0.8,1.1-0.2C966.5,750.3,966.9,748.8,967.4,747.4z" transform="matrix(1, 0, 0, 1, -250.4156935348658, -189.3024357686927)"/><path id="XMLID_744_" fill="#EB7076" d="M912.8,605c1.2-0.8,2.5-1.5,2-3.3c8.4-0.7,16.7-0.7,24.9,1.9c-1.4,0.3-2.8,0.7-4.4,1&#10;&#9;&#9;c0.8,0.8,1.5,1.6,0.7,2.7c-2.4-0.5-4.6-1.8-7.2-0.8c-0.5-1.3-1.2-2.6,1.2-2.8c-3.6,0-7.1-0.1-10.7,0.1c-1.5,0.1-3.3,0.3-3.2,2.6&#10;&#9;&#9;C915,605.8,913.9,605.4,912.8,605z" transform="matrix(1, 0, 0, 1, -250.4156935348658, -189.3024357686927)"/><path id="XMLID_743_" fill="#EB7076" d="M968.2,709.5c1.8-1.8,1.9-4.2,2.5-6.4c0.3-0.9-0.2-2,0.5-2.8c0.2,11.5,0.2,23.1-0.5,34.6&#10;&#9;&#9;c-0.1,0.1-0.2,0.1-0.2,0.2c0.1,0.2,0.1,0.3,0.2,0.5c0,0.7,0,1.3,0,2c-1.1,0-1.9-0.3-1.9-1.6c0-2.6-0.4-5.4,0.2-7.9&#10;&#9;&#9;c0.5-2.3,0.1-3.8-1.4-5.3C969.6,718.5,971.5,714.1,968.2,709.5z" transform="matrix(1, 0, 0, 1, -250.4156935348658, -189.3024357686927)"/><path id="XMLID_742_" fill="#EB7076" d="M970.8,688.3c-1.3,3-0.5,6.2-1.4,9.3c-0.2,0.8,0.4,1.8-0.8,2.5c-0.8-1.6-1-3-0.4-4.9&#10;&#9;&#9;c0.5-1.8,2.4-4.5-1.3-5.5c0-0.3,0-0.6-0.1-0.8c1.6-1.2,1.1-4.3,3.9-4.5C970.9,685.6,971.2,686.9,970.8,688.3z" transform="matrix(1, 0, 0, 1, -250.4156935348658, -189.3024357686927)"/><path id="XMLID_741_" fill="#EB7076" d="M882.1,606.3c0.8,1.6,0.9,2.7-1.4,2.7c-2.4-0.1-4.9,0.9-7.3,0&#10;&#9;&#9;C876.2,607.7,879.1,606.7,882.1,606.3z" transform="matrix(1, 0, 0, 1, -250.4156935348658, -189.3024357686927)"/><path id="XMLID_740_" fill="#EB7076" d="M906.1,602.3c-0.1,0.8,0.2,1.9-1.1,1.8c-1.1-0.1-0.8-1-0.9-1.7&#10;&#9;&#9;C904.8,602.4,905.5,602.3,906.1,602.3z" transform="matrix(1, 0, 0, 1, -250.4156935348658, -189.3024357686927)"/><path id="XMLID_739_" fill="#EB7076" d="M970.6,745.7c-1.9-1.2-1.3-2.3,0.1-3.4C970.6,743.4,970.6,744.5,970.6,745.7z" transform="matrix(1, 0, 0, 1, -250.4156935348658, -189.3024357686927)"/><path id="XMLID_738_" fill="#EB7076" d="M910.8,601.8c-0.6,0.7-1.2,0.7-1.9,0.1C909.5,601.8,910.1,601.8,910.8,601.8z" transform="matrix(1, 0, 0, 1, -250.4156935348658, -189.3024357686927)"/><path id="XMLID_737_" fill="#F07078" d="M970.7,735.6c-0.1-0.2-0.2-0.3-0.2-0.5c0,0,0.1-0.1,0.2-0.2&#10;&#9;&#9;C970.8,735.1,970.8,735.3,970.7,735.6z" transform="matrix(1, 0, 0, 1, -250.4156935348658, -189.3024357686927)"/><path id="XMLID_732_" fill="#220F0F" d="M840.4,726.5c-0.7-2,0.7-2.3,1.6-3.1c5.4-4.4,11.9-6.2,18.5-7.9c19.4-5.1,39.3-7.9,59-11.3&#10;&#9;&#9;c9.1-1.6,18.2-2.5,27.4-2.7c2.9,0,5.2,0.8,7.2,2.8c2.7,2.7,4.9,5.7,7.1,8.8c4.2,6.2,1.5,13.1,2.1,19.6c0.1,1.5-1.8,2-3.3,2.1&#10;&#9;&#9;c-7.2,0.8-7.1,0.8-6.4,7.8c0.7,7.3,1,14.6,1.5,21.9c0,0.6-0.2,1.2,0.1,1.9c1.7,3.6,1.2,4.2-2.7,5c-11,2.4-22,5.2-33,7.4&#10;&#9;&#9;c-17.7,3.6-35.4,7.1-53.2,10.3c-3.7,0.7-7.9,0.1-11.6-1.4c-2-0.8-3.9-1.6-5.9-2.3c-6.3-2.5-7.4-4.3-7-11&#10;&#9;&#9;c0.9-15.4,1.7-30.8,2.4-46.2c0.1-1.1,0.7-2.6-0.5-3.4C842.3,724.3,841.5,725.8,840.4,726.5z M852,721.7c4.8,3.9,6,5.9,7.8,11.7&#10;&#9;&#9;c1.4,4.5,1.9,9.1,2.1,13.8c0.1,3.5,1.7,3.4,4.1,2.8c29.9-7.5,60.6-11.7,90-21.1c2.9-0.9,3.3-2.3,2.5-4.3c-0.7-1.7-1-3.4-1.6-5&#10;&#9;&#9;c-1.5-4.6-4.4-8.3-8-11.2c-2.4-1.9-5.8-0.7-8.7-0.8c-2.4-0.1-4.9,0.1-7.3,0.5c-9.8,1.4-19.5,2.9-29.2,4.3&#10;&#9;&#9;C886.4,714.8,869.3,717.6,852,721.7z M949.3,740.4c0.3-2.7-0.9-2.9-3.2-2.3c-14.1,3.9-28.5,6.4-42.8,9.5&#10;&#9;&#9;c-13.1,2.9-26.2,5.8-39.2,8.7c-1.1,0.2-2.5,0.1-2.3,2c0.3,4.1,0.6,8.2,0.7,12.3c0.1,4.5,0.9,9-0.8,13.5c-0.6,1.7,0.6,2.5,2.3,2&#10;&#9;&#9;c2.2-0.6,4.4-1.4,6.7-1.9c24.2-5.4,48.7-9.3,72.7-15.8c1.8-0.5,4.1-0.3,5.4-1.3c1.8-1.4-0.2-3.5-0.2-5.4&#10;&#9;&#9;C948.6,754.5,948.6,747.5,949.3,740.4z M848,765.1c0,2.1,0,4.2,0,6.3c0.2,8.6-1.5,6.6,7.1,10.3c1.6,0.7,2.4,0.8,2.4-1.4&#10;&#9;&#9;c0-7.5-0.3-15.1,1.2-22.5c0.1-0.4,0.1-1.1-0.2-1.3c-3.3-2.4-2.2-6-2.5-9.2c-0.6-6.3-0.6-12.6-3.3-18.5c-1.1-2.4-2.8-3.9-5.5-4.3&#10;&#9;&#9;c-1.3-0.2-1.9-0.1-1.6,1.5C848.4,738.9,847.3,752.1,848,765.1z" transform="matrix(1, 0, 0, 1, -250.4156935348658, -189.3024357686927)"/><path id="XMLID_731_" fill="#220F0F" d="M832.5,742.1c-3.7-4.4-2.7-9.1-1.2-13.9c0.2-0.7,0.6-1.5,1.6-1.3c0.8,0.1,1,0.8,1.2,1.4&#10;&#9;&#9;C835.2,733.1,835.7,737.7,832.5,742.1z" transform="matrix(1, 0, 0, 1, -250.4156935348658, -189.3024357686927)"/><path id="XMLID_730_" fill="#220F0F" d="M963.7,677.2c-3.1-4.9-2.7-10.1-1.4-15.3c0.1-0.6,0.4-1.4,1.1-1.4c1-0.1,1.2,0.8,1.4,1.6&#10;&#9;&#9;C966.1,667.1,966,672.2,963.7,677.2z" transform="matrix(1, 0, 0, 1, -250.4156935348658, -189.3024357686927)"/><path id="XMLID_729_" fill="#331616" d="M962.6,652.3c-2.3-2.7-4.3-5.4-4.5-9.1c-0.1-1.2-0.1-2.6,1.3-3.1c1.5-0.6,2.3,0.6,2.8,1.7&#10;&#9;&#9;C964,645.2,965.6,648.7,962.6,652.3z" transform="matrix(1, 0, 0, 1, -250.4156935348658, -189.3024357686927)"/><path id="XMLID_728_" fill="#331616" d="M831.3,768.3c-2.9-3.5-2.6-7.3-1.8-11.2c0.2-1,0.5-2.1,1.7-2.1c1.2,0,1.6,1.1,1.8,2.1&#10;&#9;&#9;C833.8,761,834.1,764.8,831.3,768.3z" transform="matrix(1, 0, 0, 1, -250.4156935348658, -189.3024357686927)"/><path id="XMLID_727_" fill="#331616" d="M928.8,606.4c2.5-0.9,4.8,0.3,7.2,0.8c2.1,1,4,2.2,5.1,4.6c-4.5,1.7-8-1.2-11.6-3.1&#10;&#9;&#9;C928.5,608.3,928.7,607.3,928.8,606.4z" transform="matrix(1, 0, 0, 1, -250.4156935348658, -189.3024357686927)"/><path id="XMLID_726_" fill="#331616" d="M968.2,709.5c3.3,4.6,1.3,8.9-0.7,13.2c-0.5-2.9-2.8-5.4-2.4-8.4&#10;&#9;&#9;C965.3,712.4,964.3,709.3,968.2,709.5z" transform="matrix(1, 0, 0, 1, -250.4156935348658, -189.3024357686927)"/><path id="XMLID_725_" fill="#331616" d="M834.2,782.4c-0.1,1.3,0.2,2.9-0.6,4.3c-0.5,0.8-0.8,1.7-1.9,1.5c-1-0.1-1.6-0.9-1.7-1.8&#10;&#9;&#9;c-0.5-3.2,0-6.4,1.3-9.4c0.6-1.4,1.7-1.2,2.4,0.3C834.3,778.9,834.2,780.5,834.2,782.4z" transform="matrix(1, 0, 0, 1, -250.4156935348658, -189.3024357686927)"/><path id="XMLID_724_" fill="#331616" d="M967.4,747.4c-0.4,1.4-0.9,2.8-1.3,4.2c-0.3,0.9-0.7,0.4-1.1,0.2c-0.2-3.6-1.9-7-1.5-10.7&#10;&#9;&#9;c0.1-1.2-0.1-2.8,1.2-3c1.3-0.2,1.7,1.4,2.2,2.5C967.7,742.8,967.3,745.1,967.4,747.4z" transform="matrix(1, 0, 0, 1, -250.4156935348658, -189.3024357686927)"/><path id="XMLID_723_" fill="#331616" d="M885.1,611.8c1.4-0.1,2.8-0.3,4.3-0.4c-1.3,4.1-4.4,5.3-8.1,5.5c-1.2,0.1-2.8,0.8-3.7-0.4&#10;&#9;&#9;c-0.8-1.2,1.4-1.5,1.3-2.8l0,0c1.1,0.3,1.8-0.4,2.6-0.9C882.8,612.9,884,612.5,885.1,611.8z" transform="matrix(1, 0, 0, 1, -250.4156935348658, -189.3024357686927)"/><path id="XMLID_722_" fill="#331616" d="M966.8,688.8c0,0.3,0,0.6,0.1,0.8c0,0.2,0,0.5,0,0.7c-0.1,0.2-0.1,0.4,0,0.6&#10;&#9;&#9;c0.3,2.6-1.8,4.7-1.5,7.3c-0.2,0.1-0.4,0.1-0.6,0c-1.2-2.7-3-5.2-2.2-8.4c0.3-1.2,0.3-2.6,1.6-3&#10;&#9;&#9;C965.8,686.2,966.1,687.9,966.8,688.8z" transform="matrix(1, 0, 0, 1, -250.4156935348658, -189.3024357686927)"/><path id="XMLID_721_" fill="#331616" d="M841.3,650c-0.9-5.3,1.3-11.3,6.1-12.6C846.4,642.2,844.3,646.2,841.3,650z" transform="matrix(1, 0, 0, 1, -250.4156935348658, -189.3024357686927)"/><path id="XMLID_720_" fill="#331616" d="M865.3,622.4c-0.8,2.8-3.1,3.7-5.2,4.9c-2,1.1-4.3,1.8-5.6,4.6&#10;&#9;&#9;C854.4,626.9,860.2,622.1,865.3,622.4z" transform="matrix(1, 0, 0, 1, -250.4156935348658, -189.3024357686927)"/><path id="XMLID_719_" fill="#331616" d="M832.7,715.3c-2.1-2.9-2.3-6-1.8-9.2c0.2-1.1,0.5-2.3,1.9-2.4c1.6-0.1,1.7,1.4,1.8,2.3&#10;&#9;&#9;C835.2,709.2,835.1,712.3,832.7,715.3z" transform="matrix(1, 0, 0, 1, -250.4156935348658, -189.3024357686927)"/><path id="XMLID_718_" fill="#331616" d="M835.5,690.5c-1-2.6-2.7-4.8-1.8-7.6c0.5-1.4,0.8-2.9,2.7-2.7c1.7,0.2,1.7,1.7,1.9,3&#10;&#9;&#9;C838.7,686.2,836.8,688,835.5,690.5z" transform="matrix(1, 0, 0, 1, -250.4156935348658, -189.3024357686927)"/><path id="XMLID_717_" fill="#331616" d="M954.5,627.2c-0.7-2-2.4-3.1-3.5-4.6c-1-1.4-2.5-3.4-0.7-4.6c2-1.4,3.4,0.8,4.4,2.3&#10;&#9;&#9;C956.3,622.5,954.8,624.8,954.5,627.2z" transform="matrix(1, 0, 0, 1, -250.4156935348658, -189.3024357686927)"/><path id="XMLID_716_" fill="#331616" d="M912.8,605c1.1,0.4,2.2,0.9,3.3,1.3c-1.8,2.3-7.9,3.8-10.1,2.4c-1.2-0.8-1-1.7,0.1-2.3&#10;&#9;&#9;c0.8-0.5,1.8-0.6,2.8-1c0.9,0.1,1.8,0.1,2.6-0.4C911.9,605,912.3,605,912.8,605z" transform="matrix(1, 0, 0, 1, -250.4156935348658, -189.3024357686927)"/><path id="XMLID_715_" fill="#331616" d="M838.6,668.3c-1.5-2.8-2.2-5.3-0.9-8c0.6-1.2,1.1-3,2.5-2.5c1.6,0.5,1.2,2.3,1,3.7&#10;&#9;&#9;C840.9,663.8,839.3,665.6,838.6,668.3z" transform="matrix(1, 0, 0, 1, -250.4156935348658, -189.3024357686927)"/><path id="XMLID_714_" fill="#331616" d="M966,757.8c1,2.4,0.6,4.7-0.1,7c-0.2,0.4-0.4,0.9-0.6,1.3l0,0c-2.3-1.7-3.2-5.8-1.8-8&#10;&#9;&#9;C964.2,757,965.1,757.2,966,757.8z" transform="matrix(1, 0, 0, 1, -250.4156935348658, -189.3024357686927)"/><path id="XMLID_713_" fill="#EB7076" d="M885.1,611.8c-1.1,0.7-2.3,1.2-3.7,1.1c-1.4-1.1-2.1-0.4-2.6,0.9l0,0&#10;&#9;&#9;c-1.8-0.5-1.7-1.4-0.5-2.5C880.8,609.1,883,609.2,885.1,611.8z" transform="matrix(1, 0, 0, 1, -250.4156935348658, -189.3024357686927)"/><path id="XMLID_712_" fill="#EB7076" d="M964.8,698.2c0.2,0,0.4,0,0.6,0c0.8,0.2,1.9-0.2,1.9,1.2c0,0.5-0.5,0.7-0.9,0.8&#10;&#9;&#9;C964.8,700.3,964.7,699.3,964.8,698.2z" transform="matrix(1, 0, 0, 1, -250.4156935348658, -189.3024357686927)"/><path id="XMLID_711_" fill="#EB7076" d="M911.5,605c-0.8,0.5-1.7,0.5-2.6,0.4c0.7-0.6,0.3-2,1.3-2.1&#10;&#9;&#9;C911,603.2,911.1,604.4,911.5,605z" transform="matrix(1, 0, 0, 1, -250.4156935348658, -189.3024357686927)"/><path id="XMLID_710_" fill="#EB7076" d="M966.9,690.9c-0.1-0.2-0.1-0.4,0-0.6c0.1,0.2,0.2,0.3,0.2,0.5&#10;&#9;&#9;C967.1,690.8,967,690.8,966.9,690.9z" transform="matrix(1, 0, 0, 1, -250.4156935348658, -189.3024357686927)"/><path id="XMLID_709_" fill="#331616" d="M800,744.8c-3.7-0.4-7.1-0.9-10.1-2.9c-1-0.7-1.7-1.5-1.2-2.8c0.5-1.2,1.6-1.1,2.6-0.9&#10;&#9;&#9;C795.1,739,798.2,740.9,800,744.8z" transform="matrix(1, 0, 0, 1, -250.4156935348658, -189.3024357686927)"/><path id="XMLID_708_" fill="#331616" d="M806.6,744.9c2.1,0.3,4.5,0.3,5.7,2.8c0.3,0.6,0.5,1.3-0.3,1.7c-2.2,1-4.3,0.4-6.4-0.5&#10;&#9;&#9;c-1.1-0.5-2.9-0.9-2.5-2.6C803.4,744.7,805.1,744.9,806.6,744.9z" transform="matrix(1, 0, 0, 1, -250.4156935348658, -189.3024357686927)"/><path id="XMLID_707_" fill="#F07078" d="M965.3,766.1c0.2-0.4,0.4-0.9,0.6-1.3C967.2,765.9,966.3,766.1,965.3,766.1z" transform="matrix(1, 0, 0, 1, -250.4156935348658, -189.3024357686927)"/><path id="XMLID_706_" fill="#F07078" d="M852,721.7c17.3-4.1,34.4-7,51.6-9.5c9.8-1.4,19.5-3,29.2-4.3c2.4-0.3,4.9-0.5,7.3-0.5&#10;&#9;&#9;c2.9,0.1,6.4-1.1,8.7,0.8c3.6,2.9,6.5,6.6,8,11.2c0.5,1.7,0.9,3.4,1.6,5c0.8,2,0.4,3.4-2.5,4.3c-29.4,9.5-60.1,13.7-90,21.1&#10;&#9;&#9;c-2.4,0.6-4,0.7-4.1-2.8c-0.2-4.6-0.7-9.3-2.1-13.8C858.1,727.6,856.8,725.6,852,721.7z" transform="matrix(1, 0, 0, 1, -250.4156935348658, -189.3024357686927)"/><path id="XMLID_705_" fill="#F07078" d="M949.3,740.4c-0.7,7.1-0.7,14.2-0.7,21.3c0,1.9,2.1,4,0.2,5.4c-1.4,1-3.6,0.9-5.4,1.3&#10;&#9;&#9;c-24,6.5-48.5,10.5-72.7,15.8c-2.3,0.5-4.5,1.3-6.7,1.9c-1.7,0.4-2.9-0.3-2.3-2c1.7-4.5,0.9-9,0.8-13.5c-0.1-4.1-0.3-8.2-0.7-12.3&#10;&#9;&#9;c-0.2-2,1.2-1.8,2.3-2c13.1-2.9,26.2-5.8,39.2-8.7c14.3-3.1,28.7-5.6,42.8-9.5C948.4,737.4,949.6,737.7,949.3,740.4z" transform="matrix(1, 0, 0, 1, -250.4156935348658, -189.3024357686927)"/><path id="XMLID_704_" fill="#EB7076" d="M848,765.1c-0.7-13,0.3-26.2-2.3-39.1c-0.3-1.6,0.3-1.7,1.6-1.5c2.7,0.4,4.4,2,5.5,4.3&#10;&#9;&#9;c2.7,5.9,2.7,12.3,3.3,18.5c0.3,3.2-0.8,6.8,2.5,9.2c0.2,0.2,0.2,0.8,0.2,1.3c-1.5,7.5-1.2,15-1.2,22.5c0,2.2-0.8,2.1-2.4,1.4&#10;&#9;&#9;c-8.6-3.8-6.9-1.7-7.1-10.3C848,769.3,848,767.2,848,765.1z" transform="matrix(1, 0, 0, 1, -250.4156935348658, -189.3024357686927)"/><path id="XMLID_703_" fill="#F07078" d="M878.9,613.8c0.5-1.3,1.2-2,2.6-0.9C880.7,613.4,879.9,614,878.9,613.8z" transform="matrix(1, 0, 0, 1, -250.4156935348658, -189.3024357686927)"/></g></svg>