<?xml version="1.0" encoding="utf-8"?>
<svg id="master-artboard" viewBox="0 0 1400 980" version="1.1" xmlns="http://www.w3.org/2000/svg" x="0px" y="0px" width="1400px" height="980px" enable-background="new 0 0 1400 980">
<g transform="matrix(1, 0, 0, 1, 0, -7.105427357601002e-15)">
			<path fill="#F0D7BF" d="M848.9,316.7h-10.1v75.5h10.1c6.9,0,12.6-5.6,12.6-12.6v-50.3C861.5,322.3,855.8,316.7,848.9,316.7z"/>
			<path d="M848.9,395.4h-10.1c-1.8,0-3.3-1.5-3.3-3.3v-75.5c0-1.8,1.5-3.3,3.3-3.3h10.1c8.7,0,15.9,7.1,15.9,15.9v50.3&#10;&#9;&#9;&#9;&#9;C864.7,388.3,857.6,395.4,848.9,395.4z M842,388.9h6.9c5.1,0,9.3-4.2,9.3-9.3v-50.3c0-5.1-4.2-9.3-9.3-9.3H842V388.9z"/>
		</g><path fill="#F0D7BF" d="M571.1,316.7h10.1v75.5h-10.1c-6.9,0-12.6-5.6-12.6-12.6v-50.3C558.5,322.3,564.1,316.7,571.1,316.7z" transform="matrix(1, 0, 0, 1, 0, -7.105427357601002e-15)"/><path d="M581.2,395.4h-10.1c-8.7,0-15.9-7.1-15.9-15.9v-50.3c0-8.7,7.1-15.9,15.9-15.9h10.1c1.8,0,3.3,1.5,3.3,3.3v75.5&#10;&#9;&#9;&#9;&#9;C584.5,393.9,583,395.4,581.2,395.4z M571.1,320c-5.1,0-9.3,4.2-9.3,9.3v50.3c0,5.1,4.2,9.3,9.3,9.3h6.9V320H571.1z" transform="matrix(1, 0, 0, 1, 0, -7.105427357601002e-15)"/><g transform="matrix(1, 0, 0, 1, 0, -7.105427357601002e-15)">
				<g>
					<path fill="#BE7F59" d="M762.9,320.7h-12.4c-87.8,0-151.7-21.1-182-33.7l-20.3-8.4v-24.5c0-89.2,72.6-161.8,161.8-161.8&#10;&#9;&#9;&#9;&#9;&#9;&#9;c89.2,0,161.8,72.6,161.8,161.8V286l-14.3,9.9c-28,19.3-62.7,26.7-66.5,27.5l-24.1,4.9L762.9,320.7z"/>
				</g>
				<g>
					<path d="M766.9,331.4c-1.2,0-2.3-0.7-2.9-1.7l-3-5.7h-10.4c-88.4,0-152.8-21.3-183.3-34l-20.3-8.4c-1.2-0.5-2-1.7-2-3v-24.5&#10;&#9;&#9;&#9;&#9;&#9;&#9;C544.9,163,619,89,710,89c91,0,165.1,74.1,165.1,165.1V286c0,1.1-0.5,2.1-1.4,2.7l-14.3,9.9c-28.5,19.7-63.8,27.2-67.7,28&#10;&#9;&#9;&#9;&#9;&#9;&#9;l-24.1,4.9C767.3,331.4,767.1,331.4,766.9,331.4z M551.5,276.3l18.3,7.6c30.1,12.5,93.5,33.5,180.8,33.5h12.4&#10;&#9;&#9;&#9;&#9;&#9;&#9;c1.2,0,2.3,0.7,2.9,1.7l2.8,5.2l21.7-4.4c3.8-0.8,37.9-8,65.3-26.9l12.8-8.9v-30.2c0-87.4-71.1-158.5-158.5-158.5&#10;&#9;&#9;&#9;&#9;&#9;&#9;c-87.4,0-158.5,71.1-158.5,158.5V276.3z"/>
				</g>
			</g><path fill="#FFE6CB" d="M784.5,290.9l-19.7-37.1l-14.2,33.9c-82.3,0-141.5-19.6-169.3-31.2v118c0,71.1,57.7,128.8,128.8,128.8&#10;&#9;&#9;&#9;&#9;&#9;c71.1,0,128.8-57.7,128.8-128.8V268.6C815.5,284.6,784.5,290.9,784.5,290.9z" transform="matrix(1, 0, 0, 1, 0, -7.105427357601002e-15)"/><path d="M710,506.5c-72.8,0-132-59.2-132-132v-118c0-1.1,0.5-2.1,1.5-2.7c0.9-0.6,2.1-0.7,3.1-0.3&#10;&#9;&#9;&#9;&#9;&#9;c27.5,11.5,85.5,30.6,165.9,30.9l13.4-31.9c0.5-1.2,1.6-2,2.9-2c1-0.1,2.4,0.6,3,1.7l18.6,34.9c7.6-1.8,31.9-8.3,50.7-21.2&#10;&#9;&#9;&#9;&#9;&#9;c1-0.7,2.3-0.8,3.4-0.2c1.1,0.6,1.8,1.7,1.8,2.9v105.9C842,447.3,782.8,506.5,710,506.5z M584.5,261.4v113.1&#10;&#9;&#9;&#9;&#9;&#9;c0,69.2,56.3,125.5,125.5,125.5c69.2,0,125.5-56.3,125.5-125.5v-99.8c-22.6,13.8-49.1,19.2-50.3,19.4c-1.5,0.3-2.9-0.4-3.5-1.7&#10;&#9;&#9;&#9;&#9;&#9;l-16.5-31l-11.5,27.6c-0.5,1.2-1.7,2-3,2C672.1,291,614.3,273.2,584.5,261.4z" transform="matrix(1, 0, 0, 1, 0, -7.105427357601002e-15)"/><path d="M676.4,331.4c-0.8,0-1.6-0.3-2.2-0.9c-26-24.2-48.1-1.2-49-0.2c-1.2,1.3-3.3,1.4-4.6,0.2c-1.3-1.2-1.4-3.3-0.2-4.6&#10;&#9;&#9;&#9;&#9;&#9;c0.3-0.3,27.5-28.8,58.3-0.2c1.3,1.2,1.4,3.3,0.2,4.6C678.2,331,677.3,331.4,676.4,331.4z" transform="matrix(1, 0, 0, 1, 0, -7.105427357601002e-15)"/><path d="M743.6,331.4c-0.8,0-1.6-0.3-2.2-0.9c-1.3-1.2-1.4-3.3-0.2-4.6c0.3-0.3,27.5-28.8,58.3-0.2c1.3,1.2,1.4,3.3,0.2,4.6&#10;&#9;&#9;&#9;&#9;&#9;c-1.2,1.3-3.3,1.4-4.6,0.2c-26-24.2-48.1-1.2-49-0.2C745.3,331,744.5,331.4,743.6,331.4z" transform="matrix(1, 0, 0, 1, 0, -7.105427357601002e-15)"/><path d="M710.2,421.4c-14.1,0-19-11.5-19.6-17.6l0-49.4c0-1.8,1.5-3.3,3.3-3.3s3.3,1.5,3.3,3.3v49.1c0.1,0.9,1.6,11.4,13,11.4&#10;&#9;&#9;&#9;&#9;&#9;c1.8,0,3.3,1.5,3.3,3.3C713.5,420,712,421.4,710.2,421.4z" transform="matrix(1, 0, 0, 1, 0, -7.105427357601002e-15)"/><g transform="matrix(1, 0, 0, 1, 0, -7.105427357601002e-15)">
				<path fill="#FFFFFF" d="M500.4,413.9V381c0,0,155.4,14.8,209.5,91.9l-118.9-10.7L500.4,413.9z"/>
				<path d="M710,476.2c-0.1,0-0.2,0-0.3,0l-118.9-10.7c-0.4,0-0.9-0.2-1.3-0.4l-90.6-48.3c-1.1-0.6-1.7-1.7-1.7-2.9V381&#10;&#9;&#9;&#9;&#9;&#9;c0-0.9,0.4-1.8,1.1-2.4c0.7-0.6,1.6-0.9,2.5-0.8c6.4,0.6,156.7,15.7,211.5,92.6c0.7,0.6,1.2,1.5,1.2,2.5c0,1.8-1.5,3.3-3.3,3.3&#10;&#9;&#9;&#9;&#9;&#9;C710.1,476.2,710,476.2,710,476.2z M592,459l110.9,9.9c-51.3-63.8-176.4-81.5-199.2-84.3V412L592,459z"/>
			</g><path fill="#FFFFFF" d="M919.5,413.9V381c0,0-155.4,14.8-209.5,91.9l118.9-10.7L919.5,413.9z" transform="matrix(1, 0, 0, 1, 0, -7.105427357601002e-15)"/><path d="M710,476.2c-1.2,0-2.2-0.6-2.8-1.6c-0.6-1.1-0.6-2.5,0.2-3.5c54.4-77.5,205.5-92.6,211.9-93.3c0.9-0.1,1.8,0.2,2.5,0.8&#10;&#9;&#9;&#9;&#9;&#9;c0.7,0.6,1.1,1.5,1.1,2.4v32.9c0,1.2-0.7,2.3-1.7,2.9l-90.6,48.3c-0.4,0.2-0.8,0.3-1.3,0.4l-118.9,10.7&#10;&#9;&#9;&#9;&#9;&#9;C710.2,476.2,710.1,476.2,710,476.2z M916.2,384.7c-22.8,2.7-147.9,20.5-199.2,84.3l110.9-9.9l88.3-47V384.7z" transform="matrix(1, 0, 0, 1, 0, -7.105427357601002e-15)"/><path fill="#F1F2F2" d="M472.2,448v-36.7c0,0,161.5,9.3,237.8,68.6v23.3l-237.8-45.9V448z" transform="matrix(1, 0, 0, 1, 0, -7.105427357601002e-15)"/><path d="M710,506.5c-0.2,0-0.4,0-0.6-0.1l-237.8-45.9c-1.5-0.3-2.7-1.6-2.7-3.2v-45.9c0-0.9,0.4-1.8,1-2.4&#10;&#9;&#9;&#9;&#9;&#9;c0.7-0.6,1.6-0.9,2.4-0.9c6.6,0.4,163.4,10,239.6,69.3c0.8,0.6,1.3,1.6,1.3,2.6v23.3c0,1-0.4,1.9-1.2,2.5&#10;&#9;&#9;&#9;&#9;&#9;C711.5,506.3,710.7,506.5,710,506.5z M475.5,454.6l231.2,44.7v-17.7c-68.9-52.5-207.6-64.9-231.2-66.7V454.6z" transform="matrix(1, 0, 0, 1, 0, -7.105427357601002e-15)"/><path fill="#F1F2F2" d="M947.8,448v-36.7c0,0-161.5,9.3-237.8,68.6v23.3l237.8-45.9V448z" transform="matrix(1, 0, 0, 1, 0, -7.105427357601002e-15)"/><path d="M710,506.5c-0.8,0-1.5-0.3-2.1-0.8c-0.8-0.6-1.2-1.6-1.2-2.5V480c0-1,0.5-2,1.3-2.6c76.2-59.3,233-68.9,239.6-69.3&#10;&#9;&#9;&#9;&#9;&#9;c0.9,0,1.8,0.3,2.4,0.9c0.7,0.6,1,1.5,1,2.4v45.9c0,1.6-1.1,2.9-2.7,3.2l-237.8,45.9C710.4,506.5,710.2,506.5,710,506.5z&#10;&#9;&#9;&#9;&#9;&#9; M713.3,481.6v17.7l231.2-44.7v-39.7C920.8,416.7,782.2,429.2,713.3,481.6z" transform="matrix(1, 0, 0, 1, 0, -7.105427357601002e-15)"/><path fill="#F0D7BF" d="M941.4,613.8c2.5,6.6,10.2,9,17.3,5.4l41.7-21.6c7.1-3.7,10.8-12.1,8.4-18.7l0,0&#10;&#9;&#9;&#9;&#9;&#9;c-2.5-6.7-10.2-9-17.3-5.3l-41.8,21.7C942.7,598.9,938.9,607.2,941.4,613.8L941.4,613.8z" transform="matrix(1, 0, 0, 1, 0, -7.105427357601002e-15)"/><path d="M951.9,624.1C951.9,624.1,951.9,624.1,951.9,624.1c-6.3,0-11.5-3.5-13.6-9.2c-3.1-8.2,1.3-18.2,9.9-22.6l41.8-21.7&#10;&#9;&#9;&#9;&#9;&#9;c2.6-1.4,5.5-2.1,8.3-2.1c6.3,0,11.5,3.5,13.6,9.2c3,8.2-1.4,18.4-9.9,22.8L960.2,622C957.5,623.4,954.7,624.1,951.9,624.1z&#10;&#9;&#9;&#9;&#9;&#9; M998.3,575c-1.7,0-3.5,0.5-5.3,1.4l-41.8,21.7c-5.5,2.9-8.7,9.5-6.8,14.5c1.7,4.6,7.5,6.3,12.7,3.6l41.7-21.5&#10;&#9;&#9;&#9;&#9;&#9;c5.6-2.9,8.7-9.6,6.8-14.7C1004.5,576.9,1001.8,575,998.3,575z" transform="matrix(1, 0, 0, 1, 0, -7.105427357601002e-15)"/><path fill="#F0D7BF" d="M484.9,613.8c-2.5,6.6-10.2,9-17.3,5.4l-41.8-21.6c-7.1-3.7-10.8-12.1-8.4-18.7l0,0&#10;&#9;&#9;&#9;&#9;&#9;c2.5-6.7,10.2-9,17.3-5.3l41.7,21.7C483.6,598.9,487.3,607.2,484.9,613.8L484.9,613.8z" transform="matrix(1, 0, 0, 1, 0, -7.105427357601002e-15)"/><path d="M474.3,624.1c-2.8,0-5.6-0.7-8.2-2.1l-41.8-21.6c-8.5-4.4-12.9-14.6-9.9-22.8c2.1-5.7,7.3-9.2,13.6-9.2&#10;&#9;&#9;&#9;&#9;&#9;c2.8,0,5.7,0.7,8.3,2.1l41.7,21.7c8.6,4.5,13,14.4,9.9,22.6C485.8,620.6,480.6,624.1,474.3,624.1z M428,575&#10;&#9;&#9;&#9;&#9;&#9;c-3.5,0-6.3,1.8-7.4,4.9c-1.9,5.1,1.2,11.8,6.8,14.7l41.8,21.5c5.2,2.7,11,1,12.7-3.6c1.9-5-1.3-11.6-6.8-14.5l-41.8-21.7&#10;&#9;&#9;&#9;&#9;&#9;C431.5,575.5,429.7,575,428,575z" transform="matrix(1, 0, 0, 1, 0, -7.105427357601002e-15)"/><g transform="matrix(1, 0, 0, 1, 0, -7.105427357601002e-15)">
					<path d="M 437.6000061035156 428.29998779296875 L 437.6000061035156 790.4000244140625 L 662.4000244140625 828.0999755859375 L 662.4000244140625 466 Z" fill="#397BA4"/>
					<path d="M662.4,831.4c-0.2,0-0.4,0-0.5,0l-224.8-37.7c-1.6-0.3-2.7-1.6-2.7-3.2V428.3c0-1,0.4-1.9,1.2-2.5&#10;&#9;&#9;&#9;&#9;&#9;&#9;c0.7-0.6,1.7-0.9,2.7-0.7l224.8,37.7c1.6,0.3,2.7,1.6,2.7,3.2v362.1c0,1-0.4,1.9-1.2,2.5C663.9,831.1,663.2,831.4,662.4,831.4z&#10;&#9;&#9;&#9;&#9;&#9;&#9; M440.9,787.6l218.2,36.6V468.8l-218.2-36.6V787.6z"/>
				</g><path d="M 764.0999755859375 466 L 764.0999755859375 828.0999755859375 L 988.9000244140625 790.4000244140625 L 988.9000244140625 428.29998779296875 Z" fill="#397BA4" transform="matrix(1, 0, 0, 1, 0, -7.105427357601002e-15)"/><path d="M764.1,831.4c-0.8,0-1.5-0.3-2.1-0.8c-0.7-0.6-1.2-1.5-1.2-2.5V466c0-1.6,1.2-3,2.7-3.2l224.8-37.7&#10;&#9;&#9;&#9;&#9;&#9;&#9;c1-0.1,1.9,0.1,2.7,0.7c0.7,0.6,1.2,1.5,1.2,2.5v362.1c0,1.6-1.2,3-2.7,3.2l-224.8,37.7C764.5,831.4,764.3,831.4,764.1,831.4z&#10;&#9;&#9;&#9;&#9;&#9;&#9; M767.4,468.8v355.4l218.2-36.6V432.2L767.4,468.8z" transform="matrix(1, 0, 0, 1, 0, -7.105427357601002e-15)"/><path fill="#4490C2" d="M713.3,482.4c-23.8,0-50.9-16.4-50.9-16.4v362.1c0,0,27.1,16.4,50.9,16.4s50.9-16.4,50.9-16.4V466&#10;&#9;&#9;&#9;&#9;&#9;&#9;C764.1,466,737,482.4,713.3,482.4z" transform="matrix(1, 0, 0, 1, 0, -7.105427357601002e-15)"/><path d="M713.3,847.8c-24.4,0-51.4-16.2-52.6-16.9c-1-0.6-1.6-1.7-1.6-2.8V466c0-1.2,0.6-2.3,1.7-2.9c1-0.6,2.3-0.6,3.3,0.1&#10;&#9;&#9;&#9;&#9;&#9;&#9;c0.3,0.2,26.6,15.9,49.2,15.9c22.6,0,48.9-15.8,49.2-15.9c1-0.6,2.3-0.6,3.3-0.1c1,0.6,1.7,1.7,1.7,2.9v362.1&#10;&#9;&#9;&#9;&#9;&#9;&#9;c0,1.1-0.6,2.2-1.6,2.8C764.7,831.6,737.7,847.8,713.3,847.8z M665.7,826.2c6,3.4,28.2,15,47.6,15c19.4,0,41.5-11.6,47.6-15&#10;&#9;&#9;&#9;&#9;&#9;&#9;V471.6c-9.1,4.8-29.1,14.1-47.6,14.1s-38.5-9.3-47.6-14.1V826.2z" transform="matrix(1, 0, 0, 1, 0, -7.105427357601002e-15)"/><path d="M 941.7999877929688 606.2999877929688 L 811.2000122070312 628.2000122070312 L 811.2000122070312 540.7999877929688 L 941.7999877929688 518.9000244140625 Z" fill="#FFF09E" transform="matrix(1, 0, 0, 1, 0, -7.105427357601002e-15)"/><path d="M811.2,631.5c-0.8,0-1.5-0.3-2.1-0.8c-0.7-0.6-1.2-1.5-1.2-2.5v-87.4c0-1.6,1.2-3,2.7-3.2l130.5-21.9&#10;&#9;&#9;&#9;&#9;&#9;c1-0.2,1.9,0.1,2.7,0.7c0.7,0.6,1.2,1.5,1.2,2.5v87.4c0,1.6-1.2,3-2.7,3.2l-130.5,21.9C811.6,631.5,811.4,631.5,811.2,631.5z&#10;&#9;&#9;&#9;&#9;&#9; M814.5,543.6v80.7l124-20.8v-80.7L814.5,543.6z" transform="matrix(1, 0, 0, 1, 0, -7.105427357601002e-15)"/><path fill="#FFE6CB" d="M486.9,648.8c0,7.4-6.1,12.5-13.6,11.2l-44.2-7.2c-7.5-1.2-13.6-8.3-13.6-15.8l0,0&#10;&#9;&#9;&#9;&#9;&#9;c0-7.5,6.1-12.6,13.6-11.3l44.2,7.4C480.8,634.3,486.9,641.4,486.9,648.8L486.9,648.8z" transform="matrix(1, 0, 0, 1, 0, -7.105427357601002e-15)"/><path d="M475.5,663.5c-0.9,0-1.8-0.1-2.7-0.2l-44.2-7.2c-9.2-1.5-16.3-9.9-16.3-19c0-9.4,7.7-16.2,17.4-14.5l44.2,7.4&#10;&#9;&#9;&#9;&#9;&#9;c9.2,1.5,16.3,9.9,16.3,18.9C490.1,657.2,483.8,663.5,475.5,663.5z M426.8,628.8c-4.7,0-8,3.4-8,8.2c0,5.8,5,11.6,10.8,12.6&#10;&#9;&#9;&#9;&#9;&#9;l44.2,7.2c5.6,0.9,9.8-2.6,9.8-8c0-5.8-5-11.5-10.8-12.5l-44.2-7.4C427.9,628.9,427.4,628.8,426.8,628.8z" transform="matrix(1, 0, 0, 1, 0, -7.105427357601002e-15)"/><path fill="#FFE6CB" d="M515.3,680.3c0,7.4-6.1,12.4-13.6,11.2l-72.6-11.6c-7.5-1.2-13.6-8.2-13.6-15.7l0,0&#10;&#9;&#9;&#9;&#9;&#9;c0-7.5,6.1-12.6,13.6-11.4l72.6,11.8C509.2,665.9,515.3,672.9,515.3,680.3L515.3,680.3z" transform="matrix(1, 0, 0, 1, 0, -7.105427357601002e-15)"/><path d="M503.9,694.9c-0.9,0-1.8-0.1-2.7-0.2l-72.6-11.6c-9.2-1.5-16.4-9.8-16.4-19c0-9.4,7.8-16.2,17.4-14.6l72.6,11.8&#10;&#9;&#9;&#9;&#9;&#9;c9.2,1.5,16.3,9.8,16.3,18.8C518.6,688.6,512.3,694.9,503.9,694.9z M426.9,655.9c-4.8,0-8.1,3.4-8.1,8.3c0,5.8,5,11.6,10.8,12.5&#10;&#9;&#9;&#9;&#9;&#9;l72.6,11.6c5.6,0.9,9.8-2.7,9.8-8c0-5.7-5-11.4-10.8-12.4l-72.6-11.8C428,656,427.4,655.9,426.9,655.9z" transform="matrix(1, 0, 0, 1, 0, -7.105427357601002e-15)"/><path fill="#FFE6CB" d="M500.4,704.7c0,7.4-6.1,12.5-13.6,11.3l-57.8-9c-7.5-1.2-13.6-8.2-13.6-15.7l0,0&#10;&#9;&#9;&#9;&#9;&#9;c0-7.5,6.1-12.6,13.6-11.4l57.8,9.2C494.4,690.3,500.4,697.3,500.4,704.7L500.4,704.7z" transform="matrix(1, 0, 0, 1, 0, -7.105427357601002e-15)"/><path d="M489,719.5c-0.9,0-1.7-0.1-2.6-0.2l-57.8-9c-9.2-1.4-16.4-9.7-16.4-18.9c0-9.4,7.7-16.2,17.4-14.7l57.8,9.2&#10;&#9;&#9;&#9;&#9;&#9;c9.2,1.5,16.4,9.7,16.4,18.8C503.7,713.1,497.4,719.5,489,719.5z M426.9,683c-4.8,0-8.2,3.4-8.2,8.3c0,5.8,4.9,11.5,10.8,12.4&#10;&#9;&#9;&#9;&#9;&#9;l57.8,9c5.5,0.9,9.8-2.8,9.8-8.1c0-5.7-5-11.4-10.8-12.3l-57.8-9.2C428,683.1,427.5,683,426.9,683z" transform="matrix(1, 0, 0, 1, 0, -7.105427357601002e-15)"/><path fill="#FFE6CB" d="M472.2,727.2c0,7.4-6.1,12.6-13.6,11.4l-29.5-4.5c-7.5-1.1-13.6-8.1-13.6-15.6l0,0&#10;&#9;&#9;&#9;&#9;&#9;c0-7.5,6.1-12.6,13.6-11.5l29.5,4.6C466.1,712.8,472.2,719.8,472.2,727.2L472.2,727.2z" transform="matrix(1, 0, 0, 1, 0, -7.105427357601002e-15)"/><path d="M460.7,742.1c-0.8,0-1.7-0.1-2.6-0.2l-29.5-4.5c-9-1.4-16.4-9.8-16.4-18.9c0-9.4,7.7-16.2,17.4-14.7l29.5,4.6&#10;&#9;&#9;&#9;&#9;&#9;c9.2,1.4,16.3,9.7,16.3,18.8C475.5,735.7,469.1,742.1,460.7,742.1z M427,710.1c-4.8,0-8.2,3.5-8.2,8.4c0,5.8,4.9,11.5,10.8,12.4&#10;&#9;&#9;&#9;&#9;&#9;l29.5,4.5c5.6,0.9,9.8-2.9,9.8-8.2c0-5.8-4.9-11.4-10.8-12.3l-29.5-4.6C428,710.2,427.5,710.1,427,710.1z" transform="matrix(1, 0, 0, 1, 0, -7.105427357601002e-15)"/><path fill="#FFE6CB" d="M939.4,648.8c0,7.4,6.1,12.5,13.6,11.2l44.2-7.2c7.5-1.2,13.6-8.3,13.6-15.8l0,0&#10;&#9;&#9;&#9;&#9;&#9;c0-7.5-6.1-12.6-13.6-11.3l-44.2,7.4C945.5,634.3,939.4,641.4,939.4,648.8L939.4,648.8z" transform="matrix(1, 0, 0, 1, 0, -7.105427357601002e-15)"/><path d="M950.7,663.5L950.7,663.5c-8.4,0-14.6-6.3-14.6-14.7c0-9.1,7.2-17.4,16.3-18.9l44.2-7.4c9.6-1.6,17.4,5.2,17.4,14.5&#10;&#9;&#9;&#9;&#9;&#9;c0,9.2-7.2,17.5-16.3,19l-44.2,7.2C952.6,663.4,951.6,663.5,950.7,663.5z M999.4,628.8c-0.6,0-1.1,0-1.7,0.1l-44.2,7.4&#10;&#9;&#9;&#9;&#9;&#9;c-5.9,1-10.8,6.7-10.8,12.5c0,4.8,3.3,8.1,8.1,8.1l0,0c0.6,0,1.1,0,1.7-0.1l44.2-7.2c5.9-1,10.8-6.7,10.8-12.6&#10;&#9;&#9;&#9;&#9;&#9;C1007.5,632.2,1004.2,628.8,999.4,628.8z" transform="matrix(1, 0, 0, 1, 0, -7.105427357601002e-15)"/><path fill="#FFE6CB" d="M911,680.3c0,7.4,6.1,12.4,13.6,11.2l72.6-11.6c7.5-1.2,13.6-8.2,13.6-15.7l0,0&#10;&#9;&#9;&#9;&#9;&#9;c0-7.5-6.1-12.6-13.6-11.4l-72.6,11.8C917,665.9,911,672.9,911,680.3L911,680.3z" transform="matrix(1, 0, 0, 1, 0, -7.105427357601002e-15)"/><path d="M922.3,694.9c-8.4,0-14.7-6.3-14.7-14.7c0-9.1,7.2-17.3,16.3-18.8l72.6-11.8c9.6-1.6,17.4,5.2,17.4,14.6&#10;&#9;&#9;&#9;&#9;&#9;c0,9.2-7.2,17.5-16.3,19l-72.6,11.6C924.1,694.9,923.2,694.9,922.3,694.9z M999.4,655.9c-0.5,0-1.1,0-1.7,0.1l-72.6,11.8&#10;&#9;&#9;&#9;&#9;&#9;c-5.9,1-10.8,6.6-10.8,12.4c0,5.3,4.2,8.9,9.8,8l72.6-11.6c5.9-0.9,10.8-6.7,10.8-12.5C1007.5,659.3,1004.1,655.9,999.4,655.9z" transform="matrix(1, 0, 0, 1, 0, -7.105427357601002e-15)"/><path fill="#FFE6CB" d="M925.8,704.7c0,7.4,6.1,12.5,13.6,11.3l57.8-9c7.5-1.2,13.6-8.2,13.6-15.7l0,0c0-7.5-6.1-12.6-13.6-11.4&#10;&#9;&#9;&#9;&#9;&#9;l-57.8,9.2C931.9,690.3,925.8,697.3,925.8,704.7L925.8,704.7z" transform="matrix(1, 0, 0, 1, 0, -7.105427357601002e-15)"/><path d="M937.3,719.5c-8.4,0-14.7-6.3-14.7-14.8c0-9.1,7.2-17.4,16.3-18.8l57.8-9.2c9.7-1.5,17.4,5.3,17.4,14.7&#10;&#9;&#9;&#9;&#9;&#9;c0,9.2-7.2,17.5-16.3,18.9l-57.8,9C939,719.4,938.1,719.5,937.3,719.5z M999.3,683c-0.5,0-1.1,0-1.6,0.1l-57.8,9.2&#10;&#9;&#9;&#9;&#9;&#9;c-5.9,0.9-10.8,6.6-10.8,12.3c0,5.4,4.2,8.9,9.8,8.1l57.8-9c5.9-0.9,10.8-6.6,10.8-12.4C1007.5,686.5,1004.1,683,999.3,683z" transform="matrix(1, 0, 0, 1, 0, -7.105427357601002e-15)"/><path fill="#FFE6CB" d="M954.1,727.2c0,7.4,6.1,12.6,13.6,11.4l29.5-4.5c7.5-1.1,13.6-8.1,13.6-15.6l0,0&#10;&#9;&#9;&#9;&#9;&#9;c0-7.5-6.1-12.6-13.6-11.5l-29.5,4.6C960.1,712.8,954.1,719.8,954.1,727.2L954.1,727.2z" transform="matrix(1, 0, 0, 1, 0, -7.105427357601002e-15)"/><path d="M965.6,742.1L965.6,742.1c-8.4,0-14.8-6.4-14.8-14.9c0-9.1,7.2-17.4,16.4-18.8l29.5-4.6c9.7-1.5,17.4,5.3,17.4,14.7&#10;&#9;&#9;&#9;&#9;&#9;c0,9.1-7.3,17.5-16.4,18.9l-29.5,4.5C967.3,742,966.4,742.1,965.6,742.1z M999.3,710.1c-0.5,0-1.1,0-1.6,0.1l-29.5,4.6&#10;&#9;&#9;&#9;&#9;&#9;c-5.9,0.9-10.8,6.6-10.8,12.3c0,4.8,3.5,8.3,8.2,8.3l0,0c0.5,0,1,0,1.6-0.1l29.5-4.5c5.9-0.9,10.8-6.6,10.8-12.4&#10;&#9;&#9;&#9;&#9;&#9;C1007.5,713.7,1004,710.1,999.3,710.1z" transform="matrix(1, 0, 0, 1, 0, -7.105427357601002e-15)"/><path d="M 443.79998779296875 738.7999877929688 L 204.5 738.7999877929688 L 182.6999969482422 748 L 160.1999969482422 785.5 L 163.89999389648438 820.7000122070312 L 177.8000030517578 854.7999877929688 L 211 867.9000244140625 L 443.79998779296875 867.9000244140625 Z" fill="#F1F2F2" transform="matrix(1, 0, 0, 1, 0, -7.105427357601002e-15)"/><path fill="#BCBEC0" d="M1326.4,805.6c0-12.4-10.1-22.5-22.5-22.5h-207.2c-12.4,0-22.5,10.1-22.5,22.5l0,0&#10;&#9;&#9;&#9;c0,12.4,10.1,22.5,22.5,22.5h207.2C1316.3,828.1,1326.4,818,1326.4,805.6L1326.4,805.6z" transform="matrix(1, 0, 0, 1, 0, -7.105427357601002e-15)"/><path d="M1303.9,831.4h-207.2c-14.2,0-25.8-11.6-25.8-25.8c0-14.2,11.6-25.8,25.8-25.8h207.2c14.2,0,25.8,11.6,25.8,25.8&#10;&#9;&#9;&#9;C1329.7,819.8,1318.1,831.4,1303.9,831.4z M1096.7,786.4c-10.6,0-19.2,8.6-19.2,19.2c0,10.6,8.6,19.2,19.2,19.2h207.2&#10;&#9;&#9;&#9;c10.6,0,19.2-8.6,19.2-19.2c0-10.6-8.6-19.2-19.2-19.2H1096.7z" transform="matrix(1, 0, 0, 1, 0, -7.105427357601002e-15)"/><path fill="#FF766A" d="M1292.9,783.1v-10.9c0-36.1-29.3-65.4-65.4-65.4h-54.5c-36.1,0-65.3,29.3-65.3,65.4v10.9H1292.9z" transform="matrix(1, 0, 0, 1, 0, -7.105427357601002e-15)"/><path d="M1292.9,786.4h-185.2c-1.8,0-3.3-1.5-3.3-3.3v-10.9c0-37.8,30.8-68.6,68.6-68.6h54.5c37.8,0,68.6,30.8,68.6,68.6v10.9&#10;&#9;&#9;&#9;C1296.2,784.9,1294.7,786.4,1292.9,786.4z M1111,779.8h178.6v-7.6c0-34.2-27.8-62.1-62.1-62.1h-54.5c-34.2,0-62.1,27.8-62.1,62.1&#10;&#9;&#9;&#9;V779.8z" transform="matrix(1, 0, 0, 1, 0, -7.105427357601002e-15)"/><path d="M1200.3,710.1c-0.2,0-0.3,0-0.5,0c-1.8-0.3-3-1.9-2.8-3.7l35.2-240.2l-55.6-235.7c-0.4-1.8,0.7-3.5,2.4-3.9&#10;&#9;&#9;&#9;c1.8-0.4,3.5,0.7,3.9,2.4l55.8,236.4c0.1,0.4,0.1,0.8,0.1,1.2l-35.3,240.8C1203.3,709,1201.9,710.1,1200.3,710.1z" transform="matrix(1, 0, 0, 1, 0, -7.105427357601002e-15)"/><path d="M 1264.999975 466 A 29.4 29.4 0 0 1 1235.599976 495.4 A 29.4 29.4 0 0 1 1206.199976 466 A 29.4 29.4 0 0 1 1235.599976 436.6 A 29.4 29.4 0 0 1 1264.999975 466 Z" fill="#BCBEC0" transform="matrix(1, 0, 0, 1, 0, -7.105427357601002e-15)"/><path d="M1235.6,498.7c-18,0-32.7-14.7-32.7-32.7s14.7-32.7,32.7-32.7s32.7,14.7,32.7,32.7S1253.6,498.7,1235.6,498.7z&#10;&#9;&#9;&#9; M1235.6,439.9c-14.4,0-26.1,11.7-26.1,26.1s11.7,26.1,26.1,26.1c14.4,0,26.1-11.7,26.1-26.1S1250,439.9,1235.6,439.9z" transform="matrix(1, 0, 0, 1, 0, -7.105427357601002e-15)"/><path fill="#BCBEC0" d="M1222.5,273.6c0,17.8-14.5,32.3-32.3,32.3s-32.3-14.5-32.3-32.3s14.5-32.3,32.3-32.3&#10;&#9;&#9;&#9;S1222.5,255.7,1222.5,273.6z" transform="matrix(1, 0, 0, 1, 0, -7.105427357601002e-15)"/><path d="M1190.2,309.2c-19.6,0-35.6-16-35.6-35.6c0-19.6,16-35.6,35.6-35.6c19.6,0,35.6,16,35.6,35.6&#10;&#9;&#9;&#9;C1225.8,293.2,1209.8,309.2,1190.2,309.2z M1190.2,244.6c-16,0-29,13-29,29c0,16,13,29,29,29c16,0,29-13,29-29&#10;&#9;&#9;&#9;C1219.2,257.6,1206.2,244.6,1190.2,244.6z" transform="matrix(1, 0, 0, 1, 0, -7.105427357601002e-15)"/><g transform="matrix(1, 0, 0, 1, 0, -7.105427357601002e-15)">
			<path fill="#FFF09E" d="M1103.7,244.6c8.4,26.3-6,54.5-32.4,63c-26.3,8.5-54.6-6.1-63-32.4s6.1-54.6,32.4-63&#10;&#9;&#9;&#9;&#9;C1067,203.7,1095.2,218.3,1103.7,244.6z"/>
			<path d="M1056,313.3c-23.3,0-43.7-14.9-50.8-37.1c-9-28,6.5-58.1,34.5-67.1c5.3-1.7,10.8-2.6,16.3-2.6&#10;&#9;&#9;&#9;&#9;c23.3,0,43.7,14.9,50.8,37.1c9,28-6.5,58.1-34.5,67.1C1067,312.4,1061.5,313.3,1056,313.3z M1056,213.1c-4.8,0-9.6,0.8-14.3,2.2&#10;&#9;&#9;&#9;&#9;c-24.6,7.9-38.2,34.3-30.3,58.9c6.2,19.5,24.1,32.5,44.6,32.5c4.8,0,9.7-0.8,14.3-2.3c24.6-7.9,38.1-34.3,30.3-58.9&#10;&#9;&#9;&#9;&#9;C1094.3,226.1,1076.4,213.1,1056,213.1z"/>
		</g><path fill="#FF766A" d="M1230.5,150.2l-94.4,30.3l31.3,97.4l94.4-30.3c21.5-6.9,33.4-30,26.5-51.5l-6.2-19.5&#10;&#9;&#9;&#9;&#9;C1275,155.1,1252,143.3,1230.5,150.2z" transform="matrix(1, 0, 0, 1, 0, -7.105427357601002e-15)"/><path d="M1167.3,281.2c-0.5,0-1-0.1-1.5-0.4c-0.8-0.4-1.4-1.1-1.6-1.9l-31.3-97.4c-0.6-1.7,0.4-3.6,2.1-4.1l94.4-30.3&#10;&#9;&#9;&#9;&#9;c4.4-1.4,8.9-2.1,13.5-2.1c19.3,0,36.2,12.3,42.1,30.7l6.2,19.5c3.6,11.2,2.6,23.2-2.8,33.7c-5.4,10.5-14.6,18.3-25.8,21.9&#10;&#9;&#9;&#9;&#9;l-94.4,30.3C1168,281.1,1167.6,281.2,1167.3,281.2z M1140.2,182.6l29.3,91.2l91.3-29.3c9.6-3.1,17.4-9.7,22-18.6&#10;&#9;&#9;&#9;&#9;c4.6-8.9,5.4-19.1,2.4-28.7l-6.2-19.5c-5-15.6-19.4-26.2-35.8-26.2c-3.9,0-7.8,0.6-11.5,1.8L1140.2,182.6z" transform="matrix(1, 0, 0, 1, 0, -7.105427357601002e-15)"/><path fill="#F1F2F2" d="M1055.9,140.9l-43.7,14l69.2,215.8l43.7-14c38.7-12.4,59.9-53.8,47.5-92.4l-24.3-75.8&#10;&#9;&#9;&#9;&#9;C1136,149.8,1094.6,128.5,1055.9,140.9z" transform="matrix(1, 0, 0, 1, 0, -7.105427357601002e-15)"/><path d="M1081.4,374c-1.4,0-2.7-0.9-3.1-2.3L1009.1,156c-0.6-1.7,0.4-3.6,2.1-4.1l43.7-14c7.6-2.4,15.5-3.7,23.5-3.7&#10;&#9;&#9;&#9;&#9;c33.5,0,62.9,21.4,73.1,53.3l24.3,75.8c6.3,19.5,4.6,40.3-4.8,58.6c-9.4,18.2-25.3,31.7-44.8,38l-43.7,14&#10;&#9;&#9;&#9;&#9;C1082.1,374,1081.8,374,1081.4,374z M1016.3,157.1l67.2,209.5l40.6-13c17.9-5.7,32.4-18.1,41-34.8c8.6-16.7,10.1-35.7,4.4-53.6&#10;&#9;&#9;&#9;&#9;l-24.3-75.8c-9.4-29.2-36.2-48.8-66.8-48.8c-7.3,0-14.5,1.1-21.5,3.4L1016.3,157.1z" transform="matrix(1, 0, 0, 1, 0, -7.105427357601002e-15)"/><path d="M1290.2,867.4h-132.3c-1.8,0-3.3-1.5-3.3-3.3s1.5-3.3,3.3-3.3h132.3c1.8,0,3.3,1.5,3.3,3.3S1292,867.4,1290.2,867.4z" transform="matrix(1, 0, 0, 1, 0, -7.105427357601002e-15)"/><path d="M1094.2,867.4H919.5c-1.8,0-3.3-1.5-3.3-3.3s1.5-3.3,3.3-3.3h174.7c1.8,0,3.3,1.5,3.3,3.3S1096,867.4,1094.2,867.4z" transform="matrix(1, 0, 0, 1, 0, -7.105427357601002e-15)"/><path d="M446.3,357.7H98.7c-1.8,0-3.3-1.5-3.3-3.3c0-1.8,1.5-3.3,3.3-3.3h347.6c1.8,0,3.3,1.5,3.3,3.3&#10;&#9;&#9;&#9;C449.5,356.2,448.1,357.7,446.3,357.7z" transform="matrix(1, 0, 0, 1, 0, -7.105427357601002e-15)"/><path d="M 144.100006 126.900002 H 206.400005 V 354.400002 H 144.100006 V 126.900002 Z" fill="#BCBEC0" transform="matrix(1, 0, 0, 1, 0, -7.105427357601002e-15)"/><path d="M206.4,357.7h-62.3c-1.8,0-3.3-1.5-3.3-3.3V126.9c0-1.8,1.5-3.3,3.3-3.3h62.3c1.8,0,3.3,1.5,3.3,3.3v227.5&#10;&#9;&#9;&#9;C209.7,356.2,208.2,357.7,206.4,357.7z M147.3,351.1h55.8v-221h-55.8V351.1z" transform="matrix(1, 0, 0, 1, 0, -7.105427357601002e-15)"/><path d="M 249.100006 105.800003 H 317.200005 V 354.400009 H 249.100006 V 105.800003 Z" fill="#397BA4" transform="matrix(1, 0, 0, 1, 0, -7.105427357601002e-15)"/><path d="M317.2,357.7h-68.1c-1.8,0-3.3-1.5-3.3-3.3V105.8c0-1.8,1.5-3.3,3.3-3.3h68.1c1.8,0,3.3,1.5,3.3,3.3v248.6&#10;&#9;&#9;&#9;C320.4,356.2,319,357.7,317.2,357.7z M252.3,351.1h61.5v-242h-61.5V351.1z" transform="matrix(1, 0, 0, 1, 0, -7.105427357601002e-15)"/><path d="M 317.200012 105.800003 H 385.300011 V 354.400009 H 317.200012 V 105.800003 Z" fill="#FF766A" transform="matrix(1, 0, 0, 1, 0, -7.105427357601002e-15)"/><path d="M385.3,357.7h-68.1c-1.8,0-3.3-1.5-3.3-3.3V105.8c0-1.8,1.5-3.3,3.3-3.3h68.1c1.8,0,3.3,1.5,3.3,3.3v248.6&#10;&#9;&#9;&#9;C388.6,356.2,387.1,357.7,385.3,357.7z M320.4,351.1H382v-242h-61.5V351.1z" transform="matrix(1, 0, 0, 1, 0, -7.105427357601002e-15)"/><path d="M 206.399994 158.600006 H 249.099995 V 354.400009 H 206.399994 V 158.600006 Z" fill="#FFF09E" transform="matrix(1, 0, 0, 1, 0, -7.105427357601002e-15)"/><path d="M249.1,357.7h-42.7c-1.8,0-3.3-1.5-3.3-3.3V158.6c0-1.8,1.5-3.3,3.3-3.3h42.7c1.8,0,3.3,1.5,3.3,3.3v195.8&#10;&#9;&#9;&#9;C252.3,356.2,250.9,357.7,249.1,357.7z M209.7,351.1h36.1V161.9h-36.1V351.1z" transform="matrix(1, 0, 0, 1, 0, -7.105427357601002e-15)"/><path d="M365.5,147.7h-28.6c-1.8,0-3.3-1.5-3.3-3.3c0-1.8,1.5-3.3,3.3-3.3h28.6c1.8,0,3.3,1.5,3.3,3.3&#10;&#9;&#9;&#9;C368.8,146.2,367.4,147.7,365.5,147.7z" transform="matrix(1, 0, 0, 1, 0, -7.105427357601002e-15)"/><path d="M365.5,177.7h-28.6c-1.8,0-3.3-1.5-3.3-3.3c0-1.8,1.5-3.3,3.3-3.3h28.6c1.8,0,3.3,1.5,3.3,3.3&#10;&#9;&#9;&#9;C368.8,176.3,367.4,177.7,365.5,177.7z" transform="matrix(1, 0, 0, 1, 0, -7.105427357601002e-15)"/><path d="M365.5,207.8h-28.6c-1.8,0-3.3-1.5-3.3-3.3s1.5-3.3,3.3-3.3h28.6c1.8,0,3.3,1.5,3.3,3.3S367.4,207.8,365.5,207.8z" transform="matrix(1, 0, 0, 1, 0, -7.105427357601002e-15)"/><path d="M 266.200012 192.5 H 300.100014 V 354.399994 H 266.200012 V 192.5 Z" fill="#F1F2F2" transform="matrix(1, 0, 0, 1, 0, -7.105427357601002e-15)"/><path d="M300.1,357.7h-33.9c-1.8,0-3.3-1.5-3.3-3.3V192.5c0-1.8,1.5-3.3,3.3-3.3h33.9c1.8,0,3.3,1.5,3.3,3.3v161.9&#10;&#9;&#9;&#9;C303.3,356.2,301.9,357.7,300.1,357.7z M269.4,351.1h27.3V195.8h-27.3V351.1z" transform="matrix(1, 0, 0, 1, 0, -7.105427357601002e-15)"/><path d="M227.7,309.5c-1.8,0-3.3-1.5-3.3-3.3v-99.5c0-1.8,1.5-3.3,3.3-3.3c1.8,0,3.3,1.5,3.3,3.3v99.5&#10;&#9;&#9;&#9;C231,308.1,229.5,309.5,227.7,309.5z" transform="matrix(1, 0, 0, 1, 0, -7.105427357601002e-15)"/><path fill="#F1F2F2" d="M190.5,181.6c0,8.5-6.9,15.3-15.3,15.3c-8.5,0-15.3-6.9-15.3-15.3s6.9-15.3,15.3-15.3&#10;&#9;&#9;&#9;C183.7,166.3,190.5,173.1,190.5,181.6z" transform="matrix(1, 0, 0, 1, 0, -7.105427357601002e-15)"/><path d="M175.2,200.2c-10.3,0-18.6-8.3-18.6-18.6c0-10.3,8.3-18.6,18.6-18.6c10.2,0,18.6,8.3,18.6,18.6&#10;&#9;&#9;&#9;C193.8,191.8,185.5,200.2,175.2,200.2z M175.2,169.5c-6.6,0-12,5.4-12,12c0,6.6,5.4,12,12,12c6.6,0,12-5.4,12-12&#10;&#9;&#9;&#9;C187.2,174.9,181.9,169.5,175.2,169.5z" transform="matrix(1, 0, 0, 1, 0, -7.105427357601002e-15)"/><g transform="matrix(1, 0, 0, 1, 0, -7.105427357601002e-15)">
			<path d="M148.7,647.1c-25.3,0-45.8-20.6-45.8-45.8V457.1c0-25.3,20.6-45.8,45.8-45.8s45.8,20.6,45.8,45.8v144.2&#10;&#9;&#9;&#9;&#9;C194.5,626.5,174,647.1,148.7,647.1z M148.7,417.8c-21.6,0-39.3,17.6-39.3,39.3v144.2c0,21.7,17.6,39.3,39.3,39.3&#10;&#9;&#9;&#9;&#9;s39.3-17.6,39.3-39.3V457.1C188,435.4,170.4,417.8,148.7,417.8z"/>
		</g><path d="M306.7,647.1c-25.3,0-45.8-20.6-45.8-45.8V457.1c0-25.3,20.6-45.8,45.8-45.8c25.3,0,45.8,20.6,45.8,45.8v144.2&#10;&#9;&#9;&#9;&#9;C352.6,626.5,332,647.1,306.7,647.1z M306.7,417.8c-21.7,0-39.3,17.6-39.3,39.3v144.2c0,21.7,17.6,39.3,39.3,39.3&#10;&#9;&#9;&#9;&#9;c21.6,0,39.3-17.6,39.3-39.3V457.1C346,435.4,328.4,417.8,306.7,417.8z" transform="matrix(1, 0, 0, 1, 0, -7.105427357601002e-15)"/><path fill="#BCBEC0" d="M313.4,584.2v-70.3c0-31.3-25.4-56.7-56.7-56.7h-61.5c-31.3,0-56.7,25.4-56.7,56.7v70.3H313.4z" transform="matrix(1, 0, 0, 1, 0, -7.105427357601002e-15)"/><path d="M313.4,587.5H138.5c-1.8,0-3.3-1.5-3.3-3.3v-70.3c0-33.1,26.9-60,60-60h61.5c33.1,0,60,26.9,60,60v70.3&#10;&#9;&#9;&#9;&#9;C316.7,586.1,315.2,587.5,313.4,587.5z M141.8,581h168.3v-67c0-29.5-24-53.4-53.4-53.4h-61.5c-29.5,0-53.4,24-53.4,53.4V581z" transform="matrix(1, 0, 0, 1, 0, -7.105427357601002e-15)"/><path fill="#BE7F59" d="M138.5,584.2l-25.3,90.7c0,40.4,32.7,73.1,73.1,73.1h79.2c40.4,0,73.1-32.7,73.1-73.1l-25.3-90.7H138.5z" transform="matrix(1, 0, 0, 1, 0, -7.105427357601002e-15)"/><path d="M265.6,751.3h-79.2c-42.1,0-76.4-34.3-76.4-76.4c0-0.3,0-0.6,0.1-0.9l25.3-90.7c0.4-1.4,1.7-2.4,3.2-2.4h174.9&#10;&#9;&#9;&#9;&#9;c1.5,0,2.8,1,3.2,2.4l25.3,90.7c0.1,0.3,0.1,0.6,0.1,0.9C342,717,307.7,751.3,265.6,751.3z M116.5,675.3&#10;&#9;&#9;&#9;&#9;c0.2,38.3,31.5,69.4,69.8,69.4h79.2c38.4,0,69.6-31.1,69.8-69.4l-24.5-87.8H141L116.5,675.3z" transform="matrix(1, 0, 0, 1, 0, -7.105427357601002e-15)"/><path d="M 243.3000030517578 629.0999755859375 L 227.1999969482422 645.7000122070312 L 211 629.0999755859375 L 211 584.2000122070312 L 243.3000030517578 584.2000122070312 Z" fill="#FFFFFF" transform="matrix(1, 0, 0, 1, 0, -7.105427357601002e-15)"/><path d="M227.2,649c-0.9,0-1.7-0.4-2.3-1l-16.2-16.5c-0.6-0.6-0.9-1.4-0.9-2.3v-44.9c0-1.8,1.5-3.3,3.3-3.3h32.3&#10;&#9;&#9;&#9;&#9;c1.8,0,3.3,1.5,3.3,3.3v44.9c0,0.9-0.3,1.7-0.9,2.3L229.5,648C228.9,648.6,228.1,649,227.2,649z M214.3,627.8l12.9,13.2&#10;&#9;&#9;&#9;&#9;l12.9-13.2v-40.3h-25.8V627.8z" transform="matrix(1, 0, 0, 1, 0, -7.105427357601002e-15)"/><path d="M 201.600006 546.700012 H 252.800007 V 565.700012 H 201.600006 V 546.700012 Z" fill="#FFFFFF" transform="matrix(1, 0, 0, 1, 0, -7.105427357601002e-15)"/><path d="M252.8,569h-51.2c-1.8,0-3.3-1.5-3.3-3.3v-19c0-1.8,1.5-3.3,3.3-3.3h51.2c1.8,0,3.3,1.5,3.3,3.3v19&#10;&#9;&#9;&#9;&#9;C256.1,567.5,254.6,569,252.8,569z M204.8,562.5h44.6V550h-44.6V562.5z" transform="matrix(1, 0, 0, 1, 0, -7.105427357601002e-15)"/><path d="M 1062.800049 432.899994 H 1119.100048 V 489.199993 H 1062.800049 V 432.899994 Z" fill="#F1F2F2" transform="matrix(1, 0, 0, 1, 0, -7.105427357601002e-15)"/><path d="M1119.1,492.5h-56.3c-1.8,0-3.3-1.5-3.3-3.3v-56.3c0-1.8,1.5-3.3,3.3-3.3h56.3c1.8,0,3.3,1.5,3.3,3.3v56.3&#10;&#9;&#9;&#9;C1122.4,491,1120.9,492.5,1119.1,492.5z M1066.1,485.9h49.7v-49.8h-49.7V485.9z" transform="matrix(1, 0, 0, 1, 0, -7.105427357601002e-15)"/><path d="M 1062.800049 523.099976 H 1119.100048 V 579.399975 H 1062.800049 V 523.099976 Z" fill="#397BA4" transform="matrix(1, 0, 0, 1, 0, -7.105427357601002e-15)"/><path d="M1119.1,582.7h-56.3c-1.8,0-3.3-1.5-3.3-3.3v-56.3c0-1.8,1.5-3.3,3.3-3.3h56.3c1.8,0,3.3,1.5,3.3,3.3v56.3&#10;&#9;&#9;&#9;C1122.4,581.2,1120.9,582.7,1119.1,582.7z M1066.1,576.1h49.7v-49.8h-49.7V576.1z" transform="matrix(1, 0, 0, 1, 0, -7.105427357601002e-15)"/><path d="M 1062.800049 613.299988 H 1119.100048 V 669.599987 H 1062.800049 V 613.299988 Z" fill="#FF766A" transform="matrix(1, 0, 0, 1, 0, -7.105427357601002e-15)"/><path d="M1119.1,672.9h-56.3c-1.8,0-3.3-1.5-3.3-3.3v-56.3c0-1.8,1.5-3.3,3.3-3.3h56.3c1.8,0,3.3,1.5,3.3,3.3v56.3&#10;&#9;&#9;&#9;C1122.4,671.4,1120.9,672.9,1119.1,672.9z M1066.1,666.3h49.7v-49.8h-49.7V666.3z" transform="matrix(1, 0, 0, 1, 0, -7.105427357601002e-15)"/><g transform="matrix(1, 0, 0, 1, 0, -7.105427357601002e-15)">
			<g>
				<path fill="#FF766A" d="M471,881.1H210.3c-32.4,0-58.7-26.3-58.7-58.7v-37c0-32.4,26.3-58.7,58.7-58.7H471&#10;&#9;&#9;&#9;&#9;&#9;c6.5,0,11.7,5.2,11.7,11.7s-5.3,11.7-11.7,11.7H210.3c-19.4,0-35.2,15.8-35.2,35.2v37c0,19.4,15.8,35.2,35.2,35.2H471&#10;&#9;&#9;&#9;&#9;&#9;c6.5,0,11.7,5.3,11.7,11.7C482.8,875.8,477.5,881.1,471,881.1z"/>
				<path d="M471,884.3H210.3c-34.2,0-62-27.8-62-61.9v-37c0-34.2,27.8-61.9,62-61.9H471c8.3,0,15,6.7,15,15s-6.7,15-15,15H210.3&#10;&#9;&#9;&#9;&#9;&#9;c-17.6,0-31.9,14.3-31.9,31.9v37c0,17.6,14.3,31.9,31.9,31.9H471c8.3,0,15,6.7,15,15C486,877.6,479.3,884.3,471,884.3z&#10;&#9;&#9;&#9;&#9;&#9; M210.3,730c-30.5,0-55.4,24.8-55.4,55.4v37c0,30.5,24.9,55.4,55.4,55.4H471c4.7,0,8.5-3.8,8.5-8.4c0-4.7-3.8-8.5-8.5-8.5H210.3&#10;&#9;&#9;&#9;&#9;&#9;c-21.2,0-38.5-17.3-38.5-38.5v-37c0-21.2,17.3-38.5,38.5-38.5H471c4.7,0,8.5-3.8,8.5-8.4s-3.8-8.4-8.5-8.4H210.3z"/>
			</g>
		</g><path d="M 191.699997 778 L 456.700012 778" fill="#FFFFFF" transform="matrix(1, 0, 0, 1, 0, -7.105427357601002e-15)"/><path d="M456.7,781.3h-265c-1.8,0-3.3-1.5-3.3-3.3s1.5-3.3,3.3-3.3h265c1.8,0,3.3,1.5,3.3,3.3S458.5,781.3,456.7,781.3z" transform="matrix(1, 0, 0, 1, 0, -7.105427357601002e-15)"/><path d="M 191.699997 829.799988 L 456.700012 829.799988" fill="#FFFFFF" transform="matrix(1, 0, 0, 1, 0, -7.105427357601002e-15)"/><path d="M456.7,833.1h-265c-1.8,0-3.3-1.5-3.3-3.3c0-1.8,1.5-3.3,3.3-3.3h265c1.8,0,3.3,1.5,3.3,3.3&#10;&#9;&#9;&#9;&#9;C460,831.6,458.5,833.1,456.7,833.1z" transform="matrix(1, 0, 0, 1, 0, -7.105427357601002e-15)"/><path d="M 191.699997 803.900024 L 277.700012 803.900024" fill="#FFFFFF" transform="matrix(1, 0, 0, 1, 0, -7.105427357601002e-15)"/><path d="M277.7,807.2h-86.1c-1.8,0-3.3-1.5-3.3-3.3c0-1.8,1.5-3.3,3.3-3.3h86.1c1.8,0,3.3,1.5,3.3,3.3&#10;&#9;&#9;&#9;&#9;C281,805.7,279.5,807.2,277.7,807.2z" transform="matrix(1, 0, 0, 1, 0, -7.105427357601002e-15)"/><path d="M 311.899994 803.900024 L 399 803.900024" fill="#FFFFFF" transform="matrix(1, 0, 0, 1, 0, -7.105427357601002e-15)"/><path d="M399,807.2h-87c-1.8,0-3.3-1.5-3.3-3.3c0-1.8,1.5-3.3,3.3-3.3h87c1.8,0,3.3,1.5,3.3,3.3&#10;&#9;&#9;&#9;&#9;C402.3,805.7,400.8,807.2,399,807.2z" transform="matrix(1, 0, 0, 1, 0, -7.105427357601002e-15)"/><path d="M1326.4,663.5h-82.6c-1.8,0-3.3-1.5-3.3-3.3c0-1.8,1.5-3.3,3.3-3.3h82.6c1.8,0,3.3,1.5,3.3,3.3&#10;&#9;&#9;&#9;C1329.7,662,1328.2,663.5,1326.4,663.5z" transform="matrix(1, 0, 0, 1, 0, -7.105427357601002e-15)"/><path d="M1326.4,599.6h-41.3c-1.8,0-3.3-1.5-3.3-3.3c0-1.8,1.5-3.3,3.3-3.3h41.3c1.8,0,3.3,1.5,3.3,3.3&#10;&#9;&#9;&#9;C1329.7,598.1,1328.2,599.6,1326.4,599.6z" transform="matrix(1, 0, 0, 1, 0, -7.105427357601002e-15)"/>
<g transform="matrix(1, 0, 0, 1, 0, -7.105427357601002e-15)">
		<g>
			<path d="M 0 0 H 1400 V 980 H 0 V 0 Z" fill="#FFFFFF" style="fill-opacity: 0;"/>
		</g>
	</g></svg>