<?xml version="1.0" encoding="utf-8"?>
<svg id="master-artboard" viewBox="0 0 1400 980" version="1.1" xmlns="http://www.w3.org/2000/svg" x="0px" y="0px" width="1400px" height="980px" enable-background="new 0 0 1400 980">








<path id="XMLID_798_" fill="#220F0F" d="M837.6,586c-2.7-10.5-1.7-20,3.6-28.9c4.4-7.2,11.3-9.6,19.1-10c2.6-0.1,4.5,1.3,6.1,3.4&#10;&#9;&#9;c5.6,7.4,11.9,14,19.2,19.8c2.7,2.1,5.5,4.3,8.9,5.1c4.5,1.2,8.4,3.5,11.8,6.4c4.2,3.6,9.1,5,14.4,5.8c6.6,0.9,13.1,2.4,19.2,5.1&#10;&#9;&#9;c14.2,6.2,22.7,17.6,28.2,31.5c5.9,15.1,8.1,31,9.5,47c1.9,22.5,1.3,45,1,67.6c-0.1,11.6-0.6,23.3-1.6,34.9c-0.3,3.3-2,4.7-4.5,5.7&#10;&#9;&#9;c-24.9,10.1-51.2,15.2-77.5,20.1c-21.4,4.1-43.1,5.2-64.8,6.5c-13.2,0.8-25.1-1.7-36.5-8c-3-1.7-5.9-3.7-8.1-6.3&#10;&#9;&#9;c-2.8-3.3-6.5-4.1-10.3-5.2c-8.7-2.3-17.9-2.2-26.3-6.2c-9.1-4.3-11.4-9.1-8.2-18.6c3-8.9,8.5-16.5,13.3-24.4&#10;&#9;&#9;c2.5-4.1,5-8.1,7.3-12.3c5.4-9.3,5.7-19.7,5.9-30c0.3-14.7-1.3-29.2-2.9-43.8c-1.1-10-1.8-20.1-2.9-30.1&#10;&#9;&#9;c-0.6-5.2-1.8-10.2-2.3-15.4c-0.9-11-0.9-21.9,3.6-32.3c2.1-4.7,5-8.9,9-12.2c6.8-5.7,13.4-6.4,21.2-2.3c5.8,3,10.9,7,15.4,11.5&#10;&#9;&#9;C816.5,578.5,826.9,581.7,837.6,586z M970.7,734.9c0.7-11.5,0.7-23.1,0.5-34.6c0.1-4,0.4-8.1-0.4-12c0.4-1.3,0.1-2.7-0.1-4&#10;&#9;&#9;c0.2-9-0.9-17.9-2-26.8c-1.5-12.1-4-24-9-35.2c-3.1-6.9-7.1-13-14.1-16.6c-1.9-1-4.3-0.4-5.9-2.1c-8.1-2.6-16.5-2.6-24.9-1.9&#10;&#9;&#9;c-1.3,0-2.7,0.1-4,0.1c-0.6,0-1.3,0.1-1.9,0.1c-1-0.2-1.9,0-2.7,0.4c-0.7,0-1.3,0.1-2,0.1c-7.4,0.7-14.8,1.6-22,3.9&#10;&#9;&#9;c-3.1,0.4-5.9,1.3-8.7,2.6c-6.8,1.9-12.9,5.2-18.6,9.3c-13.5,10-20.2,24.1-24,39.9c-4.8,20.1-5.8,40.6-6.5,61.1&#10;&#9;&#9;c-0.8,25.5-0.4,51.1-0.1,76.6c0.1,5.4,0.4,5.9,5.9,5.6c6.5-0.3,13.1-0.8,19.6-1.3c12-1,24-2.3,36-4.2c18.4-2.9,36.5-7.3,54.5-11.7&#10;&#9;&#9;c8.7-2.2,17.4-4.3,25.6-7.9c1.1-0.5,2.8-0.6,2.3-2.6c0.8-0.5,1.2-1.2,1.2-2.2c0.3-7.1,0.6-14.1,0.9-21.2c0.1-1.6,0.2-3.1,0.2-4.7&#10;&#9;&#9;c0-1.1,0-2.3,0.1-3.4c0-1.6,0-3.1,0-4.7c0-0.7,0-1.3,0-2C970.8,735.3,970.8,735.1,970.7,734.9z M746.1,768.1&#10;&#9;&#9;c-0.2,1.8,0.6,3,1.9,4.1c2.2,1.8,4.7,2.8,7.3,3.8c6.6,2.5,13.9,2.8,20.4,5.7c1.7,0.7,1.8-0.6,1.9-1.8c0.2-2.7,0.4-5.3,0.5-8&#10;&#9;&#9;c0.3-14.2,0.1-28.4-0.4-42.6c-0.8-22.3-0.4-44.6,3.8-66.6c2.9-15.1,7.3-29.7,15.1-43.1c0.5-0.9,0.9-1.5,0.2-2.6&#10;&#9;&#9;c-5.1-7.6-10.1-15.4-15.3-22.9c-3.2-4.6-7.2-8.5-13-9.6c-2.2-0.4-3.6,0.1-4.1,2.5c-1.4,5.9-2.2,11.9-1.3,18&#10;&#9;&#9;c2.7,18,5.9,35.9,8.2,53.9c2,16.1,3.6,32.2,2.3,48.4c-0.6,7.5-2.3,14.7-6.3,21.2c-4.8,7.9-9.7,15.6-14.4,23.5&#10;&#9;&#9;C749.8,757,747,762.1,746.1,768.1z M919.8,594c-9.4-1.7-19-2.6-28.6-3.3c-5.4-0.4-10.2,0.5-15.2,2.2c-25.2,8.5-44.6,23.8-56.9,47.6&#10;&#9;&#9;c-14.2,27.4-21.8,56.3-18.9,87.5c0.2,1.6,0.8,2.3,2.2,2.8c4.2,1.5,8.3,3.1,12.1,5.4c2.3,1.4,2.6,0.7,2.6-1.7&#10;&#9;&#9;c0.4-22.1,1.1-44.1,4.5-66c2-13,5.6-25.5,12.3-37c9.7-16.8,24.9-25.9,43-31.2C890.7,596.3,905.2,594.9,919.8,594z M865.8,591.1&#10;&#9;&#9;c-6,0-12.3-0.8-18.3,0.2c-13.2,2.1-24.8,7.6-34.2,17.7c-11.9,12.8-18.4,28.3-22.4,45c-5.2,21.5-6.2,43.4-6.1,65.4&#10;&#9;&#9;c0.1,7.9,0,7.9,8.1,9c2.5,0.3,2.9-0.5,2.4-2.7c-2.4-10.1-2.5-20.3-1-30.4c3.1-21.1,9.8-41.1,20.2-59.8&#10;&#9;&#9;c9.8-17.6,23.5-31.3,41.8-40.1C859.6,593.7,863,592.4,865.8,591.1z M817.6,782.4c1.1-12-0.4-23.9-0.4-35.9c0-1.9-0.8-3-2.3-4&#10;&#9;&#9;c-8.3-5.4-17.5-8.5-26.8-11.6c-2.5-0.8-2.7-0.1-2.6,2.1c0.3,16.4,1,32.8-1.3,49.2c-0.2,1.7,0.5,2.7,1.7,3.7&#10;&#9;&#9;c8.4,7.4,18.2,11.6,29.2,13.6c1.8,0.3,2.7,0.1,2.6-2C817.5,792.4,817.6,787.4,817.6,782.4z M830.6,588.8c-1.3-1.2-2.5-1.8-4-1.7&#10;&#9;&#9;c-2.9,0.2-5.4-0.9-7.9-2.3c-3.8-2.1-7.2-4.8-10.5-7.5c-6.1-5-11.8-10.5-18.9-13.9c-4.2-2.1-8.4-1.9-12.2,0.9&#10;&#9;&#9;c-4.6,3.3-7.7,7.9-9.9,13.1c-0.7,1.8-0.1,2.1,1.5,2c3.4-0.1,6.2,1.4,8.9,3.2c3.9,2.7,6.9,6.3,9.4,10.2c4.4,7,8.7,14,13.1,21.2&#10;&#9;&#9;C808.2,603.1,817.6,593.9,830.6,588.8z M896.8,584.4c0-1.2-0.9-1.4-1.5-1.9c-3.5-2.7-7.9-4-11.5-6.7c-8.1-6.1-15.1-13.4-21.1-21.5&#10;&#9;&#9;c-1.1-1.5-2.3-2.1-4.2-1.9c-7.7,1.1-13.6,6.3-15.4,13.7c-0.2,1-0.3,1.6,0.8,2.2c6.1,3.1,10.5,8.2,15,13.1c1.8,2,3.5,2.5,6,2.5&#10;&#9;&#9;c10.2-0.2,20.4-0.3,30.5,1.1C895.9,585,896.7,585.1,896.8,584.4z M854.4,584.2c-3-3.6-5.6-6.7-8.1-9.9c-1-1.2-2.3-1.2-3.6-1.3&#10;&#9;&#9;c-0.9-0.1-1.1,0.6-1.1,1.3c0.1,3.2-0.2,6.4,0.5,9.6c0.3,1.5,1,1.8,2.3,1.6C847.5,585.1,850.7,584.7,854.4,584.2z" transform="matrix(1, 0, 0, 1, -250.4156935348658, -189.3024357686927)"/><path id="XMLID_783_" fill="#F07078" d="M970.7,737.6c0,1.6,0,3.1,0,4.7c-1.4,1.1-2,2.2-0.1,3.4c-0.1,1.6-0.2,3.1-0.2,4.7&#10;&#9;&#9;c-1-1-2-1.9-3-2.9c0-2.3,0.3-4.6-0.5-6.9c-0.4-1.1-0.9-2.7-2.2-2.5c-1.3,0.2-1.1,1.9-1.2,3c-0.4,3.7,1.3,7.1,1.5,10.7&#10;&#9;&#9;c-0.2,1.2-1.3,2.5,0.5,3.6c0.8,0.5,0.6,1.5,0.5,2.4c-0.9-0.6-1.7-0.8-2.5,0.3c-1.4,2.2-0.5,6.3,1.8,8c-0.2,1.3-2.1,3.7,1.6,2.4&#10;&#9;&#9;c0.9-0.3,1,0.4,1.2,1.1c0.5,1.4,0.2,2.7,0,4.1c0.5,1.9-1.1,2.1-2.3,2.6c-8.3,3.6-16.9,5.7-25.6,7.9c-18.1,4.5-36.1,8.8-54.5,11.7&#10;&#9;&#9;c-11.9,1.9-23.9,3.3-36,4.2c-6.5,0.5-13,1-19.6,1.3c-5.4,0.2-5.8-0.2-5.9-5.6c-0.3-25.5-0.7-51.1,0.1-76.6&#10;&#9;&#9;c0.7-20.5,1.6-41,6.5-61.1c3.8-15.8,10.5-29.9,24-39.9c5.6-4.2,11.8-7.4,18.6-9.3c2.4,0.9,4.9-0.1,7.3,0c2.3,0.1,2.2-1.1,1.4-2.7&#10;&#9;&#9;c7.1-2.3,14.5-3.3,22-3.9c0.1,0.7-0.2,1.7,0.9,1.7c1.3,0.1,1-1.1,1.1-1.8c0.9-0.4,1.8-0.6,2.7-0.4c0.7,0.6,1.3,0.6,1.9-0.1&#10;&#9;&#9;c1.3,0,2.7-0.1,4-0.1c0.5,1.8-0.8,2.5-2,3.3c-0.4,0-0.9,0-1.3,0c-0.4-0.6-0.5-1.8-1.3-1.7c-1,0.1-0.6,1.5-1.3,2.1&#10;&#9;&#9;c-0.9,0.3-1.9,0.5-2.8,1c-1.1,0.6-1.2,1.6-0.1,2.3c2.2,1.4,8.3-0.1,10.1-2.4c0-2.2,1.8-2.5,3.2-2.6c3.6-0.2,7.1-0.1,10.7-0.1&#10;&#9;&#9;c-2.4,0.2-1.7,1.5-1.2,2.8c-0.1,0.9-0.3,1.9,0.6,2.4c3.7,1.9,7.1,4.7,11.6,3.1c-1.1-2.4-3-3.6-5.1-4.6c0.8-1.1,0.1-1.9-0.7-2.7&#10;&#9;&#9;c1.5-0.4,2.9-0.7,4.4-1c1.6,1.7,4,1.1,5.9,2.1c7,3.6,11,9.7,14.1,16.6c5.1,11.2,7.6,23.1,9,35.2c1.1,8.9,2.2,17.8,2,26.8&#10;&#9;&#9;c-2.8,0.2-2.3,3.3-3.9,4.5c-0.7-0.9-0.9-2.6-2.6-2c-1.3,0.4-1.4,1.8-1.6,3c-0.7,3.2,1,5.8,2.2,8.4c0,1.1,0,2.1,1.5,2&#10;&#9;&#9;c0.4,0,0.9-0.2,0.9-0.8c0.1-1.4-1.1-1-1.9-1.2c-0.2-2.6,1.8-4.7,1.5-7.3c0.1-0.1,0.2-0.1,0.2-0.2c0-0.2-0.1-0.3-0.2-0.5&#10;&#9;&#9;c0-0.2,0-0.5,0-0.7c3.8,1,1.9,3.7,1.3,5.5c-0.5,1.9-0.4,3.3,0.4,4.9c1.2-0.7,0.6-1.7,0.8-2.5c0.9-3,0-6.3,1.4-9.3&#10;&#9;&#9;c0.8,4,0.5,8,0.4,12c-0.7,0.9-0.2,1.9-0.5,2.8c-0.6,2.2-0.7,4.7-2.5,6.4c-3.9-0.3-3,2.8-3.2,4.8c-0.3,3,1.9,5.5,2.4,8.4&#10;&#9;&#9;c1.5,1.5,1.9,3,1.4,5.3c-0.5,2.5-0.1,5.3-0.2,7.9C968.7,737.3,969.5,737.6,970.7,737.6z M885.1,611.8c-2.1-2.5-4.3-2.7-6.7-0.5&#10;&#9;&#9;c-1.2,1.1-1.3,2,0.5,2.5c0.1,1.2-2,1.6-1.3,2.8c0.8,1.3,2.4,0.5,3.7,0.4c3.7-0.2,6.8-1.4,8.1-5.5&#10;&#9;&#9;C887.9,611.5,886.5,611.6,885.1,611.8z M840.4,726.5c1.1-0.7,1.9-2.2,3.2-1.4c1.3,0.7,0.6,2.2,0.5,3.4c-0.8,15.4-1.5,30.8-2.4,46.2&#10;&#9;&#9;c-0.4,6.6,0.7,8.5,7,11c2,0.8,3.9,1.6,5.9,2.3c3.8,1.5,7.9,2,11.6,1.4c17.8-3.1,35.5-6.6,53.2-10.3c11.1-2.3,22-5,33-7.4&#10;&#9;&#9;c3.9-0.8,4.4-1.4,2.7-5c-0.3-0.7-0.1-1.3-0.1-1.9c-0.5-7.3-0.9-14.6-1.5-21.9c-0.7-7-0.8-7,6.4-7.8c1.5-0.2,3.5-0.6,3.3-2.1&#10;&#9;&#9;c-0.6-6.5,2.1-13.4-2.1-19.6c-2.1-3.1-4.4-6.1-7.1-8.8c-2-2-4.3-2.9-7.2-2.8c-9.2,0.1-18.3,1.1-27.4,2.7&#10;&#9;&#9;c-19.7,3.4-39.6,6.2-59,11.3c-6.6,1.7-13.1,3.5-18.5,7.9C841.1,724.2,839.7,724.5,840.4,726.5z M832.5,742.1&#10;&#9;&#9;c3.2-4.4,2.7-9,1.5-13.7c-0.1-0.6-0.3-1.3-1.2-1.4c-1-0.2-1.4,0.6-1.6,1.3C829.8,733,828.8,737.7,832.5,742.1z M963.7,677.2&#10;&#9;&#9;c2.4-5.1,2.4-10.1,1.1-15.2c-0.2-0.8-0.4-1.6-1.4-1.6c-0.8,0-1,0.9-1.1,1.4C961,667.1,960.6,672.3,963.7,677.2z M962.6,652.3&#10;&#9;&#9;c3-3.7,1.4-7.1-0.3-10.5c-0.6-1.1-1.3-2.2-2.8-1.7c-1.4,0.5-1.4,1.9-1.3,3.1C958.3,646.9,960.3,649.6,962.6,652.3z M831.3,768.3&#10;&#9;&#9;c2.8-3.5,2.5-7.4,1.7-11.2c-0.2-1-0.6-2.1-1.8-2.1c-1.2,0-1.5,1.2-1.7,2.1C828.8,761,828.4,764.9,831.3,768.3z M834.2,782.4&#10;&#9;&#9;c0-1.9,0.1-3.6-0.6-5.1c-0.7-1.4-1.7-1.7-2.4-0.3c-1.3,3-1.8,6.1-1.3,9.4c0.1,0.9,0.7,1.7,1.7,1.8c1.1,0.2,1.5-0.7,1.9-1.5&#10;&#9;&#9;C834.4,785.3,834.1,783.7,834.2,782.4z M841.3,650c3.1-3.8,5.1-7.8,6.1-12.6C842.6,638.6,840.3,644.7,841.3,650z M865.3,622.4&#10;&#9;&#9;c-5.1-0.4-11,4.4-10.8,9.5c1.4-2.8,3.7-3.5,5.6-4.6C862.2,626.1,864.5,625.3,865.3,622.4z M832.7,715.3c2.4-2.9,2.6-6.1,1.9-9.3&#10;&#9;&#9;c-0.2-0.9-0.3-2.4-1.8-2.3c-1.3,0.1-1.7,1.3-1.9,2.4C830.3,709.3,830.5,712.4,832.7,715.3z M835.5,690.5c1.3-2.5,3.3-4.3,2.8-7.3&#10;&#9;&#9;c-0.2-1.4-0.2-2.8-1.9-3c-1.9-0.2-2.3,1.3-2.7,2.7C832.8,685.7,834.5,687.8,835.5,690.5z M954.5,627.2c0.3-2.4,1.8-4.7,0.2-7&#10;&#9;&#9;c-1.1-1.5-2.4-3.7-4.4-2.3c-1.8,1.3-0.3,3.3,0.7,4.6C952.1,624.1,953.8,625.2,954.5,627.2z M838.6,668.3c0.7-2.7,2.3-4.5,2.6-6.8&#10;&#9;&#9;c0.2-1.4,0.6-3.2-1-3.7c-1.5-0.4-2,1.4-2.5,2.5C836.4,663,837.1,665.5,838.6,668.3z" transform="matrix(1, 0, 0, 1, -250.4156935348658, -189.3024357686927)"/><path id="XMLID_755_" fill="#D6393C" d="M746.1,768.1c0.9-5.9,3.8-11.1,6.8-16.1c4.7-7.9,9.6-15.7,14.4-23.5&#10;&#9;&#9;c4-6.5,5.7-13.7,6.3-21.2c1.3-16.2-0.2-32.3-2.3-48.4c-2.3-18-5.4-35.9-8.2-53.9c-0.9-6.1-0.1-12,1.3-18c0.6-2.4,1.9-2.9,4.1-2.5&#10;&#9;&#9;c5.9,1.1,9.8,5,13,9.6c5.3,7.5,10.2,15.3,15.3,22.9c0.7,1.1,0.4,1.7-0.2,2.6c-7.8,13.4-12.2,28-15.1,43.1&#10;&#9;&#9;c-4.3,22-4.6,44.3-3.8,66.6c0.5,14.2,0.7,28.4,0.4,42.6c-0.1,2.7-0.3,5.3-0.5,8c-0.1,1.2-0.2,2.5-1.9,1.8&#10;&#9;&#9;c-6.5-2.9-13.8-3.2-20.4-5.7c-2.6-1-5.2-2-7.3-3.8C746.7,771.1,745.8,769.8,746.1,768.1z" transform="matrix(1, 0, 0, 1, -250.4156935348658, -189.3024357686927)"/><path id="XMLID_754_" fill="#EB7076" d="M919.8,594c-14.6,0.9-29,2.2-43,6.3c-18,5.3-33.3,14.4-43,31.2c-6.6,11.5-10.2,24-12.3,37&#10;&#9;&#9;c-3.4,21.9-4.1,43.9-4.5,66c0,2.4-0.3,3.1-2.6,1.7c-3.8-2.4-7.9-4-12.1-5.4c-1.4-0.5-2-1.2-2.2-2.8c-2.9-31.2,4.8-60,18.9-87.5&#10;&#9;&#9;c12.3-23.8,31.7-39.1,56.9-47.6c5-1.7,9.9-2.5,15.2-2.2C900.8,591.4,910.3,592.3,919.8,594z" transform="matrix(1, 0, 0, 1, -250.4156935348658, -189.3024357686927)"/><path id="XMLID_753_" fill="#EB7076" d="M865.8,591.1c-2.9,1.3-6.2,2.7-9.4,4.2c-18.3,8.8-32,22.5-41.8,40.1&#10;&#9;&#9;c-10.4,18.7-17.2,38.6-20.2,59.8c-1.5,10.1-1.4,20.3,1,30.4c0.5,2.2,0.1,3-2.4,2.7c-8-1.1-8-1-8.1-9c-0.2-22,0.9-43.9,6.1-65.4&#10;&#9;&#9;c4-16.7,10.5-32.2,22.4-45c9.3-10.1,21-15.6,34.2-17.7C853.6,590.3,859.9,591.1,865.8,591.1z" transform="matrix(1, 0, 0, 1, -250.4156935348658, -189.3024357686927)"/><path id="XMLID_749_" fill="#F07078" d="M817.6,782.4c0,5-0.1,10,0,15c0.1,2.1-0.9,2.4-2.6,2c-10.9-2-20.8-6.2-29.2-13.6&#10;&#9;&#9;c-1.1-1-1.9-2-1.7-3.7c2.3-16.3,1.6-32.8,1.3-49.2c0-2.2,0.2-2.9,2.6-2.1c9.3,3.1,18.5,6.2,26.8,11.6c1.6,1,2.3,2.1,2.3,4&#10;&#9;&#9;C817.2,758.5,818.7,770.4,817.6,782.4z M800,744.8c-1.9-3.9-4.9-5.8-8.8-6.6c-0.9-0.2-2.1-0.3-2.6,0.9c-0.5,1.3,0.3,2.1,1.2,2.8&#10;&#9;&#9;C792.9,744,796.3,744.5,800,744.8z M806.6,744.9c-1.5,0.1-3.1-0.1-3.5,1.5c-0.4,1.7,1.4,2,2.5,2.6c2,0.9,4.2,1.6,6.4,0.5&#10;&#9;&#9;c0.8-0.4,0.6-1.1,0.3-1.7C811.1,745.1,808.7,745.1,806.6,744.9z" transform="matrix(1, 0, 0, 1, -250.4156935348658, -189.3024357686927)"/><path id="XMLID_748_" fill="#EB7076" d="M830.6,588.8c-13,5.1-22.3,14.3-30.5,25.3c-4.4-7.2-8.7-14.3-13.1-21.2&#10;&#9;&#9;c-2.5-4-5.4-7.5-9.4-10.2c-2.7-1.8-5.5-3.3-8.9-3.2c-1.6,0-2.3-0.3-1.5-2c2.2-5.2,5.2-9.7,9.9-13.1c3.9-2.8,8-3,12.2-0.9&#10;&#9;&#9;c7.2,3.5,12.9,8.9,18.9,13.9c3.3,2.7,6.7,5.4,10.5,7.5c2.5,1.3,5,2.5,7.9,2.3C828.1,587,829.3,587.7,830.6,588.8z" transform="matrix(1, 0, 0, 1, -250.4156935348658, -189.3024357686927)"/><path id="XMLID_747_" fill="#EB7076" d="M896.8,584.4c-0.1,0.7-0.8,0.6-1.5,0.5c-10.1-1.4-20.3-1.3-30.5-1.1&#10;&#9;&#9;c-2.5,0.1-4.2-0.5-6-2.5c-4.5-4.9-8.9-10-15-13.1c-1.1-0.5-1-1.2-0.8-2.2c1.8-7.4,7.7-12.6,15.4-13.7c1.9-0.3,3,0.3,4.2,1.9&#10;&#9;&#9;c6.1,8.1,13,15.4,21.1,21.5c3.6,2.7,7.9,4,11.5,6.7C895.9,583,896.8,583.1,896.8,584.4z" transform="matrix(1, 0, 0, 1, -250.4156935348658, -189.3024357686927)"/><path id="XMLID_746_" fill="#D6393C" d="M854.4,584.2c-3.7,0.5-6.8,0.9-10,1.3c-1.3,0.2-1.9-0.1-2.3-1.6c-0.7-3.2-0.5-6.4-0.5-9.6&#10;&#9;&#9;c0-0.7,0.2-1.4,1.1-1.3c1.3,0.1,2.6,0.1,3.6,1.3C848.8,577.5,851.4,580.6,854.4,584.2z" transform="matrix(1, 0, 0, 1, -250.4156935348658, -189.3024357686927)"/><path id="XMLID_745_" fill="#EB7076" d="M967.4,747.4c1,1,2,1.9,3,2.9c-0.3,7.1-0.6,14.1-0.9,21.2c0,1-0.4,1.7-1.2,2.2&#10;&#9;&#9;c0.2-1.4,0.5-2.7,0-4.1c-0.2-0.6-0.3-1.4-1.2-1.1c-3.7,1.2-1.8-1.1-1.6-2.4l0,0c1-0.1,1.8-0.2,0.6-1.3c0.6-2.3,1.1-4.7,0.1-7&#10;&#9;&#9;c0.1-0.9,0.3-1.9-0.5-2.4c-1.8-1.1-0.7-2.4-0.5-3.6c0.4,0.2,0.9,0.8,1.1-0.2C966.5,750.3,966.9,748.8,967.4,747.4z" transform="matrix(1, 0, 0, 1, -250.4156935348658, -189.3024357686927)"/><path id="XMLID_744_" fill="#EB7076" d="M912.8,605c1.2-0.8,2.5-1.5,2-3.3c8.4-0.7,16.7-0.7,24.9,1.9c-1.4,0.3-2.8,0.7-4.4,1&#10;&#9;&#9;c0.8,0.8,1.5,1.6,0.7,2.7c-2.4-0.5-4.6-1.8-7.2-0.8c-0.5-1.3-1.2-2.6,1.2-2.8c-3.6,0-7.1-0.1-10.7,0.1c-1.5,0.1-3.3,0.3-3.2,2.6&#10;&#9;&#9;C915,605.8,913.9,605.4,912.8,605z" transform="matrix(1, 0, 0, 1, -250.4156935348658, -189.3024357686927)"/><path id="XMLID_743_" fill="#EB7076" d="M968.2,709.5c1.8-1.8,1.9-4.2,2.5-6.4c0.3-0.9-0.2-2,0.5-2.8c0.2,11.5,0.2,23.1-0.5,34.6&#10;&#9;&#9;c-0.1,0.1-0.2,0.1-0.2,0.2c0.1,0.2,0.1,0.3,0.2,0.5c0,0.7,0,1.3,0,2c-1.1,0-1.9-0.3-1.9-1.6c0-2.6-0.4-5.4,0.2-7.9&#10;&#9;&#9;c0.5-2.3,0.1-3.8-1.4-5.3C969.6,718.5,971.5,714.1,968.2,709.5z" transform="matrix(1, 0, 0, 1, -250.4156935348658, -189.3024357686927)"/><path id="XMLID_742_" fill="#EB7076" d="M970.8,688.3c-1.3,3-0.5,6.2-1.4,9.3c-0.2,0.8,0.4,1.8-0.8,2.5c-0.8-1.6-1-3-0.4-4.9&#10;&#9;&#9;c0.5-1.8,2.4-4.5-1.3-5.5c0-0.3,0-0.6-0.1-0.8c1.6-1.2,1.1-4.3,3.9-4.5C970.9,685.6,971.2,686.9,970.8,688.3z" transform="matrix(1, 0, 0, 1, -250.4156935348658, -189.3024357686927)"/><path id="XMLID_741_" fill="#EB7076" d="M882.1,606.3c0.8,1.6,0.9,2.7-1.4,2.7c-2.4-0.1-4.9,0.9-7.3,0&#10;&#9;&#9;C876.2,607.7,879.1,606.7,882.1,606.3z" transform="matrix(1, 0, 0, 1, -250.4156935348658, -189.3024357686927)"/><path id="XMLID_740_" fill="#EB7076" d="M906.1,602.3c-0.1,0.8,0.2,1.9-1.1,1.8c-1.1-0.1-0.8-1-0.9-1.7&#10;&#9;&#9;C904.8,602.4,905.5,602.3,906.1,602.3z" transform="matrix(1, 0, 0, 1, -250.4156935348658, -189.3024357686927)"/><path id="XMLID_739_" fill="#EB7076" d="M970.6,745.7c-1.9-1.2-1.3-2.3,0.1-3.4C970.6,743.4,970.6,744.5,970.6,745.7z" transform="matrix(1, 0, 0, 1, -250.4156935348658, -189.3024357686927)"/><path id="XMLID_738_" fill="#EB7076" d="M910.8,601.8c-0.6,0.7-1.2,0.7-1.9,0.1C909.5,601.8,910.1,601.8,910.8,601.8z" transform="matrix(1, 0, 0, 1, -250.4156935348658, -189.3024357686927)"/><path id="XMLID_737_" fill="#F07078" d="M970.7,735.6c-0.1-0.2-0.2-0.3-0.2-0.5c0,0,0.1-0.1,0.2-0.2&#10;&#9;&#9;C970.8,735.1,970.8,735.3,970.7,735.6z" transform="matrix(1, 0, 0, 1, -250.4156935348658, -189.3024357686927)"/><path id="XMLID_732_" fill="#220F0F" d="M840.4,726.5c-0.7-2,0.7-2.3,1.6-3.1c5.4-4.4,11.9-6.2,18.5-7.9c19.4-5.1,39.3-7.9,59-11.3&#10;&#9;&#9;c9.1-1.6,18.2-2.5,27.4-2.7c2.9,0,5.2,0.8,7.2,2.8c2.7,2.7,4.9,5.7,7.1,8.8c4.2,6.2,1.5,13.1,2.1,19.6c0.1,1.5-1.8,2-3.3,2.1&#10;&#9;&#9;c-7.2,0.8-7.1,0.8-6.4,7.8c0.7,7.3,1,14.6,1.5,21.9c0,0.6-0.2,1.2,0.1,1.9c1.7,3.6,1.2,4.2-2.7,5c-11,2.4-22,5.2-33,7.4&#10;&#9;&#9;c-17.7,3.6-35.4,7.1-53.2,10.3c-3.7,0.7-7.9,0.1-11.6-1.4c-2-0.8-3.9-1.6-5.9-2.3c-6.3-2.5-7.4-4.3-7-11&#10;&#9;&#9;c0.9-15.4,1.7-30.8,2.4-46.2c0.1-1.1,0.7-2.6-0.5-3.4C842.3,724.3,841.5,725.8,840.4,726.5z M852,721.7c4.8,3.9,6,5.9,7.8,11.7&#10;&#9;&#9;c1.4,4.5,1.9,9.1,2.1,13.8c0.1,3.5,1.7,3.4,4.1,2.8c29.9-7.5,60.6-11.7,90-21.1c2.9-0.9,3.3-2.3,2.5-4.3c-0.7-1.7-1-3.4-1.6-5&#10;&#9;&#9;c-1.5-4.6-4.4-8.3-8-11.2c-2.4-1.9-5.8-0.7-8.7-0.8c-2.4-0.1-4.9,0.1-7.3,0.5c-9.8,1.4-19.5,2.9-29.2,4.3&#10;&#9;&#9;C886.4,714.8,869.3,717.6,852,721.7z M949.3,740.4c0.3-2.7-0.9-2.9-3.2-2.3c-14.1,3.9-28.5,6.4-42.8,9.5&#10;&#9;&#9;c-13.1,2.9-26.2,5.8-39.2,8.7c-1.1,0.2-2.5,0.1-2.3,2c0.3,4.1,0.6,8.2,0.7,12.3c0.1,4.5,0.9,9-0.8,13.5c-0.6,1.7,0.6,2.5,2.3,2&#10;&#9;&#9;c2.2-0.6,4.4-1.4,6.7-1.9c24.2-5.4,48.7-9.3,72.7-15.8c1.8-0.5,4.1-0.3,5.4-1.3c1.8-1.4-0.2-3.5-0.2-5.4&#10;&#9;&#9;C948.6,754.5,948.6,747.5,949.3,740.4z M848,765.1c0,2.1,0,4.2,0,6.3c0.2,8.6-1.5,6.6,7.1,10.3c1.6,0.7,2.4,0.8,2.4-1.4&#10;&#9;&#9;c0-7.5-0.3-15.1,1.2-22.5c0.1-0.4,0.1-1.1-0.2-1.3c-3.3-2.4-2.2-6-2.5-9.2c-0.6-6.3-0.6-12.6-3.3-18.5c-1.1-2.4-2.8-3.9-5.5-4.3&#10;&#9;&#9;c-1.3-0.2-1.9-0.1-1.6,1.5C848.4,738.9,847.3,752.1,848,765.1z" transform="matrix(1, 0, 0, 1, -250.4156935348658, -189.3024357686927)"/><path id="XMLID_731_" fill="#220F0F" d="M832.5,742.1c-3.7-4.4-2.7-9.1-1.2-13.9c0.2-0.7,0.6-1.5,1.6-1.3c0.8,0.1,1,0.8,1.2,1.4&#10;&#9;&#9;C835.2,733.1,835.7,737.7,832.5,742.1z" transform="matrix(1, 0, 0, 1, -250.4156935348658, -189.3024357686927)"/><path id="XMLID_730_" fill="#220F0F" d="M963.7,677.2c-3.1-4.9-2.7-10.1-1.4-15.3c0.1-0.6,0.4-1.4,1.1-1.4c1-0.1,1.2,0.8,1.4,1.6&#10;&#9;&#9;C966.1,667.1,966,672.2,963.7,677.2z" transform="matrix(1, 0, 0, 1, -250.4156935348658, -189.3024357686927)"/><path id="XMLID_729_" fill="#331616" d="M962.6,652.3c-2.3-2.7-4.3-5.4-4.5-9.1c-0.1-1.2-0.1-2.6,1.3-3.1c1.5-0.6,2.3,0.6,2.8,1.7&#10;&#9;&#9;C964,645.2,965.6,648.7,962.6,652.3z" transform="matrix(1, 0, 0, 1, -250.4156935348658, -189.3024357686927)"/><path id="XMLID_728_" fill="#331616" d="M831.3,768.3c-2.9-3.5-2.6-7.3-1.8-11.2c0.2-1,0.5-2.1,1.7-2.1c1.2,0,1.6,1.1,1.8,2.1&#10;&#9;&#9;C833.8,761,834.1,764.8,831.3,768.3z" transform="matrix(1, 0, 0, 1, -250.4156935348658, -189.3024357686927)"/><path id="XMLID_727_" fill="#331616" d="M928.8,606.4c2.5-0.9,4.8,0.3,7.2,0.8c2.1,1,4,2.2,5.1,4.6c-4.5,1.7-8-1.2-11.6-3.1&#10;&#9;&#9;C928.5,608.3,928.7,607.3,928.8,606.4z" transform="matrix(1, 0, 0, 1, -250.4156935348658, -189.3024357686927)"/><path id="XMLID_726_" fill="#331616" d="M968.2,709.5c3.3,4.6,1.3,8.9-0.7,13.2c-0.5-2.9-2.8-5.4-2.4-8.4&#10;&#9;&#9;C965.3,712.4,964.3,709.3,968.2,709.5z" transform="matrix(1, 0, 0, 1, -250.4156935348658, -189.3024357686927)"/><path id="XMLID_725_" fill="#331616" d="M834.2,782.4c-0.1,1.3,0.2,2.9-0.6,4.3c-0.5,0.8-0.8,1.7-1.9,1.5c-1-0.1-1.6-0.9-1.7-1.8&#10;&#9;&#9;c-0.5-3.2,0-6.4,1.3-9.4c0.6-1.4,1.7-1.2,2.4,0.3C834.3,778.9,834.2,780.5,834.2,782.4z" transform="matrix(1, 0, 0, 1, -250.4156935348658, -189.3024357686927)"/><path id="XMLID_724_" fill="#331616" d="M967.4,747.4c-0.4,1.4-0.9,2.8-1.3,4.2c-0.3,0.9-0.7,0.4-1.1,0.2c-0.2-3.6-1.9-7-1.5-10.7&#10;&#9;&#9;c0.1-1.2-0.1-2.8,1.2-3c1.3-0.2,1.7,1.4,2.2,2.5C967.7,742.8,967.3,745.1,967.4,747.4z" transform="matrix(1, 0, 0, 1, -250.4156935348658, -189.3024357686927)"/><path id="XMLID_723_" fill="#331616" d="M885.1,611.8c1.4-0.1,2.8-0.3,4.3-0.4c-1.3,4.1-4.4,5.3-8.1,5.5c-1.2,0.1-2.8,0.8-3.7-0.4&#10;&#9;&#9;c-0.8-1.2,1.4-1.5,1.3-2.8l0,0c1.1,0.3,1.8-0.4,2.6-0.9C882.8,612.9,884,612.5,885.1,611.8z" transform="matrix(1, 0, 0, 1, -250.4156935348658, -189.3024357686927)"/><path id="XMLID_722_" fill="#331616" d="M966.8,688.8c0,0.3,0,0.6,0.1,0.8c0,0.2,0,0.5,0,0.7c-0.1,0.2-0.1,0.4,0,0.6&#10;&#9;&#9;c0.3,2.6-1.8,4.7-1.5,7.3c-0.2,0.1-0.4,0.1-0.6,0c-1.2-2.7-3-5.2-2.2-8.4c0.3-1.2,0.3-2.6,1.6-3&#10;&#9;&#9;C965.8,686.2,966.1,687.9,966.8,688.8z" transform="matrix(1, 0, 0, 1, -250.4156935348658, -189.3024357686927)"/><path id="XMLID_721_" fill="#331616" d="M841.3,650c-0.9-5.3,1.3-11.3,6.1-12.6C846.4,642.2,844.3,646.2,841.3,650z" transform="matrix(1, 0, 0, 1, -250.4156935348658, -189.3024357686927)"/><path id="XMLID_720_" fill="#331616" d="M865.3,622.4c-0.8,2.8-3.1,3.7-5.2,4.9c-2,1.1-4.3,1.8-5.6,4.6&#10;&#9;&#9;C854.4,626.9,860.2,622.1,865.3,622.4z" transform="matrix(1, 0, 0, 1, -250.4156935348658, -189.3024357686927)"/><path id="XMLID_719_" fill="#331616" d="M832.7,715.3c-2.1-2.9-2.3-6-1.8-9.2c0.2-1.1,0.5-2.3,1.9-2.4c1.6-0.1,1.7,1.4,1.8,2.3&#10;&#9;&#9;C835.2,709.2,835.1,712.3,832.7,715.3z" transform="matrix(1, 0, 0, 1, -250.4156935348658, -189.3024357686927)"/><path id="XMLID_718_" fill="#331616" d="M835.5,690.5c-1-2.6-2.7-4.8-1.8-7.6c0.5-1.4,0.8-2.9,2.7-2.7c1.7,0.2,1.7,1.7,1.9,3&#10;&#9;&#9;C838.7,686.2,836.8,688,835.5,690.5z" transform="matrix(1, 0, 0, 1, -250.4156935348658, -189.3024357686927)"/><path id="XMLID_717_" fill="#331616" d="M954.5,627.2c-0.7-2-2.4-3.1-3.5-4.6c-1-1.4-2.5-3.4-0.7-4.6c2-1.4,3.4,0.8,4.4,2.3&#10;&#9;&#9;C956.3,622.5,954.8,624.8,954.5,627.2z" transform="matrix(1, 0, 0, 1, -250.4156935348658, -189.3024357686927)"/><path id="XMLID_716_" fill="#331616" d="M912.8,605c1.1,0.4,2.2,0.9,3.3,1.3c-1.8,2.3-7.9,3.8-10.1,2.4c-1.2-0.8-1-1.7,0.1-2.3&#10;&#9;&#9;c0.8-0.5,1.8-0.6,2.8-1c0.9,0.1,1.8,0.1,2.6-0.4C911.9,605,912.3,605,912.8,605z" transform="matrix(1, 0, 0, 1, -250.4156935348658, -189.3024357686927)"/><path id="XMLID_715_" fill="#331616" d="M838.6,668.3c-1.5-2.8-2.2-5.3-0.9-8c0.6-1.2,1.1-3,2.5-2.5c1.6,0.5,1.2,2.3,1,3.7&#10;&#9;&#9;C840.9,663.8,839.3,665.6,838.6,668.3z" transform="matrix(1, 0, 0, 1, -250.4156935348658, -189.3024357686927)"/><path id="XMLID_714_" fill="#331616" d="M966,757.8c1,2.4,0.6,4.7-0.1,7c-0.2,0.4-0.4,0.9-0.6,1.3l0,0c-2.3-1.7-3.2-5.8-1.8-8&#10;&#9;&#9;C964.2,757,965.1,757.2,966,757.8z" transform="matrix(1, 0, 0, 1, -250.4156935348658, -189.3024357686927)"/><path id="XMLID_713_" fill="#EB7076" d="M885.1,611.8c-1.1,0.7-2.3,1.2-3.7,1.1c-1.4-1.1-2.1-0.4-2.6,0.9l0,0&#10;&#9;&#9;c-1.8-0.5-1.7-1.4-0.5-2.5C880.8,609.1,883,609.2,885.1,611.8z" transform="matrix(1, 0, 0, 1, -250.4156935348658, -189.3024357686927)"/><path id="XMLID_712_" fill="#EB7076" d="M964.8,698.2c0.2,0,0.4,0,0.6,0c0.8,0.2,1.9-0.2,1.9,1.2c0,0.5-0.5,0.7-0.9,0.8&#10;&#9;&#9;C964.8,700.3,964.7,699.3,964.8,698.2z" transform="matrix(1, 0, 0, 1, -250.4156935348658, -189.3024357686927)"/><path id="XMLID_711_" fill="#EB7076" d="M911.5,605c-0.8,0.5-1.7,0.5-2.6,0.4c0.7-0.6,0.3-2,1.3-2.1&#10;&#9;&#9;C911,603.2,911.1,604.4,911.5,605z" transform="matrix(1, 0, 0, 1, -250.4156935348658, -189.3024357686927)"/><path id="XMLID_710_" fill="#EB7076" d="M966.9,690.9c-0.1-0.2-0.1-0.4,0-0.6c0.1,0.2,0.2,0.3,0.2,0.5&#10;&#9;&#9;C967.1,690.8,967,690.8,966.9,690.9z" transform="matrix(1, 0, 0, 1, -250.4156935348658, -189.3024357686927)"/><path id="XMLID_709_" fill="#331616" d="M800,744.8c-3.7-0.4-7.1-0.9-10.1-2.9c-1-0.7-1.7-1.5-1.2-2.8c0.5-1.2,1.6-1.1,2.6-0.9&#10;&#9;&#9;C795.1,739,798.2,740.9,800,744.8z" transform="matrix(1, 0, 0, 1, -250.4156935348658, -189.3024357686927)"/><path id="XMLID_708_" fill="#331616" d="M806.6,744.9c2.1,0.3,4.5,0.3,5.7,2.8c0.3,0.6,0.5,1.3-0.3,1.7c-2.2,1-4.3,0.4-6.4-0.5&#10;&#9;&#9;c-1.1-0.5-2.9-0.9-2.5-2.6C803.4,744.7,805.1,744.9,806.6,744.9z" transform="matrix(1, 0, 0, 1, -250.4156935348658, -189.3024357686927)"/><path id="XMLID_707_" fill="#F07078" d="M965.3,766.1c0.2-0.4,0.4-0.9,0.6-1.3C967.2,765.9,966.3,766.1,965.3,766.1z" transform="matrix(1, 0, 0, 1, -250.4156935348658, -189.3024357686927)"/><path id="XMLID_706_" fill="#F07078" d="M852,721.7c17.3-4.1,34.4-7,51.6-9.5c9.8-1.4,19.5-3,29.2-4.3c2.4-0.3,4.9-0.5,7.3-0.5&#10;&#9;&#9;c2.9,0.1,6.4-1.1,8.7,0.8c3.6,2.9,6.5,6.6,8,11.2c0.5,1.7,0.9,3.4,1.6,5c0.8,2,0.4,3.4-2.5,4.3c-29.4,9.5-60.1,13.7-90,21.1&#10;&#9;&#9;c-2.4,0.6-4,0.7-4.1-2.8c-0.2-4.6-0.7-9.3-2.1-13.8C858.1,727.6,856.8,725.6,852,721.7z" transform="matrix(1, 0, 0, 1, -250.4156935348658, -189.3024357686927)"/><path id="XMLID_705_" fill="#F07078" d="M949.3,740.4c-0.7,7.1-0.7,14.2-0.7,21.3c0,1.9,2.1,4,0.2,5.4c-1.4,1-3.6,0.9-5.4,1.3&#10;&#9;&#9;c-24,6.5-48.5,10.5-72.7,15.8c-2.3,0.5-4.5,1.3-6.7,1.9c-1.7,0.4-2.9-0.3-2.3-2c1.7-4.5,0.9-9,0.8-13.5c-0.1-4.1-0.3-8.2-0.7-12.3&#10;&#9;&#9;c-0.2-2,1.2-1.8,2.3-2c13.1-2.9,26.2-5.8,39.2-8.7c14.3-3.1,28.7-5.6,42.8-9.5C948.4,737.4,949.6,737.7,949.3,740.4z" transform="matrix(1, 0, 0, 1, -250.4156935348658, -189.3024357686927)"/><path id="XMLID_704_" fill="#EB7076" d="M848,765.1c-0.7-13,0.3-26.2-2.3-39.1c-0.3-1.6,0.3-1.7,1.6-1.5c2.7,0.4,4.4,2,5.5,4.3&#10;&#9;&#9;c2.7,5.9,2.7,12.3,3.3,18.5c0.3,3.2-0.8,6.8,2.5,9.2c0.2,0.2,0.2,0.8,0.2,1.3c-1.5,7.5-1.2,15-1.2,22.5c0,2.2-0.8,2.1-2.4,1.4&#10;&#9;&#9;c-8.6-3.8-6.9-1.7-7.1-10.3C848,769.3,848,767.2,848,765.1z" transform="matrix(1, 0, 0, 1, -250.4156935348658, -189.3024357686927)"/><path id="XMLID_703_" fill="#F07078" d="M878.9,613.8c0.5-1.3,1.2-2,2.6-0.9C880.7,613.4,879.9,614,878.9,613.8z" transform="matrix(1, 0, 0, 1, -250.4156935348658, -189.3024357686927)"/></svg>