<?xml version="1.0" encoding="utf-8"?>
<svg id="master-artboard" viewBox="0 0 1400 980" version="1.1" xmlns="http://www.w3.org/2000/svg" x="0px" y="0px" width="1400px" height="980px" enable-background="new 0 0 1400 980">








<path id="XMLID_632_" fill="#171410" d="M975.6,394.4c-0.6,2,0.7,3.6,1.3,5.3c1.6,4.4,3.2,8.8,4.5,13.3c2.3,8.1,0.1,11.5-7.3,14.2&#10;&#9;&#9;c-15.4,5.5-31.3,9.4-47.1,13.6c-51.4,13.7-102.6,28.4-153.7,43c-15.4,4.4-30.8,8.7-46.5,12.2c-8.4,1.8-9.3,1.2-11.7-7.1&#10;&#9;&#9;c-4.4-15-8.8-30-13.2-45c-11.2-38.3-22.2-76.7-32.1-115.4c-1.8-6.9-3.2-13.9-4.1-21c-0.3-2.8-0.1-2.9,2.4-1.7&#10;&#9;&#9;c0.9,0.5,1.6-0.1,2.3-0.3c50.3-15.7,100.7-30.9,151.4-45.1c33.7-9.5,67.6-18.6,101.7-26.7c2.3-0.6,4.6-0.5,7-0.6&#10;&#9;&#9;c2.5-0.1,2.8,2.1,3.5,3.8c3,7.7,5.1,15.8,7.2,23.8c11.6,42.5,22.7,85.1,33.6,127.7C975.3,390.3,975.9,392.3,975.6,394.4z&#10;&#9;&#9; M927.9,240.2c-0.4,0.1-0.9,0.3-1.3,0.4c-17,3.7-33.8,8.3-50.7,12.7c-49.5,12.7-98.4,27.5-147.6,41.5&#10;&#9;&#9;c-18.7,5.3-37.1,11.5-56.2,15.4c-2.9,0.6-1.8,2.2-1.3,3.5c3.7,10.6,6.6,21.5,9.8,32.2c12,39.9,24,79.7,35.9,119.6&#10;&#9;&#9;c2.3,7.7,4.8,15.4,6.1,23.4c0.4,2.5,1.1,3.1,3.5,2.3c12.6-4.1,25.2-8,37.8-11.9c38.1-11.8,76.3-23.2,114.7-34&#10;&#9;&#9;c30.9-8.6,62.1-16.1,92.7-25.5c2.5-0.8,3.3-1.4,2.6-4.3c-2.2-8.8-5.7-17.1-8-25.7c-10.9-39.8-20.6-79.9-30.2-120&#10;&#9;&#9;c-2.1-8.9-3.9-17.8-5.9-26.7C929.6,242,929.9,240.3,927.9,240.2z" transform="matrix(1, 0, 0, 1, -168.50871763491614, 103.33081488768055)"/><path id="XMLID_611_" fill="#C69A5B" d="M927.9,240.2c2,0.1,1.7,1.8,1.9,2.8c2,8.9,3.8,17.8,5.9,26.7c9.6,40.1,19.3,80.2,30.2,120&#10;&#9;&#9;c2.4,8.6,5.9,17,8,25.7c0.7,2.9-0.1,3.5-2.6,4.3c-30.7,9.4-61.8,16.9-92.7,25.5c-38.4,10.8-76.6,22.2-114.7,34&#10;&#9;&#9;c-12.6,3.9-25.2,7.9-37.8,11.9c-2.5,0.8-3.1,0.2-3.5-2.3c-1.3-8-3.8-15.7-6.1-23.4c-11.9-39.9-23.9-79.8-35.9-119.6&#10;&#9;&#9;c-3.2-10.7-6.1-21.6-9.8-32.2c-0.5-1.3-1.6-2.9,1.3-3.5c19-3.9,37.5-10.1,56.2-15.4c49.1-14,98.1-28.8,147.6-41.5&#10;&#9;&#9;c16.9-4.3,33.7-9,50.7-12.7C927.1,240.5,927.5,240.3,927.9,240.2z M954.8,400.5c-0.1-0.4-0.4-1.3-0.6-2.2c-1.3-6-4-11.5-5-17.7&#10;&#9;&#9;c-2.3-13.2-6.4-26.1-9.9-39.1c-5.9-22.6-11.3-45.4-18.3-67.7c-2.6-8.4-2.7-8.4-11.3-6.3c-35.1,8.6-70,18-104.7,28.1&#10;&#9;&#9;c-35.6,10.4-71.1,21-106.6,31.5c-0.7,0.2-1.5,0.7-2,0.5c-3.7-1.6-2.9,0.9-2.6,2.9c1.2,8.5,3.1,16.8,5.4,25&#10;&#9;&#9;c9.2,34.2,19.3,68.2,29.4,102.2c0.7,2.5,1.6,4.9,2.5,7.3c1,2.3,2.6,3.1,5.3,2.5c9.3-2,18.4-4.3,27.6-6.9&#10;&#9;&#9;c49.6-13.9,99-28.2,148.8-41.4c11.6-3.1,23.3-6.2,34.7-10C952.7,407.2,954.8,404.8,954.8,400.5z" transform="matrix(1, 0, 0, 1, -168.50871763491614, 103.33081488768055)"/><path id="XMLID_608_" fill="#17190F" d="M954.8,400.5c0,4.3-2.1,6.7-7.4,8.5c-11.4,3.8-23.1,6.9-34.7,10&#10;&#9;&#9;c-49.8,13.2-99.2,27.5-148.8,41.4c-9.1,2.6-18.3,4.9-27.6,6.9c-2.7,0.6-4.3-0.2-5.3-2.5c-1-2.4-1.8-4.8-2.5-7.3&#10;&#9;&#9;c-10.1-34-20.2-68-29.4-102.2c-2.2-8.2-4.2-16.6-5.4-25c-0.3-2-1.1-4.4,2.6-2.9c0.5,0.2,1.3-0.3,2-0.5&#10;&#9;&#9;c35.5-10.5,71.1-21.1,106.6-31.5c34.7-10.1,69.6-19.5,104.7-28.1c8.6-2.1,8.7-2.1,11.3,6.3c7,22.3,12.3,45.1,18.3,67.7&#10;&#9;&#9;c3.4,13,7.6,25.9,9.9,39.1c1.1,6.2,3.8,11.7,5,17.7C954.4,399.1,954.6,400,954.8,400.5z M947.8,401c-0.1-0.5-0.3-1.1-0.4-1.7&#10;&#9;&#9;c-1.2-7.1-4.7-13.5-6.5-20.4c-8.7-34.6-17.8-69.1-24.9-104c-0.5-2.6-1.6-2.9-3.8-2.3c-7.5,1.9-15,3.7-22.5,5.6&#10;&#9;&#9;c-39.4,9.9-78.4,21.1-117.4,32.3c-24.2,6.9-48.2,14.3-72.6,20.3c-2.1,0.5-2.2,1.4-1.6,3.2c2.3,7.2,4.6,14.5,6.8,21.8&#10;&#9;&#9;c10.3,35.1,21.9,69.8,31.3,105.2c0.5,2,1.4,2.3,3.2,1.7c3.4-1.2,6.9-2.3,10.3-3.3c24.7-7.5,49.5-15,74.2-22.3&#10;&#9;&#9;c30.4-9,61-17.1,91.6-25.4c9.9-2.7,19.8-5.6,29.7-8.4C946.4,402.9,948.1,403.1,947.8,401z" transform="matrix(1, 0, 0, 1, -168.50871763491614, 103.33081488768055)"/><path id="XMLID_585_" fill="#62A76E" d="M947.8,401c0.3,2-1.4,1.9-2.5,2.2c-9.9,2.9-19.8,5.8-29.7,8.4&#10;&#9;&#9;c-30.6,8.3-61.2,16.4-91.6,25.4c-24.8,7.3-49.5,14.9-74.2,22.3c-3.5,1-6.9,2.1-10.3,3.3c-1.8,0.6-2.7,0.3-3.2-1.7&#10;&#9;&#9;c-9.4-35.4-21-70.1-31.3-105.2c-2.1-7.3-4.4-14.5-6.8-21.8c-0.6-1.8-0.5-2.7,1.6-3.2c24.4-6.1,48.5-13.4,72.6-20.3&#10;&#9;&#9;c39-11.2,78-22.4,117.4-32.3c7.5-1.9,15-3.6,22.5-5.6c2.2-0.6,3.3-0.3,3.8,2.3c7.1,35,16.1,69.4,24.9,104&#10;&#9;&#9;c1.7,6.9,5.3,13.3,6.5,20.4C947.5,399.9,947.7,400.5,947.8,401z M775.7,365.3c0-5.2-0.4-9.1-2.4-12.7c-2.3-4.1-7-6.1-10.3-4&#10;&#9;&#9;c-3.7,2.3-5.4,6-6.1,10.2c-0.2,1.1,0.3,2.2,1.4,2.6c1.1,0.3,1.7-0.5,2.2-1.4c0.4-0.6,0.7-1.2,1.1-1.8c1.3-1.8,1.7-5.2,4.5-4.5&#10;&#9;&#9;c2.7,0.7,2.9,3.9,3.2,6.5c0.1,0.7,0,1.4,0.1,2.1c0.3,4.7-0.9,9.3-2,13.8c-0.8,3.4,0.9,5.4,4.1,4.5c6.8-1.8,13.2-4.6,20-6.4&#10;&#9;&#9;c2-0.5,1.7-2.6,1.6-4.2c-0.1-2.1-1.7-1-2.6-1.1c-1.6-0.3-3.2,0.1-4.8,0.8c-2.8,1.2-5.7,2.1-8.5,3.3c-2,0.8-2.8,0.5-2.4-1.8&#10;&#9;&#9;C775.3,368.9,775.5,366.5,775.7,365.3z M859.6,335.8c0.9,4.3,1.7,8.2,2.6,12c0.6,2.3,1.6,4.8,4.7,4.1c3.1-0.7,2.5-3.3,2.1-5.4&#10;&#9;&#9;c-1.7-8.7-4.7-17.1-7.2-25.6c-0.4-1.4-1.2-2.7-3-2.4c-1.8,0.3-1.9,1.9-1.8,3.3c0.2,2.7-0.3,5.4-1.4,7.9c-0.7,1.6-1.7,3.3-3.6,3.4&#10;&#9;&#9;c-1.9,0.1-2.9-1.5-3.7-2.8c-1.5-2.3-2.8-4.9-4.2-7.3c-0.5-0.8-0.6-2.4-2-2c-0.9,0.3-1,1.5-1,2.4c-0.3,5.6,1.4,10.6,5.2,14.8&#10;&#9;&#9;c1.3,1.4,3.1,1.9,5,2.1C854.8,340.4,857.1,338.2,859.6,335.8z M886.9,338.3c0.6,4.6,2.7,5.8,6.8,3.9c2.3-1,4-2.7,5.3-4.9&#10;&#9;&#9;c3.1-5.1,1.6-9.4-4.1-11.1c-8.2-2.5-8.2-2.5-7.7-10.8c0-0.5,0.1-0.9,0.1-1.4c0-0.9,0.3-1.6,1.2-1.9c3.4-1.1,6.8-2.8,10.3-3.2&#10;&#9;&#9;c2.7-0.3,3.1-1.8,3.2-3.5c0.2-2.4-1.9-2.8-3.7-2.5c-5,0.7-9.7,2.5-13.9,5.4c-1.4,1-3.1,2.5-2.4,4.3c0.7,1.8,0.1,3.1-0.3,4.7&#10;&#9;&#9;c-1.7,7.1,0.8,11.4,7.7,13.7c0.9,0.3,1.8,0.4,2.7,0.7c0.7,0.2,1.4,0.4,1.4,1.3C893.8,335.1,888.8,338.8,886.9,338.3z M802.8,342.3&#10;&#9;&#9;c0.7-0.3,0.3-0.7,0.3-1.1c0.2-2,3.4-4.2,5.7-4.1c2.6,0.1,2.4,2.1,2.7,3.8c0.3,2.4-0.1,4.7-0.8,6.9c-0.4,1.5-0.9,3,0.5,4.2&#10;&#9;&#9;c1.4,1.2,2.9,0.4,4.3-0.1c1.3-0.5,2.6-1.2,4-1.4c3-0.4,5.8,0,7,3.2c1.1,3-1.3,4.5-3.5,5.7c-2.2,1.3-4.5,2.6-6.4,4.2&#10;&#9;&#9;c-0.6,0.5-1.5,1.1-1.1,2c0.3,0.9,1.3,0.8,2.1,0.9c3.9,0.3,7.4-0.8,10.6-3c3.6-2.6,5.1-6.4,4-10.4c-1-3.7-4.6-6.8-8.5-7.4&#10;&#9;&#9;c-2.1-0.3-4.6,0.9-6.1-0.6c-1.4-1.5-0.3-4-0.7-6.1c-0.7-3.5-3.7-6.3-7-6.3c-4,0.1-8,3.2-8.4,6.7&#10;&#9;&#9;C801.4,340.6,801.4,341.8,802.8,342.3z M734,360.2c0.7,7.7,3.2,15.5,5.3,23.4c0.6,2.4,2,4.6,4.9,3.9c3.2-0.9,2.9-3.6,2.1-6.1&#10;&#9;&#9;c-2.1-6.6-4.3-13.1-6.6-19.6c-0.6-1.6-1.5-3.2-2.3-4.7c-0.5-0.9-1.2-1.9-2.5-1.5c-1.2,0.3-0.9,1.5-1,2.4&#10;&#9;&#9;C734,358.5,734,359.1,734,360.2z" transform="matrix(1, 0, 0, 1, -168.50871763491614, 103.33081488768055)"/><path id="XMLID_566_" fill="#F2F6F1" d="M775.7,365.3c-0.2,1.2-0.4,3.5-0.8,5.8c-0.4,2.3,0.3,2.7,2.4,1.8c2.8-1.2,5.7-2.1,8.5-3.3&#10;&#9;&#9;c1.6-0.7,3.2-1.1,4.8-0.8c0.9,0.2,2.5-1,2.6,1.1c0.1,1.6,0.4,3.7-1.6,4.2c-6.8,1.8-13.3,4.6-20,6.4c-3.2,0.9-4.9-1.1-4.1-4.5&#10;&#9;&#9;c1-4.6,2.2-9.1,2-13.8c0-0.7,0-1.4-0.1-2.1c-0.4-2.5-0.5-5.8-3.2-6.5c-2.8-0.7-3.2,2.7-4.5,4.5c-0.4,0.6-0.7,1.2-1.1,1.8&#10;&#9;&#9;c-0.5,0.8-1.1,1.7-2.2,1.4c-1.1-0.4-1.6-1.5-1.4-2.6c0.6-4.2,2.3-7.9,6.1-10.2c3.3-2,8-0.1,10.3,4&#10;&#9;&#9;C775.3,356.2,775.7,360.2,775.7,365.3z" transform="matrix(1, 0, 0, 1, -168.50871763491614, 103.33081488768055)"/><path id="XMLID_565_" fill="#F2F6F1" d="M859.6,335.8c-2.5,2.4-4.7,4.7-8.3,4.4c-2-0.2-3.7-0.6-5-2.1c-3.8-4.2-5.5-9.1-5.2-14.8&#10;&#9;&#9;c0.1-0.9,0.1-2.2,1-2.4c1.4-0.4,1.5,1.1,2,2c1.4,2.4,2.6,5,4.2,7.3c0.9,1.3,1.9,3,3.7,2.8c2-0.1,2.9-1.8,3.6-3.4&#10;&#9;&#9;c1.1-2.5,1.6-5.1,1.4-7.9c-0.1-1.4,0-3,1.8-3.3c1.7-0.3,2.6,1.1,3,2.4c2.5,8.5,5.5,16.9,7.2,25.6c0.4,2.1,1,4.8-2.1,5.4&#10;&#9;&#9;c-3.1,0.7-4.1-1.8-4.7-4.1C861.2,343.9,860.5,340.1,859.6,335.8z" transform="matrix(1, 0, 0, 1, -168.50871763491614, 103.33081488768055)"/><path id="XMLID_564_" fill="#F2F6F1" d="M886.9,338.3c1.9,0.5,6.9-3.2,6.8-5.2c0-0.9-0.8-1.1-1.4-1.3c-0.9-0.3-1.8-0.4-2.7-0.7&#10;&#9;&#9;c-6.9-2.3-9.4-6.7-7.7-13.7c0.4-1.5,1-2.9,0.3-4.7c-0.7-1.8,1-3.3,2.4-4.3c4.2-2.9,8.9-4.7,13.9-5.4c1.8-0.3,3.9,0.1,3.7,2.5&#10;&#9;&#9;c-0.1,1.7-0.5,3.2-3.2,3.5c-3.5,0.4-6.9,2-10.3,3.2c-0.9,0.3-1.3,0.9-1.2,1.9c0,0.5,0,0.9-0.1,1.4c-0.5,8.3-0.5,8.3,7.7,10.8&#10;&#9;&#9;c5.7,1.7,7.2,6,4.1,11.1c-1.3,2.2-3,3.8-5.3,4.9C889.6,344.1,887.4,342.9,886.9,338.3z" transform="matrix(1, 0, 0, 1, -168.50871763491614, 103.33081488768055)"/><path id="XMLID_563_" fill="#F2F6F1" d="M802.8,342.3c-1.4-0.5-1.4-1.7-1.2-2.9c0.4-3.5,4.4-6.7,8.4-6.7c3.2,0,6.3,2.8,7,6.3&#10;&#9;&#9;c0.4,2.1-0.7,4.6,0.7,6.1c1.4,1.5,4,0.2,6.1,0.6c3.9,0.7,7.5,3.7,8.5,7.4c1,3.9-0.4,7.8-4,10.4c-3.2,2.2-6.6,3.4-10.6,3&#10;&#9;&#9;c-0.8-0.1-1.8,0-2.1-0.9c-0.4-0.9,0.5-1.5,1.1-2c2-1.7,4.2-2.9,6.4-4.2c2.1-1.2,4.5-2.7,3.5-5.7c-1.1-3.2-4-3.7-7-3.2&#10;&#9;&#9;c-1.4,0.2-2.6,0.9-4,1.4c-1.4,0.6-2.9,1.3-4.3,0.1c-1.4-1.2-1-2.7-0.5-4.2c0.7-2.3,1.1-4.6,0.8-6.9c-0.2-1.6-0.1-3.7-2.7-3.8&#10;&#9;&#9;c-2.3-0.1-5.5,2.2-5.7,4.1C803.1,341.6,803.5,342,802.8,342.3z" transform="matrix(1, 0, 0, 1, -168.50871763491614, 103.33081488768055)"/><path id="XMLID_562_" fill="#F2F6F1" d="M734,360.2c0-1.1,0-1.7,0-2.3c0.1-0.9-0.2-2,1-2.4c1.3-0.4,1.9,0.6,2.5,1.5&#10;&#9;&#9;c0.8,1.5,1.7,3.1,2.3,4.7c2.3,6.5,4.5,13,6.6,19.6c0.8,2.4,1.2,5.2-2.1,6.1c-2.9,0.8-4.3-1.5-4.9-3.9&#10;&#9;&#9;C737.2,375.7,734.7,367.9,734,360.2z" transform="matrix(1, 0, 0, 1, -168.50871763491614, 103.33081488768055)"/></svg>